<svg id="Layer_1" data-name="Layer 1" xmlns="http://www.w3.org/2000/svg" viewBox="0 0 1210 755"><defs><style>.cls-1{fill:#f7ac4a;}.cls-2{fill:#be873b;}.cls-3{fill:#afc1c9;}.cls-4{fill:#5eb030;}.cls-5{fill:#a44121;}.cls-6{fill:#7f3215;}.cls-7{fill:#e63231;}.cls-8{fill:#498a25;}.cls-9{fill:#b02924;}.cls-10{fill:#312782;}.cls-11{fill:#f5cd9d;}.cls-12{fill:#fff;}.cls-13{fill:#1d1d1b;}.cls-14{fill:#e3e3e2;}.cls-15{fill:#a54121;}</style></defs><title>burger</title><g id="Hojre"><path class="cls-1" d="M992.52,418.7c103.58-77.55,114.14-173.89,109.25-180.43s-23.38,79.21-127,156.76S796.07,474.49,801,481,888.93,496.25,992.52,418.7Z"/><path class="cls-2" d="M992.51,418.68C888.94,496.26,805.84,487.57,801,481c-1-1.38,1.47-2.57,7.1-4.3,22.8,4.47,96.19,1,184.46-65.08,86.59-64.81,108.15-142.7,110-170.39C1104.5,259.31,1088.24,347,992.51,418.68Z"/></g><g id="Venstre"><path class="cls-1" d="M202.59,419.58C99,342,88.44,245.69,93.34,239.15s23.38,79.21,127,156.76,178.73,79.46,173.83,86S306.18,497.13,202.59,419.58Z"/><path class="cls-2" d="M202.59,419.56c103.58,77.58,186.68,68.89,191.57,62.35,1-1.38-1.48-2.57-7.11-4.3-22.8,4.47-96.19,1-184.46-65.08C116,347.72,94.44,269.83,92.54,242.14,90.61,260.19,106.86,347.9,202.59,419.56Z"/><path class="cls-2" d="M268.94,459.88a300.15,300.15,0,0,0,34.45,13.9h70.33c-23-6.69-63.75-19.74-114.49-51.26"/></g><circle class="cls-1" cx="92.38" cy="218.18" r="38.88"/><circle class="cls-3" cx="514.56" cy="372.98" r="38.88"/><circle class="cls-1" cx="1105.62" cy="218.18" r="38.88"/><path class="cls-1" d="M887.81,458.83v10.55h4.68a39.41,39.41,0,0,0,21.11-6.12V607.75A42.35,42.35,0,0,1,871.38,650H324.3a42.35,42.35,0,0,1-42.22-42.22v-156a42.31,42.31,0,0,1,19.7-35.67,41.7,41.7,0,0,1,22.52-6.55H871.38a42.26,42.26,0,0,1,42.22,42.22v.91a39.41,39.41,0,0,1-21.11,6.13Z"/><path id="Bund_skygge_2" data-name="Bund skygge 2" class="cls-2" d="M894.85,394V483a56.3,56.3,0,0,1-56.29,56.29,55.67,55.67,0,0,1-38.95-15.73c-.53-.91-1.09-1.83-1.69-2.7-.74-1.06-1.51-2.12-2.32-3.1a39.84,39.84,0,0,0-3.52-3.84c-.39-.38-.81-.77-1.23-1.12a45.52,45.52,0,0,0-68.18,8.2h-.11a5.25,5.25,0,0,1-.28.59,40.1,40.1,0,0,0-2.5,4.3,56.31,56.31,0,0,1-89.5,7q-1-2.05-2.11-4c-.36-.56-.67-1.12-1.09-1.69a42,42,0,0,0-3.24-4.61c-.67-.88-1.37-1.72-2.11-2.53a56.79,56.79,0,0,0-17.06-13.09,57.08,57.08,0,0,0-25-5.87,55.89,55.89,0,0,0-25,5.87H554l-1.09.85a57.25,57.25,0,0,0-7.42,4.78,56.36,56.36,0,0,1-62.66-6.15c-.6-.74-1.23-1.48-1.9-2.19a40.89,40.89,0,0,0-5-4.6,45.5,45.5,0,0,0-59.35,2.18c-.36.31-.71.66-1.06,1-.46.49-.91.95-1.34,1.44a43.52,43.52,0,0,0-4.32,5.42s-.07.07-.07.11a44,44,0,0,0-4.93,7.88A56.27,56.27,0,0,1,309.06,483a51.62,51.62,0,0,1-.24-5.17V394Z"/><path class="cls-4" d="M887.81,387v89.44a56.32,56.32,0,0,1-56.29,55.83,55.54,55.54,0,0,1-38.95-15.76c-.52-.91-1.09-1.83-1.69-2.71-.73-1-1.51-2.11-2.32-3.09a43.73,43.73,0,0,0-3.52-3.84c-.38-.35-.81-.77-1.23-1.13A45.49,45.49,0,0,0,715.63,514h-.11a3.66,3.66,0,0,1-.28.56,41.24,41.24,0,0,0-2.5,4.33,56.31,56.31,0,0,1-89.5,7,40.67,40.67,0,0,0-2.11-4c-.35-.53-.67-1.13-1.09-1.66a36.12,36.12,0,0,0-3.24-4.6c-.67-.88-1.37-1.73-2.11-2.57a56.45,56.45,0,0,0-17.06-13.06A55.1,55.1,0,0,0,582,494.82a52.5,52.5,0,0,0-9.43-.85,56,56,0,0,0-25.05,5.91H547c-.36.25-.74.53-1.09.81a62.44,62.44,0,0,0-7.43,4.79,56.39,56.39,0,0,1-62.66-6.16c-.6-.7-1.23-1.44-1.9-2.18a46.48,46.48,0,0,0-5-4.61,45.5,45.5,0,0,0-59.35,2.18c-.35.35-.7.67-1.06,1s-.91.92-1.33,1.41a42,42,0,0,0-4.33,5.42.15.15,0,0,0-.07.1,45,45,0,0,0-4.93,7.88,56.27,56.27,0,0,1-95.8-34.16c0-.14,0-.28,0-.42a49.94,49.94,0,0,1-.25-5.21V387Z"/><path id="bof" class="cls-5" d="M932.35,376.75V433a40,40,0,0,1-39.86,39.86H303.79A40,40,0,0,1,263.89,433V376.75a40,40,0,0,1,39.9-39.9h588.7c.49,0,1,0,1.44,0a39.34,39.34,0,0,1,23.68,8.93A39.88,39.88,0,0,1,932.35,376.75Z"/><g id="Top_Salat" data-name="Top Salat"><path class="cls-6" d="M894.85,243.05v83.77a48.66,48.66,0,0,1-.25,5.17c-.14,1.66-.39,3.31-.67,4.9a56.26,56.26,0,0,1-95.16,29.72,45,45,0,0,0-4.93-7.88s0-.07-.07-.1a42.87,42.87,0,0,0-4.33-5.42c-.42-.49-.88-.95-1.33-1.44-.36-.32-.71-.67-1.06-1a45.5,45.5,0,0,0-59.35-2.18,41,41,0,0,0-5,4.61c-.67.7-1.31,1.44-1.9,2.18a56.39,56.39,0,0,1-62.66,6.16,57.8,57.8,0,0,0-7.43-4.79c-.35-.28-.74-.56-1.09-.84h-.56a56,56,0,0,0-34.48-5.07A55.12,55.12,0,0,0,599,355.92,56.38,56.38,0,0,0,581.94,369c-.74.81-1.45,1.65-2.11,2.53a42,42,0,0,0-3.24,4.61c-.42.56-.74,1.12-1.09,1.69a41.42,41.42,0,0,0-2.11,4,56.31,56.31,0,0,1-89.51-7,38.93,38.93,0,0,0-2.49-4.29,4,4,0,0,1-.28-.6H481a45.52,45.52,0,0,0-68.18-8.2,16.64,16.64,0,0,0-1.23,1.13,41,41,0,0,0-3.52,3.83c-.81,1-1.59,2.05-2.32,3.1-.6.88-1.17,1.8-1.69,2.71a56.23,56.23,0,0,1-95-35.71c-.14-1.58-.21-3.24-.21-4.86V243.05Z"/><g id="Tomater"><circle class="cls-6" cx="366.89" cy="328.95" r="48.67"/><circle class="cls-6" cx="415.56" cy="340.38" r="48.67"/><path class="cls-6" d="M917.61,345.82A48.64,48.64,0,1,1,894.85,286v40.84a48.66,48.66,0,0,1-.25,5.17c-.14,1.66-.39,3.31-.67,4.9A39.34,39.34,0,0,1,917.61,345.82Z"/></g></g><g id="Top_Salat-2" data-name="Top Salat"><path class="cls-4" d="M401.24,363c-.07.1-.14.17-.21.28-.81,1-1.58,2-2.32,3.09-.6.88-1.16,1.8-1.69,2.71a56.21,56.21,0,0,1-90.63-18.26,86,86,0,0,0,15.83,5.53h0c12.45,3.23,27.47,5.06,44.75,6q11.3.57,23.85.67h0C394.28,363,397.72,363,401.24,363Z"/><path class="cls-4" d="M651.56,358.24c17.84.14,35.15.32,51.83.42a56.23,56.23,0,0,1-51.83-.42Z"/><path class="cls-4" d="M827.12,356.06c22.52-1.83,41.38-4.86,55.7-9.61a56.25,56.25,0,0,1-91.09,16.65,39.36,39.36,0,0,0-2.89-5C802.53,357.68,815.34,357,827.12,356.06Z"/><path class="cls-4" d="M887.81,239.54v69.8c-12.1,11.82-37,18.19-71.24,21.49-44.72,4.3-105.27,3.45-173.87,2.85v18.79l-.07-.07h-.57a56,56,0,0,0-34.47-5.07,56.07,56.07,0,0,0-32.69,18.16c-.74.81-1.44,1.65-2.11,2.53a42,42,0,0,0-3.24,4.61c-.42.56-.74,1.13-1.09,1.69a43.76,43.76,0,0,0-2.11,4,56.3,56.3,0,0,1-89.5-7,41.7,41.7,0,0,0-2.5-4.29,4,4,0,0,1-.28-.6H474a44.69,44.69,0,0,0-8.34-9.18V330.94h-13.5v5.66c-15.84.6-31,1.13-45.28,1.45-16.86.35-32.55.45-46.94,0-18.33-.53-34.48-1.94-48.06-4.68-3.51-.71-6.82-1.52-10-2.43,0-.81-.07-1.62-.07-2.46V239.54Z"/><g id="Tomater-2" data-name="Tomater"><path class="cls-7" d="M367,362.29q11.3.57,23.85.67a48.64,48.64,0,0,1-68.6-6.65C334.71,359.54,349.73,361.37,367,362.29Z"/><path class="cls-7" d="M408.52,325.42a47.22,47.22,0,0,1-1.68,12.63c-16.86.35-32.55.45-46.94,0-18.33-.53-34.48-1.94-48.06-4.68a46.61,46.61,0,0,1-.66-7.95,48.67,48.67,0,0,1,97.34,0Z"/><path class="cls-7" d="M456.83,330.94h-4.71v5.66c-15.84.6-31,1.13-45.28,1.45A48.78,48.78,0,0,1,390.9,363c3.38,0,6.82,0,10.34,0,15.24,0,31.63-.43,49-1a48.71,48.71,0,0,1-66.67,16.75,48.07,48.07,0,0,1-8.9-6.86,48.2,48.2,0,0,1-14.78-33.77c0-.39,0-.81,0-1.2a48.66,48.66,0,0,1,97-5.91Z"/><path class="cls-7" d="M887.81,309.34c-12.1,11.82-37,18.19-71.24,21.49a45.84,45.84,0,0,1-.32-5.41,48.7,48.7,0,0,1,71.56-43A47.38,47.38,0,0,1,896,288c0,.74,0,1.51,0,2.28A25.7,25.7,0,0,1,887.81,309.34Z"/><path class="cls-7" d="M913.6,325.42a48.68,48.68,0,0,1-48.66,48.69,47.79,47.79,0,0,1-7.88-.64,48.66,48.66,0,0,1-29.94-17.41c22.52-1.83,41.38-4.86,55.7-9.61,17.66-5.91,28.39-14.53,30.39-27.05A47.8,47.8,0,0,1,913.6,325.42Z"/></g></g><g id="salat_skygge" data-name="salat skygge"><path class="cls-6" d="M306.39,350.78c-13.05-6.08-20.5-15.39-22.86-28.2a70.24,70.24,0,0,0,18.32,8.36A54.93,54.93,0,0,0,306.39,350.78Z"/><path class="cls-8" d="M322.22,356.31a86,86,0,0,1-15.83-5.53,54.93,54.93,0,0,1-4.54-19.84c3.17.91,6.48,1.72,10,2.43A48.47,48.47,0,0,0,322.22,356.31Z"/><path class="cls-9" d="M406.84,338.05A48.78,48.78,0,0,1,390.9,363h0q-12.56-.12-23.85-.67c-17.28-.92-32.3-2.75-44.75-6h0a48.47,48.47,0,0,1-10.38-22.94c13.58,2.74,29.73,4.15,48.06,4.68C374.29,338.5,390,338.4,406.84,338.05Z"/><path class="cls-9" d="M452.12,336.6v21.85c-.57,1.2-1.2,2.36-1.87,3.48-17.38.6-33.77,1-49,1-3.52,0-7,0-10.34,0a48.78,48.78,0,0,0,15.94-24.91C421.15,337.73,436.28,337.2,452.12,336.6Z"/><path class="cls-8" d="M594.78,333.37V351.1c-.95.42-1.9.84-2.82,1.3a55.34,55.34,0,0,0-9,5.63c-40.14.32-78.31,1.93-113.14,3.2a40.67,40.67,0,0,0-4.16-3.94V336.11c35.54-1.34,74.2-2.78,114.63-2.78C585.14,333.33,590,333.33,594.78,333.37Z"/><path class="cls-8" d="M827.12,356.06c-11.78,1-24.59,1.62-38.28,2a30.55,30.55,0,0,0-2-2.88.15.15,0,0,0-.07-.11,42.8,42.8,0,0,0-4.32-5.42c-.43-.49-.88-.95-1.34-1.44l-1.06-1a45.53,45.53,0,0,0-59.35-2.18,41.78,41.78,0,0,0-5,4.61c-.67.71-1.3,1.44-1.9,2.18a54.79,54.79,0,0,1-10.41,6.79c-16.68-.1-34-.28-51.83-.42l-.42-.21a58.39,58.39,0,0,0-7.42-4.79c-.32-.24-.71-.52-1-.77V333.68c68.6.6,129.15,1.45,173.87-2.85A48.31,48.31,0,0,0,827.12,356.06Z"/><path class="cls-9" d="M913.21,319.36v0c-2,12.52-12.73,21.14-30.39,27.05-14.32,4.75-33.18,7.78-55.7,9.61a48.31,48.31,0,0,1-10.55-25.23c34.23-3.3,59.14-9.67,71.24-21.49a25.7,25.7,0,0,0,8.2-19.11c0-.77,0-1.54,0-2.28A48.54,48.54,0,0,1,913.21,319.36Z"/></g><path class="cls-10" d="M913.6,314.86a23.63,23.63,0,0,1-.39,4.5A48.54,48.54,0,0,0,896,288c-.42-31.77-9.85-62-26.59-89.4C897.49,232.57,913.6,272.36,913.6,314.86Z"/><path id="Top" class="cls-1" d="M913.6,311.35c0,53.66-141.37,43.1-315.76,43.1s-315.76,26.69-315.76-43.1c0-125.81,141.37-227.8,315.76-227.8S913.6,185.54,913.6,311.35Z"/><path id="Top_skygge" data-name="Top skygge" class="cls-1" d="M913.6,311.34c0,53.66-141.36,43.1-315.76,43.1-167.22,0-304,24.56-315-35,43.62,26.84,160.32,10.34,297.43,10.34,174.4,0,315.76,10.56,315.76-43.09,0-32.62-9.5-63.65-26.63-91.69C897.49,229.05,913.6,268.84,913.6,311.34Z"/><rect class="cls-11" x="474.27" y="113.68" width="10.55" height="25.02" rx="1.5" transform="translate(-16.2 115.05) rotate(-13.46)"/><rect class="cls-11" x="410.28" y="150.03" width="10.55" height="25.02" rx="1.5" transform="translate(45.24 -86.4) rotate(12.55)"/><rect class="cls-11" x="764.52" y="151.52" width="10.55" height="25.02" rx="1.5" transform="translate(-17.04 183.63) rotate(-13.46)"/><rect class="cls-11" x="606.71" y="134.19" width="10.55" height="25.02" rx="1.5" transform="translate(46.49 -129.46) rotate(12.55)"/><rect class="cls-11" x="502.5" y="159.18" width="10.55" height="25.02" rx="1.5" transform="translate(24.66 -60.5) rotate(6.99)"/><rect class="cls-11" x="550.56" y="101.37" width="10.55" height="25.02" rx="1.5" transform="translate(10.29 -42.02) rotate(4.37)"/><rect class="cls-11" x="702.66" y="117.95" width="10.55" height="25.02" rx="1.5" transform="translate(45.26 -150.69) rotate(12.55)"/><rect class="cls-11" x="649.97" y="101.37" width="10.55" height="25.02" rx="1.5" transform="translate(-2.72 210.83) rotate(-18.24)"/><g id="ojne"><g id="Hojre_oje" data-name="Hojre oje"><circle class="cls-2" cx="530.19" cy="247.87" r="42.99"/><circle class="cls-12" cx="530.19" cy="244.35" r="42.99"/><circle class="cls-13" cx="539.81" cy="248.2" r="22.55"/><circle class="cls-12" cx="532.11" cy="248.2" r="8.86"/><path class="cls-14" d="M525.15,287a43,43,0,0,1-8-83.65,44.4,44.4,0,0,0,8,83.65Z"/></g><g id="ventre_oje" data-name="ventre oje"><circle class="cls-2" cx="659.37" cy="247.87" r="42.99"/><circle class="cls-12" cx="659.37" cy="244.35" r="42.99"/><circle class="cls-13" cx="649.74" cy="248.2" r="22.55"/><circle class="cls-12" cx="657.44" cy="248.2" r="8.86"/><path class="cls-14" d="M664.4,287a43,43,0,0,0,8-83.65,44.4,44.4,0,0,1-8,83.65Z"/></g></g><circle class="cls-15" cx="594.8" cy="303.8" r="29.71"/></svg>
