<svg id="Layer_1" data-name="Layer 1" xmlns="http://www.w3.org/2000/svg" viewBox="0 0 855 800"><defs><style>.cls-1{fill:#a3d399;}.cls-2,.cls-5{fill:#fff;}.cls-3,.cls-4{fill:none;}.cls-3,.cls-4,.cls-5{stroke:#fff;stroke-miterlimit:10;}.cls-3{stroke-width:5px;}.cls-4,.cls-5{stroke-width:4px;}</style></defs><title>clock</title><path class="cls-1" d="M439.25,707.5a313.25,313.25,0,0,1-221.5-534.75,313.25,313.25,0,1,1,443,443A311.17,311.17,0,0,1,439.25,707.5Z"/><path class="cls-2" d="M439.25,86a307.31,307.31,0,1,1-120,24.22A306.29,306.29,0,0,1,439.25,86m0-10C263.49,76,121,218.49,121,394.25S263.49,712.5,439.25,712.5,757.5,570,757.5,394.25,615,76,439.25,76Z"/><line class="cls-3" x1="452.02" y1="306.51" x2="451.22" y2="474.81"/><line class="cls-3" x1="483.53" y1="412.94" x2="345.13" y2="461.25"/><line class="cls-4" x1="175.24" y1="390.26" x2="223.1" y2="390.26"/><line class="cls-5" x1="212.6" y1="258.79" x2="259.79" y2="286.57"/><line class="cls-5" x1="310.7" y1="163.61" x2="339.55" y2="213.19"/><line class="cls-5" x1="443.24" y1="130.24" x2="443.24" y2="189.26"/><line class="cls-5" x1="574.71" y1="167.6" x2="548.52" y2="211.6"/><line class="cls-5" x1="669.89" y1="265.7" x2="625.1" y2="291.36"/><line class="cls-5" x1="703.26" y1="398.24" x2="647.43" y2="398.24"/><line class="cls-5" x1="665.9" y1="529.71" x2="621.9" y2="503.52"/><line class="cls-5" x1="567.8" y1="624.89" x2="538.95" y2="575.31"/><line class="cls-5" x1="435.26" y1="658.26" x2="435.26" y2="602.43"/><line class="cls-5" x1="303.79" y1="620.9" x2="331.57" y2="572.12"/><line class="cls-5" x1="208.61" y1="522.8" x2="258.19" y2="493.95"/></svg>
