<svg id="Layer_1" data-name="Layer 1" xmlns="http://www.w3.org/2000/svg" viewBox="0 0 1165 975"><defs><style>.cls-1{fill:#ccedfd;}.cls-2{fill:#cefaf9;}.cls-3{fill:#fff;}.cls-4{fill:none;stroke:#000;stroke-miterlimit:10;stroke-width:11px;}.cls-5{fill:#ed7b81;}</style></defs><title>fish</title><path class="cls-1" d="M524.17,842.07c-111.06,10.55-235.46,7.56-333.5-52.08-36.76-22.36-70.74-52.74-90.72-92.76C80.06,657.39,73.24,615,77,570.22c4-47.42,22.56-92.71,47-132.28,25.9-41.88,61.3-77.49,100.33-105.28,87.14-62,193.55-84.06,298-74.25,105,9.85,209.14,49.34,297.52,110.7,36.91,25.62,72.84,55,101.12,90.58,22.7,28.56,44.13,62.56,48.93,100,4.53,35.25-3,66.64-21.16,96.37-21.45,35.11-56.07,61.16-90.22,82.58C759.24,801,639.14,829.56,524.17,842.07Z"/><path class="cls-1" d="M516.41,258.93c55.23,5.83,108.48,19,160.7,38.66a718,718,0,0,1,136.6,71.88c36.91,25.89,72,54.85,100.95,90.43,22.6,29.07,43.31,61.85,48.8,99.73,4,35.87-3.22,65.45-21.12,96.14-22.61,35.32-55.89,60.65-90.08,82.46-46.09,28.44-96.18,48.53-147.15,65a1001.76,1001.76,0,0,1-186.94,38.32c-62.37,5.91-124.42,6.14-186.54-2.77-51-8.47-101.39-22.41-146.62-49.31-36.85-22.93-70-52.47-90.58-92.61-19.65-40.37-26.32-81.64-22.9-126.69C76,522.51,94.16,478.3,118.44,438.25c26.45-41.95,61-76.38,100.16-105.1a435.69,435.69,0,0,1,136.83-62.89M518.17,842.59C633.05,830.07,752.5,801.14,852.94,739,913.56,701.48,988.76,633.45,976,552c-13-83.3-98.62-139.76-161.86-183.23C725.64,307.93,622,267.86,516.41,257.89h0C327.82,240.07,92.62,348.78,70.5,570.26M184.34,790.52"/><path class="cls-2" d="M417,258c0,271.39-125.68,491-281,491L81.28,662.15,71,566.28,85.61,503.5l32.83-68.08L166,373l52.6-42.06,72.51-39.46,69.59-24.55A156.6,156.6,0,0,1,412.83,258Z"/><path class="cls-1" d="M728,321.44,585,286l26-153,50.21,27c19.55,10.51,55.6,138.46,67.79,157"/><polygon class="cls-1" points="923.54 455.54 1042.04 335 983.16 492.45 1096 577 943.65 560.92 923.54 455.54"/><path class="cls-2" d="M515,223q3.5,78.5,7,157"/><ellipse cx="200.5" cy="518" rx="65.5" ry="95"/><circle class="cls-3" cx="171" cy="542" r="21"/><circle class="cls-3" cx="228" cy="494" r="37"/><path class="cls-4" d="M82.86,662.51c22-18.52,58.78-10.92,82.28,17"/><ellipse class="cls-5" cx="308" cy="615.5" rx="43" ry="27.5"/></svg>
