<svg id="Layer_1" data-name="Layer 1" xmlns="http://www.w3.org/2000/svg" viewBox="0 0 1922 1079"><defs><style>.cls-1,.cls-13{fill:#cefaf9;}.cls-2{fill:#dfe4e7;}.cls-17,.cls-3{fill:#fff;}.cls-16,.cls-20,.cls-4,.cls-5{fill:#ed7b81;}.cls-13,.cls-17,.cls-5,.cls-6{stroke:#000;}.cls-10,.cls-13,.cls-15,.cls-16,.cls-17,.cls-20,.cls-5,.cls-6,.cls-9{stroke-miterlimit:10;}.cls-12,.cls-6{fill:#fee0db;}.cls-10,.cls-7{fill:#f3bed5;}.cls-8{fill:#c5eccd;}.cls-9{fill:#f7cbde;}.cls-10,.cls-15,.cls-9{stroke:#999;}.cls-11{fill:#d3a5b9;}.cls-14{fill:none;}.cls-15{fill:#a3d399;}.cls-16,.cls-20{stroke:#fff;}.cls-16{stroke-width:8px;}.cls-18{fill:#f7c799;}.cls-19{fill:#edf88d;}.cls-20{stroke-width:2px;}.cls-21{fill:#ccedfd;}</style></defs><title>gameover</title><path class="cls-1" d="M1920,34.94V.44h-8.67a5.07,5.07,0,0,1-2.14-.44h-.76a5.24,5.24,0,0,1-1,.09q-3.32,0-6.63-.09h-36.67a4.53,4.53,0,0,1-1.76,0H0V1080H1920V78.9q-.42-19.5-.11-39C1919.92,38.26,1920,36.6,1920,34.94Z"/><rect class="cls-2" x="525" width="969" height="1080"/><rect class="cls-3" x="979" width="60" height="145"/><rect class="cls-3" x="979" y="656" width="60" height="180"/><rect class="cls-3" x="979" y="429" width="60" height="180"/><rect class="cls-3" x="979" y="195" width="60" height="180"/><rect class="cls-3" x="979" y="883" width="60" height="180"/><polygon class="cls-4" points="1713.51 450.5 1720.49 14.5 1875.5 14.5 1875.5 450.5 1713.51 450.5"/><path d="M1875,15V450H1714l7-435h154m1-1H1720l-7,437h163V14Z"/><polygon class="cls-5" points="1920.5 34.57 1876.5 14.71 1876.5 431.85 1920.5 431.85 1920.5 34.57"/><rect class="cls-6" x="1740.5" y="87.07" width="102" height="95.06"/><rect class="cls-6" x="1740.5" y="329.69" width="102" height="95.06"/><polygon class="cls-6" points="1842.5 308.41 1740.5 308.41 1740.5 213.35 1842.5 211.93 1842.5 308.41"/><rect class="cls-7" x="1623" y="118" width="98" height="359"/><rect class="cls-8" x="1675.5" y="156.5" width="27" height="30"/><polygon class="cls-8" points="1671.5 57 1622.5 117.5 1720.5 117.5 1671.5 57"/><rect class="cls-8" x="1640.5" y="156.5" width="27" height="30"/><rect class="cls-8" x="1640.5" y="201.5" width="27" height="30"/><rect class="cls-8" x="1675.5" y="201.5" width="27" height="30"/><rect class="cls-8" x="1640.5" y="246.5" width="27" height="30"/><rect class="cls-8" x="1675.5" y="246.5" width="27" height="30"/><rect class="cls-8" x="1675" y="288" width="27" height="30"/><rect class="cls-8" x="1640" y="288" width="27" height="30"/><rect class="cls-8" x="1640" y="333" width="27" height="30"/><rect class="cls-8" x="1675" y="333" width="27" height="30"/><rect class="cls-8" x="1640" y="378" width="27" height="30"/><rect class="cls-8" x="1675" y="378" width="27" height="30"/><ellipse class="cls-8" cx="1671.5" cy="58" rx="17.5" ry="15"/><path class="cls-9" d="M1659.71,398h199.67a0,0,0,0,1,0,0v682a0,0,0,0,1,0,0H1650.94a0,0,0,0,1,0,0V406.77A8.77,8.77,0,0,1,1659.71,398Z"/><path class="cls-10" d="M1912.51,425.41l-52.7-27.18c-.22-.12-.44.21-.44.65v680.44c0,.37.16.68.35.68h61.49c.19,0,.35-.31.35-.69L1917.91,439C1917.87,432.58,1915.66,427,1912.51,425.41Z"/><rect class="cls-11" x="1683.72" y="466.61" width="56.41" height="82.33"/><rect class="cls-11" x="1766.05" y="568.75" width="56.41" height="82.33"/><rect class="cls-11" x="1683.72" y="568.75" width="56.41" height="82.33"/><rect class="cls-11" x="1766.05" y="466.61" width="56.41" height="82.33"/><rect class="cls-11" x="1766.05" y="774.25" width="56.41" height="82.33"/><rect class="cls-11" x="1683.72" y="670.9" width="56.41" height="82.33"/><rect class="cls-11" x="1766.05" y="670.9" width="56.41" height="82.33"/><rect class="cls-11" x="1684.05" y="993.25" width="56.41" height="82.33"/><rect class="cls-11" x="1766.05" y="879.25" width="56.41" height="82.33"/><rect class="cls-11" x="1684.05" y="879.25" width="56.41" height="82.33"/><rect class="cls-11" x="1684.05" y="775.25" width="56.41" height="82.33"/><rect class="cls-11" x="1766.05" y="993.25" width="56.41" height="82.33"/><rect class="cls-4" x="1488.5" y="537.16" width="207" height="542.84"/><rect class="cls-12" x="1481.5" y="537.16" width="221" height="38.26" rx="13.46"/><rect class="cls-12" x="1502.5" y="630.42" width="45" height="71.74"/><rect class="cls-12" x="1572.5" y="630.42" width="45" height="71.74"/><rect class="cls-12" x="1638.5" y="630.42" width="45" height="71.74"/><rect class="cls-12" x="1484.5" y="733.25" width="215" height="9.57" rx="4"/><rect class="cls-12" x="1502.5" y="764.34" width="45" height="71.74"/><rect class="cls-12" x="1572.5" y="764.34" width="45" height="71.74"/><rect class="cls-12" x="1638.5" y="764.34" width="45" height="71.74"/><rect class="cls-12" x="1483.5" y="862.39" width="215" height="9.57" rx="4"/><rect class="cls-12" x="1638.5" y="888.69" width="45" height="71.74"/><rect class="cls-12" x="1572.5" y="888.69" width="45" height="71.74"/><rect class="cls-12" x="1502.5" y="888.69" width="45" height="71.74"/><rect class="cls-12" x="1557.5" y="991.52" width="74" height="88.48"/><path class="cls-9" d="M1502.27,283h127.95a0,0,0,0,1,0,0V533.33a0,0,0,0,1,0,0H1493.5a0,0,0,0,1,0,0V291.77A8.77,8.77,0,0,1,1502.27,283Z"/><path class="cls-10" d="M1665.07,293.06l-34.57-10a.24.24,0,0,0-.29.24V533.08a.24.24,0,0,0,.23.25h40.33a.24.24,0,0,0,.23-.25L1668.61,298A5.16,5.16,0,0,0,1665.07,293.06Z"/><rect class="cls-11" x="1569" y="425.14" width="37" height="30.22"/><rect class="cls-13" x="1516.5" y="318.5" width="36" height="36"/><rect class="cls-13" x="1574.5" y="318.5" width="36" height="36"/><rect class="cls-13" x="1516.5" y="367.5" width="36" height="36"/><rect class="cls-13" x="1573.5" y="369.5" width="36" height="36"/><rect class="cls-13" x="1518.5" y="416.5" width="36" height="36"/><polygon class="cls-12" points="1689.86 553.71 1488.91 553.31 1589.73 379.49 1689.86 553.71"/><polyline class="cls-14" points="734.59 282.65 725.94 282.65 730.57 277.85 725.32 281.45"/><rect class="cls-15" x="750.77" y="264" width="1.05" height="1.05"/><rect class="cls-16" x="514.56" y="142.5" width="988.11" height="578" rx="152.8"/><path d="M749.76,231.57q-3.32,14.56-13.38,23.3a35.52,35.52,0,0,1-23.92,8.78q-13,0-19.48-6.86t-6.5-20.58a60.22,60.22,0,0,1,6.15-25.63,61.55,61.55,0,0,1,15.82-21.29q6.79-5.72,14.56-5.71,4.72,0,12.89,3.41,9.66,4.06,9.66,8.65a7,7,0,0,1-6.93,6.78c-1,0-3.13-.92-6.47-2.75a19.26,19.26,0,0,0-9.15-2.76q-4.39,0-11.87,9.47-10.89,13.77-10.89,29.83,0,8.16,2.39,11.09,2.55,3.07,9.82,3.07a21.22,21.22,0,0,0,13.13-4.25q6-4.49,8.89-13.08a59.16,59.16,0,0,0-19.73,4.64,7.39,7.39,0,0,1-3,.68,6.46,6.46,0,0,1-5-2.24,6.59,6.59,0,0,1-1.81-4.55q0-7.47,17.68-10.45a143.7,143.7,0,0,1,23.24-1.66,6.82,6.82,0,0,1,4.91,1.91,6.61,6.61,0,0,1-1,10.2Z"/><path d="M813.58,261.75q-3.86-.15-7.76-9.08a78.14,78.14,0,0,1-4.45-13.28q-3.6.54-11.81,1.07c-5.15.36-9.08.78-11.82,1.27q-2.25,5.37-7.81,16.16a6.65,6.65,0,0,1-6,3.52,7.25,7.25,0,0,1-4.83-1.83,5.88,5.88,0,0,1-2.15-4.67q0-2.49,7.13-16.89a5.84,5.84,0,0,1-.59-2.83q.19-2.35,4.74-3.66,6.93-12,15.43-24.91,12.21-18.5,15-18.5,5.37,0,7.18,6.49,1,5.23,3.07,15.68,3,14.06,7.28,32.17a58.48,58.48,0,0,0,2.49,6.45,18.47,18.47,0,0,1,1.76,6.3,6.08,6.08,0,0,1-2.13,4.73A6.6,6.6,0,0,1,813.58,261.75Zm-18.21-50.1q-3.81,6.56-10.5,17.82a50.45,50.45,0,0,1,6.84-.78c3.64-.22,5.94-.4,6.88-.53Q797.42,221.82,795.37,211.65Z"/><path d="M851.52,221.71q-2.19,7.9-6.15,23.88-.93,5.52-1.81,11-2,6.94-7.37,6.94a6.61,6.61,0,0,1-5.32-2.3,6.9,6.9,0,0,1-1.66-4.64q0-7.9,3.37-19.28,5-17,5.42-18.9,1.41-7.51,2.88-15,2.19-10.35,4.76-13.79a7.75,7.75,0,0,1,6.47-3.44c3,0,5.14,1.49,6.54,4.49q2,4.24,4.2,17.38a245.29,245.29,0,0,0,6.4,27.44q5.57-14.51,10.35-31.83l2.73-11.23q2.64-7,8.16-7,5.31,0,7.91,8.11a81.71,81.71,0,0,1,2.29,12.21,253.39,253.39,0,0,0,7.13,35.64q4.35,15.09,4.35,16.41a6.1,6.1,0,0,1-2.3,4.83,7.43,7.43,0,0,1-4.83,1.76q-5.32,0-7.91-7.62l-2.74-11.82q-2.34-8.79-5.08-25.24-2.19,6.54-7.27,20.56l-2.93,9a51.32,51.32,0,0,1-3.76,8.74q-2.6,4.55-7.23,4.54t-7-5.42L858.36,248Q854.55,235.49,851.52,221.71Z"/><path d="M968.12,197.69a7.65,7.65,0,0,1-2-.3,58.62,58.62,0,0,0-15.38-2.14,57.12,57.12,0,0,0-7.86.58,88.33,88.33,0,0,0-8.94,1.76q0,6.49-.43,19.29,2.73-.19,19.09-1.81,9.32-.93,11.81-.93a7.14,7.14,0,0,1,4.93,1.83,6.21,6.21,0,0,1,2.06,4.86q0,5.82-6.21,6.59-3.9.3-11.67,1-6.93.78-20.89,1.9-.35,6.21-.35,10c0,6.39.38,10,1.13,10.89.35.43,2.41.64,6.15.64q3,0,9.13-.15t9.13-.15a19.88,19.88,0,0,0,2.88-.29,21.48,21.48,0,0,1,2.83-.29,7.51,7.51,0,0,1,4.84,1.61,6.1,6.1,0,0,1,2.29,5.08c0,3.64-1.9,5.83-5.71,6.54q-4.89.93-20.26.93-15.93,0-20.76-4.3-5.31-4.72-5.32-20.51,0-6.54,1-19.65t1-19.6A39.31,39.31,0,0,0,920,196a37.44,37.44,0,0,1-.49-5.05q0-7.42,6.84-7.42a6.93,6.93,0,0,1,3.95,1.22,103.69,103.69,0,0,1,10.77-2.13,70.47,70.47,0,0,1,9.64-.7q12.3,0,19.68,2.83,4.49,1.71,4.49,6.2a6.48,6.48,0,0,1-1.76,4.49A6.3,6.3,0,0,1,968.12,197.69Z"/><path d="M1058.16,263.26q-14.45,0-24.61-8.3a28.38,28.38,0,0,1-10.84-23,48.87,48.87,0,0,1,10.4-30.27q11.67-15.37,29.4-15.38,17,0,25.53,7.81t8.5,23.49a50.75,50.75,0,0,1-9.57,30.08Q1075.93,263.26,1058.16,263.26Zm4.35-63.72q-10.89,0-18.65,10.55a36,36,0,0,0-7.28,21.87,16.16,16.16,0,0,0,6.3,13.19q6.06,4.88,15.28,4.88,10.74,0,17.92-10.55a37.72,37.72,0,0,0,6.59-21.87q0-10.26-4.59-14.26Q1073.69,199.54,1062.51,199.54Z"/><path d="M1130.57,239.78q7.38-18.56,11.43-29.54,2.14-5.82,4.25-11.67a38.8,38.8,0,0,1,6.2-10.7,6.79,6.79,0,0,1,5.27-2.49,7,7,0,0,1,4.89,1.93,6.2,6.2,0,0,1,2.1,4.71,6.71,6.71,0,0,1-1.32,3.86,48.39,48.39,0,0,0-4.84,9.18q-.09.19-3.61,9.67-4.39,11.28-13.09,33.84a90,90,0,0,1-5.51,11.81,6.64,6.64,0,0,1-6.11,3.81,7.14,7.14,0,0,1-7.08-4.78q-6-14.22-13.23-41-2-6.6-4.05-13.18-2.74-9.18-2.74-12.75a6.12,6.12,0,0,1,2.15-4.78,7.09,7.09,0,0,1,4.79-1.76q4.68,0,6.54,4.88,1,4.25,2,8.45,1.62,5.26,4.64,15.82Q1127,229.09,1130.57,239.78Z"/><path d="M1221.25,197.69a7.59,7.59,0,0,1-2-.3,58.68,58.68,0,0,0-15.38-2.14,57,57,0,0,0-7.86.58,88.33,88.33,0,0,0-8.94,1.76q0,6.49-.44,19.29,2.73-.19,19.09-1.81,9.33-.93,11.82-.93a7.15,7.15,0,0,1,4.93,1.83,6.2,6.2,0,0,1,2,4.86q0,5.82-6.2,6.59-3.9.3-11.67,1-6.93.78-20.9,1.9-.35,6.21-.34,10c0,6.39.37,10,1.12,10.89q.54.65,6.15.64,3,0,9.14-.15c4.06-.1,7.11-.15,9.13-.15a19.88,19.88,0,0,0,2.88-.29,21.32,21.32,0,0,1,2.83-.29,7.47,7.47,0,0,1,4.83,1.61,6.11,6.11,0,0,1,2.3,5.08c0,3.64-1.91,5.83-5.71,6.54q-4.89.93-20.27.93-15.91,0-20.75-4.3-5.33-4.72-5.32-20.51,0-6.54,1-19.65t.95-19.6a37.56,37.56,0,0,0-.49-5.06,38.78,38.78,0,0,1-.48-5.05q0-7.42,6.83-7.42a7,7,0,0,1,4,1.22,103,103,0,0,1,10.76-2.13,70.61,70.61,0,0,1,9.65-.7q12.3,0,19.67,2.83,4.5,1.71,4.5,6.2a6.52,6.52,0,0,1-1.76,4.49A6.3,6.3,0,0,1,1221.25,197.69Z"/><path d="M1284.53,260.87a6.91,6.91,0,0,1-4.83-2.05,82.28,82.28,0,0,0-32.52-19.24q.52,14.21.53,15.77a6.39,6.39,0,0,1-2,4.72,7.17,7.17,0,0,1-9.77,0,6.39,6.39,0,0,1-2-4.72q0-3.66.1-11c.06-4.86.1-8.52.1-11l.09-39.4a9.52,9.52,0,0,1,1.91-5.77,7.33,7.33,0,0,1,6.88-3q11.87.87,12.16.92a35,35,0,0,1,11.62,3.27q20.85,10.5,20.85,26a16.49,16.49,0,0,1-4.37,11.3q-4.37,4.92-13.11,8.28,12.95,7.23,19.48,14.75a6.43,6.43,0,0,1,1.71,4.34,6.28,6.28,0,0,1-2,4.71A6.78,6.78,0,0,1,1284.53,260.87Zm-31.3-61.42q-.39-.06-5.71-.4V225c.81,0,1.53.05,2.15.05q12,0,17.72-3a17.7,17.7,0,0,0,4.57-3.37c1.38-1.39,2.07-2.45,2.07-3.17q0-5.46-6.93-10.55A28.14,28.14,0,0,0,1253.23,199.45Z"/><ellipse class="cls-4" cx="1009" cy="811.5" rx="148.5" ry="142.5"/><path class="cls-3" d="M1009,675c38.15,0,74,14.26,100.93,40.15s41.57,60,41.57,96.35-14.76,70.59-41.57,96.35S1047.15,948,1009,948s-74-14.26-100.93-40.15-41.57-60-41.57-96.35,14.76-70.59,41.57-96.35S970.85,675,1009,675m0-12c-85.33,0-154.5,66.49-154.5,148.5S923.67,960,1009,960s154.5-66.49,154.5-148.5S1094.33,663,1009,663Z"/><polygon class="cls-17" points="969.09 745.74 969.09 877.26 1088.82 811.96 969.09 745.74"/><path class="cls-18" d="M201.27,766.56c-2.37-8.43-48-6.07-81.66,4.06-11.74,3.54-17.52,6.67-17.61,10.16-.14,5.74,15.22,10.16,17.61,10.83,30.76,8.55,61.31-9.2,66.45-12.19C195.52,773.92,202.24,770,201.27,766.56Z"/><path class="cls-18" d="M370.78,793.6l-9.11-17.52a1.26,1.26,0,0,1,0-1.15l64.51-119.46a.36.36,0,0,0,0-.09c.47-1.06,9.83-22.29,19.2-19.17,9.61,3.2,8.84,6.52,8,9.61-.68,2.54-11.92,15.77-17,20.62a1.24,1.24,0,0,0,1.5,1.95l.07,0a1.26,1.26,0,0,0,.32-.29L455,647.42c5.36-6,12.08.63,14.4,3.2a2.5,2.5,0,0,1,0,2.4c-19.39,23.31-40.57,51.49-41.59,52.79a.61.61,0,0,1-.07.1l-54.85,87.77A1.24,1.24,0,0,1,370.78,793.6Z"/><path class="cls-7" d="M208.07,735.08c-8.67,18.22-34.49,75.75-41.63,111.27-9.59,47.71-22.1,109.95,13.61,156.9,5.49,7.22,3.34-5.35,75.25,43.23,14.81,10,12,4,93.66-53.63a63.51,63.51,0,0,0,13.28-12.54c36-39.9,63.58-182-12.48-247.64C341.68,725.7,337.47,728,208.07,735.08Z"/><ellipse class="cls-7" cx="310.54" cy="451.29" rx="24.42" ry="19.21"/><path class="cls-19" d="M294.93,436.88c-8.47-10.9-1-32,8-44,10.67-14.21,25.87-18.81,38.43-22.42,8.76-2.51,23.73-5.72,54.44-3.2,32.12,2.64,38.05,8,88.85,15.21,18.69,2.66,29.55,3.59,43.23,1.6,20.32-3,30.9-10,32.83-7.2,3,4.39-17.05,29.49-46.44,44-9.21,4.55-18.27,7.54-80.85,13.61-58.35,5.65-31.6,1.22-83.25,5.6C314,443.15,301.45,445.27,294.93,436.88Z"/><path class="cls-18" d="M146,625c-11.34,8.33-17.31,17.53-19,27-5.74,31.53,41.39,65.4,71.17,79.94a168.9,168.9,0,0,0,72,17.11c9.71,0,91.51-1.43,127.75-61.5,10.41-17.26,16.35-38,16.35-62.19,0-80.68-63.44-138.67-140.9-146.09C139.62,466.5,212.47,576.17,146,625Z"/><ellipse cx="328.95" cy="614.03" rx="31.62" ry="45.86"/><circle class="cls-3" cx="334.72" cy="625.61" r="10.14"/><circle class="cls-3" cx="312.61" cy="599.24" r="17.86"/><ellipse cx="238.49" cy="614.03" rx="31.62" ry="45.86"/><circle class="cls-3" cx="252.27" cy="624.01" r="10.14"/><circle class="cls-3" cx="224.55" cy="597.64" r="17.86"/><ellipse class="cls-4" cx="374.98" cy="659.93" rx="20.81" ry="13.31"/><ellipse class="cls-4" cx="180.45" cy="659.93" rx="20.81" ry="13.31"/><path class="cls-19" d="M182.71,526.85l5.35,20.1,22.88-38.18,6.74,19,31.12-22h0A15.73,15.73,0,0,0,274.3,518l9.42-7.47,8.41,27.6,24.73-11.8L331.35,547h22.42c20.81-25.62,0-47.23,0-47.23L341,470.1l-29.62-8.81H228.88s21.62-5.6-17.61,0S182.71,526.85,182.71,526.85Z"/><path class="cls-19" d="M361,483.71c-7.63-6.69-19.28-15-21.61-12.81s7.1,10.94,12.81,28c3.95,11.83,4.23,23.09,4.8,45.63s-1,29.39,4,32.82c6.39,4.41,18.79,0,25.62-7.2,12-12.77,6.41-34.09,4-43.23C384.67,504.46,369.78,491.43,361,483.71Z"/><circle class="cls-20" cx="277.72" cy="845.55" r="51.63"/><path class="cls-3" d="M280.3,853l43.17-29c1.59-1.07.09-3.67-1.52-2.59l-43.16,29c-1.6,1.07-.1,3.67,1.51,2.59Z"/><path class="cls-3" d="M281.69,895.73l-1-101.62a1.5,1.5,0,0,0-3,0l1,101.62a1.5,1.5,0,0,0,3,0Z"/><path class="cls-3" d="M279.48,850.17l-46.09-30.1c-1.62-1.06-3.13,1.53-1.52,2.59l46.1,30.1c1.62,1.06,3.12-1.54,1.51-2.59Z"/><circle cx="284.12" cy="703.05" r="21.21"/><path class="cls-21" d="M359.77,688.24c8.81,12,1,18.18-3.16,19.63-8.05,2.79-15.42-7.61-11.73-17.62,3.55-9.6.15-23.07,3.68-20.42C351.77,672.23,353.47,679.66,359.77,688.24Z"/><ellipse class="cls-3" cx="455.44" cy="607.39" rx="14.01" ry="9.61"/><path d="M642.25,380.4c-.37.6-.87,1.51-1.5,2.74l-4,10q-2.34,5.59-4.4,9.79l-2.93,5.23-1.24,2.53a2.35,2.35,0,0,1-2.09,1.36,2.43,2.43,0,0,1-1.66-.68,2.19,2.19,0,0,1-.75-1.69q0-.79,2.2-5l2.88-5.27a39.88,39.88,0,0,1-5.44-8.53,35.94,35.94,0,0,0-3.51-6.36q-3.37-5.06-4-6.11a2.57,2.57,0,0,1-.35-1.27,2.24,2.24,0,0,1,.73-1.7,2.4,2.4,0,0,1,1.68-.69,2.28,2.28,0,0,1,1.92,1.1l1.88,2.91c1.65,2.45,2.75,4.12,3.28,5a37.35,37.35,0,0,1,2.74,5.35,26.53,26.53,0,0,0,3.3,5.32l5.37-13.08q.92-1.62,2.53-5a2.27,2.27,0,0,1,2.18-1.6,2.44,2.44,0,0,1,1.68.66,2.17,2.17,0,0,1,.74,1.69A7.92,7.92,0,0,1,642.25,380.4Z"/><path d="M657.32,411.76a9.16,9.16,0,0,1-6.77-2.9,12.49,12.49,0,0,1-3.33-8.7,15.17,15.17,0,0,1,2.68-9.33,10.48,10.48,0,0,1,9.14-4.76,7.71,7.71,0,0,1,7.1,4.29,16.49,16.49,0,0,1,1.85,8.35,15.14,15.14,0,0,1-2.72,8.88A9.34,9.34,0,0,1,657.32,411.76Zm1.41-20.93a5.92,5.92,0,0,0-5.37,3.28,12,12,0,0,0-1.52,6.05,7.29,7.29,0,0,0,1.85,5.3,5,5,0,0,0,3.63,1.57,5.72,5.72,0,0,0,4.2-1.78,7.55,7.55,0,0,0,2.11-5.32Q664,390.86,658.73,390.83Z"/><path d="M692.9,396.69c0,1.13,0,2.81,0,5.06s0,3.94,0,5.07c0,.34,0,.86.08,1.57s.08,1.22.08,1.57a2.15,2.15,0,0,1-.68,1.65,2.3,2.3,0,0,1-1.66.64c-1.2,0-2-.74-2.3-2.22a14.47,14.47,0,0,1-6.75,1.52,8.86,8.86,0,0,1-5.08-1.36,6.06,6.06,0,0,1-2.65-4.38,76.88,76.88,0,0,1-.92-11.06,43.87,43.87,0,0,1,.71-7.32,2.09,2.09,0,0,1,2.22-2,2.35,2.35,0,0,1,1.69.65,2.15,2.15,0,0,1,.68,1.65,26.74,26.74,0,0,1-.34,3.45,28.6,28.6,0,0,0-.34,3.61q0,3.92.26,6.7a23.4,23.4,0,0,0,.77,4.48,8.18,8.18,0,0,0,1.53.64,5.09,5.09,0,0,0,1.47.22,24,24,0,0,0,6.64-1l0-4.76,0-4.55a74.8,74.8,0,0,1,.44-8.79,2.11,2.11,0,0,1,2.27-2.15,2.31,2.31,0,0,1,1.69.65,2,2,0,0,1,.63,1.64Z"/><path d="M732.61,411.34a2.18,2.18,0,0,1-2-1.36,39.53,39.53,0,0,0-3.68-5.6l-4.14-5.65q-1.37,1.08-4.22,3-.26,3.64-.26,7.08a2.31,2.31,0,0,1-.65,1.71,2.21,2.21,0,0,1-1.65.66c-1.58,0-2.36-1.06-2.36-3.19,0-1.3.08-3.24.26-5.82s.27-4.53.27-5.83c0-2.37,0-5.09.11-8.14s.11-5.76.11-8.1c0-.7,0-1.53-.11-2.48s-.11-1.78-.11-2.49a2.35,2.35,0,0,1,.65-1.71,2.42,2.42,0,0,1,3.3,0,2.35,2.35,0,0,1,.65,1.71q0,1.08.12,2.55c.07,1,.11,1.82.11,2.54l-.16,7.55q-.12,4.06-.07,8.15a65,65,0,0,0,6.14-5.34l5.15-5.32a2.33,2.33,0,0,1,1.67-.8,2.52,2.52,0,0,1,2.39,2.41,2.37,2.37,0,0,1-.68,1.57,84.49,84.49,0,0,1-7.1,7.25l5.11,7c2.39,3.26,3.58,5.39,3.58,6.37a2.12,2.12,0,0,1-.73,1.62A2.47,2.47,0,0,1,732.61,411.34Z"/><path d="M744.54,399.74c0,.94,0,2.34.08,4.21s.08,3.26.08,4.2a2.34,2.34,0,0,1-.63,1.69,2.42,2.42,0,0,1-3.32,0,2.31,2.31,0,0,1-.64-1.69q0-1.41-.09-4.2c0-1.87-.08-3.27-.08-4.21,0-1.47.08-3.3.24-5.5s.23-4,.23-5.49a2.31,2.31,0,0,1,.65-1.71,2.39,2.39,0,0,1,3.3,0,2.31,2.31,0,0,1,.64,1.71c0,1.46-.07,3.3-.23,5.49S744.54,398.27,744.54,399.74Zm-1.06-19a2.68,2.68,0,0,1-1.94-.8,2.66,2.66,0,0,1,0-3.84,2.68,2.68,0,0,1,1.94-.8,2.64,2.64,0,0,1,1.93.8,2.68,2.68,0,0,1,0,3.84A2.64,2.64,0,0,1,743.48,380.71Z"/><path d="M758.41,392l-.35,11.65c0,1.23-.06,3-.19,5.43-.15,1.57-.92,2.35-2.3,2.35-1.53,0-2.29-.8-2.29-2.39,0-1.89.08-4.73.26-8.52s.25-6.63.25-8.52q0-3.7.12-8.48T754,375a2.31,2.31,0,1,1,4.62,0q0,3.71-.12,8.47T758.41,392Z"/><path d="M771.56,392l-.35,11.65c0,1.23-.06,3-.19,5.43-.16,1.57-.92,2.35-2.3,2.35s-2.29-.8-2.29-2.39q0-2.83.25-8.52c.18-3.79.26-6.63.26-8.52q0-3.7.12-8.48t.12-8.47a2.31,2.31,0,1,1,4.61,0q0,3.71-.11,8.47T771.56,392Z"/><path d="M789.7,411.46a13.28,13.28,0,0,1-8.58-2.65,10,10,0,0,1-3.58-8.2,17.08,17.08,0,0,1,3-10.22,10,10,0,0,1,8.58-4.5,13.4,13.4,0,0,1,6.35,1.31,5.29,5.29,0,0,1,3,5q0,2.34-2.65,4.26a36,36,0,0,1-5,2.63l-9,4.24a8.63,8.63,0,0,0,3.27,2.93,10,10,0,0,0,4.56,1,14.65,14.65,0,0,0,3.8-.6c1.84-.52,3-1.2,3.56-2s1.1-1.26,1.71-1.26a2,2,0,0,1,1.46.63,1.93,1.93,0,0,1,.65,1.44q0,2.6-4.2,4.47A17,17,0,0,1,789.7,411.46Zm-.63-21.35a6,6,0,0,0-4.76,2.21,15,15,0,0,0-2.84,6.67l7.2-3.42a31.1,31.1,0,0,0,6.05-3.59A8,8,0,0,0,789.07,390.11Z"/><path d="M826.64,389.68q-.28,3.45-.28,6.89a71.46,71.46,0,0,0,.72,11.79,4.31,4.31,0,0,1,0,.54,2,2,0,0,1-.66,1.55,2.13,2.13,0,0,1-1.52.61c-1,0-1.68-.7-2.13-2.11a13.27,13.27,0,0,1-3.51,1.87,11.2,11.2,0,0,1-3.78.64,10.79,10.79,0,0,1-8-3.24,11.51,11.51,0,0,1-3.28-8.48q0-6.25,3.31-10a10.94,10.94,0,0,1,8.62-3.78,8.43,8.43,0,0,1,4.19.85l2.21,1.61q.32-9.86.77-13.28c.2-1.4.91-2.09,2.13-2.09,1.42,0,2.13.76,2.13,2.27Q827.57,378.54,826.64,389.68Zm-10.41.61a7.33,7.33,0,0,0-5.91,2.33q-2,2.34-2,7a7.17,7.17,0,0,0,2.14,5.21,6.85,6.85,0,0,0,5,2.18,6.94,6.94,0,0,0,3.33-.73,18.69,18.69,0,0,0,2.6-1.94,6,6,0,0,0,.68-.73l-.07-4.06,0-2.71,0-2.77a6.7,6.7,0,0,0-2.37-2.85A6.41,6.41,0,0,0,816.23,390.29Z"/><path d="M863.27,390.41c-.33,0-.72,0-1.16-.05s-.83,0-1.16,0-1.42.11-3.19.35l.45,13.85,0,1,0,1.2q.11,5.13-2.46,5.13a2.38,2.38,0,0,1-1.63-.61,2,2,0,0,1-.69-1.52c0-.6,0-1.49.07-2.68s.07-2.07.07-2.67l-.47-13.69c-1.14,0-2.87-.17-5.2-.39a2.12,2.12,0,0,1-2.08-2.32,2.41,2.41,0,0,1,.63-1.71,2.09,2.09,0,0,1,1.62-.68L853,386c0-.79,0-1.86-.11-3.2s-.1-2.3-.1-2.89a2.12,2.12,0,0,1,.68-1.63,2.3,2.3,0,0,1,1.66-.64c1.41,0,2.23,1.15,2.46,3.44,0,.58.07,1.28.07,2.09l-.05,1.36,0,1.45c1.94-.25,3-.37,3.33-.37a13.3,13.3,0,0,1,3.19.23,2.06,2.06,0,0,1,1.43,2.2,2.34,2.34,0,0,1-.65,1.7A2.18,2.18,0,0,1,863.27,390.41Z"/><path d="M889.82,411.83a2.14,2.14,0,0,1-2.18-1.78,41.92,41.92,0,0,1-1-5.46,47.39,47.39,0,0,1-.42-5.58c0-.4,0-1,.06-1.85s.06-1.45.06-1.85q0-4.41-2.21-4.41a6.93,6.93,0,0,0-5.32,2.7,33,33,0,0,0-3.28,5.27c0,5.95-.25,9.48-.75,10.57a2.15,2.15,0,0,1-2,1.45,2.44,2.44,0,0,1-1.69-.65,2.09,2.09,0,0,1-.72-1.6,4.16,4.16,0,0,1,.21-1,19.14,19.14,0,0,0,.26-3.42l.07-3.47L871,383.5c.11-1.94.16-3.25.16-3.92a11,11,0,0,0-.22-2.26,10.69,10.69,0,0,1-.22-2.21,2.12,2.12,0,0,1,.68-1.63,2.31,2.31,0,0,1,1.66-.65,2.12,2.12,0,0,1,2.25,2.06,25.51,25.51,0,0,1,.37,4.11c0,1.64,0,3.35-.16,5.13s-.13,3.41-.12,5.13l0,2.06a14.17,14.17,0,0,1,4.11-3.85,9.1,9.1,0,0,1,4.65-1.28c2.6,0,4.38.85,5.35,2.53q1,1.78,1.17,6l.19,4.48.46,4.87c.22,1.83.49,3.44.8,4.83a3.18,3.18,0,0,1,.09.68,2.09,2.09,0,0,1-.7,1.61A2.41,2.41,0,0,1,889.82,411.83Z"/><path d="M916.17,393.06c-.11,1.95-.89,2.93-2.35,2.93s-2-.78-2-2.32c0-.3,0-.85-.07-1.64l-.07-2a12.39,12.39,0,0,0-5.93,2.08,11.25,11.25,0,0,0-3.47,4.6l.05,12.84A2.08,2.08,0,0,1,900,412q-2.07,0-2.07-2.37V393.13c0-.52,0-1.29.06-2.32s.06-1.81.06-2.32c0-1.58.69-2.37,2.06-2.37,1.53,0,2.31,1.3,2.32,3.89a14.09,14.09,0,0,1,10-4.33,3.14,3.14,0,0,1,2.83,1.43,7.9,7.9,0,0,1,.94,4.31C916.19,392.23,916.18,392.78,916.17,393.06Z"/><path d="M931.94,411.46a13.28,13.28,0,0,1-8.58-2.65,10,10,0,0,1-3.58-8.2,17.08,17.08,0,0,1,3-10.22,10,10,0,0,1,8.58-4.5,13.4,13.4,0,0,1,6.35,1.31,5.28,5.28,0,0,1,3,5q0,2.34-2.64,4.26a37.34,37.34,0,0,1-5,2.63l-9,4.24a8.63,8.63,0,0,0,3.27,2.93,10,10,0,0,0,4.56,1,14.58,14.58,0,0,0,3.8-.6c1.84-.52,3-1.2,3.56-2s1.1-1.26,1.71-1.26a2,2,0,0,1,1.47.63,1.92,1.92,0,0,1,.64,1.44q0,2.6-4.19,4.47A17,17,0,0,1,931.94,411.46Zm-.63-21.35a6,6,0,0,0-4.76,2.21,15.08,15.08,0,0,0-2.84,6.67l7.2-3.42A31.1,31.1,0,0,0,937,392,8,8,0,0,0,931.31,390.11Z"/><path d="M958.24,411.46a13.28,13.28,0,0,1-8.58-2.65,10,10,0,0,1-3.59-8.2,17.08,17.08,0,0,1,3-10.22,10,10,0,0,1,8.58-4.5A13.4,13.4,0,0,1,964,387.2a5.29,5.29,0,0,1,3,5q0,2.34-2.65,4.26a36.68,36.68,0,0,1-5,2.63l-9,4.24a8.63,8.63,0,0,0,3.27,2.93,10,10,0,0,0,4.56,1,14.65,14.65,0,0,0,3.8-.6c1.84-.52,3-1.2,3.56-2s1.1-1.26,1.71-1.26a2,2,0,0,1,1.46.63,1.93,1.93,0,0,1,.65,1.44q0,2.6-4.2,4.47A17,17,0,0,1,958.24,411.46Zm-.63-21.35a6,6,0,0,0-4.76,2.21A15,15,0,0,0,950,399l7.2-3.42a30.65,30.65,0,0,0,6-3.59A8,8,0,0,0,957.61,390.11Z"/><path d="M993.89,392l-.35,11.65c0,1.23-.07,3-.19,5.43-.16,1.57-.92,2.35-2.3,2.35s-2.3-.8-2.3-2.39q0-2.83.26-8.52t.26-8.52q0-3.7.12-8.48t.11-8.47a2.31,2.31,0,1,1,4.62,0q0,3.71-.12,8.47T993.89,392Z"/><path d="M1006.61,399.74c0,.94,0,2.34.09,4.21s.08,3.26.08,4.2a2.31,2.31,0,0,1-.64,1.69,2.18,2.18,0,0,1-1.66.66,2.21,2.21,0,0,1-1.65-.66,2.32,2.32,0,0,1-.65-1.69c0-.94,0-2.34-.08-4.2s-.08-3.27-.08-4.21c0-1.47.08-3.3.23-5.5s.24-4,.24-5.49a2.31,2.31,0,0,1,.64-1.71,2.41,2.41,0,0,1,3.31,0,2.31,2.31,0,0,1,.64,1.71c0,1.46-.08,3.3-.23,5.49S1006.61,398.27,1006.61,399.74Zm-1.05-19a2.72,2.72,0,0,1-1.95-.8,2.66,2.66,0,0,1,0-3.84,2.72,2.72,0,0,1,1.95-.8,2.66,2.66,0,0,1,1.93.8,2.68,2.68,0,0,1,0,3.84A2.66,2.66,0,0,1,1005.56,380.71Z"/><path d="M1030.21,390.41c-.32,0-.71,0-1.16-.05s-.83,0-1.16,0-1.42.11-3.18.35l.44,13.85,0,1,0,1.2q.09,5.13-2.46,5.13a2.36,2.36,0,0,1-1.63-.61,2,2,0,0,1-.69-1.52c0-.6,0-1.49.07-2.68s.07-2.07.07-2.67l-.47-13.69c-1.14,0-2.88-.17-5.2-.39a2.13,2.13,0,0,1-2.09-2.32,2.41,2.41,0,0,1,.63-1.71,2.1,2.1,0,0,1,1.62-.68l4.92.39c0-.79,0-1.86-.1-3.2s-.11-2.3-.11-2.89a2.16,2.16,0,0,1,.68-1.63,2.33,2.33,0,0,1,1.67-.64c1.4,0,2.22,1.15,2.46,3.44,0,.58.07,1.28.07,2.09l-.05,1.36,0,1.45c1.93-.25,3-.37,3.32-.37a13.24,13.24,0,0,1,3.19.23,2.05,2.05,0,0,1,1.43,2.2,2.33,2.33,0,0,1-.64,1.7A2.19,2.19,0,0,1,1030.21,390.41Z"/><path d="M1052.83,390.41c-.33,0-.71,0-1.16-.05s-.83,0-1.16,0-1.42.11-3.19.35l.45,13.85,0,1,0,1.2q.09,5.13-2.46,5.13a2.36,2.36,0,0,1-1.63-.61,2,2,0,0,1-.69-1.52c0-.6,0-1.49.07-2.68s.07-2.07.07-2.67l-.47-13.69c-1.14,0-2.88-.17-5.21-.39a2.12,2.12,0,0,1-2.08-2.32,2.41,2.41,0,0,1,.63-1.71,2.09,2.09,0,0,1,1.62-.68l4.92.39c0-.79,0-1.86-.11-3.2s-.1-2.3-.1-2.89a2.16,2.16,0,0,1,.68-1.63,2.32,2.32,0,0,1,1.66-.64c1.41,0,2.23,1.15,2.46,3.44,0,.58.07,1.28.07,2.09l0,1.36,0,1.45c1.94-.25,3-.37,3.33-.37a13.24,13.24,0,0,1,3.19.23,2.06,2.06,0,0,1,1.43,2.2,2.34,2.34,0,0,1-.65,1.7A2.18,2.18,0,0,1,1052.83,390.41Z"/><path d="M1065.72,392l-.35,11.65c0,1.23-.06,3-.19,5.43-.15,1.57-.92,2.35-2.29,2.35-1.53,0-2.3-.8-2.3-2.39q0-2.83.26-8.52t.26-8.52c0-2.47,0-5.3.11-8.48s.12-6,.12-8.47a2.31,2.31,0,1,1,4.62,0q0,3.71-.12,8.47T1065.72,392Z"/><path d="M1083.86,411.46a13.23,13.23,0,0,1-8.57-2.65,10,10,0,0,1-3.59-8.2,17.08,17.08,0,0,1,3-10.22,10,10,0,0,1,8.58-4.5,13.4,13.4,0,0,1,6.35,1.31,5.29,5.29,0,0,1,3,5c0,1.56-.89,3-2.65,4.26a36.68,36.68,0,0,1-5,2.63l-9,4.24a8.53,8.53,0,0,0,3.26,2.93,10,10,0,0,0,4.56,1,14.58,14.58,0,0,0,3.8-.6c1.84-.52,3-1.2,3.56-2s1.1-1.26,1.71-1.26a2,2,0,0,1,1.47.63,1.92,1.92,0,0,1,.64,1.44q0,2.6-4.19,4.47A17,17,0,0,1,1083.86,411.46Zm-.63-21.35a6,6,0,0,0-4.76,2.21,15,15,0,0,0-2.83,6.67l7.19-3.42a30.79,30.79,0,0,0,6.05-3.59A8,8,0,0,0,1083.23,390.11Z"/><path d="M636.35,469.53c-.3,0-.84-.35-1.62-1a10.44,10.44,0,0,1-1.57-1.71,28.7,28.7,0,0,1-4,1.84,8.55,8.55,0,0,1-2.86.62q-5.49,0-8-3.09-2.37-2.91-2.37-8.91a13.45,13.45,0,0,1,3.9-9.7,12.51,12.51,0,0,1,9.32-4,12.09,12.09,0,0,1,4.57,1.05c2.13.88,3.19,1.93,3.19,3.17a1.58,1.58,0,0,1-.47,1.12,16.31,16.31,0,0,0-.36,2.93c-.09,1.36-.14,3.1-.16,5.23a19.39,19.39,0,0,0,.4,4.59,35.54,35.54,0,0,0,1.48,4.13c.11.28.29.69.54,1.24l.14.4a2,2,0,0,1-.66,1.55A2.19,2.19,0,0,1,636.35,469.53Zm-4.88-16.29c0-.68,0-1.41.13-2.2s.22-1.62.39-2.51a11.33,11.33,0,0,0-1.49-.66,3.3,3.3,0,0,0-1-.21,8.15,8.15,0,0,0-6.27,3,11.23,11.23,0,0,0-1.27,12.6,4.65,4.65,0,0,0,4.08,1.92,8.14,8.14,0,0,0,3.82-.82,13.57,13.57,0,0,0,2.36-1.78A85.15,85.15,0,0,1,631.47,453.24Z"/><path d="M660.58,469.64c-1.34,0-2.1-.73-2.27-2.2l-.66-5.13a43.16,43.16,0,0,1-.33-5.14c0-.43,0-1.18.09-2.22s.08-1.79.08-2.23q0-5.06-1.88-5.06-2.62,0-5,3.12a21.32,21.32,0,0,0-3.38,7.17c0,.61-.1,1.37-.21,2.29a20.06,20.06,0,0,0-.14,2.28c0,.47,0,1.17.14,2.11a20.93,20.93,0,0,1,.14,2.11,2.34,2.34,0,0,1-.64,1.71,2.44,2.44,0,0,1-3.32,0,2.37,2.37,0,0,1-.63-1.71c0-.47,0-1.18-.15-2.11s-.16-1.64-.16-2.11c0-1.61.12-3.84.34-6.69s.34-5.09.34-6.7c0-.5,0-1.24-.08-2.22s-.08-1.73-.08-2.23a2.18,2.18,0,0,1,.67-1.65,2.27,2.27,0,0,1,1.65-.65c1.44,0,2.23,1,2.37,3.05l.07,2.74q3.93-5.25,8.08-5.25a5.28,5.28,0,0,1,5.23,3.31,17.2,17.2,0,0,1,1.1,6.51v2.37l0,2.18a33.22,33.22,0,0,0,.5,5,32,32,0,0,1,.51,5,2.25,2.25,0,0,1-.67,1.68A2.33,2.33,0,0,1,660.58,469.64Z"/><path d="M673.26,457.34c0,.94,0,2.34.08,4.2s.09,3.27.09,4.21a2.31,2.31,0,0,1-.64,1.69,2.18,2.18,0,0,1-1.66.66,2.21,2.21,0,0,1-1.65-.66,2.32,2.32,0,0,1-.65-1.69c0-.94,0-2.34-.08-4.21s-.08-3.26-.08-4.2c0-1.47.08-3.3.23-5.5s.24-4,.24-5.49a2.35,2.35,0,0,1,.64-1.72,2.43,2.43,0,0,1,3.31,0,2.35,2.35,0,0,1,.64,1.72c0,1.46-.08,3.3-.23,5.49S673.26,455.87,673.26,457.34Zm-1-19a2.72,2.72,0,0,1-2-.8,2.66,2.66,0,0,1,0-3.84,2.68,2.68,0,0,1,2-.8,2.62,2.62,0,0,1,1.93.8,2.68,2.68,0,0,1,0,3.84A2.66,2.66,0,0,1,672.21,438.31Z"/><path d="M711,469.92a2.11,2.11,0,0,1-2.25-2c-.28-1.71-.56-4.14-.84-7.26l-.8-7.27a15.92,15.92,0,0,0-.8-3.16c-.53-1.41-1.11-2.11-1.73-2.11a8.15,8.15,0,0,0-3.24,1.48,13,13,0,0,0-2.95,2.18c0,1.47,0,2.93.12,4.4l.7,6.26a52.59,52.59,0,0,1,.45,6.12,2.36,2.36,0,0,1-.65,1.7,2.39,2.39,0,0,1-3.3,0,2.36,2.36,0,0,1-.65-1.7c0-1.89-.19-4.69-.57-8.38s-.58-6.49-.58-8.38a8.66,8.66,0,0,0-.7-3.87,12,12,0,0,0-3.33,2.44l-2.76,3.09a13.45,13.45,0,0,1-1.2,1.48c0,.94-.08,2.32-.26,4.15s-.25,3.18-.25,4.05a11.89,11.89,0,0,0,.22,2,11.88,11.88,0,0,1,.22,1.83,2.14,2.14,0,0,1-.71,1.62,2.4,2.4,0,0,1-1.68.65c-1.76,0-2.65-2-2.65-6,0-.94.09-2.34.26-4.19s.26-3.26.26-4.2-.08-2.07-.22-3.73-.23-2.9-.23-3.75c0-3.54.8-5.32,2.39-5.32a2.3,2.3,0,0,1,1.68.8,2.45,2.45,0,0,1,.76,1.73,12.24,12.24,0,0,1-.12,1.39,14.09,14.09,0,0,0-.11,1.43l0,2.46a14.19,14.19,0,0,1,3.59-4.54q2.37-2,4-2a5.05,5.05,0,0,1,5.06,3.65,8.53,8.53,0,0,1,3.07-2.57,9.33,9.33,0,0,1,4.08-.85q3.91,0,5.35,4.22a65.86,65.86,0,0,1,1,6.58c.43,2.69,1,7.17,1.68,13.43a1.88,1.88,0,0,1-.63,1.6A2.4,2.4,0,0,1,711,469.92Z"/><path d="M736.78,469.53c-.3,0-.84-.35-1.62-1a10.44,10.44,0,0,1-1.57-1.71,28.7,28.7,0,0,1-4,1.84,8.55,8.55,0,0,1-2.86.62q-5.49,0-8-3.09-2.37-2.91-2.37-8.91a13.45,13.45,0,0,1,3.9-9.7,12.51,12.51,0,0,1,9.32-4,12.09,12.09,0,0,1,4.57,1.05c2.12.88,3.19,1.93,3.19,3.17a1.58,1.58,0,0,1-.47,1.12,16.31,16.31,0,0,0-.36,2.93c-.09,1.36-.14,3.1-.16,5.23a19.39,19.39,0,0,0,.4,4.59,35.54,35.54,0,0,0,1.48,4.13c.11.28.29.69.54,1.24l.14.4a2,2,0,0,1-.66,1.55A2.19,2.19,0,0,1,736.78,469.53Zm-4.88-16.29c0-.68.05-1.41.13-2.2s.22-1.62.39-2.51a11.33,11.33,0,0,0-1.49-.66,3.3,3.3,0,0,0-1-.21,8.15,8.15,0,0,0-6.27,3,11.23,11.23,0,0,0-1.27,12.6,4.65,4.65,0,0,0,4.08,1.92,8.14,8.14,0,0,0,3.82-.82,13.57,13.57,0,0,0,2.36-1.78A85.15,85.15,0,0,1,731.9,453.24Z"/><path d="M749,449.56l-.35,11.65c0,1.23-.07,3-.19,5.43-.16,1.57-.92,2.35-2.3,2.35s-2.29-.8-2.29-2.39q0-2.84.25-8.52c.18-3.79.26-6.63.26-8.52q0-3.71.12-8.48t.12-8.47a2.31,2.31,0,1,1,4.61,0q0,3.7-.11,8.47T749,449.56Z"/><path d="M772,449.93a1.92,1.92,0,0,1-1.8-.87,8.09,8.09,0,0,1-.61-2.53c-1.17.3-3,.85-5.41,1.64-2.52,1-3.78,2.24-3.8,3.71a8.33,8.33,0,0,0,1.38.37,22.69,22.69,0,0,1,8,2.65A8,8,0,0,1,773.6,462a6.28,6.28,0,0,1-3.31,5.76,13.64,13.64,0,0,1-6.93,1.59,16.69,16.69,0,0,1-5.86-1q-3.62-1.31-3.61-3.65a2.17,2.17,0,0,1,.74-1.64,2.36,2.36,0,0,1,1.67-.71,3.17,3.17,0,0,1,1.88,1.13,5.41,5.41,0,0,0,2.53.89,15.13,15.13,0,0,0,2.65.28,11.68,11.68,0,0,0,3.46-.47c1.46-.45,2.18-1.17,2.18-2.15q0-3.19-4.45-4.32l-2.44-.54a13.09,13.09,0,0,1-4.43-1.59,4.5,4.5,0,0,1-1.89-4,7.16,7.16,0,0,1,4.61-7,37.33,37.33,0,0,1,4.5-1.51,32.71,32.71,0,0,0,4.43-1.49,5.17,5.17,0,0,1,2.09-.42,2.21,2.21,0,0,1,1.65.66,2.35,2.35,0,0,1,.65,1.71,9.57,9.57,0,0,0,.29,2,10.42,10.42,0,0,1,.29,2,2.35,2.35,0,0,1-.64,1.72A2.25,2.25,0,0,1,772,449.93Z"/><path d="M802.68,469.36a9.16,9.16,0,0,1-6.77-2.9,12.49,12.49,0,0,1-3.33-8.7,15.23,15.23,0,0,1,2.67-9.33,10.51,10.51,0,0,1,9.15-4.76,7.71,7.71,0,0,1,7.1,4.29,16.6,16.6,0,0,1,1.85,8.35,15.21,15.21,0,0,1-2.72,8.88A9.34,9.34,0,0,1,802.68,469.36Zm1.41-20.93a5.91,5.91,0,0,0-5.37,3.28,12,12,0,0,0-1.52,6.05,7.29,7.29,0,0,0,1.85,5.3,5,5,0,0,0,3.63,1.57,5.72,5.72,0,0,0,4.2-1.78,7.55,7.55,0,0,0,2.11-5.32Q809.32,448.46,804.09,448.43Z"/><path d="M837.11,469.64c-1.34,0-2.1-.73-2.27-2.2l-.66-5.13a43.05,43.05,0,0,1-.32-5.14c0-.43,0-1.18.08-2.22s.08-1.79.08-2.23q0-5.06-1.88-5.06-2.62,0-5,3.12a21.32,21.32,0,0,0-3.38,7.17c0,.61-.1,1.37-.21,2.29a20.06,20.06,0,0,0-.14,2.28c0,.47.05,1.17.14,2.11a20.93,20.93,0,0,1,.14,2.11,2.34,2.34,0,0,1-.64,1.71,2.44,2.44,0,0,1-3.32,0,2.37,2.37,0,0,1-.63-1.71c0-.47-.05-1.18-.15-2.11s-.15-1.64-.15-2.11q0-2.41.33-6.69t.34-6.7c0-.5,0-1.24-.08-2.22s-.08-1.73-.08-2.23A2.18,2.18,0,0,1,820,443a2.27,2.27,0,0,1,1.65-.65c1.44,0,2.23,1,2.37,3.05l.07,2.74q3.93-5.25,8.08-5.25a5.28,5.28,0,0,1,5.23,3.31,17.2,17.2,0,0,1,1.1,6.51v2.37l0,2.18a33.22,33.22,0,0,0,.5,5,32,32,0,0,1,.51,5,2.25,2.25,0,0,1-.67,1.68A2.32,2.32,0,0,1,837.11,469.64Z"/><path d="M879,447.07l-8.11,17.53q-3,6.4-4.59,10.71l-1.55,4.55a2.17,2.17,0,0,1-2.11,1.69,2.47,2.47,0,0,1-1.7-.65,2.08,2.08,0,0,1-.71-1.6q0-2.34,5.06-13.57l-8.39-16.15-1.05-1.71a3.73,3.73,0,0,1-.64-1.81,2.52,2.52,0,0,1,2.39-2.41,1.92,1.92,0,0,1,1.67.82,92.25,92.25,0,0,1,8.55,15.75l3.47-8.09c1.25-2.79,2.46-5.2,3.61-7.21a2.23,2.23,0,0,1,2-1.32,2.45,2.45,0,0,1,1.7.68,2.16,2.16,0,0,1,.74,1.62A2.76,2.76,0,0,1,879,447.07Z"/><path d="M892.38,469.36a9.14,9.14,0,0,1-6.77-2.9,12.49,12.49,0,0,1-3.33-8.7,15.1,15.1,0,0,1,2.67-9.33,10.49,10.49,0,0,1,9.14-4.76,7.71,7.71,0,0,1,7.1,4.29,16.49,16.49,0,0,1,1.85,8.35,15.07,15.07,0,0,1-2.72,8.88A9.32,9.32,0,0,1,892.38,469.36Zm1.41-20.93a5.91,5.91,0,0,0-5.37,3.28,11.88,11.88,0,0,0-1.53,6.05,7.25,7.25,0,0,0,1.86,5.3,5,5,0,0,0,3.63,1.57,5.71,5.71,0,0,0,4.19-1.78,7.51,7.51,0,0,0,2.11-5.32Q899,448.46,893.79,448.43Z"/><path d="M928,454.29c0,1.13,0,2.81,0,5.06s0,3.94,0,5.07c0,.34,0,.86.09,1.57s.08,1.22.08,1.57a2.19,2.19,0,0,1-.68,1.65,2.33,2.33,0,0,1-1.67.64c-1.2,0-2-.74-2.29-2.22a14.53,14.53,0,0,1-6.75,1.52,8.9,8.9,0,0,1-5.09-1.36,6.09,6.09,0,0,1-2.65-4.38,76.75,76.75,0,0,1-.91-11.06,43.77,43.77,0,0,1,.7-7.32,2.1,2.1,0,0,1,2.23-2,2.38,2.38,0,0,1,1.69.65,2.19,2.19,0,0,1,.68,1.65,28.72,28.72,0,0,1-.34,3.45,26.82,26.82,0,0,0-.34,3.61q0,3.91.25,6.7a23.3,23.3,0,0,0,.78,4.48,7.84,7.84,0,0,0,1.52.64,5.11,5.11,0,0,0,1.48.22,23.65,23.65,0,0,0,6.63-1l0-4.75,0-4.55a74.59,74.59,0,0,1,.45-8.79,2.11,2.11,0,0,1,2.27-2.16,2.35,2.35,0,0,1,1.69.66,2.06,2.06,0,0,1,.63,1.64Z"/><path d="M952,450.66c-.11,1.95-.89,2.93-2.35,2.93s-2-.78-2-2.32c0-.3,0-.85-.07-1.64l-.07-2a12.39,12.39,0,0,0-5.93,2.08,11.25,11.25,0,0,0-3.47,4.6l0,12.84a2.08,2.08,0,0,1-2.32,2.37q-2.07,0-2.07-2.37V450.73c0-.52,0-1.29.06-2.32s.06-1.81.06-2.32c0-1.58.69-2.37,2.06-2.37,1.53,0,2.31,1.3,2.32,3.89a14.09,14.09,0,0,1,10-4.33,3.14,3.14,0,0,1,2.83,1.43,7.9,7.9,0,0,1,.94,4.31C952.05,449.83,952,450.38,952,450.66Z"/><path d="M987,449.93a1.94,1.94,0,0,1-1.81-.87,8.17,8.17,0,0,1-.6-2.53c-1.18.3-3,.85-5.42,1.64q-3.77,1.5-3.8,3.71a8.18,8.18,0,0,0,1.39.37,22.69,22.69,0,0,1,8,2.65,8,8,0,0,1,3.82,7.13,6.29,6.29,0,0,1-3.3,5.76,13.68,13.68,0,0,1-6.94,1.59,16.69,16.69,0,0,1-5.86-1c-2.4-.87-3.61-2.09-3.61-3.65a2.2,2.2,0,0,1,.74-1.64,2.37,2.37,0,0,1,1.68-.71,3.15,3.15,0,0,1,1.87,1.13,5.46,5.46,0,0,0,2.53.89,15.22,15.22,0,0,0,2.65.28,11.75,11.75,0,0,0,3.47-.47c1.45-.45,2.18-1.17,2.18-2.15q0-3.19-4.45-4.32l-2.44-.54a12.92,12.92,0,0,1-4.43-1.59,4.48,4.48,0,0,1-1.9-4,7.17,7.17,0,0,1,4.62-7,37.33,37.33,0,0,1,4.5-1.51,33.22,33.22,0,0,0,4.43-1.49,5.12,5.12,0,0,1,2.08-.42,2.21,2.21,0,0,1,1.66.66,2.34,2.34,0,0,1,.64,1.71,10.31,10.31,0,0,0,.29,2,9.84,9.84,0,0,1,.3,2,2.35,2.35,0,0,1-.65,1.72A2.24,2.24,0,0,1,987,449.93Z"/><path d="M1014.18,469.43a2.14,2.14,0,0,1-2.18-1.78,40.27,40.27,0,0,1-1-5.46,47.39,47.39,0,0,1-.42-5.58c0-.4,0-1,.06-1.85s.05-1.45.05-1.85q0-4.41-2.2-4.41a6.93,6.93,0,0,0-5.32,2.7,32.27,32.27,0,0,0-3.28,5.27c0,5.95-.25,9.48-.75,10.57a2.15,2.15,0,0,1-2,1.45,2.44,2.44,0,0,1-1.69-.65,2.09,2.09,0,0,1-.72-1.6,4.16,4.16,0,0,1,.21-1,19.14,19.14,0,0,0,.26-3.42l.07-3.47.07-17.22c.11-1.94.16-3.25.16-3.92a10.9,10.9,0,0,0-.22-2.26,10.69,10.69,0,0,1-.22-2.21,2.15,2.15,0,0,1,.67-1.63,2.35,2.35,0,0,1,1.67-.65,2.12,2.12,0,0,1,2.25,2.06,25.51,25.51,0,0,1,.37,4.11c0,1.64,0,3.35-.16,5.13s-.13,3.41-.12,5.13l0,2.06a14.17,14.17,0,0,1,4.11-3.85,9.1,9.1,0,0,1,4.65-1.28q3.9,0,5.35,2.53,1,1.79,1.17,6l.18,4.48.47,4.87c.22,1.83.49,3.44.8,4.83a3.18,3.18,0,0,1,.09.68,2.09,2.09,0,0,1-.7,1.61A2.41,2.41,0,0,1,1014.18,469.43Z"/><path d="M1031.08,469.36a9.16,9.16,0,0,1-6.77-2.9,12.49,12.49,0,0,1-3.33-8.7,15.23,15.23,0,0,1,2.67-9.33,10.5,10.5,0,0,1,9.14-4.76,7.69,7.69,0,0,1,7.1,4.29,16.49,16.49,0,0,1,1.86,8.35,15.21,15.21,0,0,1-2.72,8.88A9.34,9.34,0,0,1,1031.08,469.36Zm1.41-20.93a5.91,5.91,0,0,0-5.37,3.28,12,12,0,0,0-1.52,6.05,7.25,7.25,0,0,0,1.85,5.3,5,5,0,0,0,3.63,1.57,5.72,5.72,0,0,0,4.2-1.78,7.55,7.55,0,0,0,2.11-5.32Q1037.72,448.46,1032.49,448.43Z"/><path d="M1065.77,450.66c-.11,1.95-.89,2.93-2.34,2.93s-2-.78-2-2.32c0-.3,0-.85-.07-1.64l-.07-2a12.39,12.39,0,0,0-5.93,2.08,11.25,11.25,0,0,0-3.47,4.6l.05,12.84a2.08,2.08,0,0,1-2.32,2.37c-1.38,0-2.06-.79-2.06-2.37V450.73c0-.52,0-1.29,0-2.32s.06-1.81.06-2.32c0-1.58.69-2.37,2.06-2.37,1.54,0,2.31,1.3,2.33,3.89a14.07,14.07,0,0,1,10-4.33,3.15,3.15,0,0,1,2.84,1.43,8,8,0,0,1,.93,4.31C1065.79,449.83,1065.79,450.38,1065.77,450.66Z"/><path d="M1086.28,448c-.33,0-.72,0-1.16-.05s-.83,0-1.16,0-1.42.11-3.19.35l.44,13.85,0,1,0,1.2q.09,5.13-2.46,5.13a2.38,2.38,0,0,1-1.63-.61,2,2,0,0,1-.69-1.52c0-.6,0-1.49.07-2.68s.07-2.07.07-2.67l-.47-13.69c-1.14,0-2.87-.18-5.2-.39a2.13,2.13,0,0,1-2.09-2.32,2.41,2.41,0,0,1,.64-1.72,2.11,2.11,0,0,1,1.61-.67l4.93.39c0-.79,0-1.86-.11-3.2s-.11-2.3-.11-2.89a2.16,2.16,0,0,1,.68-1.63,2.34,2.34,0,0,1,1.67-.64c1.4,0,2.22,1.14,2.46,3.44,0,.58.07,1.28.07,2.09l0,1.36,0,1.45c1.94-.25,3-.37,3.33-.37a13.19,13.19,0,0,1,3.18.23,2.05,2.05,0,0,1,1.43,2.2,2.33,2.33,0,0,1-.64,1.7A2.18,2.18,0,0,1,1086.28,448Z"/><path d="M1123.24,448c-.33,0-.72,0-1.16-.05s-.83,0-1.16,0-1.42.11-3.19.35l.45,13.85,0,1,0,1.2c.07,3.42-.76,5.13-2.46,5.13a2.38,2.38,0,0,1-1.63-.61,2,2,0,0,1-.69-1.52c0-.6,0-1.49.07-2.68s.07-2.07.07-2.67l-.47-13.69c-1.14,0-2.87-.18-5.2-.39a2.13,2.13,0,0,1-2.09-2.32,2.46,2.46,0,0,1,.64-1.72,2.11,2.11,0,0,1,1.61-.67l4.93.39c0-.79,0-1.86-.11-3.2s-.1-2.3-.1-2.89a2.15,2.15,0,0,1,.67-1.63,2.34,2.34,0,0,1,1.67-.64c1.41,0,2.23,1.14,2.46,3.44.05.58.07,1.28.07,2.09l-.05,1.36,0,1.45c1.94-.25,3.05-.37,3.33-.37a13.3,13.3,0,0,1,3.19.23,2.06,2.06,0,0,1,1.43,2.2,2.34,2.34,0,0,1-.65,1.7A2.18,2.18,0,0,1,1123.24,448Z"/><path d="M1148.41,450.66c-.11,1.95-.89,2.93-2.34,2.93s-2-.78-2-2.32c0-.3,0-.85-.07-1.64l-.07-2a12.39,12.39,0,0,0-5.93,2.08,11.25,11.25,0,0,0-3.47,4.6l0,12.84a2.07,2.07,0,0,1-2.32,2.37c-1.38,0-2.06-.79-2.06-2.37V450.73c0-.52,0-1.29,0-2.32s.06-1.81.06-2.32q0-2.37,2.07-2.37,2.3,0,2.32,3.89a14.07,14.07,0,0,1,10-4.33,3.15,3.15,0,0,1,2.84,1.43,8,8,0,0,1,.93,4.31C1148.43,449.83,1148.43,450.38,1148.41,450.66Z"/><path d="M1158.77,457.34c0,.94,0,2.34.08,4.2s.08,3.27.08,4.21a2.34,2.34,0,0,1-.63,1.69,2.42,2.42,0,0,1-3.32,0,2.31,2.31,0,0,1-.64-1.69c0-.94,0-2.34-.08-4.21s-.08-3.26-.08-4.2c0-1.47.07-3.3.23-5.5s.23-4,.23-5.49a2.35,2.35,0,0,1,.65-1.72,2.42,2.42,0,0,1,3.3,0,2.35,2.35,0,0,1,.65,1.72c0,1.46-.08,3.3-.24,5.49S1158.77,455.87,1158.77,457.34Zm-1.06-19a2.7,2.7,0,0,1-1.94-.8,2.66,2.66,0,0,1,0-3.84,2.75,2.75,0,0,1,3.88,0,2.68,2.68,0,0,1,0,3.84A2.68,2.68,0,0,1,1157.71,438.31Z"/><path d="M1176.65,468.8a20.08,20.08,0,0,1-5.15-.75l0,11.2a2.32,2.32,0,0,1-.65,1.69,2.39,2.39,0,0,1-3.3,0,2.31,2.31,0,0,1-.64-1.69l.07-9.37v-9.35c0-3.43-.17-6.54-.36-9.36l-.35-4.75a6.06,6.06,0,0,1,.61-2.82,2.21,2.21,0,0,1,2-1.38,2.07,2.07,0,0,1,1.54.65,2.18,2.18,0,0,1,.62,1.58c0,.14,0,.4-.07.77s-.14.93-.17,1.34a17.68,17.68,0,0,1,3.89-2.08,10.4,10.4,0,0,1,3.59-.69,7.4,7.4,0,0,1,7,4.27,19.39,19.39,0,0,1,1.76,8.93,12.66,12.66,0,0,1-2.72,8.34A9.49,9.49,0,0,1,1176.65,468.8Zm1.62-20.32a7.9,7.9,0,0,0-3.89,1,16.26,16.26,0,0,0-3.14,2.48q.3,5.32.3,11.18a14.09,14.09,0,0,0,5.11,1,5.15,5.15,0,0,0,4.48-2.18,8.39,8.39,0,0,0,1.33-4.92,15,15,0,0,0-1-6.39A3.35,3.35,0,0,0,1178.27,448.48Z"/><path d="M1222.38,448c-.33,0-.72,0-1.16-.05s-.83,0-1.16,0-1.42.11-3.19.35l.45,13.85,0,1,0,1.2q.11,5.13-2.46,5.13a2.38,2.38,0,0,1-1.63-.61,2,2,0,0,1-.69-1.52c0-.6,0-1.49.07-2.68s.07-2.07.07-2.67l-.47-13.69c-1.14,0-2.87-.18-5.2-.39a2.13,2.13,0,0,1-2.09-2.32,2.46,2.46,0,0,1,.64-1.72,2.11,2.11,0,0,1,1.61-.67l4.93.39c0-.79,0-1.86-.11-3.2s-.1-2.3-.1-2.89a2.12,2.12,0,0,1,.68-1.63,2.3,2.3,0,0,1,1.66-.64c1.41,0,2.23,1.14,2.46,3.44,0,.58.07,1.28.07,2.09l0,1.36,0,1.45c1.94-.25,3-.37,3.33-.37a13.3,13.3,0,0,1,3.19.23,2.06,2.06,0,0,1,1.43,2.2,2.34,2.34,0,0,1-.65,1.7A2.18,2.18,0,0,1,1222.38,448Z"/><path d="M1248.93,469.43a2.14,2.14,0,0,1-2.18-1.78,40.27,40.27,0,0,1-1-5.46,47.39,47.39,0,0,1-.42-5.58c0-.4,0-1,.06-1.85s0-1.45,0-1.85q0-4.41-2.2-4.41a6.93,6.93,0,0,0-5.32,2.7,32.27,32.27,0,0,0-3.28,5.27c0,5.95-.25,9.48-.75,10.57a2.15,2.15,0,0,1-2,1.45,2.44,2.44,0,0,1-1.69-.65,2.09,2.09,0,0,1-.72-1.6,4.16,4.16,0,0,1,.21-1,19.14,19.14,0,0,0,.26-3.42l.07-3.47.07-17.22c.11-1.94.16-3.25.16-3.92a10.9,10.9,0,0,0-.22-2.26,10.69,10.69,0,0,1-.22-2.21,2.15,2.15,0,0,1,.67-1.63,2.35,2.35,0,0,1,1.67-.65,2.12,2.12,0,0,1,2.25,2.06,25.51,25.51,0,0,1,.37,4.11c0,1.64,0,3.35-.16,5.13s-.13,3.41-.12,5.13l0,2.06a14.17,14.17,0,0,1,4.11-3.85,9.1,9.1,0,0,1,4.65-1.28q3.9,0,5.35,2.53,1,1.79,1.17,6l.18,4.48.47,4.87c.22,1.83.49,3.44.8,4.83a3.18,3.18,0,0,1,.09.68,2.09,2.09,0,0,1-.7,1.61A2.41,2.41,0,0,1,1248.93,469.43Z"/><path d="M1275.28,450.66c-.11,1.95-.89,2.93-2.35,2.93s-2-.78-2-2.32c0-.3,0-.85-.07-1.64l-.07-2a12.39,12.39,0,0,0-5.93,2.08,11.25,11.25,0,0,0-3.47,4.6l0,12.84a2.08,2.08,0,0,1-2.32,2.37q-2.07,0-2.07-2.37V450.73c0-.52,0-1.29.06-2.32s.06-1.81.06-2.32c0-1.58.69-2.37,2.06-2.37,1.53,0,2.31,1.3,2.32,3.89a14.09,14.09,0,0,1,10-4.33,3.14,3.14,0,0,1,2.83,1.43,7.9,7.9,0,0,1,.94,4.31C1275.3,449.83,1275.29,450.38,1275.28,450.66Z"/><path d="M1288.89,469.36a9.16,9.16,0,0,1-6.77-2.9,12.49,12.49,0,0,1-3.33-8.7,15.23,15.23,0,0,1,2.67-9.33,10.51,10.51,0,0,1,9.15-4.76,7.71,7.71,0,0,1,7.1,4.29,16.49,16.49,0,0,1,1.85,8.35,15.14,15.14,0,0,1-2.72,8.88A9.34,9.34,0,0,1,1288.89,469.36Zm1.41-20.93a5.91,5.91,0,0,0-5.37,3.28,12,12,0,0,0-1.52,6.05,7.29,7.29,0,0,0,1.85,5.3,5,5,0,0,0,3.63,1.57,5.72,5.72,0,0,0,4.2-1.78,7.55,7.55,0,0,0,2.11-5.32Q1295.53,448.46,1290.3,448.43Z"/><path d="M1324.47,454.29c0,1.13,0,2.81,0,5.06s0,3.94,0,5.07c0,.34,0,.86.08,1.57s.08,1.22.08,1.57a2.15,2.15,0,0,1-.68,1.65,2.3,2.3,0,0,1-1.66.64c-1.2,0-2-.74-2.3-2.22a14.47,14.47,0,0,1-6.75,1.52,8.86,8.86,0,0,1-5.08-1.36,6.06,6.06,0,0,1-2.65-4.38,76.88,76.88,0,0,1-.92-11.06,43.87,43.87,0,0,1,.71-7.32,2.09,2.09,0,0,1,2.22-2,2.35,2.35,0,0,1,1.69.65,2.19,2.19,0,0,1,.68,1.65,26.74,26.74,0,0,1-.34,3.45,28.6,28.6,0,0,0-.34,3.61q0,3.91.26,6.7a23.4,23.4,0,0,0,.77,4.48,8.18,8.18,0,0,0,1.53.64,5.09,5.09,0,0,0,1.47.22,23.67,23.67,0,0,0,6.64-1l0-4.75,0-4.55a74.8,74.8,0,0,1,.44-8.79,2.11,2.11,0,0,1,2.27-2.16,2.31,2.31,0,0,1,1.69.66,2,2,0,0,1,.63,1.64Z"/><path d="M1349.6,457.88l-.54,7.87a34.18,34.18,0,0,1-1,7.67,10.38,10.38,0,0,1-3.38,5.6q-2.81,2.18-8.13,2.18a27.41,27.41,0,0,1-5.23-.42c-2-.4-2.95-1.21-2.95-2.44a1.83,1.83,0,0,1,2-2.09,16.23,16.23,0,0,1,2.81.41,19.22,19.22,0,0,0,4.36.37,6.33,6.33,0,0,0,6.21-4.36,26.53,26.53,0,0,0,1.2-8.79,9.69,9.69,0,0,1-3,3.51,7,7,0,0,1-4,1.17,8.93,8.93,0,0,1-6.9-2.89,10.63,10.63,0,0,1-2.66-7.51,14.31,14.31,0,0,1,3.63-10.2q3.75-4,10.22-4a10.41,10.41,0,0,1,3.65.56,4.62,4.62,0,0,1,2.25,1.69c1.68,0,2.51,1,2.51,2.79a26.75,26.75,0,0,1-.49,4.45Q1349.69,456.71,1349.6,457.88Zm-7.53-10.15a8.3,8.3,0,0,0-6.89,3.07,11,11,0,0,0-2.18,7,8.42,8.42,0,0,0,1.29,5.11,4.54,4.54,0,0,0,3.87,1.71q2.37,0,4.59-2.67a9.51,9.51,0,0,0,2.3-4.88q.5-2.52,1.06-7.94a6.75,6.75,0,0,0-1.95-1.08A6.41,6.41,0,0,0,1342.07,447.73Z"/><path d="M1375.4,469.43a2.14,2.14,0,0,1-2.18-1.78,40.27,40.27,0,0,1-1-5.46,47.39,47.39,0,0,1-.42-5.58c0-.4,0-1,.06-1.85s0-1.45,0-1.85q0-4.41-2.2-4.41a6.93,6.93,0,0,0-5.32,2.7,32.27,32.27,0,0,0-3.28,5.27c0,5.95-.25,9.48-.75,10.57a2.15,2.15,0,0,1-2,1.45,2.44,2.44,0,0,1-1.69-.65,2.09,2.09,0,0,1-.72-1.6,4.16,4.16,0,0,1,.21-1,18.57,18.57,0,0,0,.25-3.42l.07-3.47.08-17.22c.1-1.94.16-3.25.16-3.92a11.63,11.63,0,0,0-.22-2.26,10.69,10.69,0,0,1-.23-2.21,2.16,2.16,0,0,1,.68-1.63,2.35,2.35,0,0,1,1.67-.65,2.12,2.12,0,0,1,2.25,2.06,25.51,25.51,0,0,1,.37,4.11c0,1.64,0,3.35-.16,5.13s-.13,3.41-.12,5.13l0,2.06a14.32,14.32,0,0,1,4.12-3.85,9.1,9.1,0,0,1,4.65-1.28c2.59,0,4.38.84,5.34,2.53q1,1.79,1.18,6l.18,4.48.47,4.87c.22,1.83.49,3.44.8,4.83a3.18,3.18,0,0,1,.09.68,2.09,2.09,0,0,1-.7,1.61A2.41,2.41,0,0,1,1375.4,469.43Z"/><path d="M633.72,505.61c-.32,0-.71,0-1.16-.05s-.83,0-1.16,0-1.42.11-3.18.35l.44,13.85,0,1,0,1.2q.09,5.13-2.46,5.13a2.36,2.36,0,0,1-1.63-.61,2,2,0,0,1-.69-1.52c0-.6,0-1.49.07-2.68s.07-2.07.07-2.67l-.47-13.68c-1.14-.05-2.88-.18-5.2-.4a2.12,2.12,0,0,1-2.09-2.32,2.41,2.41,0,0,1,.63-1.71,2.09,2.09,0,0,1,1.62-.68l4.92.39c0-.79,0-1.86-.1-3.2s-.11-2.3-.11-2.89a2.16,2.16,0,0,1,.68-1.63,2.32,2.32,0,0,1,1.66-.64c1.41,0,2.23,1.15,2.46,3.44,0,.58.08,1.28.08,2.09l0,1.36,0,1.45c1.94-.25,3-.37,3.33-.37a13.24,13.24,0,0,1,3.19.23,2.06,2.06,0,0,1,1.43,2.2,2.33,2.33,0,0,1-.64,1.7A2.19,2.19,0,0,1,633.72,505.61Z"/><path d="M649.45,527a9.14,9.14,0,0,1-6.77-2.9,12.49,12.49,0,0,1-3.33-8.7A15.16,15.16,0,0,1,642,506a10.49,10.49,0,0,1,9.14-4.76,7.7,7.7,0,0,1,7.1,4.29,16.49,16.49,0,0,1,1.85,8.35,15.13,15.13,0,0,1-2.71,8.88A9.34,9.34,0,0,1,649.45,527ZM650.86,506a5.91,5.91,0,0,0-5.37,3.28,11.87,11.87,0,0,0-1.52,6.05,7.25,7.25,0,0,0,1.85,5.3,5,5,0,0,0,3.63,1.57,5.75,5.75,0,0,0,4.2-1.78,7.55,7.55,0,0,0,2.1-5.32Q656.08,506.05,650.86,506Z"/><path d="M694,504.6q-1.83,7.65-4.78,17.28a16.86,16.86,0,0,1-2.18,4.38,2.5,2.5,0,0,1-2.23,1.22q-2.55,0-4-6.35-.48-2-1-5.49l-.77-5.22-1.92,4.47-3.56,9.68a2.89,2.89,0,0,1-.89,1.36,2.45,2.45,0,0,1-2.25,1.41c-1.19,0-2.34-2.28-3.45-7q-.84-3.63-1.69-9.84l-.56-3.52a25.74,25.74,0,0,1-.3-3.54,2.11,2.11,0,0,1,.69-1.62,2.37,2.37,0,0,1,1.67-.65,2.13,2.13,0,0,1,2.21,1.95,30,30,0,0,1,.49,3.42l.35,3.44,1.38,10.53q2.61-7.23,5.39-16.64.78-2.61,2.7-2.61c1.23,0,2.07,1,2.51,2.91s.91,4.64,1.52,8.44,1.18,7,1.66,9.21l1.72-6.38,3-12.77a1.82,1.82,0,0,1,2-1.43,2.45,2.45,0,0,1,1.72.67,2.1,2.1,0,0,1,.72,1.6C694.19,503.6,694.11,504,694,504.6Z"/><path d="M716.72,527.24c-1.35,0-2.11-.73-2.28-2.2l-.65-5.13a43.16,43.16,0,0,1-.33-5.14c0-.43,0-1.18.08-2.22s.08-1.79.08-2.23q0-5.06-1.87-5.06c-1.75,0-3.43,1-5,3.12a21.13,21.13,0,0,0-3.37,7.17c0,.61-.11,1.37-.21,2.29a18,18,0,0,0-.15,2.28c0,.47,0,1.17.15,2.11s.14,1.64.14,2.11a2.35,2.35,0,0,1-.65,1.71,2.44,2.44,0,0,1-3.32,0,2.37,2.37,0,0,1-.63-1.71c0-.47-.05-1.17-.15-2.11s-.15-1.64-.15-2.11q0-2.42.34-6.69c.22-2.85.34-5.09.34-6.69,0-.5,0-1.25-.09-2.23s-.08-1.73-.08-2.23a2.22,2.22,0,0,1,.67-1.65,2.29,2.29,0,0,1,1.65-.64c1.44,0,2.23,1,2.37,3l.07,2.74q3.95-5.25,8.09-5.25a5.27,5.27,0,0,1,5.22,3.31,17,17,0,0,1,1.1,6.51v2.37l0,2.18a32.17,32.17,0,0,0,.51,5,33,33,0,0,1,.5,5,2.21,2.21,0,0,1-.67,1.68A2.29,2.29,0,0,1,716.72,527.24Z"/><path d="M744.25,503.17a2.4,2.4,0,0,1-.66,1.74,2.54,2.54,0,0,1-3.46,0,2.37,2.37,0,0,1-.68-1.74,5.42,5.42,0,0,0-.11-.85,5.29,5.29,0,0,1-.1-.88,2.19,2.19,0,0,1,.7-1.67,2.49,2.49,0,0,1,1.74-.65C743.4,499.12,744.25,500.47,744.25,503.17Zm.4,17.11a2.33,2.33,0,0,1-2.41,2.42,2.29,2.29,0,0,1-1.71-.68,2.34,2.34,0,0,1-.68-1.74,8.27,8.27,0,0,0-.15-1.3,7.25,7.25,0,0,1-.16-1.28,2.12,2.12,0,0,1,.74-1.64,2.58,2.58,0,0,1,1.75-.65Q744.66,515.41,744.65,520.28Z"/><path d="M765.61,490.12c0,.55-.49,1.34-1.46,2.39q-1.08,1.08-2.13,2.16a20.92,20.92,0,0,0-4.08,8.43,36,36,0,0,0-1.29,9.4q0,11.91,5.39,17.46l2.18,1.69a2.9,2.9,0,0,1,1.36,2.13,1.78,1.78,0,0,1-.61,1.35,2,2,0,0,1-1.4.57,3.77,3.77,0,0,1-1.69-.53Q752,529.61,752,512a35.18,35.18,0,0,1,2.55-12.87q2.87-7.23,7.5-10.5a3,3,0,0,1,1.48-.65,2,2,0,0,1,1.47.67A2.11,2.11,0,0,1,765.61,490.12Z"/><path d="M648.91,550.16a9.1,9.1,0,0,0-.35,2.88c0,.47,0,1.16.05,2.08s0,1.62,0,2.09c0,1.56-.13,3.89-.41,7s-.41,5.43-.41,7c0,1.19.09,3,.26,5.34s.26,4.17.26,5.37a2.23,2.23,0,0,1-.65,1.62,2.17,2.17,0,0,1-1.6.65,2.2,2.2,0,0,1-1.6-.65,2.23,2.23,0,0,1-.65-1.62c0-1.2-.09-3-.26-5.37s-.26-4.15-.26-5.34,0-2.3.12-3.47a60.61,60.61,0,0,0-9.91,1.2l-9.85,1.92a59.94,59.94,0,0,1-.42,6,59.7,59.7,0,0,0-.42,6,2.27,2.27,0,0,1-.65,1.63,2.14,2.14,0,0,1-1.6.66,2.16,2.16,0,0,1-1.61-.66,2.26,2.26,0,0,1-.64-1.63c0-1.66.13-4.13.41-7.42s.41-5.76.41-7.42c0-.86,0-2.16-.1-3.89s-.09-3-.09-3.91c0-1.24.08-3.09.24-5.57s.23-4.33.23-5.57a2.25,2.25,0,0,1,.64-1.64,2.32,2.32,0,0,1,3.22,0,2.3,2.3,0,0,1,.64,1.64c0,1.25-.08,3.12-.25,5.62s-.24,4.36-.24,5.61l.14,5.93,10-1.9a60.58,60.58,0,0,1,10.15-1.17q.26-3.35.26-10.1a11.51,11.51,0,0,1,.59-3.61c.51-1.67,1.24-2.51,2.17-2.51a2.31,2.31,0,0,1,1.6.65,2.1,2.1,0,0,1,.7,1.62A3.2,3.2,0,0,1,648.91,550.16Z"/><path d="M660.44,572.54c0,.94,0,2.34.08,4.21s.09,3.26.09,4.2a2.31,2.31,0,0,1-.64,1.69,2.18,2.18,0,0,1-1.66.66,2.21,2.21,0,0,1-1.65-.66A2.32,2.32,0,0,1,656,581c0-.94,0-2.34-.08-4.2s-.08-3.27-.08-4.21c0-1.47.08-3.3.23-5.5s.24-4,.24-5.49a2.35,2.35,0,0,1,.64-1.72,2.43,2.43,0,0,1,3.31,0,2.35,2.35,0,0,1,.64,1.72c0,1.46-.08,3.3-.23,5.49S660.44,571.07,660.44,572.54Zm-1.05-19a2.72,2.72,0,0,1-1.95-.8,2.66,2.66,0,0,1,0-3.84,2.68,2.68,0,0,1,1.95-.8,2.62,2.62,0,0,1,1.93.8,2.68,2.68,0,0,1,0,3.84A2.66,2.66,0,0,1,659.39,553.51Z"/><path d="M684,563.21c-.32,0-.71,0-1.16-.05s-.83,0-1.16,0-1.42.11-3.18.35l.44,13.85,0,1,0,1.2q.09,5.13-2.46,5.13a2.36,2.36,0,0,1-1.63-.61,2,2,0,0,1-.69-1.52c0-.6,0-1.49.07-2.68s.07-2.07.07-2.67l-.47-13.69c-1.14,0-2.88-.18-5.2-.39a2.12,2.12,0,0,1-2.09-2.32,2.45,2.45,0,0,1,.63-1.72,2.11,2.11,0,0,1,1.62-.67l4.92.39c0-.79,0-1.86-.1-3.2s-.11-2.3-.11-2.89a2.16,2.16,0,0,1,.68-1.63,2.32,2.32,0,0,1,1.66-.64c1.41,0,2.23,1.14,2.47,3.44,0,.58.07,1.28.07,2.09l-.05,1.36,0,1.45c1.93-.25,3-.37,3.32-.37a13.24,13.24,0,0,1,3.19.23,2.06,2.06,0,0,1,1.43,2.2,2.33,2.33,0,0,1-.64,1.7A2.19,2.19,0,0,1,684,563.21Z"/><path d="M721,563.21c-.32,0-.71,0-1.16-.05s-.83,0-1.16,0-1.42.11-3.18.35l.44,13.85,0,1,0,1.2q.09,5.13-2.46,5.13a2.36,2.36,0,0,1-1.63-.61,2,2,0,0,1-.69-1.52c0-.6,0-1.49.07-2.68s.07-2.07.07-2.67l-.47-13.69c-1.14,0-2.88-.18-5.2-.39a2.13,2.13,0,0,1-2.09-2.32,2.45,2.45,0,0,1,.63-1.72,2.13,2.13,0,0,1,1.62-.67l4.92.39c0-.79,0-1.86-.1-3.2s-.11-2.3-.11-2.89a2.16,2.16,0,0,1,.68-1.63,2.33,2.33,0,0,1,1.67-.64c1.4,0,2.22,1.14,2.46,3.44,0,.58.07,1.28.07,2.09l0,1.36,0,1.45c1.93-.25,3-.37,3.32-.37a13.24,13.24,0,0,1,3.19.23,2.06,2.06,0,0,1,1.43,2.2,2.33,2.33,0,0,1-.64,1.7A2.19,2.19,0,0,1,721,563.21Z"/><path d="M747.56,584.63a2.14,2.14,0,0,1-2.18-1.78,38.75,38.75,0,0,1-1-5.46,45.63,45.63,0,0,1-.43-5.58c0-.4,0-1,.06-1.85s.06-1.45.06-1.85q0-4.41-2.2-4.41a6.91,6.91,0,0,0-5.32,2.7,32.27,32.27,0,0,0-3.28,5.27c0,6-.25,9.48-.75,10.57a2.15,2.15,0,0,1-2,1.45,2.42,2.42,0,0,1-1.69-.65,2.06,2.06,0,0,1-.73-1.6,4.16,4.16,0,0,1,.21-1,18.16,18.16,0,0,0,.26-3.42l.07-3.47.07-17.22c.11-1.94.17-3.25.17-3.92a10.89,10.89,0,0,0-.23-2.26,10.69,10.69,0,0,1-.22-2.21,2.16,2.16,0,0,1,.68-1.63,2.33,2.33,0,0,1,1.66-.65,2.11,2.11,0,0,1,2.25,2.06,25.61,25.61,0,0,1,.38,4.11c0,1.64-.06,3.35-.16,5.13s-.14,3.41-.12,5.13l0,2.06a14.17,14.17,0,0,1,4.11-3.85,9.16,9.16,0,0,1,4.66-1.28q3.89,0,5.34,2.53,1,1.79,1.17,6l.19,4.48.47,4.87a46.69,46.69,0,0,0,.8,4.83,3.18,3.18,0,0,1,.09.68,2.09,2.09,0,0,1-.7,1.61A2.41,2.41,0,0,1,747.56,584.63Z"/><path d="M766.61,584.26a13.23,13.23,0,0,1-8.57-2.65,10,10,0,0,1-3.59-8.2,17.08,17.08,0,0,1,2.95-10.22,10,10,0,0,1,8.58-4.5,13.4,13.4,0,0,1,6.35,1.31,5.29,5.29,0,0,1,3,5c0,1.56-.89,3-2.65,4.26a36.68,36.68,0,0,1-5,2.63l-9,4.24a8.48,8.48,0,0,0,3.27,2.93,9.93,9.93,0,0,0,4.55,1,14.58,14.58,0,0,0,3.8-.6c1.84-.52,3-1.2,3.56-2s1.1-1.26,1.71-1.26a2,2,0,0,1,1.47.63,1.92,1.92,0,0,1,.64,1.44c0,1.73-1.39,3.22-4.19,4.47A17,17,0,0,1,766.61,584.26ZM766,562.91a6,6,0,0,0-4.76,2.21,15,15,0,0,0-2.83,6.67l7.19-3.42a30.79,30.79,0,0,0,6-3.59A8,8,0,0,0,766,562.91Z"/><path d="M806.27,584a20.22,20.22,0,0,1-5.16-.75l0,11.2a2.32,2.32,0,0,1-.65,1.69,2.39,2.39,0,0,1-3.3,0,2.32,2.32,0,0,1-.65-1.69l.07-9.37v-9.35c0-3.43-.16-6.54-.35-9.36l-.35-4.75a5.94,5.94,0,0,1,.61-2.82,2.21,2.21,0,0,1,2-1.38,2,2,0,0,1,1.53.65,2.16,2.16,0,0,1,.63,1.58,7.3,7.3,0,0,1-.08.77c-.07.49-.13.93-.16,1.34a17.46,17.46,0,0,1,3.89-2.08,10.4,10.4,0,0,1,3.59-.69,7.41,7.41,0,0,1,7,4.27,19.39,19.39,0,0,1,1.76,8.93,12.66,12.66,0,0,1-2.72,8.34A9.5,9.5,0,0,1,806.27,584Zm1.62-20.32a7.87,7.87,0,0,0-3.89,1,16.26,16.26,0,0,0-3.14,2.48q.3,5.32.3,11.18a14.05,14.05,0,0,0,5.11,1,5.17,5.17,0,0,0,4.48-2.18,8.39,8.39,0,0,0,1.33-4.92,15.14,15.14,0,0,0-1-6.39A3.37,3.37,0,0,0,807.89,563.68Z"/><path d="M827.93,564.76l-.36,11.65q0,1.85-.18,5.43c-.16,1.57-.93,2.35-2.3,2.35-1.53,0-2.3-.8-2.3-2.39q0-2.84.26-8.52t.26-8.52q0-3.71.12-8.48t.11-8.47a2.31,2.31,0,1,1,4.62,0q0,3.71-.12,8.47C828,559.46,827.93,562.29,827.93,564.76Z"/><path d="M853.43,584.73c-.3,0-.84-.35-1.62-1a10.44,10.44,0,0,1-1.57-1.71,28.7,28.7,0,0,1-4,1.84,8.59,8.59,0,0,1-2.86.62q-5.49,0-8-3.09-2.37-2.91-2.37-8.91a13.45,13.45,0,0,1,3.9-9.7,12.51,12.51,0,0,1,9.32-4,12.09,12.09,0,0,1,4.57,1c2.12.88,3.19,1.93,3.19,3.17a1.58,1.58,0,0,1-.47,1.12,17.06,17.06,0,0,0-.37,2.93c-.08,1.36-.13,3.1-.15,5.23a19.39,19.39,0,0,0,.4,4.59,35.54,35.54,0,0,0,1.48,4.13c.11.28.28.69.53,1.24l.15.4a2,2,0,0,1-.66,1.55A2.21,2.21,0,0,1,853.43,584.73Zm-4.88-16.29a19.11,19.11,0,0,1,.13-2.19c.09-.79.21-1.63.39-2.52a11.33,11.33,0,0,0-1.49-.66,3.36,3.36,0,0,0-1-.21,8.15,8.15,0,0,0-6.27,3,11.23,11.23,0,0,0-1.27,12.6,4.65,4.65,0,0,0,4.07,1.92,8.11,8.11,0,0,0,3.82-.82,13.19,13.19,0,0,0,2.37-1.78A85.15,85.15,0,0,1,848.55,568.44Z"/><path d="M880.12,562.27,872,579.8q-3,6.41-4.59,10.71l-1.55,4.55a2.18,2.18,0,0,1-2.11,1.69,2.47,2.47,0,0,1-1.7-.65,2.08,2.08,0,0,1-.71-1.6q0-2.34,5.06-13.57L858,564.78,857,563.07a3.8,3.8,0,0,1-.63-1.81,2.52,2.52,0,0,1,2.39-2.41,1.92,1.92,0,0,1,1.67.82,93,93,0,0,1,8.55,15.75l3.47-8.09a80.32,80.32,0,0,1,3.61-7.21,2.23,2.23,0,0,1,2-1.32,2.45,2.45,0,0,1,1.7.68,2.16,2.16,0,0,1,.74,1.62A2.92,2.92,0,0,1,880.12,562.27Z"/><path d="M910,584.16a15,15,0,0,1-6.52-1.4,2.17,2.17,0,0,1-1.83,1.12,2.08,2.08,0,0,1-1.51-.62,2.12,2.12,0,0,1-.62-1.56c0-.4,0-1,.06-1.8s.06-1.4.06-1.81c0-1.65-.05-4.13-.13-7.44s-.13-5.78-.13-7.44q0-1.71,0-6.48t0-6.5a5.43,5.43,0,0,1,.58-2.54,2.38,2.38,0,0,1,2.14-1.43c1.17,0,1.75.68,1.75,2a6.49,6.49,0,0,1-.11,1,5.78,5.78,0,0,0-.12,1l-.07,5.13,0,6a18.71,18.71,0,0,1,3.88-2.07,9.89,9.89,0,0,1,3.46-.69,10,10,0,0,1,8.18,3.87,13.67,13.67,0,0,1,3,8.93,12.91,12.91,0,0,1-3.44,9.07A11.22,11.22,0,0,1,910,584.16Zm.89-21.16a8.31,8.31,0,0,0-3.94,1.08,33.9,33.9,0,0,0-3.37,2.32l0,4.05,0,3.66,0,3.84c.75.35,1.8.78,3.16,1.31a11,11,0,0,0,3.26.45,7.25,7.25,0,0,0,5.58-2.39,8.5,8.5,0,0,0,2.17-6,9.46,9.46,0,0,0-1.75-5.84A6.06,6.06,0,0,0,910.85,563Z"/><path d="M936.28,584.56a9.16,9.16,0,0,1-6.78-2.9,12.48,12.48,0,0,1-3.32-8.7,15.1,15.1,0,0,1,2.67-9.33,10.49,10.49,0,0,1,9.14-4.76,7.71,7.71,0,0,1,7.1,4.29,16.49,16.49,0,0,1,1.85,8.35,15.14,15.14,0,0,1-2.72,8.88A9.33,9.33,0,0,1,936.28,584.56Zm1.4-20.93a5.9,5.9,0,0,0-5.36,3.28,11.88,11.88,0,0,0-1.53,6.05,7.29,7.29,0,0,0,1.85,5.3,5,5,0,0,0,3.64,1.57,5.71,5.71,0,0,0,4.19-1.78,7.55,7.55,0,0,0,2.11-5.32Q942.91,563.66,937.68,563.63Z"/><path d="M968.41,563.21c-.33,0-.71,0-1.16-.05s-.83,0-1.16,0-1.42.11-3.19.35l.45,13.85,0,1,0,1.2q.11,5.13-2.46,5.13a2.39,2.39,0,0,1-1.63-.61,2,2,0,0,1-.69-1.52c0-.6,0-1.49.07-2.68s.07-2.07.07-2.67l-.46-13.69c-1.15,0-2.88-.18-5.21-.39A2.12,2.12,0,0,1,951,560.8a2.45,2.45,0,0,1,.63-1.72,2.11,2.11,0,0,1,1.62-.67l4.92.39c0-.79,0-1.86-.11-3.2s-.1-2.3-.1-2.89a2.12,2.12,0,0,1,.68-1.63,2.3,2.3,0,0,1,1.66-.64c1.41,0,2.23,1.14,2.46,3.44,0,.58.07,1.28.07,2.09l0,1.36,0,1.45c1.94-.25,3-.37,3.33-.37a13.3,13.3,0,0,1,3.19.23,2.06,2.06,0,0,1,1.43,2.2,2.34,2.34,0,0,1-.65,1.7A2.18,2.18,0,0,1,968.41,563.21Z"/><path d="M991,563.21c-.33,0-.72,0-1.16-.05s-.83,0-1.16,0-1.42.11-3.19.35l.44,13.85,0,1,0,1.2q.09,5.13-2.46,5.13a2.38,2.38,0,0,1-1.63-.61,2,2,0,0,1-.69-1.52c0-.6,0-1.49.07-2.68s.07-2.07.07-2.67l-.47-13.69c-1.14,0-2.87-.18-5.2-.39a2.13,2.13,0,0,1-2.09-2.32,2.41,2.41,0,0,1,.64-1.72,2.11,2.11,0,0,1,1.61-.67l4.93.39c0-.79,0-1.86-.11-3.2s-.11-2.3-.11-2.89a2.16,2.16,0,0,1,.68-1.63,2.34,2.34,0,0,1,1.67-.64c1.4,0,2.22,1.14,2.46,3.44,0,.58.07,1.28.07,2.09l-.05,1.36,0,1.45c1.94-.25,3-.37,3.33-.37a13.19,13.19,0,0,1,3.18.23,2.05,2.05,0,0,1,1.43,2.2,2.33,2.33,0,0,1-.64,1.7A2.18,2.18,0,0,1,991,563.21Z"/><path d="M1006.75,584.56a9.16,9.16,0,0,1-6.77-2.9,12.49,12.49,0,0,1-3.33-8.7,15.23,15.23,0,0,1,2.67-9.33,10.5,10.5,0,0,1,9.14-4.76,7.71,7.71,0,0,1,7.11,4.29,16.6,16.6,0,0,1,1.85,8.35,15.21,15.21,0,0,1-2.72,8.88A9.34,9.34,0,0,1,1006.75,584.56Zm1.41-20.93a5.91,5.91,0,0,0-5.37,3.28,12,12,0,0,0-1.52,6.05,7.29,7.29,0,0,0,1.85,5.3,5,5,0,0,0,3.63,1.57,5.72,5.72,0,0,0,4.2-1.78,7.55,7.55,0,0,0,2.11-5.32Q1013.39,563.66,1008.16,563.63Z"/><path d="M1053,585.12a2.11,2.11,0,0,1-2.25-2c-.28-1.71-.56-4.14-.84-7.26l-.8-7.27a15.89,15.89,0,0,0-.79-3.16c-.54-1.41-1.11-2.11-1.74-2.11a8.07,8.07,0,0,0-3.23,1.48,13.15,13.15,0,0,0-3,2.18c0,1.47,0,2.93.12,4.4l.7,6.26a52.59,52.59,0,0,1,.45,6.12,2.36,2.36,0,0,1-.65,1.7,2.39,2.39,0,0,1-3.3,0,2.35,2.35,0,0,1-.64-1.7c0-1.89-.2-4.69-.58-8.38s-.57-6.49-.57-8.38a8.65,8.65,0,0,0-.71-3.87,11.78,11.78,0,0,0-3.32,2.44l-2.77,3.09a13.45,13.45,0,0,1-1.2,1.48c0,.94-.08,2.32-.25,4.15s-.26,3.18-.26,4a11.89,11.89,0,0,0,.22,2,11.88,11.88,0,0,1,.22,1.83,2.1,2.1,0,0,1-.71,1.62,2.4,2.4,0,0,1-1.68.65c-1.76,0-2.64-2-2.64-6,0-.94.08-2.34.25-4.19s.26-3.26.26-4.2-.07-2.07-.22-3.73-.22-2.9-.22-3.75c0-3.54.79-5.32,2.39-5.32a2.28,2.28,0,0,1,1.67.8,2.45,2.45,0,0,1,.76,1.73c0,.3,0,.76-.11,1.39a12.09,12.09,0,0,0-.12,1.43l0,2.46a14,14,0,0,1,3.58-4.54q2.37-2,4-2a5.06,5.06,0,0,1,5.07,3.65,8.32,8.32,0,0,1,3.07-2.56,9.12,9.12,0,0,1,4.07-.86q3.92,0,5.35,4.22a59.77,59.77,0,0,1,1,6.58q.66,4,1.69,13.43a1.92,1.92,0,0,1-.64,1.6A2.4,2.4,0,0,1,1053,585.12Z"/><path d="M1090.52,563.21c-.33,0-.72,0-1.16-.05s-.83,0-1.16,0-1.42.11-3.19.35l.45,13.85,0,1,0,1.2q.11,5.13-2.46,5.13a2.39,2.39,0,0,1-1.63-.61,2,2,0,0,1-.69-1.52c0-.6,0-1.49.07-2.68s.07-2.07.07-2.67l-.47-13.69c-1.14,0-2.87-.18-5.2-.39a2.12,2.12,0,0,1-2.08-2.32,2.45,2.45,0,0,1,.63-1.72,2.11,2.11,0,0,1,1.62-.67l4.92.39c0-.79,0-1.86-.11-3.2s-.1-2.3-.1-2.89a2.12,2.12,0,0,1,.68-1.63,2.3,2.3,0,0,1,1.66-.64c1.41,0,2.23,1.14,2.46,3.44.05.58.07,1.28.07,2.09l0,1.36,0,1.45c1.94-.25,3.05-.37,3.33-.37a13.3,13.3,0,0,1,3.19.23,2.06,2.06,0,0,1,1.43,2.2,2.34,2.34,0,0,1-.65,1.7A2.18,2.18,0,0,1,1090.52,563.21Z"/><path d="M1106.25,584.56a9.16,9.16,0,0,1-6.78-2.9,12.49,12.49,0,0,1-3.33-8.7,15.17,15.17,0,0,1,2.68-9.33,10.48,10.48,0,0,1,9.14-4.76,7.71,7.71,0,0,1,7.1,4.29,16.49,16.49,0,0,1,1.85,8.35,15.14,15.14,0,0,1-2.72,8.88A9.33,9.33,0,0,1,1106.25,584.56Zm1.4-20.93a5.9,5.9,0,0,0-5.36,3.28,11.88,11.88,0,0,0-1.53,6.05,7.29,7.29,0,0,0,1.85,5.3,5,5,0,0,0,3.64,1.57,5.71,5.71,0,0,0,4.19-1.78,7.55,7.55,0,0,0,2.11-5.32Q1112.88,563.66,1107.65,563.63Z"/><path d="M1152.72,563.21c-.33,0-.71,0-1.16-.05s-.83,0-1.16,0-1.42.11-3.19.35l.45,13.85,0,1,0,1.2q.09,5.13-2.46,5.13a2.36,2.36,0,0,1-1.63-.61,2,2,0,0,1-.69-1.52c0-.6,0-1.49.07-2.68s.07-2.07.07-2.67l-.47-13.69c-1.14,0-2.88-.18-5.21-.39a2.12,2.12,0,0,1-2.08-2.32,2.45,2.45,0,0,1,.63-1.72,2.11,2.11,0,0,1,1.62-.67l4.92.39c0-.79,0-1.86-.1-3.2s-.11-2.3-.11-2.89a2.16,2.16,0,0,1,.68-1.63,2.32,2.32,0,0,1,1.66-.64c1.41,0,2.23,1.14,2.46,3.44,0,.58.07,1.28.07,2.09l0,1.36,0,1.45c1.94-.25,3-.37,3.33-.37a13.24,13.24,0,0,1,3.19.23,2.06,2.06,0,0,1,1.43,2.2,2.37,2.37,0,0,1-.64,1.7A2.2,2.2,0,0,1,1152.72,563.21Z"/><path d="M1177.89,565.86c-.1,1.95-.89,2.93-2.34,2.93s-2-.78-2-2.32c0-.3,0-.85-.08-1.64l-.07-2a12.47,12.47,0,0,0-5.93,2.08,11.24,11.24,0,0,0-3.46,4.6l0,12.84a2.07,2.07,0,0,1-2.32,2.37c-1.37,0-2.06-.79-2.06-2.37V565.93c0-.52,0-1.29.06-2.32s.06-1.81.06-2.32c0-1.58.68-2.37,2.06-2.37q2.29,0,2.32,3.89a14.08,14.08,0,0,1,10-4.33,3.14,3.14,0,0,1,2.84,1.43,7.9,7.9,0,0,1,.94,4.31C1177.92,565,1177.91,565.58,1177.89,565.86Z"/><path d="M1203.16,562.27l-8.11,17.53q-3,6.41-4.59,10.71l-1.55,4.55a2.18,2.18,0,0,1-2.11,1.69,2.46,2.46,0,0,1-1.7-.65,2,2,0,0,1-.71-1.6q0-2.34,5.06-13.57l-8.39-16.15-1.06-1.71a3.8,3.8,0,0,1-.63-1.81,2.52,2.52,0,0,1,2.39-2.41,1.92,1.92,0,0,1,1.67.82,93,93,0,0,1,8.55,15.75l3.47-8.09a80.32,80.32,0,0,1,3.61-7.21,2.22,2.22,0,0,1,2-1.32,2.47,2.47,0,0,1,1.7.68,2.15,2.15,0,0,1,.73,1.62A2.89,2.89,0,0,1,1203.16,562.27Z"/><path d="M1240.36,584.73c-.3,0-.84-.35-1.62-1a10.44,10.44,0,0,1-1.57-1.71,28.7,28.7,0,0,1-4,1.84,8.59,8.59,0,0,1-2.86.62q-5.49,0-8-3.09-2.37-2.91-2.37-8.91a13.45,13.45,0,0,1,3.9-9.7,12.51,12.51,0,0,1,9.32-4,12.09,12.09,0,0,1,4.57,1c2.12.88,3.18,1.93,3.18,3.17a1.57,1.57,0,0,1-.46,1.12,17.06,17.06,0,0,0-.37,2.93c-.08,1.36-.13,3.1-.15,5.23a18.88,18.88,0,0,0,.4,4.59,35.54,35.54,0,0,0,1.48,4.13c.1.28.28.69.53,1.24l.15.4a2,2,0,0,1-.66,1.55A2.21,2.21,0,0,1,1240.36,584.73Zm-4.88-16.29a19.11,19.11,0,0,1,.13-2.19c.09-.79.21-1.63.39-2.52a11.33,11.33,0,0,0-1.49-.66,3.36,3.36,0,0,0-1-.21,8.15,8.15,0,0,0-6.27,3,11.26,11.26,0,0,0-1.28,12.6,4.68,4.68,0,0,0,4.08,1.92,8.11,8.11,0,0,0,3.82-.82,13.56,13.56,0,0,0,2.37-1.78A85.15,85.15,0,0,1,1235.48,568.44Z"/><path d="M1264.59,584.84c-1.34,0-2.1-.73-2.27-2.2l-.66-5.13a43.16,43.16,0,0,1-.33-5.14c0-.43,0-1.18.08-2.22s.09-1.79.09-2.23q0-5.05-1.88-5.06-2.62,0-5,3.12a21.14,21.14,0,0,0-3.38,7.17c0,.61-.1,1.37-.21,2.29a20.06,20.06,0,0,0-.14,2.28c0,.47,0,1.17.14,2.11s.14,1.64.14,2.11a2.34,2.34,0,0,1-.64,1.71,2.44,2.44,0,0,1-3.32,0,2.37,2.37,0,0,1-.63-1.71,19.4,19.4,0,0,0-.16-2.11c-.1-.94-.15-1.64-.15-2.11,0-1.61.12-3.84.34-6.69s.34-5.09.34-6.7c0-.5,0-1.24-.08-2.22s-.08-1.73-.08-2.23a2.18,2.18,0,0,1,.67-1.65,2.27,2.27,0,0,1,1.65-.65c1.44,0,2.22,1,2.36,3l.08,2.74q3.93-5.25,8.08-5.25a5.29,5.29,0,0,1,5.23,3.31,17.2,17.2,0,0,1,1.1,6.51v2.37l0,2.18a32,32,0,0,0,.5,5,31.75,31.75,0,0,1,.5,5,2.24,2.24,0,0,1-.66,1.68A2.33,2.33,0,0,1,1264.59,584.84Z"/><path d="M1293.32,562.48c-.18,2.3-.28,4.6-.28,6.89a71.23,71.23,0,0,0,.73,11.79,4.31,4.31,0,0,1,0,.54,2,2,0,0,1-.66,1.55,2.16,2.16,0,0,1-1.52.61c-1,0-1.68-.7-2.14-2.11a13.06,13.06,0,0,1-3.5,1.87,11.22,11.22,0,0,1-3.79.64,10.78,10.78,0,0,1-8-3.24,11.52,11.52,0,0,1-3.29-8.48q0-6.25,3.32-10a10.91,10.91,0,0,1,8.61-3.78,8.45,8.45,0,0,1,4.2.85l2.2,1.61q.33-9.86.78-13.28c.2-1.4.91-2.09,2.13-2.09,1.42,0,2.13.76,2.13,2.27Q1294.26,551.35,1293.32,562.48Zm-10.4.61q-3.95,0-5.91,2.33t-2,7a7.18,7.18,0,0,0,2.15,5.21,6.83,6.83,0,0,0,5,2.18,7,7,0,0,0,3.33-.73,18.1,18.1,0,0,0,2.6-1.94,4.77,4.77,0,0,0,.68-.73l-.07-4.06,0-2.71,0-2.77a6.56,6.56,0,0,0-2.36-2.85A6.46,6.46,0,0,0,1282.92,563.09Z"/><path d="M1324.87,584.66a11.48,11.48,0,0,1-8-2.91,10.31,10.31,0,0,1-3.38-8,18.6,18.6,0,0,1,3.16-9.82q3.52-5.62,7.93-5.63a14.58,14.58,0,0,1,5.13,1.08q3.58,1.38,3.59,3.38a2.38,2.38,0,0,1-.59,1.58,1.9,1.9,0,0,1-2.64.28c-.33-.27-.66-.54-1-.81a7.33,7.33,0,0,0-4.52-1.1q-2.4,0-4.74,4.27a14.69,14.69,0,0,0-2.13,6.77,6,6,0,0,0,2.11,4.87,7.57,7.57,0,0,0,5.06,1.67,7.05,7.05,0,0,0,3-.75l2.72-1.45a2.61,2.61,0,0,1,1-.38,2,2,0,0,1,1.5.69,2.28,2.28,0,0,1,.63,1.58c0,1.14-1.2,2.25-3.61,3.31A13.57,13.57,0,0,1,1324.87,584.66Z"/><path d="M1344.89,564.76l-.35,11.65c0,1.23-.07,3-.19,5.43-.16,1.57-.92,2.35-2.3,2.35s-2.3-.8-2.3-2.39q0-2.84.26-8.52t.26-8.52q0-3.71.12-8.48t.11-8.47a2.31,2.31,0,1,1,4.62,0q0,3.71-.12,8.47T1344.89,564.76Z"/><path d="M1363,584.26a13.28,13.28,0,0,1-8.58-2.65,10,10,0,0,1-3.59-8.2,17.08,17.08,0,0,1,3-10.22,10,10,0,0,1,8.57-4.5,13.41,13.41,0,0,1,6.36,1.31,5.29,5.29,0,0,1,3,5q0,2.34-2.65,4.26a36.68,36.68,0,0,1-5,2.63l-9,4.24a8.48,8.48,0,0,0,3.27,2.93,10,10,0,0,0,4.56,1,14.52,14.52,0,0,0,3.79-.6c1.85-.52,3-1.2,3.57-2s1.1-1.26,1.71-1.26a2,2,0,0,1,1.46.63,1.93,1.93,0,0,1,.65,1.44q0,2.59-4.2,4.47A17,17,0,0,1,1363,584.26Zm-.64-21.35a6,6,0,0,0-4.75,2.21,15,15,0,0,0-2.84,6.67l7.2-3.42a31,31,0,0,0,6-3.59A8,8,0,0,0,1362.39,562.91Z"/><path d="M1396.68,584.73c-.29,0-.83-.35-1.61-1a10,10,0,0,1-1.57-1.71,28.7,28.7,0,0,1-4,1.84,8.64,8.64,0,0,1-2.86.62c-3.66,0-6.32-1-8-3.09s-2.36-4.91-2.36-8.91a13.45,13.45,0,0,1,3.9-9.7,12.51,12.51,0,0,1,9.32-4,12.13,12.13,0,0,1,4.57,1c2.12.88,3.18,1.93,3.18,3.17a1.54,1.54,0,0,1-.47,1.12,18.42,18.42,0,0,0-.36,2.93c-.08,1.36-.14,3.1-.15,5.23a18.88,18.88,0,0,0,.4,4.59,34.82,34.82,0,0,0,1.47,4.13c.11.28.29.69.54,1.24l.14.4a2.06,2.06,0,0,1-.65,1.55A2.22,2.22,0,0,1,1396.68,584.73Zm-4.87-16.29a19.11,19.11,0,0,1,.13-2.19c.08-.79.21-1.63.38-2.52a10.72,10.72,0,0,0-1.48-.66,3.36,3.36,0,0,0-1-.21,8.15,8.15,0,0,0-6.27,3,11.21,11.21,0,0,0-1.28,12.6,4.68,4.68,0,0,0,4.08,1.92,8.14,8.14,0,0,0,3.82-.82,13.94,13.94,0,0,0,2.37-1.78A85.15,85.15,0,0,1,1391.81,568.44Z"/><path d="M1420.92,584.84c-1.35,0-2.1-.73-2.28-2.2l-.65-5.13a43.16,43.16,0,0,1-.33-5.14c0-.43,0-1.18.08-2.22s.08-1.79.08-2.23q0-5.05-1.87-5.06-2.62,0-5,3.12a21.32,21.32,0,0,0-3.37,7.17c0,.61-.1,1.37-.21,2.29a18,18,0,0,0-.14,2.28,21.1,21.1,0,0,0,.14,2.11c.09.93.14,1.64.14,2.11a2.35,2.35,0,0,1-.65,1.71,2.24,2.24,0,0,1-1.65.65,2.21,2.21,0,0,1-1.66-.65,2.38,2.38,0,0,1-.64-1.71c0-.47-.05-1.18-.15-2.11s-.15-1.64-.15-2.11q0-2.41.34-6.69t.34-6.7c0-.5,0-1.24-.08-2.22s-.08-1.73-.08-2.23a2.21,2.21,0,0,1,.66-1.65,2.31,2.31,0,0,1,1.66-.65c1.43,0,2.22,1,2.36,3l.07,2.74q3.95-5.25,8.09-5.25a5.29,5.29,0,0,1,5.23,3.31,17.4,17.4,0,0,1,1.1,6.51v2.37l0,2.18a32.17,32.17,0,0,0,.51,5,33,33,0,0,1,.5,5,2.21,2.21,0,0,1-.67,1.68A2.29,2.29,0,0,1,1420.92,584.84Z"/><path d="M638.48,619.87l-8.11,17.53q-3,6.4-4.59,10.72l-1.55,4.54a2.18,2.18,0,0,1-2.11,1.69,2.51,2.51,0,0,1-1.7-.64,2.1,2.1,0,0,1-.71-1.61q0-2.34,5.06-13.57l-8.39-16.15-1.06-1.71a3.81,3.81,0,0,1-.63-1.8,2.52,2.52,0,0,1,2.39-2.42,1.92,1.92,0,0,1,1.67.82A93,93,0,0,1,627.3,633l3.47-8.08a79.29,79.29,0,0,1,3.61-7.22,2.23,2.23,0,0,1,2-1.32,2.45,2.45,0,0,1,1.7.68,2.16,2.16,0,0,1,.74,1.62A2.88,2.88,0,0,1,638.48,619.87Z"/><path d="M651.82,642.16a9.16,9.16,0,0,1-6.78-2.9,12.43,12.43,0,0,1-3.32-8.7,15.1,15.1,0,0,1,2.67-9.33,10.48,10.48,0,0,1,9.14-4.76,7.71,7.71,0,0,1,7.1,4.29,16.49,16.49,0,0,1,1.85,8.35,15.14,15.14,0,0,1-2.72,8.88A9.33,9.33,0,0,1,651.82,642.16Zm1.4-20.93a5.9,5.9,0,0,0-5.36,3.28,11.88,11.88,0,0,0-1.53,6,7.29,7.29,0,0,0,1.85,5.3,5,5,0,0,0,3.64,1.57,5.71,5.71,0,0,0,4.19-1.78,7.55,7.55,0,0,0,2.11-5.32Q658.45,621.25,653.22,621.23Z"/><path d="M687.4,627.09c0,1.13,0,2.81,0,5.06s0,3.94,0,5.07c0,.34,0,.86.08,1.57s.09,1.22.09,1.57a2.19,2.19,0,0,1-.68,1.65,2.34,2.34,0,0,1-1.67.64c-1.2,0-2-.74-2.29-2.22a14.53,14.53,0,0,1-6.75,1.52,8.87,8.87,0,0,1-5.09-1.36,6.09,6.09,0,0,1-2.65-4.38,76.75,76.75,0,0,1-.91-11.06,43.77,43.77,0,0,1,.7-7.32,2.1,2.1,0,0,1,2.23-2,2.34,2.34,0,0,1,1.68.65,2.15,2.15,0,0,1,.68,1.65,26.74,26.74,0,0,1-.34,3.45,28.76,28.76,0,0,0-.34,3.61q0,3.92.26,6.7a22.55,22.55,0,0,0,.78,4.48,7.84,7.84,0,0,0,1.52.64,5.11,5.11,0,0,0,1.48.22,24,24,0,0,0,6.63-1l0-4.76,0-4.55a77,77,0,0,1,.44-8.79,2.11,2.11,0,0,1,2.28-2.15,2.3,2.3,0,0,1,1.68.65,2,2,0,0,1,.64,1.64Z"/><path d="M711.47,623.46c-.11,1.95-.9,2.93-2.35,2.93s-2-.77-2-2.32c0-.3,0-.85-.07-1.64l-.07-2a12.39,12.39,0,0,0-5.93,2.08,11.25,11.25,0,0,0-3.47,4.6l0,12.84a2.07,2.07,0,0,1-2.32,2.37c-1.37,0-2.06-.79-2.06-2.37V623.53c0-.52,0-1.29.06-2.32s.06-1.81.06-2.32c0-1.58.69-2.37,2.06-2.37,1.53,0,2.31,1.3,2.32,3.89a14.09,14.09,0,0,1,10-4.33,3.14,3.14,0,0,1,2.83,1.43,7.9,7.9,0,0,1,.94,4.31C711.49,622.63,711.48,623.18,711.47,623.46Z"/><path d="M741.23,642.26a11.48,11.48,0,0,1-8-2.91,10.31,10.31,0,0,1-3.38-8,18.63,18.63,0,0,1,3.16-9.82q3.53-5.62,7.93-5.62a14.55,14.55,0,0,1,5.13,1.07c2.39.93,3.59,2,3.59,3.38a2.38,2.38,0,0,1-.59,1.58,1.84,1.84,0,0,1-1.45.69,1.79,1.79,0,0,1-1.19-.41c-.33-.27-.66-.54-1-.81a7.33,7.33,0,0,0-4.52-1.1q-2.4,0-4.74,4.27a14.69,14.69,0,0,0-2.13,6.77,6,6,0,0,0,2.11,4.88,7.61,7.61,0,0,0,5.06,1.66,7.05,7.05,0,0,0,3-.75l2.72-1.45a2.61,2.61,0,0,1,1-.38,2,2,0,0,1,1.5.69,2.28,2.28,0,0,1,.63,1.58q0,1.73-3.61,3.31A13.57,13.57,0,0,1,741.23,642.26Z"/><path d="M764.08,642.16a9.16,9.16,0,0,1-6.77-2.9,12.49,12.49,0,0,1-3.33-8.7,15.23,15.23,0,0,1,2.67-9.33,10.5,10.5,0,0,1,9.14-4.76,7.71,7.71,0,0,1,7.11,4.29,16.6,16.6,0,0,1,1.85,8.35A15.21,15.21,0,0,1,772,638,9.34,9.34,0,0,1,764.08,642.16Zm1.41-20.93a5.91,5.91,0,0,0-5.37,3.28,12,12,0,0,0-1.52,6,7.29,7.29,0,0,0,1.85,5.3,5,5,0,0,0,3.63,1.57,5.72,5.72,0,0,0,4.2-1.78,7.55,7.55,0,0,0,2.11-5.32Q770.72,621.25,765.49,621.23Z"/><path d="M798.51,642.44c-1.34,0-2.1-.73-2.27-2.2l-.66-5.13a43.16,43.16,0,0,1-.33-5.14c0-.43,0-1.18.09-2.22s.08-1.79.08-2.23q0-5.06-1.88-5.06-2.62,0-5,3.12a21.32,21.32,0,0,0-3.38,7.17c0,.61-.1,1.37-.21,2.29a20.06,20.06,0,0,0-.14,2.28c0,.47.05,1.17.14,2.11a21.1,21.1,0,0,1,.14,2.11,2.34,2.34,0,0,1-.64,1.71,2.44,2.44,0,0,1-3.32,0,2.37,2.37,0,0,1-.63-1.71c0-.47,0-1.17-.15-2.11a19.57,19.57,0,0,1-.16-2.11c0-1.61.12-3.84.34-6.69s.34-5.09.34-6.69c0-.5,0-1.25-.08-2.23s-.08-1.73-.08-2.23a2.18,2.18,0,0,1,.67-1.65,2.26,2.26,0,0,1,1.65-.64c1.44,0,2.23,1,2.37,3l.07,2.74q3.93-5.25,8.08-5.25a5.28,5.28,0,0,1,5.23,3.31,17.2,17.2,0,0,1,1.1,6.51v2.37l0,2.18a33.22,33.22,0,0,0,.5,5,32,32,0,0,1,.51,5,2.25,2.25,0,0,1-.67,1.68A2.33,2.33,0,0,1,798.51,642.44Z"/><path d="M821.48,622.73a1.92,1.92,0,0,1-1.8-.86,7.89,7.89,0,0,1-.61-2.54c-1.18.3-3,.85-5.42,1.64-2.51,1-3.78,2.24-3.79,3.71a8.08,8.08,0,0,0,1.38.37,22.69,22.69,0,0,1,8,2.65,8,8,0,0,1,3.82,7.13,6.29,6.29,0,0,1-3.3,5.76,13.68,13.68,0,0,1-6.94,1.6,16.74,16.74,0,0,1-5.86-1c-2.4-.87-3.61-2.09-3.61-3.65a2.2,2.2,0,0,1,.74-1.64,2.37,2.37,0,0,1,1.68-.71,3.15,3.15,0,0,1,1.87,1.13,5.35,5.35,0,0,0,2.53.89,15.22,15.22,0,0,0,2.65.28,11.75,11.75,0,0,0,3.47-.47c1.45-.45,2.18-1.17,2.18-2.15q0-3.2-4.45-4.32l-2.44-.54a13,13,0,0,1-4.43-1.59,4.49,4.49,0,0,1-1.9-4,7.15,7.15,0,0,1,4.62-7,35.28,35.28,0,0,1,4.5-1.52,35.12,35.12,0,0,0,4.43-1.48,5,5,0,0,1,2.08-.43,2.21,2.21,0,0,1,1.66.66,2.34,2.34,0,0,1,.64,1.71,10.31,10.31,0,0,0,.29,2,9.82,9.82,0,0,1,.3,2,2.35,2.35,0,0,1-.65,1.71A2.24,2.24,0,0,1,821.48,622.73Z"/><path d="M839.62,642.26a11.48,11.48,0,0,1-8-2.91,10.31,10.31,0,0,1-3.38-8,18.63,18.63,0,0,1,3.16-9.82q3.52-5.62,7.93-5.62a14.55,14.55,0,0,1,5.13,1.07c2.39.93,3.59,2,3.59,3.38a2.38,2.38,0,0,1-.59,1.58,1.84,1.84,0,0,1-1.45.69,1.79,1.79,0,0,1-1.19-.41c-.33-.27-.66-.54-1-.81a7.33,7.33,0,0,0-4.52-1.1q-2.4,0-4.74,4.27a14.69,14.69,0,0,0-2.13,6.77,6,6,0,0,0,2.11,4.88,7.61,7.61,0,0,0,5.06,1.66,7.05,7.05,0,0,0,3-.75l2.72-1.45a2.61,2.61,0,0,1,1-.38,2,2,0,0,1,1.5.69,2.28,2.28,0,0,1,.63,1.58q0,1.73-3.61,3.31A13.57,13.57,0,0,1,839.62,642.26Z"/><path d="M859.21,630.14c0,.94,0,2.34.09,4.21s.08,3.27.08,4.2a2.34,2.34,0,0,1-.63,1.69,2.42,2.42,0,0,1-3.32,0,2.31,2.31,0,0,1-.64-1.69c0-.93,0-2.34-.09-4.2s-.08-3.27-.08-4.21c0-1.47.08-3.3.24-5.5s.23-4,.23-5.49a2.31,2.31,0,0,1,.64-1.71,2.41,2.41,0,0,1,3.31,0,2.31,2.31,0,0,1,.64,1.71c0,1.47-.07,3.3-.23,5.49S859.21,628.67,859.21,630.14Zm-1.05-19a2.72,2.72,0,0,1-1.95-.8,2.66,2.66,0,0,1,0-3.84,2.72,2.72,0,0,1,1.95-.8,2.66,2.66,0,0,1,1.93.8,2.68,2.68,0,0,1,0,3.84A2.66,2.66,0,0,1,858.16,611.11Z"/><path d="M878.08,641.86a13.28,13.28,0,0,1-8.58-2.65,10,10,0,0,1-3.58-8.2,17.08,17.08,0,0,1,3-10.22,10,10,0,0,1,8.58-4.5,13.4,13.4,0,0,1,6.35,1.31,5.28,5.28,0,0,1,3,5q0,2.34-2.64,4.26a37.34,37.34,0,0,1-5,2.63l-9,4.24a8.63,8.63,0,0,0,3.27,2.93,10,10,0,0,0,4.56,1,14.64,14.64,0,0,0,3.8-.61c1.84-.52,3-1.2,3.56-2s1.1-1.26,1.71-1.26a2,2,0,0,1,1.47.63,1.92,1.92,0,0,1,.64,1.44q0,2.6-4.19,4.47A17,17,0,0,1,878.08,641.86Zm-.63-21.35a6,6,0,0,0-4.76,2.21,15,15,0,0,0-2.83,6.67l7.19-3.42a31.1,31.1,0,0,0,6.05-3.59A8,8,0,0,0,877.45,620.51Z"/><path d="M911.41,642.44c-1.34,0-2.1-.73-2.27-2.2l-.66-5.13a43.16,43.16,0,0,1-.33-5.14c0-.43,0-1.18.08-2.22s.09-1.79.09-2.23q0-5.06-1.88-5.06-2.62,0-5,3.12a21.14,21.14,0,0,0-3.38,7.17c0,.61-.1,1.37-.21,2.29a20.06,20.06,0,0,0-.14,2.28c0,.47,0,1.17.14,2.11s.14,1.64.14,2.11a2.34,2.34,0,0,1-.64,1.71,2.44,2.44,0,0,1-3.32,0,2.37,2.37,0,0,1-.63-1.71,19.57,19.57,0,0,0-.16-2.11c-.1-.94-.15-1.64-.15-2.11,0-1.61.12-3.84.34-6.69s.34-5.09.34-6.69c0-.5,0-1.25-.08-2.23s-.08-1.73-.08-2.23a2.18,2.18,0,0,1,.67-1.65,2.26,2.26,0,0,1,1.65-.64c1.44,0,2.22,1,2.37,3l.07,2.74q3.93-5.25,8.08-5.25a5.29,5.29,0,0,1,5.23,3.31,17.2,17.2,0,0,1,1.1,6.51v2.37l0,2.18a32,32,0,0,0,.5,5,31.75,31.75,0,0,1,.5,5,2.24,2.24,0,0,1-.66,1.68A2.33,2.33,0,0,1,911.41,642.44Z"/><path d="M929.15,642.26a11.48,11.48,0,0,1-8-2.91,10.31,10.31,0,0,1-3.38-8,18.56,18.56,0,0,1,3.17-9.82q3.51-5.62,7.92-5.62a14.55,14.55,0,0,1,5.13,1.07c2.39.93,3.59,2,3.59,3.38a2.38,2.38,0,0,1-.59,1.58,1.82,1.82,0,0,1-1.45.69,1.79,1.79,0,0,1-1.19-.41c-.33-.27-.66-.54-1-.81a7.33,7.33,0,0,0-4.52-1.1c-1.6,0-3.17,1.42-4.74,4.27a14.69,14.69,0,0,0-2.13,6.77,6,6,0,0,0,2.11,4.88,7.61,7.61,0,0,0,5.06,1.66,7.05,7.05,0,0,0,3-.75l2.72-1.45a2.67,2.67,0,0,1,1-.38,2,2,0,0,1,1.5.69,2.28,2.28,0,0,1,.63,1.58q0,1.73-3.61,3.31A13.57,13.57,0,0,1,929.15,642.26Z"/><path d="M954.16,641.86a13.28,13.28,0,0,1-8.58-2.65A10,10,0,0,1,942,631a17.08,17.08,0,0,1,3-10.22,10,10,0,0,1,8.58-4.5,13.4,13.4,0,0,1,6.35,1.31,5.29,5.29,0,0,1,3,5q0,2.34-2.65,4.26a36.35,36.35,0,0,1-5,2.63l-9,4.24a8.63,8.63,0,0,0,3.27,2.93,10,10,0,0,0,4.56,1A14.71,14.71,0,0,0,958,637c1.84-.52,3-1.2,3.56-2s1.1-1.26,1.71-1.26a2,2,0,0,1,1.47.63,2,2,0,0,1,.64,1.44q0,2.6-4.2,4.47A17,17,0,0,1,954.16,641.86Zm-.63-21.35a6,6,0,0,0-4.76,2.21,15,15,0,0,0-2.84,6.67l7.2-3.42a31.1,31.1,0,0,0,6-3.59A8,8,0,0,0,953.53,620.51Z"/><path d="M974,640.24a2,2,0,0,1-.67,1.47,2.19,2.19,0,0,1-1.51.62,2.54,2.54,0,0,1-1.88-1.22,3.51,3.51,0,0,1-.91-2.11,1.94,1.94,0,0,1,.66-1.46,2.25,2.25,0,0,1,1.54-.6,2.56,2.56,0,0,1,1.87,1.21A3.55,3.55,0,0,1,974,640.24Zm0-35v26.08a2.09,2.09,0,1,1-4.17,0c0-.64,0-1.59-.06-2.87s-.06-2.22-.06-2.84c0-2.27,0-5.66.06-10.19s.06-7.92.06-10.18a2.09,2.09,0,1,1,4.17,0Z"/><path d="M884.18,319.79q-1.06,3.79-3,11.46-.44,2.64-.86,5.27-1,3.33-3.54,3.33a3.21,3.21,0,0,1-2.56-1.1,3.34,3.34,0,0,1-.79-2.23,33.51,33.51,0,0,1,1.61-9.26q2.42-8.17,2.6-9.07.69-3.6,1.39-7.22c.7-3.31,1.46-5.51,2.28-6.62a3.74,3.74,0,0,1,3.11-1.65,3.3,3.3,0,0,1,3.14,2.16,40.06,40.06,0,0,1,2,8.34,121.31,121.31,0,0,0,3.07,13.17q2.69-7,5-15.28L899,305.7q1.26-3.34,3.91-3.35t3.8,3.89a39.56,39.56,0,0,1,1.1,5.86,121,121,0,0,0,3.42,17.11q2.09,7.25,2.09,7.87a2.9,2.9,0,0,1-1.11,2.32,3.52,3.52,0,0,1-2.32.85q-2.55,0-3.79-3.66l-1.32-5.67q-1.12-4.21-2.43-12.12-1.07,3.15-3.49,9.87L897.42,333a24.13,24.13,0,0,1-1.81,4.2,3.82,3.82,0,0,1-3.46,2.18c-1.47,0-2.6-.87-3.38-2.6l-1.31-4.36Q885.63,326.4,884.18,319.79Z"/><path d="M941.2,334.25a15.8,15.8,0,0,1-4.12,3.87A11.21,11.21,0,0,1,931,340q-6,0-8.88-2.26Q916,333,916,321.18q0-1.12.12-3.36t.12-3.36c0-.6,0-1.5,0-2.69s0-2.08,0-2.68a9,9,0,0,1,.68-3.47c.61-1.45,1.46-2.17,2.55-2.17a3.46,3.46,0,0,1,2.28.83,2.76,2.76,0,0,1,1.08,2.25c0,.87,0,2.19,0,4s0,3.09,0,4,0,1.84-.12,3.33-.12,2.59-.12,3.32a24.82,24.82,0,0,0,.84,6.61q1,3.64,2.89,5.09c.65.51,2.22.77,4.68.81q6.19.09,8.35-10.55a81.86,81.86,0,0,0,1.12-15.47,4.61,4.61,0,0,1,.78-2.53,3.37,3.37,0,0,1,3-1.62,2.7,2.7,0,0,1,2.39,1.17,3.32,3.32,0,0,1,.61,1.92,92.19,92.19,0,0,1-.87,14.44A30.5,30.5,0,0,1,941.2,334.25Z"/><path d="M975.91,338.58a3.31,3.31,0,0,1-2.32-1A39.27,39.27,0,0,0,958,328.37c.17,4.54.26,7.07.26,7.57a3,3,0,0,1-.94,2.26,3.2,3.2,0,0,1-2.34.92,3.24,3.24,0,0,1-2.35-.92,3.07,3.07,0,0,1-.93-2.26c0-1.18,0-2.93,0-5.27s0-4.09,0-5.26l.05-18.91a4.56,4.56,0,0,1,.91-2.77A3.54,3.54,0,0,1,956,302.3c3.79.28,5.74.43,5.83.45a16.55,16.55,0,0,1,5.58,1.57q10,5,10,12.49a7.92,7.92,0,0,1-2.1,5.43,16,16,0,0,1-6.29,4,34.71,34.71,0,0,1,9.35,7.08,3.06,3.06,0,0,1,.82,2.08,3,3,0,0,1-1,2.26A3.21,3.21,0,0,1,975.91,338.58Zm-15-29.48c-.13,0-1-.08-2.74-.19v12.45l1,0c3.82,0,6.66-.48,8.5-1.43a8.5,8.5,0,0,0,2.2-1.62c.66-.67,1-1.18,1-1.52q0-2.62-3.33-5.06A13.48,13.48,0,0,0,960.89,309.1Z"/><path d="M986.86,338.54a3.24,3.24,0,0,1-2.32-1,3,3,0,0,1-.94-2.24c0-1.56.07-3.91.22-7s.22-5.47.22-7q0-2.61-.1-7.81t-.11-7.8a3.74,3.74,0,0,1,1.25-2.57,3.67,3.67,0,0,1,2.64-1.28,14.26,14.26,0,0,1,3.89,1.46c2.43,1.15,3.86,1.8,4.32,1.94a30.13,30.13,0,0,1,11.72,6.89q5.77,5.56,5.78,12.28a16.6,16.6,0,0,1-7.45,13.69q-3.88,2.54-10.94,2.53a18.36,18.36,0,0,1-3.94-.49A13.75,13.75,0,0,1,986.86,338.54Zm13.17-24.1a79.89,79.89,0,0,0-9.75-4.5v23.21a7.1,7.1,0,0,0,2.1.88,11.2,11.2,0,0,0,2.63.29q5.07,0,7.27-1.41a9.6,9.6,0,0,0,3.31-3.63,9.91,9.91,0,0,0,1.24-4.78Q1006.83,318.68,1000,314.44Z"/><path d="M1040.88,308.26a3.86,3.86,0,0,1-1-.14,28.14,28.14,0,0,0-7.39-1,27,27,0,0,0-3.77.29,39.37,39.37,0,0,0-4.29.84c0,2.08-.07,5.16-.21,9.26.87-.07,3.93-.35,9.16-.87q4.49-.45,5.68-.45a3.43,3.43,0,0,1,2.36.88,3,3,0,0,1,1,2.34c0,1.85-1,2.91-3,3.16q-1.87.14-5.6.47-3.33.38-10,.91c-.11,2-.17,3.59-.17,4.81q0,4.59.54,5.22c.17.21,1.16.31,3,.31,1,0,2.43,0,4.38-.07s3.41-.07,4.38-.07a10.53,10.53,0,0,0,1.38-.14,9.05,9.05,0,0,1,1.36-.14,3.55,3.55,0,0,1,2.32.77,2.92,2.92,0,0,1,1.11,2.44,3,3,0,0,1-2.75,3.14,66.8,66.8,0,0,1-9.72.44q-7.65,0-10-2.06-2.56-2.28-2.56-9.84c0-2.1.15-5.24.46-9.44s.45-7.33.45-9.41a17.56,17.56,0,0,0-.23-2.42,17.55,17.55,0,0,1-.23-2.43q0-3.56,3.28-3.56a3.35,3.35,0,0,1,1.9.58,48.2,48.2,0,0,1,5.16-1,33.35,33.35,0,0,1,4.63-.34A27.12,27.12,0,0,1,1042,302a3,3,0,0,1,2.15,3,3.16,3.16,0,0,1-.84,2.16A3,3,0,0,1,1040.88,308.26Z"/><path d="M1071.25,338.58a3.33,3.33,0,0,1-2.32-1,39.23,39.23,0,0,0-15.6-9.23c.17,4.54.25,7.07.25,7.57a3.07,3.07,0,0,1-.93,2.26,3.24,3.24,0,0,1-2.35.92,3.2,3.2,0,0,1-2.34-.92,3,3,0,0,1-.94-2.26c0-1.18,0-2.93,0-5.27s0-4.09,0-5.26l.05-18.91a4.57,4.57,0,0,1,.92-2.77,3.51,3.51,0,0,1,3.3-1.43c3.8.28,5.74.43,5.84.45a16.56,16.56,0,0,1,5.57,1.57q10,5,10,12.49a7.92,7.92,0,0,1-2.1,5.43,15.89,15.89,0,0,1-6.29,4,34.71,34.71,0,0,1,9.35,7.08,3.07,3.07,0,0,1-.16,4.34A3.25,3.25,0,0,1,1071.25,338.58Zm-15-29.48c-.12,0-1-.08-2.74-.19v12.45l1,0c3.83,0,6.66-.48,8.51-1.43a8.29,8.29,0,0,0,2.19-1.62c.66-.67,1-1.18,1-1.52q0-2.62-3.33-5.06A13.51,13.51,0,0,0,1056.23,309.1Z"/><path d="M1081.19,339.85a3.41,3.41,0,0,1-2.62-1.5,4.21,4.21,0,0,1-1.1-2.58,2.59,2.59,0,0,1,1-2,3.29,3.29,0,0,1,2.18-.82,3.37,3.37,0,0,1,2.6,1.5,4.27,4.27,0,0,1,1.1,2.56,2.67,2.67,0,0,1-1,2A3.18,3.18,0,0,1,1081.19,339.85Zm.07-8.51a3,3,0,0,1-2.17-.82,2.73,2.73,0,0,1-.85-2.06q0-.91-.06-2.73t-.06-2.73c0-2.16,0-5.39.06-9.71s.06-7.54.06-9.7a2.73,2.73,0,0,1,.87-2.07,2.94,2.94,0,0,1,2.15-.83,3,3,0,0,1,2.16.83,2.73,2.73,0,0,1,.87,2.07v24.87a2.74,2.74,0,0,1-.86,2.06A3,3,0,0,1,1081.26,331.34Z"/><path d="M1092.61,339.85a3.42,3.42,0,0,1-2.63-1.5,4.27,4.27,0,0,1-1.1-2.58,2.59,2.59,0,0,1,1-2,3.3,3.3,0,0,1,2.18-.82,3.34,3.34,0,0,1,2.6,1.5,4.21,4.21,0,0,1,1.1,2.56,2.63,2.63,0,0,1-1,2A3.16,3.16,0,0,1,1092.61,339.85Zm.07-8.51a3,3,0,0,1-2.17-.82,2.74,2.74,0,0,1-.86-2.06q0-.91-.06-2.73c0-1.21,0-2.12,0-2.73,0-2.16,0-5.39,0-9.71s.06-7.54.06-9.7a2.73,2.73,0,0,1,.87-2.07,3.21,3.21,0,0,1,4.31,0,2.73,2.73,0,0,1,.87,2.07v24.87a2.7,2.7,0,0,1-.86,2.06A3,3,0,0,1,1092.68,331.34Z"/><path d="M1104,339.85a3.41,3.41,0,0,1-2.62-1.5,4.23,4.23,0,0,1-1.11-2.58,2.59,2.59,0,0,1,1-2,3.32,3.32,0,0,1,2.18-.82,3.37,3.37,0,0,1,2.61,1.5,4.27,4.27,0,0,1,1.1,2.56,2.67,2.67,0,0,1-1,2A3.18,3.18,0,0,1,1104,339.85Zm.07-8.51a3,3,0,0,1-2.17-.82,2.73,2.73,0,0,1-.85-2.06q0-.91-.06-2.73T1101,323c0-2.16,0-5.39.06-9.71s.06-7.54.06-9.7a2.76,2.76,0,0,1,.86-2.07,3.23,3.23,0,0,1,4.32,0,2.72,2.72,0,0,1,.86,2.07v24.87a2.73,2.73,0,0,1-.85,2.06A3,3,0,0,1,1104.09,331.34Z"/></svg>
