<svg id="Layer_1" data-name="Layer 1" xmlns="http://www.w3.org/2000/svg" viewBox="0 0 1921 1080"><defs><style>.cls-1,.cls-13{fill:#cefaf9;}.cls-2{fill:#dfe4e7;}.cls-20,.cls-3{fill:#fff;}.cls-19,.cls-4,.cls-5{fill:#ed7b81;}.cls-13,.cls-20,.cls-5,.cls-6{stroke:#000;}.cls-10,.cls-13,.cls-15,.cls-16,.cls-19,.cls-20,.cls-5,.cls-6,.cls-9{stroke-miterlimit:10;}.cls-12,.cls-6{fill:#fee0db;}.cls-10,.cls-16,.cls-7{fill:#f3bed5;}.cls-8{fill:#c5eccd;}.cls-9{fill:#f7cbde;}.cls-10,.cls-15,.cls-9{stroke:#999;}.cls-11{fill:#d3a5b9;}.cls-14{fill:none;}.cls-15{fill:#a3d399;}.cls-16,.cls-19{stroke:#fff;}.cls-16{stroke-width:5px;}.cls-17{fill:#f7c799;}.cls-18{fill:#edf88d;}.cls-19{stroke-width:2px;}</style></defs><title>levelcomplete</title><path class="cls-1" d="M1920,34.94V.44h-8.67a5.07,5.07,0,0,1-2.14-.44h-.76a5.24,5.24,0,0,1-1,.09q-3.32,0-6.63-.09h-36.67a4.53,4.53,0,0,1-1.76,0H0V1080H1920V78.9q-.42-19.5-.11-39C1919.92,38.26,1920,36.6,1920,34.94Z"/><rect class="cls-2" x="525" width="969" height="1080"/><rect class="cls-3" x="979" width="60" height="145"/><rect class="cls-3" x="979" y="656" width="60" height="180"/><rect class="cls-3" x="979" y="429" width="60" height="180"/><rect class="cls-3" x="979" y="195" width="60" height="180"/><rect class="cls-3" x="979" y="883" width="60" height="180"/><polygon class="cls-4" points="1713.51 450.5 1720.49 14.5 1875.5 14.5 1875.5 450.5 1713.51 450.5"/><path d="M1875,15V450H1714l7-435h154m1-1H1720l-7,437h163V14Z"/><polygon class="cls-5" points="1920.5 34.57 1876.5 14.71 1876.5 431.85 1920.5 431.85 1920.5 34.57"/><rect class="cls-6" x="1740.5" y="87.07" width="102" height="95.06"/><rect class="cls-6" x="1740.5" y="329.69" width="102" height="95.06"/><polygon class="cls-6" points="1842.5 308.41 1740.5 308.41 1740.5 213.35 1842.5 211.93 1842.5 308.41"/><rect class="cls-7" x="1623" y="118" width="98" height="359"/><rect class="cls-8" x="1675.5" y="156.5" width="27" height="30"/><polygon class="cls-8" points="1671.5 57 1622.5 117.5 1720.5 117.5 1671.5 57"/><rect class="cls-8" x="1640.5" y="156.5" width="27" height="30"/><rect class="cls-8" x="1640.5" y="201.5" width="27" height="30"/><rect class="cls-8" x="1675.5" y="201.5" width="27" height="30"/><rect class="cls-8" x="1640.5" y="246.5" width="27" height="30"/><rect class="cls-8" x="1675.5" y="246.5" width="27" height="30"/><rect class="cls-8" x="1675" y="288" width="27" height="30"/><rect class="cls-8" x="1640" y="288" width="27" height="30"/><rect class="cls-8" x="1640" y="333" width="27" height="30"/><rect class="cls-8" x="1675" y="333" width="27" height="30"/><rect class="cls-8" x="1640" y="378" width="27" height="30"/><rect class="cls-8" x="1675" y="378" width="27" height="30"/><ellipse class="cls-8" cx="1671.5" cy="58" rx="17.5" ry="15"/><path class="cls-9" d="M1659.71,398h199.67a0,0,0,0,1,0,0v682a0,0,0,0,1,0,0H1650.94a0,0,0,0,1,0,0V406.77A8.77,8.77,0,0,1,1659.71,398Z"/><path class="cls-10" d="M1912.51,425.41l-52.7-27.18c-.22-.12-.44.21-.44.65v680.44c0,.37.16.68.35.68h61.49c.19,0,.35-.31.35-.69L1917.91,439C1917.87,432.58,1915.66,427,1912.51,425.41Z"/><rect class="cls-11" x="1683.72" y="466.61" width="56.41" height="82.33"/><rect class="cls-11" x="1766.05" y="568.75" width="56.41" height="82.33"/><rect class="cls-11" x="1683.72" y="568.75" width="56.41" height="82.33"/><rect class="cls-11" x="1766.05" y="466.61" width="56.41" height="82.33"/><rect class="cls-11" x="1766.05" y="774.25" width="56.41" height="82.33"/><rect class="cls-11" x="1683.72" y="670.9" width="56.41" height="82.33"/><rect class="cls-11" x="1766.05" y="670.9" width="56.41" height="82.33"/><rect class="cls-11" x="1684.05" y="993.25" width="56.41" height="82.33"/><rect class="cls-11" x="1766.05" y="879.25" width="56.41" height="82.33"/><rect class="cls-11" x="1684.05" y="879.25" width="56.41" height="82.33"/><rect class="cls-11" x="1684.05" y="775.25" width="56.41" height="82.33"/><rect class="cls-11" x="1766.05" y="993.25" width="56.41" height="82.33"/><rect class="cls-4" x="1488.5" y="537.16" width="207" height="542.84"/><rect class="cls-12" x="1481.5" y="537.16" width="221" height="38.26" rx="13.46"/><rect class="cls-12" x="1502.5" y="630.42" width="45" height="71.74"/><rect class="cls-12" x="1572.5" y="630.42" width="45" height="71.74"/><rect class="cls-12" x="1638.5" y="630.42" width="45" height="71.74"/><rect class="cls-12" x="1484.5" y="733.25" width="215" height="9.57" rx="4"/><rect class="cls-12" x="1502.5" y="764.34" width="45" height="71.74"/><rect class="cls-12" x="1572.5" y="764.34" width="45" height="71.74"/><rect class="cls-12" x="1638.5" y="764.34" width="45" height="71.74"/><rect class="cls-12" x="1483.5" y="862.39" width="215" height="9.57" rx="4"/><rect class="cls-12" x="1638.5" y="888.69" width="45" height="71.74"/><rect class="cls-12" x="1572.5" y="888.69" width="45" height="71.74"/><rect class="cls-12" x="1502.5" y="888.69" width="45" height="71.74"/><rect class="cls-12" x="1557.5" y="991.52" width="74" height="88.48"/><path class="cls-9" d="M1502.27,283h127.95a0,0,0,0,1,0,0V533.33a0,0,0,0,1,0,0H1493.5a0,0,0,0,1,0,0V291.77A8.77,8.77,0,0,1,1502.27,283Z"/><path class="cls-10" d="M1665.07,293.06l-34.57-10a.24.24,0,0,0-.29.24V533.08a.24.24,0,0,0,.23.25h40.33a.24.24,0,0,0,.23-.25L1668.61,298A5.16,5.16,0,0,0,1665.07,293.06Z"/><rect class="cls-11" x="1569" y="425.14" width="37" height="30.22"/><rect class="cls-13" x="1516.5" y="318.5" width="36" height="36"/><rect class="cls-13" x="1574.5" y="318.5" width="36" height="36"/><rect class="cls-13" x="1516.5" y="367.5" width="36" height="36"/><rect class="cls-13" x="1573.5" y="369.5" width="36" height="36"/><rect class="cls-13" x="1518.5" y="416.5" width="36" height="36"/><polygon class="cls-12" points="1689.86 553.71 1488.91 553.31 1589.73 379.49 1689.86 553.71"/><polyline class="cls-14" points="734.59 282.65 725.94 282.65 730.57 277.85 725.32 281.45"/><rect class="cls-15" x="750.77" y="264" width="1.05" height="1.05"/><rect class="cls-16" x="514.56" y="142.5" width="988.11" height="578" rx="152.8"/><path class="cls-17" d="M189.27,752.56c-2.37-8.43-48-6.07-81.66,4.06-11.74,3.54-17.52,6.67-17.61,10.16-.14,5.74,15.22,10.16,17.61,10.83,30.76,8.55,61.31-9.2,66.45-12.19C183.52,759.92,190.24,756,189.27,752.56Z"/><path class="cls-17" d="M358.78,779.6l-9.11-17.52a1.26,1.26,0,0,1,0-1.15l64.51-119.46a.36.36,0,0,0,0-.09c.47-1.06,9.83-22.29,19.2-19.17,9.61,3.2,8.84,6.52,8,9.61-.68,2.54-11.92,15.77-17,20.62a1.24,1.24,0,0,0,1.5,1.95l.07,0a1.26,1.26,0,0,0,.32-.29L443,633.42c5.36-6,12.08.63,14.4,3.2a2.5,2.5,0,0,1,0,2.4c-19.39,23.31-40.57,51.49-41.59,52.79a.61.61,0,0,1-.07.1l-54.85,87.77A1.24,1.24,0,0,1,358.78,779.6Z"/><path class="cls-7" d="M196.07,721.08c-8.67,18.22-34.49,75.75-41.63,111.27-9.59,47.71-22.1,109.95,13.61,156.9,5.49,7.22,3.34-5.35,75.25,43.23,14.81,10,12,4,93.66-53.63a63.51,63.51,0,0,0,13.28-12.54c36-39.9,63.58-182-12.48-247.64C329.68,711.7,325.47,714,196.07,721.08Z"/><ellipse class="cls-7" cx="298.54" cy="437.29" rx="24.42" ry="19.21"/><path class="cls-18" d="M282.93,422.88c-8.47-10.9-1-32,8-44,10.67-14.21,25.87-18.81,38.43-22.42,8.76-2.51,23.73-5.72,54.44-3.2,32.12,2.64,38.05,8,88.85,15.21,18.69,2.66,29.55,3.59,43.23,1.6,20.32-3,30.9-10,32.83-7.2,3,4.39-17.05,29.49-46.44,44-9.21,4.55-18.27,7.54-80.85,13.61-58.35,5.65-31.6,1.22-83.25,5.6C302,429.15,289.45,431.27,282.93,422.88Z"/><path class="cls-17" d="M134,611c-11.34,8.33-17.31,17.53-19,27-5.74,31.53,41.39,65.4,71.17,79.94a168.9,168.9,0,0,0,72,17.11c9.71,0,91.51-1.43,127.75-61.5,10.41-17.26,16.35-38,16.35-62.19,0-80.68-63.44-138.67-140.9-146.09C127.62,452.5,200.47,562.17,134,611Z"/><ellipse cx="316.95" cy="600.03" rx="31.62" ry="45.86"/><circle class="cls-3" cx="322.72" cy="611.61" r="10.14"/><circle class="cls-3" cx="300.61" cy="585.24" r="17.86"/><ellipse cx="226.49" cy="600.03" rx="31.62" ry="45.86"/><circle class="cls-3" cx="240.27" cy="610.01" r="10.14"/><circle class="cls-3" cx="212.55" cy="583.64" r="17.86"/><ellipse class="cls-4" cx="362.98" cy="645.93" rx="20.81" ry="13.31"/><ellipse class="cls-4" cx="168.45" cy="645.93" rx="20.81" ry="13.31"/><path class="cls-18" d="M170.71,512.85l5.35,20.1,22.88-38.18,6.74,19,31.12-22h0A15.73,15.73,0,0,0,262.3,504l9.42-7.47,8.41,27.6,24.73-11.8L319.35,533h22.42c20.81-25.62,0-47.23,0-47.23L329,456.1l-29.62-8.81H216.88s21.62-5.6-17.61,0S170.71,512.85,170.71,512.85Z"/><path class="cls-18" d="M349,469.71c-7.63-6.69-19.28-15-21.61-12.81s7.1,10.94,12.81,28c3.95,11.83,4.23,23.09,4.8,45.63s-1,29.39,4,32.82c6.39,4.41,18.79,0,25.62-7.2,12-12.77,6.41-34.09,4-43.23C372.67,490.46,357.78,477.43,349,469.71Z"/><path d="M233.15,681.18c29.46,44.1,68.82,4.51,65-22.14"/><circle class="cls-19" cx="265.72" cy="831.55" r="51.63"/><path class="cls-3" d="M268.3,839l43.17-29c1.59-1.07.09-3.67-1.52-2.59l-43.16,29c-1.6,1.07-.1,3.67,1.51,2.59Z"/><path class="cls-3" d="M269.69,881.73l-1-101.62a1.5,1.5,0,0,0-3,0l1,101.62a1.5,1.5,0,0,0,3,0Z"/><path class="cls-3" d="M267.48,836.17l-46.09-30.1c-1.62-1.06-3.13,1.53-1.52,2.59l46.1,30.1c1.62,1.06,3.12-1.54,1.51-2.59Z"/><path d="M627.1,295.43Q621.34,298,609.27,300a113.23,113.23,0,0,1-18.11,1.86q-12,0-12-10.5,0,.82,1-15.48,1.27-21.19,1.27-47.17a6.64,6.64,0,0,1,6.79-6.69,6.6,6.6,0,0,1,4.88,2,6.46,6.46,0,0,1,2,4.73q0,26-1.32,47.95c-.3,2.61-.6,6.59-.93,12q11.56-.19,29.69-5.66a7.28,7.28,0,0,1,2.15-.34,6.23,6.23,0,0,1,5,2.24,6.77,6.77,0,0,1,1.71,4.5Q631.35,293.53,627.1,295.43Z"/><path d="M685.45,234.69a7.59,7.59,0,0,1-2.05-.3A58.68,58.68,0,0,0,668,232.25a57.14,57.14,0,0,0-7.87.58,88.17,88.17,0,0,0-8.93,1.76q0,6.49-.44,19.29,2.73-.19,19.09-1.81,9.33-.93,11.82-.93a7.15,7.15,0,0,1,4.93,1.83,6.2,6.2,0,0,1,2,4.86q0,5.82-6.2,6.59-3.91.3-11.67,1-6.93.78-20.9,1.9-.35,6.21-.34,10c0,6.39.37,10,1.12,10.89q.54.65,6.15.64c2,0,5.07,0,9.13-.15s7.12-.15,9.14-.15a19.88,19.88,0,0,0,2.88-.29,21.32,21.32,0,0,1,2.83-.29,7.47,7.47,0,0,1,4.83,1.61,6.11,6.11,0,0,1,2.3,5.08c0,3.64-1.91,5.83-5.72,6.54q-4.87.93-20.26.93-15.91,0-20.75-4.3-5.33-4.72-5.32-20.51,0-6.54,1-19.65t.95-19.6a37.56,37.56,0,0,0-.49-5.06,39.19,39.19,0,0,1-.49-5.05q0-7.42,6.84-7.42a6.93,6.93,0,0,1,4,1.22,103.69,103.69,0,0,1,10.77-2.13,70.61,70.61,0,0,1,9.65-.7q12.3,0,19.67,2.83,4.5,1.71,4.5,6.2a6.52,6.52,0,0,1-1.76,4.49A6.32,6.32,0,0,1,685.45,234.69Z"/><path d="M724.7,276.78q7.38-18.55,11.43-29.54,2.14-5.82,4.25-11.67a38.8,38.8,0,0,1,6.2-10.7,6.79,6.79,0,0,1,5.27-2.49,7,7,0,0,1,4.89,1.93,6.17,6.17,0,0,1,2.1,4.71,6.71,6.71,0,0,1-1.32,3.86,48.39,48.39,0,0,0-4.84,9.18q-.09.19-3.61,9.67Q744.68,263,736,285.57a90,90,0,0,1-5.51,11.81,6.64,6.64,0,0,1-6.11,3.81,7.14,7.14,0,0,1-7.08-4.78q-6-14.22-13.23-41c-1.33-4.4-2.69-8.79-4-13.18q-2.75-9.18-2.74-12.75a6.12,6.12,0,0,1,2.15-4.78A7.09,7.09,0,0,1,704.2,223q4.68,0,6.54,4.88,1,4.25,2,8.45,1.62,5.26,4.64,15.82Q721.14,266.09,724.7,276.78Z"/><path d="M815.38,234.69a7.59,7.59,0,0,1-2-.3A58.68,58.68,0,0,0,798,232.25a57,57,0,0,0-7.86.58,88.33,88.33,0,0,0-8.94,1.76q0,6.49-.44,19.29,2.73-.19,19.09-1.81,9.33-.93,11.82-.93a7.15,7.15,0,0,1,4.93,1.83,6.2,6.2,0,0,1,2.05,4.86q0,5.82-6.2,6.59-3.9.3-11.67,1-6.93.78-20.9,1.9-.35,6.21-.34,10c0,6.39.37,10,1.12,10.89q.54.65,6.16.64c2,0,5.06,0,9.13-.15s7.11-.15,9.13-.15a19.88,19.88,0,0,0,2.88-.29,21.32,21.32,0,0,1,2.83-.29,7.47,7.47,0,0,1,4.83,1.61,6.11,6.11,0,0,1,2.3,5.08c0,3.64-1.91,5.83-5.71,6.54q-4.89.93-20.27.93-15.92,0-20.75-4.3-5.32-4.72-5.32-20.51,0-6.54.95-19.65t1-19.6a37.56,37.56,0,0,0-.49-5.06,38.78,38.78,0,0,1-.48-5.05q0-7.42,6.83-7.42a7,7,0,0,1,4,1.22,103,103,0,0,1,10.76-2.13,70.61,70.61,0,0,1,9.65-.7q12.3,0,19.67,2.83,4.5,1.71,4.5,6.2a6.52,6.52,0,0,1-1.76,4.49A6.3,6.3,0,0,1,815.38,234.69Z"/><path d="M874.56,295.43Q868.8,298,856.74,300a113.45,113.45,0,0,1-18.12,1.86q-12,0-12-10.5,0,.82,1-15.48,1.27-21.19,1.27-47.17a6.64,6.64,0,0,1,6.79-6.69,6.6,6.6,0,0,1,4.88,2,6.42,6.42,0,0,1,2,4.73q0,26-1.32,47.95-.44,3.92-.93,12,11.58-.19,29.69-5.66a7.28,7.28,0,0,1,2.15-.34,6.23,6.23,0,0,1,5,2.24,6.77,6.77,0,0,1,1.71,4.5Q878.81,293.53,874.56,295.43Z"/><path d="M976,245.28c-2.93,0-5.09-1.54-6.49-4.64a5,5,0,0,0-1.95-2.63,12.42,12.42,0,0,0-3.86-.34q-6.15,0-14.21,9.57-11.28,13.38-11.28,25.05a12.93,12.93,0,0,0,3.56,9.13,11.3,11.3,0,0,0,8.55,3.8,21.5,21.5,0,0,0,9.81-2.53q1.77-.93,7.43-4.79,3.81-2.53,5.76-2.54a6.65,6.65,0,0,1,5,2.15,6.48,6.48,0,0,1,1.9,4.59,6.4,6.4,0,0,1-2.54,5q-13.42,11.33-27.34,11.33a24.53,24.53,0,0,1-18.55-8,25.69,25.69,0,0,1-7.23-18.16q0-16.37,14.31-33.4,12.15-14.46,24.85-14.46c1.43,0,2.72,0,3.88.15a22.71,22.71,0,0,1,3,.44,7.14,7.14,0,0,1,5.18-2.1q5,0,6.15,5.71a49.06,49.06,0,0,1,.83,9.57,7.51,7.51,0,0,1-1.42,4.45A6.16,6.16,0,0,1,976,245.28Z"/><path d="M1022.36,300.26q-14.45,0-24.61-8.3a28.38,28.38,0,0,1-10.84-23,48.87,48.87,0,0,1,10.4-30.27q11.67-15.37,29.4-15.38,17,0,25.53,7.81t8.5,23.49a50.75,50.75,0,0,1-9.57,30.08Q1040.13,300.26,1022.36,300.26Zm4.35-63.72q-10.89,0-18.66,10.55a36,36,0,0,0-7.27,21.87,16.16,16.16,0,0,0,6.3,13.19q6,4.88,15.28,4.88,10.74,0,17.92-10.55a37.72,37.72,0,0,0,6.59-21.87q0-10.26-4.59-14.26Q1037.88,236.54,1026.71,236.54Z"/><path d="M1089.65,258.71q-2.2,7.91-6.16,23.88c-.61,3.68-1.22,7.34-1.8,11q-2,6.94-7.38,6.94a6.63,6.63,0,0,1-5.32-2.3,6.9,6.9,0,0,1-1.66-4.64q0-7.9,3.37-19.28,5-17,5.42-18.9c.94-5,1.91-10,2.88-15q2.2-10.35,4.76-13.79a7.76,7.76,0,0,1,6.47-3.44c3,0,5.15,1.49,6.55,4.49q2,4.24,4.19,17.38a249.79,249.79,0,0,0,6.4,27.44q5.57-14.51,10.35-31.83l2.74-11.23q2.63-7,8.15-7,5.33,0,7.91,8.11a81.34,81.34,0,0,1,2.3,12.21,250.56,250.56,0,0,0,7.13,35.64q4.33,15.09,4.34,16.41a6.09,6.09,0,0,1-2.29,4.83,7.48,7.48,0,0,1-4.84,1.76q-5.33,0-7.91-7.62l-2.73-11.82q-2.34-8.79-5.08-25.24-2.2,6.54-7.28,20.56l-2.93,9a49.77,49.77,0,0,1-3.76,8.74q-2.58,4.55-7.22,4.54t-7-5.42l-2.74-9.08Q1092.67,272.48,1089.65,258.71Z"/><path d="M1172.26,270c-.55,0-1.92-.11-4.1-.34q-.29,6.84-.29,22.46a6.27,6.27,0,0,1-6.4,6.3,6.2,6.2,0,0,1-4.61-1.86,6.09,6.09,0,0,1-1.83-4.44V278.54q0-7.57,1-22.42.93-15.09,1-22.51,0-12.69,7.13-12.15a25.4,25.4,0,0,1,4.59-.66q2.92-.23,7.13-.22a29.67,29.67,0,0,1,18,6.2q9.32,6.93,9.32,16.89a23.47,23.47,0,0,1-9.91,19.87Q1184.42,270,1172.26,270Zm2.45-36.87q-1.57,0-2.76,0c-.8,0-1.48.06-2,.12q0,2.3-.05,6.89-.09,5.41-.93,16.89a27.1,27.1,0,0,0,3.32.39q7.62,0,12.65-3.61a12,12,0,0,0,5.37-10.21q0-4.14-5-7.37A19.07,19.07,0,0,0,1174.71,233.17Z"/><path d="M1256.25,295.43q-5.76,2.54-17.82,4.54a113.45,113.45,0,0,1-18.12,1.86q-12,0-12-10.5,0,.82,1-15.48,1.28-21.19,1.27-47.17a6.64,6.64,0,0,1,6.79-6.69,6.6,6.6,0,0,1,4.88,2,6.42,6.42,0,0,1,2,4.73q0,26-1.32,47.95-.44,3.92-.93,12,11.58-.19,29.69-5.66a7.28,7.28,0,0,1,2.15-.34,6.23,6.23,0,0,1,5,2.24,6.77,6.77,0,0,1,1.71,4.5Q1260.5,293.53,1256.25,295.43Z"/><path d="M1314.6,234.69a7.59,7.59,0,0,1-2-.3,58.68,58.68,0,0,0-15.38-2.14,57.14,57.14,0,0,0-7.87.58,88.17,88.17,0,0,0-8.93,1.76q0,6.49-.44,19.29,2.73-.19,19.09-1.81,9.33-.93,11.82-.93a7.15,7.15,0,0,1,4.93,1.83,6.2,6.2,0,0,1,2,4.86q0,5.82-6.2,6.59-3.91.3-11.67,1-6.93.78-20.9,1.9-.35,6.21-.34,10c0,6.39.37,10,1.12,10.89q.54.65,6.15.64,3,0,9.14-.15c4.06-.1,7.11-.15,9.13-.15a19.88,19.88,0,0,0,2.88-.29A21.32,21.32,0,0,1,1310,288a7.47,7.47,0,0,1,4.83,1.61,6.11,6.11,0,0,1,2.3,5.08c0,3.64-1.91,5.83-5.71,6.54q-4.89.93-20.27.93-15.91,0-20.75-4.3-5.33-4.72-5.32-20.51,0-6.54,1-19.65t1-19.6a37.56,37.56,0,0,0-.49-5.06A39.19,39.19,0,0,1,1266,228q0-7.42,6.84-7.42a7,7,0,0,1,4,1.22,103,103,0,0,1,10.76-2.13,70.61,70.61,0,0,1,9.65-.7q12.3,0,19.67,2.83,4.5,1.71,4.5,6.2a6.52,6.52,0,0,1-1.76,4.49A6.3,6.3,0,0,1,1314.6,234.69Z"/><path d="M1386.18,238.74q-3.81,0-11.87-.54-7.75-.52-11.86-.49.19,5.58,1.32,19.83,1,12.6,1,19.92c0,1.11.12,2.75.34,4.93s.35,3.83.35,4.93a13.72,13.72,0,0,1-1.57,6.6c-1.33,2.5-3.24,3.76-5.71,3.76a7.19,7.19,0,0,1-4.74-1.71,6,6,0,0,1-2.29-4.79,13.54,13.54,0,0,1,.24-2.07,12.73,12.73,0,0,0,.25-2.13c0-1.49-.11-3.76-.32-6.78s-.32-5.31-.32-6.84q0-6.54-1-17.73-1.17-12.84-1.37-17.72h-2.54a75.91,75.91,0,0,1-17.28-1.56c-3.62-.88-5.42-3-5.42-6.4a6.62,6.62,0,0,1,1.75-4.49,6.13,6.13,0,0,1,5.38-2.15c1.13.07,3.72.34,7.76.83a73.63,73.63,0,0,0,7.81.54q3,0,8.91-.1c4-.06,6.93-.1,8.91-.1q3.72,0,11.14.52c4.94.34,8.66.51,11.13.51a6.81,6.81,0,0,1,4.91,1.9,6.59,6.59,0,0,1,0,9.4A6.75,6.75,0,0,1,1386.18,238.74Z"/><path d="M1446.63,234.69a7.59,7.59,0,0,1-2.05-.3,58.68,58.68,0,0,0-15.38-2.14,57,57,0,0,0-7.86.58,88.33,88.33,0,0,0-8.94,1.76q0,6.49-.44,19.29,2.73-.19,19.09-1.81,9.33-.93,11.82-.93a7.15,7.15,0,0,1,4.93,1.83,6.2,6.2,0,0,1,2,4.86q0,5.82-6.2,6.59-3.9.3-11.67,1-6.93.78-20.9,1.9-.35,6.21-.34,10c0,6.39.37,10,1.12,10.89q.54.65,6.16.64c2,0,5.06,0,9.13-.15s7.11-.15,9.13-.15a19.88,19.88,0,0,0,2.88-.29A21.32,21.32,0,0,1,1442,288a7.47,7.47,0,0,1,4.83,1.61,6.11,6.11,0,0,1,2.3,5.08c0,3.64-1.91,5.83-5.71,6.54q-4.89.93-20.27.93-15.92,0-20.75-4.3-5.33-4.72-5.32-20.51,0-6.54,1-19.65t1-19.6a37.56,37.56,0,0,0-.49-5.06A38.78,38.78,0,0,1,1398,228q0-7.42,6.83-7.42a7,7,0,0,1,4,1.22,103,103,0,0,1,10.76-2.13,70.72,70.72,0,0,1,9.65-.7q12.3,0,19.68,2.83,4.48,1.71,4.49,6.2a6.52,6.52,0,0,1-1.76,4.49A6.3,6.3,0,0,1,1446.63,234.69Z"/><path d="M640.85,351.4a2.42,2.42,0,0,1-2.25-1.75,4.06,4.06,0,0,0-1.22-1.83,6.8,6.8,0,0,0-2.43-.26q-3.41,0-7.55,5.2-5.62,7-5.63,13.24a7.56,7.56,0,0,0,2,5.21,6.2,6.2,0,0,0,4.8,2.25,10.76,10.76,0,0,0,4.86-1.24,37.25,37.25,0,0,0,4.17-2.77,4,4,0,0,1,2-1,2.17,2.17,0,0,1,1.69.76,2.5,2.5,0,0,1,.68,1.7,2.43,2.43,0,0,1-.89,1.85q-6.19,5.48-12.52,5.48a10.62,10.62,0,0,1-8.2-3.72,12.35,12.35,0,0,1-3.23-8.54q0-7.94,6.65-16.28,5.57-7,11.21-7a18.17,18.17,0,0,1,2.06.11,7.58,7.58,0,0,1,1.61.34,2.49,2.49,0,0,1,2.14-1.2c1.08,0,1.76.72,2,2.14a24.54,24.54,0,0,1,.37,4.66,2.88,2.88,0,0,1-.51,1.69A2.08,2.08,0,0,1,640.85,351.4Z"/><path d="M656,379.08a9.16,9.16,0,0,1-6.78-2.9,12.49,12.49,0,0,1-3.33-8.7,15.17,15.17,0,0,1,2.68-9.33,10.47,10.47,0,0,1,9.14-4.75,7.72,7.72,0,0,1,7.1,4.28,16.49,16.49,0,0,1,1.85,8.35,15.14,15.14,0,0,1-2.72,8.88A9.33,9.33,0,0,1,656,379.08Zm1.4-20.93a5.92,5.92,0,0,0-5.37,3.28,12,12,0,0,0-1.52,6.05,7.29,7.29,0,0,0,1.85,5.3,4.92,4.92,0,0,0,3.64,1.57,5.71,5.71,0,0,0,4.19-1.78,7.55,7.55,0,0,0,2.11-5.32Q662.58,358.17,657.35,358.15Z"/><path d="M690.38,379.36c-1.35,0-2.11-.73-2.28-2.2l-.65-5.13a43.13,43.13,0,0,1-.33-5.13c0-.44,0-1.18.08-2.23s.08-1.79.08-2.23q0-5.06-1.87-5.06c-1.75,0-3.43,1-5,3.12a21.13,21.13,0,0,0-3.37,7.17c0,.61-.11,1.37-.22,2.3a19.75,19.75,0,0,0-.14,2.27c0,.47.05,1.17.14,2.11s.15,1.64.15,2.11a2.35,2.35,0,0,1-.65,1.71,2.42,2.42,0,0,1-3.32,0,2.37,2.37,0,0,1-.63-1.71c0-.47-.05-1.17-.15-2.11s-.15-1.64-.15-2.11q0-2.42.34-6.69c.22-2.85.34-5.08.34-6.69,0-.5,0-1.25-.09-2.23s-.08-1.73-.08-2.23a2.22,2.22,0,0,1,.67-1.65,2.29,2.29,0,0,1,1.65-.64c1.44,0,2.23,1,2.37,3l.07,2.75q3.95-5.25,8.09-5.25a5.26,5.26,0,0,1,5.22,3.3,17.22,17.22,0,0,1,1.1,6.52v2.36l0,2.18a33.11,33.11,0,0,0,.5,5,32,32,0,0,1,.51,5,2.21,2.21,0,0,1-.67,1.68A2.29,2.29,0,0,1,690.38,379.36Z"/><path d="M716.81,367.6l-.54,7.87a33.06,33.06,0,0,1-1,7.67,10.33,10.33,0,0,1-3.37,5.6q-2.82,2.17-8.14,2.18a27.29,27.29,0,0,1-5.22-.42c-2-.39-3-1.21-3-2.44a1.83,1.83,0,0,1,2-2.09,16.31,16.31,0,0,1,2.82.41,19.17,19.17,0,0,0,4.36.37,6.33,6.33,0,0,0,6.21-4.36,26.32,26.32,0,0,0,1.19-8.79,9.6,9.6,0,0,1-3,3.51,7,7,0,0,1-4,1.18,9,9,0,0,1-6.9-2.9,10.67,10.67,0,0,1-2.66-7.51,14.31,14.31,0,0,1,3.63-10.2q3.75-4,10.22-4a10.43,10.43,0,0,1,3.66.56,4.71,4.71,0,0,1,2.25,1.69c1.67.05,2.51,1,2.51,2.79a27.87,27.87,0,0,1-.49,4.45C717.09,365.35,716.88,366.82,716.81,367.6Zm-7.52-10.15a8.27,8.27,0,0,0-6.89,3.07,11,11,0,0,0-2.18,7,8.42,8.42,0,0,0,1.29,5.11,4.54,4.54,0,0,0,3.87,1.71q2.36,0,4.59-2.67a9.6,9.6,0,0,0,2.3-4.87c.32-1.69.68-4.34,1.05-7.95a7.06,7.06,0,0,0-1.94-1.08A6.46,6.46,0,0,0,709.29,357.45Z"/><path d="M741.23,360.38c-.11,1.95-.89,2.93-2.34,2.93s-2-.77-2-2.32c0-.3,0-.84-.08-1.64l-.07-2a12.37,12.37,0,0,0-5.93,2.09,11.13,11.13,0,0,0-3.46,4.59l0,12.84a2.07,2.07,0,0,1-2.32,2.37c-1.37,0-2.06-.79-2.06-2.37V360.45c0-.52,0-1.29.06-2.32s.06-1.8.06-2.32c0-1.58.68-2.37,2.06-2.37q2.3,0,2.32,3.89a14.08,14.08,0,0,1,10-4.33,3.14,3.14,0,0,1,2.84,1.43,7.9,7.9,0,0,1,.94,4.31C741.26,359.55,741.25,360.1,741.23,360.38Z"/><path d="M764.37,379.25c-.3,0-.84-.35-1.62-1a10.44,10.44,0,0,1-1.57-1.72,28.7,28.7,0,0,1-4,1.84,8.65,8.65,0,0,1-2.86.63c-3.66,0-6.32-1-8-3.1S744,371,744,367a13.46,13.46,0,0,1,3.9-9.71,12.55,12.55,0,0,1,9.32-4,11.94,11.94,0,0,1,4.57,1.06c2.12.87,3.19,1.93,3.19,3.16a1.62,1.62,0,0,1-.47,1.13,16.91,16.91,0,0,0-.37,2.92c-.08,1.36-.13,3.11-.15,5.23a19.54,19.54,0,0,0,.4,4.6,36.33,36.33,0,0,0,1.48,4.12c.11.28.29.7.54,1.24l.14.4a2,2,0,0,1-.66,1.55A2.19,2.19,0,0,1,764.37,379.25ZM759.49,363c0-.67,0-1.4.13-2.19s.22-1.63.39-2.52a11.33,11.33,0,0,0-1.49-.66,3.3,3.3,0,0,0-1-.21,8.15,8.15,0,0,0-6.27,3,11.23,11.23,0,0,0-1.27,12.6,4.65,4.65,0,0,0,4.07,1.92,8.18,8.18,0,0,0,3.83-.82,13.57,13.57,0,0,0,2.36-1.78A85.15,85.15,0,0,1,759.49,363Z"/><path d="M786.3,357.73c-.32,0-.71,0-1.16-.05s-.83,0-1.16,0-1.42.11-3.18.35l.44,13.85,0,1,0,1.2q.09,5.13-2.46,5.13a2.36,2.36,0,0,1-1.63-.61,2,2,0,0,1-.69-1.52c0-.6,0-1.49.07-2.67s.07-2.08.07-2.68L776.18,358c-1.14-.05-2.88-.18-5.2-.4a2.13,2.13,0,0,1-2.09-2.32,2.41,2.41,0,0,1,.63-1.71,2.1,2.1,0,0,1,1.62-.68l4.92.4c0-.8,0-1.87-.1-3.2s-.11-2.3-.11-2.9a2.17,2.17,0,0,1,.68-1.63,2.33,2.33,0,0,1,1.67-.64c1.4,0,2.22,1.15,2.46,3.44,0,.58.07,1.28.07,2.09l-.05,1.36,0,1.45c1.93-.25,3-.37,3.32-.37a13.24,13.24,0,0,1,3.19.23,2.06,2.06,0,0,1,1.43,2.2,2.33,2.33,0,0,1-.64,1.7A2.19,2.19,0,0,1,786.3,357.73Z"/><path d="M812.37,364c0,1.13,0,2.82,0,5.07s0,3.93,0,5.06c0,.34,0,.86.09,1.57s.08,1.22.08,1.57a2.19,2.19,0,0,1-.68,1.65,2.33,2.33,0,0,1-1.67.65c-1.2,0-2-.75-2.29-2.23a14.53,14.53,0,0,1-6.75,1.52,8.9,8.9,0,0,1-5.09-1.36,6.09,6.09,0,0,1-2.65-4.38,76.75,76.75,0,0,1-.91-11.06,43.77,43.77,0,0,1,.7-7.32,2.1,2.1,0,0,1,2.23-2,2.37,2.37,0,0,1,1.69.64,2.19,2.19,0,0,1,.68,1.65,28.72,28.72,0,0,1-.34,3.45,27,27,0,0,0-.34,3.61q0,3.92.25,6.7a23.3,23.3,0,0,0,.78,4.48,7.84,7.84,0,0,0,1.52.64,5.11,5.11,0,0,0,1.48.22,24,24,0,0,0,6.63-1l0-4.76,0-4.55a74.59,74.59,0,0,1,.45-8.79,2.11,2.11,0,0,1,2.27-2.15,2.38,2.38,0,0,1,1.69.65,2.06,2.06,0,0,1,.63,1.64Z"/><path d="M824.16,359.28l-.36,11.65q0,1.85-.18,5.43c-.16,1.57-.92,2.35-2.3,2.35-1.53,0-2.3-.8-2.3-2.39q0-2.83.26-8.52t.26-8.52q0-3.7.12-8.47t.11-8.48a2.31,2.31,0,1,1,4.62,0q0,3.71-.12,8.48T824.16,359.28Z"/><path d="M849.66,379.25c-.3,0-.84-.35-1.62-1a10.44,10.44,0,0,1-1.57-1.72,28.7,28.7,0,0,1-4,1.84,8.65,8.65,0,0,1-2.86.63c-3.66,0-6.32-1-8-3.1s-2.37-4.9-2.37-8.9a13.46,13.46,0,0,1,3.9-9.71,12.55,12.55,0,0,1,9.32-4,11.94,11.94,0,0,1,4.57,1.06c2.12.87,3.19,1.93,3.19,3.16a1.62,1.62,0,0,1-.47,1.13,16.91,16.91,0,0,0-.37,2.92c-.08,1.36-.13,3.11-.15,5.23a19.54,19.54,0,0,0,.4,4.6,36.33,36.33,0,0,0,1.48,4.12c.11.28.29.7.54,1.24l.14.4a2,2,0,0,1-.66,1.55A2.21,2.21,0,0,1,849.66,379.25ZM844.78,363a19.37,19.37,0,0,1,.13-2.19c.09-.79.21-1.63.39-2.52a11.33,11.33,0,0,0-1.49-.66,3.36,3.36,0,0,0-1-.21,8.15,8.15,0,0,0-6.27,3,11.23,11.23,0,0,0-1.27,12.6,4.65,4.65,0,0,0,4.07,1.92,8.11,8.11,0,0,0,3.82-.82,13.19,13.19,0,0,0,2.37-1.78A85.15,85.15,0,0,1,844.78,363Z"/><path d="M871.59,357.73c-.32,0-.71,0-1.16-.05s-.83,0-1.16,0-1.42.11-3.18.35l.44,13.85,0,1,0,1.2q.09,5.13-2.46,5.13a2.36,2.36,0,0,1-1.63-.61,2,2,0,0,1-.69-1.52c0-.6,0-1.49.07-2.67s.07-2.08.07-2.68L861.47,358c-1.14-.05-2.88-.18-5.2-.4a2.13,2.13,0,0,1-2.09-2.32,2.41,2.41,0,0,1,.63-1.71,2.09,2.09,0,0,1,1.62-.68l4.92.4c0-.8,0-1.87-.1-3.2s-.11-2.3-.11-2.9a2.17,2.17,0,0,1,.68-1.63,2.32,2.32,0,0,1,1.66-.64c1.41,0,2.23,1.15,2.47,3.44,0,.58.07,1.28.07,2.09l0,1.36,0,1.45c1.93-.25,3-.37,3.32-.37a13.24,13.24,0,0,1,3.19.23,2.06,2.06,0,0,1,1.43,2.2,2.33,2.33,0,0,1-.64,1.7A2.19,2.19,0,0,1,871.59,357.73Z"/><path d="M884.06,367.06c0,.94,0,2.34.08,4.21s.09,3.27.09,4.2a2.31,2.31,0,0,1-.64,1.69,2.18,2.18,0,0,1-1.66.66,2.21,2.21,0,0,1-1.65-.66,2.32,2.32,0,0,1-.65-1.69c0-.93,0-2.34-.08-4.2s-.08-3.27-.08-4.21c0-1.47.08-3.3.23-5.5s.24-4,.24-5.49a2.31,2.31,0,0,1,.64-1.71,2.41,2.41,0,0,1,3.31,0,2.31,2.31,0,0,1,.64,1.71c0,1.47-.08,3.3-.23,5.49S884.06,365.59,884.06,367.06Zm-1-19a2.72,2.72,0,0,1-2-.8,2.66,2.66,0,0,1,0-3.84,2.72,2.72,0,0,1,2-.8,2.66,2.66,0,0,1,1.93.8,2.68,2.68,0,0,1,0,3.84A2.66,2.66,0,0,1,883,348Z"/><path d="M900.77,379.08a9.16,9.16,0,0,1-6.77-2.9,12.49,12.49,0,0,1-3.33-8.7,15.23,15.23,0,0,1,2.67-9.33,10.5,10.5,0,0,1,9.14-4.75,7.72,7.72,0,0,1,7.11,4.28,16.6,16.6,0,0,1,1.85,8.35,15.21,15.21,0,0,1-2.72,8.88A9.34,9.34,0,0,1,900.77,379.08Zm1.41-20.93a5.91,5.91,0,0,0-5.37,3.28,12,12,0,0,0-1.52,6.05,7.29,7.29,0,0,0,1.85,5.3,4.92,4.92,0,0,0,3.63,1.57,5.72,5.72,0,0,0,4.2-1.78,7.55,7.55,0,0,0,2.11-5.32Q907.41,358.17,902.18,358.15Z"/><path d="M935.2,379.36c-1.34,0-2.1-.73-2.27-2.2l-.66-5.13a43,43,0,0,1-.32-5.13c0-.44,0-1.18.08-2.23s.08-1.79.08-2.23q0-5.06-1.88-5.06-2.62,0-5,3.12a21.32,21.32,0,0,0-3.38,7.17c0,.61-.1,1.37-.21,2.3a19.75,19.75,0,0,0-.14,2.27c0,.47,0,1.17.14,2.11a21.1,21.1,0,0,1,.14,2.11,2.34,2.34,0,0,1-.64,1.71,2.42,2.42,0,0,1-3.32,0,2.37,2.37,0,0,1-.63-1.71c0-.47,0-1.17-.15-2.11s-.15-1.64-.15-2.11q0-2.42.33-6.69t.34-6.69c0-.5,0-1.25-.08-2.23s-.08-1.73-.08-2.23a2.18,2.18,0,0,1,.67-1.65,2.26,2.26,0,0,1,1.65-.64c1.44,0,2.23,1,2.37,3l.07,2.75q3.93-5.25,8.08-5.25a5.27,5.27,0,0,1,5.23,3.3,17.22,17.22,0,0,1,1.1,6.52v2.36l0,2.18a33.11,33.11,0,0,0,.5,5,32,32,0,0,1,.51,5,2.25,2.25,0,0,1-.67,1.68A2.32,2.32,0,0,1,935.2,379.36Z"/><path d="M958.17,359.65a1.92,1.92,0,0,1-1.8-.86,7.89,7.89,0,0,1-.61-2.54q-1.75.45-5.42,1.65c-2.51,1-3.78,2.23-3.79,3.7a7.46,7.46,0,0,0,1.38.37,22.76,22.76,0,0,1,8,2.65,8,8,0,0,1,3.82,7.13,6.29,6.29,0,0,1-3.31,5.76,13.58,13.58,0,0,1-6.94,1.6,17,17,0,0,1-5.86-1c-2.4-.88-3.61-2.1-3.61-3.66a2.2,2.2,0,0,1,.74-1.64,2.37,2.37,0,0,1,1.68-.7,3.13,3.13,0,0,1,1.87,1.12,5.35,5.35,0,0,0,2.54.89,15,15,0,0,0,2.64.28,11.38,11.38,0,0,0,3.47-.47c1.46-.45,2.18-1.17,2.18-2.15q0-3.19-4.45-4.32l-2.44-.53a13.19,13.19,0,0,1-4.43-1.6,4.49,4.49,0,0,1-1.9-4,7.16,7.16,0,0,1,4.62-7,35.28,35.28,0,0,1,4.5-1.52,35.12,35.12,0,0,0,4.43-1.48,5.17,5.17,0,0,1,2.09-.43,2.21,2.21,0,0,1,1.65.66,2.34,2.34,0,0,1,.64,1.71,9.74,9.74,0,0,0,.3,2,10.39,10.39,0,0,1,.29,2,2.35,2.35,0,0,1-.65,1.71A2.24,2.24,0,0,1,958.17,359.65Z"/><path d="M998.37,379.25c-.3,0-.84-.35-1.62-1a10.44,10.44,0,0,1-1.57-1.72,28.7,28.7,0,0,1-4,1.84,8.65,8.65,0,0,1-2.86.63c-3.66,0-6.32-1-8-3.1S978,371,978,367a13.46,13.46,0,0,1,3.9-9.71,12.55,12.55,0,0,1,9.32-4,11.94,11.94,0,0,1,4.57,1.06c2.12.87,3.19,1.93,3.19,3.16a1.62,1.62,0,0,1-.47,1.13,16.91,16.91,0,0,0-.37,2.92c-.08,1.36-.13,3.11-.15,5.23a19.54,19.54,0,0,0,.4,4.6,36.33,36.33,0,0,0,1.48,4.12c.11.28.29.7.54,1.24l.14.4a2,2,0,0,1-.66,1.55A2.19,2.19,0,0,1,998.37,379.25ZM993.49,363c0-.67,0-1.4.13-2.19s.22-1.63.39-2.52a11.33,11.33,0,0,0-1.49-.66,3.3,3.3,0,0,0-1-.21,8.15,8.15,0,0,0-6.27,3,11.23,11.23,0,0,0-1.27,12.6,4.65,4.65,0,0,0,4.07,1.92,8.18,8.18,0,0,0,3.83-.82,13.57,13.57,0,0,0,2.36-1.78A85.15,85.15,0,0,1,993.49,363Z"/><path d="M1022.6,379.36c-1.34,0-2.1-.73-2.27-2.2l-.66-5.13a43.13,43.13,0,0,1-.33-5.13c0-.44,0-1.18.09-2.23s.08-1.79.08-2.23q0-5.06-1.88-5.06-2.62,0-5,3.12a21.14,21.14,0,0,0-3.38,7.17c0,.61-.1,1.37-.21,2.3a19.75,19.75,0,0,0-.14,2.27c0,.47.05,1.17.14,2.11s.14,1.64.14,2.11a2.34,2.34,0,0,1-.64,1.71,2.42,2.42,0,0,1-3.32,0,2.37,2.37,0,0,1-.63-1.71c0-.47-.05-1.17-.15-2.11a19.57,19.57,0,0,1-.16-2.11c0-1.61.12-3.84.34-6.69s.34-5.08.34-6.69c0-.5,0-1.25-.08-2.23s-.08-1.73-.08-2.23a2.18,2.18,0,0,1,.67-1.65,2.26,2.26,0,0,1,1.65-.64c1.44,0,2.23,1,2.37,3l.07,2.75q3.93-5.25,8.08-5.25a5.27,5.27,0,0,1,5.23,3.3,17.22,17.22,0,0,1,1.1,6.52v2.36l0,2.18a33.11,33.11,0,0,0,.5,5,32,32,0,0,1,.51,5,2.25,2.25,0,0,1-.67,1.68A2.33,2.33,0,0,1,1022.6,379.36Z"/><path d="M1051.34,357q-.28,3.45-.29,6.9a71.18,71.18,0,0,0,.73,11.78,4.31,4.31,0,0,1,0,.54,2,2,0,0,1-.66,1.55,2.15,2.15,0,0,1-1.52.61c-1,0-1.68-.7-2.13-2.11a13.6,13.6,0,0,1-3.51,1.88,11.45,11.45,0,0,1-3.78.63,10.79,10.79,0,0,1-8-3.24,11.51,11.51,0,0,1-3.28-8.48q0-6.26,3.31-10a10.92,10.92,0,0,1,8.62-3.78,8.54,8.54,0,0,1,4.19.85l2.2,1.62q.33-9.87.78-13.29c.2-1.39.91-2.09,2.13-2.09,1.42,0,2.13.76,2.13,2.27Q1052.27,345.88,1051.34,357Zm-10.41.61A7.29,7.29,0,0,0,1035,360q-2,2.32-2,7a7.16,7.16,0,0,0,2.15,5.2,7.24,7.24,0,0,0,8.35,1.45,18,18,0,0,0,2.61-1.94,6,6,0,0,0,.68-.73l-.07-4.05,0-2.72,0-2.77a6.77,6.77,0,0,0-2.37-2.85A6.46,6.46,0,0,0,1040.93,357.61Z"/><path d="M1088,357.73c-.33,0-.72,0-1.16-.05s-.83,0-1.16,0-1.42.11-3.19.35l.45,13.85,0,1,0,1.2q.1,5.13-2.46,5.13a2.38,2.38,0,0,1-1.63-.61,2,2,0,0,1-.69-1.52c0-.6,0-1.49.07-2.67s.07-2.08.07-2.68l-.47-13.68c-1.14-.05-2.87-.18-5.2-.4a2.13,2.13,0,0,1-2.09-2.32,2.41,2.41,0,0,1,.64-1.71,2.08,2.08,0,0,1,1.61-.68l4.93.4c0-.8,0-1.87-.11-3.2s-.1-2.3-.1-2.9a2.14,2.14,0,0,1,.68-1.63,2.3,2.3,0,0,1,1.66-.64c1.41,0,2.23,1.15,2.46,3.44,0,.58.07,1.28.07,2.09l-.05,1.36,0,1.45c1.94-.25,3-.37,3.33-.37a13.3,13.3,0,0,1,3.19.23,2.06,2.06,0,0,1,1.43,2.2,2.34,2.34,0,0,1-.65,1.7A2.18,2.18,0,0,1,1088,357.73Z"/><path d="M1114.52,379.15a2.14,2.14,0,0,1-2.18-1.78,40.27,40.27,0,0,1-1-5.46,47.09,47.09,0,0,1-.42-5.58c0-.4,0-1,.06-1.85s0-1.44,0-1.85q0-4.41-2.2-4.41a6.93,6.93,0,0,0-5.32,2.7,32.27,32.27,0,0,0-3.28,5.27q0,8.94-.75,10.57a2.16,2.16,0,0,1-2,1.46,2.45,2.45,0,0,1-1.69-.66,2.08,2.08,0,0,1-.72-1.59,4.13,4.13,0,0,1,.21-1,19.14,19.14,0,0,0,.26-3.42l.07-3.47.07-17.22c.11-1.94.16-3.24.16-3.92a11,11,0,0,0-.22-2.26,10.69,10.69,0,0,1-.22-2.21,2.15,2.15,0,0,1,.67-1.63,2.35,2.35,0,0,1,1.67-.65,2.12,2.12,0,0,1,2.25,2.07,25.3,25.3,0,0,1,.37,4.1c0,1.64,0,3.35-.16,5.13s-.13,3.41-.12,5.13l0,2.07a14.08,14.08,0,0,1,4.11-3.86,9.1,9.1,0,0,1,4.65-1.28c2.6,0,4.38.85,5.35,2.53q1,1.79,1.17,6l.18,4.48.47,4.88c.22,1.82.49,3.43.8,4.82a3.26,3.26,0,0,1,.09.68,2.09,2.09,0,0,1-.7,1.61A2.41,2.41,0,0,1,1114.52,379.15Z"/><path d="M1140.94,379.25c-.3,0-.84-.35-1.62-1a10.44,10.44,0,0,1-1.57-1.72,28.7,28.7,0,0,1-4,1.84,8.6,8.6,0,0,1-2.86.63c-3.66,0-6.32-1-8-3.1s-2.37-4.9-2.37-8.9a13.46,13.46,0,0,1,3.9-9.71,12.55,12.55,0,0,1,9.32-4,11.94,11.94,0,0,1,4.57,1.06c2.12.87,3.19,1.93,3.19,3.16a1.62,1.62,0,0,1-.47,1.13,16.91,16.91,0,0,0-.37,2.92c-.08,1.36-.13,3.11-.15,5.23a19.54,19.54,0,0,0,.4,4.6,36.33,36.33,0,0,0,1.48,4.12c.11.28.29.7.54,1.24l.14.4a2,2,0,0,1-.66,1.55A2.19,2.19,0,0,1,1140.94,379.25ZM1136.06,363c0-.67,0-1.4.13-2.19s.22-1.63.39-2.52a11.33,11.33,0,0,0-1.49-.66,3.3,3.3,0,0,0-1-.21,8.15,8.15,0,0,0-6.27,3,11.23,11.23,0,0,0-1.27,12.6,4.65,4.65,0,0,0,4.07,1.92,8.18,8.18,0,0,0,3.83-.82,13.57,13.57,0,0,0,2.36-1.78A85.15,85.15,0,0,1,1136.06,363Z"/><path d="M1165.17,379.36c-1.34,0-2.1-.73-2.27-2.2l-.66-5.13a43.13,43.13,0,0,1-.33-5.13c0-.44,0-1.18.09-2.23s.08-1.79.08-2.23q0-5.06-1.88-5.06-2.62,0-5,3.12a21.14,21.14,0,0,0-3.38,7.17c0,.61-.1,1.37-.21,2.3a19.75,19.75,0,0,0-.14,2.27c0,.47,0,1.17.14,2.11a21.1,21.1,0,0,1,.14,2.11,2.34,2.34,0,0,1-.64,1.71,2.42,2.42,0,0,1-3.32,0,2.37,2.37,0,0,1-.63-1.71c0-.47-.05-1.17-.15-2.11a19.57,19.57,0,0,1-.16-2.11c0-1.61.12-3.84.34-6.69s.34-5.08.34-6.69c0-.5,0-1.25-.08-2.23s-.08-1.73-.08-2.23a2.18,2.18,0,0,1,.67-1.65,2.26,2.26,0,0,1,1.65-.64c1.44,0,2.23,1,2.37,3l.07,2.75q3.93-5.25,8.08-5.25a5.27,5.27,0,0,1,5.23,3.3,17.22,17.22,0,0,1,1.1,6.52v2.36l0,2.18a33.11,33.11,0,0,0,.5,5,32,32,0,0,1,.51,5,2.25,2.25,0,0,1-.67,1.68A2.33,2.33,0,0,1,1165.17,379.36Z"/><path d="M1191.84,378.66a2.17,2.17,0,0,1-2-1.36,39.53,39.53,0,0,0-3.68-5.6l-4.15-5.65q-1.35,1.08-4.22,3-.25,3.63-.25,7.07a2.31,2.31,0,0,1-.65,1.71,2.21,2.21,0,0,1-1.65.66c-1.58,0-2.37-1.06-2.37-3.19,0-1.29.09-3.24.27-5.82s.27-4.53.27-5.83c0-2.37,0-5.09.11-8.14s.1-5.75.1-8.1c0-.7,0-1.53-.1-2.48s-.11-1.78-.11-2.49a2.35,2.35,0,0,1,.65-1.71,2.42,2.42,0,0,1,3.3,0,2.35,2.35,0,0,1,.65,1.71c0,.72,0,1.57.11,2.55s.12,1.82.12,2.54l-.16,7.55c-.08,2.72-.11,5.43-.07,8.15a65,65,0,0,0,6.14-5.34l5.15-5.32a2.32,2.32,0,0,1,1.67-.8,2.28,2.28,0,0,1,1.65.73,2.31,2.31,0,0,1,.74,1.69,2.41,2.41,0,0,1-.68,1.57,84.5,84.5,0,0,1-7.1,7.24l5.11,7c2.39,3.26,3.58,5.39,3.58,6.37a2.1,2.1,0,0,1-.74,1.62A2.45,2.45,0,0,1,1191.84,378.66Z"/><path d="M1233,356.79l-8.11,17.54q-3,6.39-4.59,10.71l-1.55,4.54a2.17,2.17,0,0,1-2.11,1.69,2.47,2.47,0,0,1-1.7-.64,2.1,2.1,0,0,1-.71-1.61q0-2.34,5.06-13.57l-8.39-16.15-1.05-1.71a3.84,3.84,0,0,1-.64-1.8,2.52,2.52,0,0,1,2.39-2.42,2,2,0,0,1,1.67.82,91.56,91.56,0,0,1,8.55,15.75l3.47-8.08c1.25-2.8,2.46-5.21,3.61-7.22a2.22,2.22,0,0,1,2-1.31,2.44,2.44,0,0,1,1.7.67,2.16,2.16,0,0,1,.74,1.62A2.69,2.69,0,0,1,1233,356.79Z"/><path d="M1246.36,379.08a9.14,9.14,0,0,1-6.77-2.9,12.49,12.49,0,0,1-3.33-8.7,15.1,15.1,0,0,1,2.67-9.33,10.48,10.48,0,0,1,9.14-4.75,7.71,7.71,0,0,1,7.1,4.28A16.49,16.49,0,0,1,1257,366a15.07,15.07,0,0,1-2.72,8.88A9.32,9.32,0,0,1,1246.36,379.08Zm1.41-20.93a5.91,5.91,0,0,0-5.37,3.28,11.9,11.9,0,0,0-1.52,6.05,7.25,7.25,0,0,0,1.85,5.3,4.92,4.92,0,0,0,3.63,1.57,5.71,5.71,0,0,0,4.19-1.78,7.51,7.51,0,0,0,2.11-5.32Q1253,358.17,1247.77,358.15Z"/><path d="M1281.94,364c0,1.13,0,2.82,0,5.07s0,3.93,0,5.06c0,.34,0,.86.09,1.57s.08,1.22.08,1.57a2.19,2.19,0,0,1-.68,1.65,2.33,2.33,0,0,1-1.67.65c-1.2,0-2-.75-2.29-2.23a14.53,14.53,0,0,1-6.75,1.52,8.9,8.9,0,0,1-5.09-1.36,6.09,6.09,0,0,1-2.65-4.38,76.75,76.75,0,0,1-.91-11.06,43.77,43.77,0,0,1,.7-7.32,2.1,2.1,0,0,1,2.23-2,2.37,2.37,0,0,1,1.69.64,2.19,2.19,0,0,1,.68,1.65,28.72,28.72,0,0,1-.34,3.45,27,27,0,0,0-.34,3.61q0,3.92.25,6.7a23.3,23.3,0,0,0,.78,4.48,7.84,7.84,0,0,0,1.52.64,5.11,5.11,0,0,0,1.48.22,24,24,0,0,0,6.63-1l0-4.76,0-4.55a74.59,74.59,0,0,1,.45-8.79,2.11,2.11,0,0,1,2.27-2.15,2.38,2.38,0,0,1,1.69.65,2.06,2.06,0,0,1,.63,1.64Z"/><path d="M1292.3,377.16a2,2,0,0,1-.67,1.47,2.19,2.19,0,0,1-1.51.62,2.54,2.54,0,0,1-1.88-1.22,3.51,3.51,0,0,1-.91-2.11,1.88,1.88,0,0,1,.67-1.45,2.17,2.17,0,0,1,1.53-.61,2.56,2.56,0,0,1,1.88,1.22A3.54,3.54,0,0,1,1292.3,377.16Zm0-35v26.08a2.09,2.09,0,1,1-4.17,0c0-.64,0-1.59-.06-2.87s-.06-2.22-.06-2.84c0-2.27,0-5.66.06-10.19s.06-7.92.06-10.18a2.09,2.09,0,1,1,4.17,0Z"/><path d="M642.45,405.32c-.38.6-.88,1.51-1.5,2.75l-4,10q-2.34,5.6-4.4,9.79l-2.93,5.23-1.24,2.53a2.35,2.35,0,0,1-2.09,1.36,2.43,2.43,0,0,1-1.66-.68,2.17,2.17,0,0,1-.75-1.69q0-.79,2.2-5l2.88-5.27a39.88,39.88,0,0,1-5.44-8.53,35.94,35.94,0,0,0-3.51-6.36q-3.37-5.06-4-6.11a2.54,2.54,0,0,1-.35-1.27,2.24,2.24,0,0,1,.73-1.7,2.42,2.42,0,0,1,1.68-.69,2.28,2.28,0,0,1,1.92,1.1l1.88,2.91c1.65,2.45,2.75,4.12,3.28,5a37.35,37.35,0,0,1,2.74,5.35,26,26,0,0,0,3.31,5.32l5.36-13.08c.61-1.08,1.46-2.74,2.53-5a2.27,2.27,0,0,1,2.18-1.6,2.44,2.44,0,0,1,1.68.66,2.17,2.17,0,0,1,.74,1.69A8,8,0,0,1,642.45,405.32Z"/><path d="M657.52,436.68a9.16,9.16,0,0,1-6.78-2.9,12.49,12.49,0,0,1-3.33-8.7,15.17,15.17,0,0,1,2.68-9.33,10.47,10.47,0,0,1,9.14-4.75,7.7,7.7,0,0,1,7.1,4.28,16.49,16.49,0,0,1,1.85,8.35,15.14,15.14,0,0,1-2.72,8.88A9.33,9.33,0,0,1,657.52,436.68Zm1.4-20.93a5.92,5.92,0,0,0-5.37,3.28,12,12,0,0,0-1.52,6.05,7.29,7.29,0,0,0,1.85,5.3,5,5,0,0,0,3.64,1.57,5.71,5.71,0,0,0,4.19-1.78,7.55,7.55,0,0,0,2.11-5.32Q664.15,415.78,658.92,415.75Z"/><path d="M693.09,421.61c0,1.13,0,2.81,0,5.06s0,3.94,0,5.07c0,.34,0,.86.08,1.57s.08,1.22.08,1.57a2.15,2.15,0,0,1-.68,1.65,2.3,2.3,0,0,1-1.66.64c-1.2,0-2-.74-2.3-2.22a14.47,14.47,0,0,1-6.75,1.52,8.86,8.86,0,0,1-5.08-1.36,6.06,6.06,0,0,1-2.65-4.38,76.75,76.75,0,0,1-.91-11.06,43.77,43.77,0,0,1,.7-7.32,2.1,2.1,0,0,1,2.23-2,2.33,2.33,0,0,1,1.68.64,2.15,2.15,0,0,1,.68,1.65,26.74,26.74,0,0,1-.34,3.45,28.76,28.76,0,0,0-.34,3.61q0,3.91.26,6.7a23.4,23.4,0,0,0,.77,4.48,8.18,8.18,0,0,0,1.53.64,5.09,5.09,0,0,0,1.47.22,24,24,0,0,0,6.64-1l0-4.76,0-4.55a74.8,74.8,0,0,1,.44-8.79,2.11,2.11,0,0,1,2.28-2.15,2.3,2.3,0,0,1,1.68.65,2,2,0,0,1,.64,1.64Z"/><path d="M743,437.25a2.11,2.11,0,0,1-2.25-2q-.42-2.58-.84-7.27l-.8-7.27a15.92,15.92,0,0,0-.8-3.16c-.53-1.41-1.11-2.11-1.73-2.11a8.15,8.15,0,0,0-3.24,1.48,13,13,0,0,0-3,2.18c0,1.47,0,2.94.12,4.4l.7,6.26a52.59,52.59,0,0,1,.45,6.12,2.36,2.36,0,0,1-.65,1.7,2.37,2.37,0,0,1-3.3,0,2.36,2.36,0,0,1-.65-1.7q0-2.83-.57-8.38t-.58-8.38a8.69,8.69,0,0,0-.7-3.87,12,12,0,0,0-3.33,2.44l-2.76,3.1a14.57,14.57,0,0,1-1.2,1.47c0,.94-.08,2.32-.26,4.15s-.25,3.18-.25,4.05a11.89,11.89,0,0,0,.22,2,11.88,11.88,0,0,1,.22,1.83,2.14,2.14,0,0,1-.71,1.62,2.41,2.41,0,0,1-1.68.66q-2.65,0-2.65-6c0-.94.09-2.33.26-4.19s.26-3.26.26-4.2-.08-2.07-.23-3.73-.22-2.9-.22-3.75c0-3.54.8-5.32,2.39-5.32a2.3,2.3,0,0,1,1.68.8,2.46,2.46,0,0,1,.76,1.74,12.29,12.29,0,0,1-.12,1.38,11.65,11.65,0,0,0-.11,1.43l0,2.46a14.3,14.3,0,0,1,3.59-4.54q2.37-2,4-2a5.06,5.06,0,0,1,5.06,3.65,8.32,8.32,0,0,1,3.07-2.56,9.33,9.33,0,0,1,4.08-.86q3.92,0,5.34,4.22a61.18,61.18,0,0,1,1,6.59c.43,2.68,1,7.16,1.68,13.43a1.88,1.88,0,0,1-.63,1.59A2.41,2.41,0,0,1,743,437.25Z"/><path d="M768.87,436.85c-.3,0-.84-.35-1.62-1a10.86,10.86,0,0,1-1.57-1.72,28.7,28.7,0,0,1-4,1.84,8.65,8.65,0,0,1-2.86.63c-3.66,0-6.32-1-8-3.1s-2.37-4.9-2.37-8.9a13.46,13.46,0,0,1,3.9-9.71,12.51,12.51,0,0,1,9.32-4,11.94,11.94,0,0,1,4.57,1.06c2.12.87,3.19,1.93,3.19,3.16a1.58,1.58,0,0,1-.47,1.12,17.2,17.2,0,0,0-.37,2.93c-.08,1.36-.13,3.11-.15,5.23a19.39,19.39,0,0,0,.4,4.59,35.54,35.54,0,0,0,1.48,4.13c.11.28.29.7.54,1.24l.14.4a2,2,0,0,1-.66,1.55A2.19,2.19,0,0,1,768.87,436.85ZM764,420.56c0-.67,0-1.4.13-2.19s.22-1.63.39-2.52a11.33,11.33,0,0,0-1.49-.66,3.3,3.3,0,0,0-1-.21,8.15,8.15,0,0,0-6.27,3,11.23,11.23,0,0,0-1.27,12.6,4.65,4.65,0,0,0,4.07,1.92,8.18,8.18,0,0,0,3.83-.82,13.57,13.57,0,0,0,2.36-1.78A85.15,85.15,0,0,1,764,420.56Z"/><path d="M796.71,414.6q-.29,3.45-.28,6.9a70.09,70.09,0,0,0,.73,11.78,4,4,0,0,1,0,.54,2,2,0,0,1-.65,1.55A2.17,2.17,0,0,1,795,436c-1,0-1.68-.7-2.13-2.11a13.39,13.39,0,0,1-3.5,1.88,11.5,11.5,0,0,1-3.79.63,10.82,10.82,0,0,1-8-3.24,11.55,11.55,0,0,1-3.28-8.48q0-6.26,3.32-10a10.91,10.91,0,0,1,8.61-3.78,8.61,8.61,0,0,1,4.2.85l2.2,1.62q.33-9.87.77-13.29c.21-1.39.92-2.09,2.14-2.09,1.42,0,2.13.76,2.13,2.27Q797.65,403.48,796.71,414.6Zm-10.41.61a7.27,7.27,0,0,0-5.9,2.34q-2,2.32-2,7a7.15,7.15,0,0,0,2.14,5.2,6.85,6.85,0,0,0,5,2.18,6.94,6.94,0,0,0,3.33-.73,18.1,18.1,0,0,0,2.6-1.94,5.33,5.33,0,0,0,.68-.73l-.07-4.05,0-2.72.05-2.77a6.63,6.63,0,0,0-2.37-2.85A6.41,6.41,0,0,0,786.3,415.21Z"/><path d="M814.27,436.38a13.21,13.21,0,0,1-8.58-2.65,10,10,0,0,1-3.59-8.2,17.15,17.15,0,0,1,2.95-10.22,10,10,0,0,1,8.58-4.5,13.49,13.49,0,0,1,6.35,1.31,5.29,5.29,0,0,1,3,5c0,1.56-.89,3-2.65,4.26a36.68,36.68,0,0,1-5,2.63l-8.95,4.24a8.41,8.41,0,0,0,3.27,2.93,10,10,0,0,0,4.56,1,14.64,14.64,0,0,0,3.79-.61c1.85-.52,3-1.2,3.56-2s1.11-1.25,1.72-1.25a2,2,0,0,1,1.46.62,1.93,1.93,0,0,1,.65,1.44q0,2.6-4.2,4.47A17,17,0,0,1,814.27,436.38ZM813.63,415a6,6,0,0,0-4.75,2.21,14.85,14.85,0,0,0-2.84,6.67l7.19-3.42a30.79,30.79,0,0,0,6-3.59A8,8,0,0,0,813.63,415Z"/><path d="M873.73,437.25a2.11,2.11,0,0,1-2.25-2c-.28-1.72-.57-4.14-.85-7.27l-.79-7.27a16.64,16.64,0,0,0-.8-3.16c-.53-1.41-1.11-2.11-1.74-2.11a8.19,8.19,0,0,0-3.23,1.48,13,13,0,0,0-3,2.18c0,1.47,0,2.94.11,4.4l.71,6.26a54.55,54.55,0,0,1,.44,6.12,2.35,2.35,0,0,1-.64,1.7,2.38,2.38,0,0,1-3.31,0,2.35,2.35,0,0,1-.64-1.7q0-2.83-.58-8.38t-.57-8.38a8.69,8.69,0,0,0-.7-3.87,11.67,11.67,0,0,0-3.33,2.44l-2.77,3.1a14.21,14.21,0,0,1-1.19,1.47c0,.94-.09,2.32-.26,4.15s-.26,3.18-.26,4.05a12.12,12.12,0,0,0,.23,2,13.32,13.32,0,0,1,.22,1.83,2.11,2.11,0,0,1-.72,1.62,2.37,2.37,0,0,1-1.67.66q-2.66,0-2.65-6c0-.94.08-2.33.26-4.19s.25-3.26.25-4.2-.07-2.07-.22-3.73-.22-2.9-.22-3.75c0-3.54.8-5.32,2.39-5.32a2.3,2.3,0,0,1,1.68.8,2.5,2.5,0,0,1,.76,1.74,12.29,12.29,0,0,1-.12,1.38,12.09,12.09,0,0,0-.12,1.43l0,2.46a14.16,14.16,0,0,1,3.59-4.54c1.57-1.35,2.92-2,4-2a5.06,5.06,0,0,1,5.06,3.65,8.32,8.32,0,0,1,3.07-2.56,9.33,9.33,0,0,1,4.08-.86q3.92,0,5.34,4.22a59.72,59.72,0,0,1,1,6.59q.66,4,1.69,13.43a1.88,1.88,0,0,1-.63,1.59A2.41,2.41,0,0,1,873.73,437.25Z"/><path d="M901.69,414.39l-8.11,17.53q-3,6.4-4.6,10.72l-1.54,4.54a2.18,2.18,0,0,1-2.11,1.69,2.45,2.45,0,0,1-1.7-.64,2.08,2.08,0,0,1-.72-1.61q0-2.34,5.07-13.57l-8.39-16.15-1.06-1.71a3.81,3.81,0,0,1-.63-1.8,2.52,2.52,0,0,1,2.39-2.42,1.93,1.93,0,0,1,1.66.82,92.19,92.19,0,0,1,8.56,15.75l3.47-8.08a79.29,79.29,0,0,1,3.61-7.22,2.22,2.22,0,0,1,2-1.32,2.43,2.43,0,0,1,1.7.68,2.12,2.12,0,0,1,.74,1.62A2.81,2.81,0,0,1,901.69,414.39Z"/><path d="M936.4,417.25a2,2,0,0,1-1.81-.86,8.48,8.48,0,0,1-.61-2.54q-1.76.45-5.41,1.65c-2.52,1-3.78,2.23-3.8,3.7a7.35,7.35,0,0,0,1.39.37,22.69,22.69,0,0,1,8,2.65,8,8,0,0,1,3.82,7.13,6.28,6.28,0,0,1-3.3,5.76,13.68,13.68,0,0,1-6.94,1.6,16.7,16.7,0,0,1-5.86-1q-3.61-1.31-3.61-3.65a2.2,2.2,0,0,1,.74-1.64,2.37,2.37,0,0,1,1.68-.71,3.18,3.18,0,0,1,1.87,1.13,5.35,5.35,0,0,0,2.53.89,15.22,15.22,0,0,0,2.65.28,11.43,11.43,0,0,0,3.47-.47c1.45-.45,2.18-1.17,2.18-2.15,0-2.13-1.49-3.57-4.45-4.32l-2.44-.53a13.1,13.1,0,0,1-4.43-1.6,4.47,4.47,0,0,1-1.9-4,7.15,7.15,0,0,1,4.62-7,34.18,34.18,0,0,1,4.5-1.52,35.12,35.12,0,0,0,4.43-1.48,5,5,0,0,1,2.08-.43,2.19,2.19,0,0,1,1.65.66,2.35,2.35,0,0,1,.65,1.71,10.31,10.31,0,0,0,.29,2,9.82,9.82,0,0,1,.3,2,2.35,2.35,0,0,1-.65,1.71A2.24,2.24,0,0,1,936.4,417.25Z"/><path d="M959.62,415.33c-.32,0-.71,0-1.16-.05s-.83,0-1.16,0-1.42.11-3.18.35l.44,13.85,0,1,0,1.2q.09,5.13-2.46,5.13a2.36,2.36,0,0,1-1.63-.61,2,2,0,0,1-.69-1.52c0-.6,0-1.49.07-2.67s.07-2.08.07-2.68l-.47-13.68c-1.14-.05-2.88-.18-5.2-.4a2.13,2.13,0,0,1-2.09-2.32,2.41,2.41,0,0,1,.63-1.71,2.1,2.1,0,0,1,1.62-.68l4.92.39c0-.79,0-1.86-.1-3.19s-.11-2.31-.11-2.9a2.16,2.16,0,0,1,.68-1.63,2.33,2.33,0,0,1,1.67-.64c1.4,0,2.22,1.15,2.46,3.44,0,.58.07,1.28.07,2.09l0,1.36,0,1.45c1.93-.25,3-.37,3.32-.37a13.24,13.24,0,0,1,3.19.23,2.05,2.05,0,0,1,1.43,2.2,2.33,2.33,0,0,1-.64,1.7A2.19,2.19,0,0,1,959.62,415.33Z"/><path d="M975.35,436.68a9.16,9.16,0,0,1-6.77-2.9,12.49,12.49,0,0,1-3.33-8.7,15.23,15.23,0,0,1,2.67-9.33,10.5,10.5,0,0,1,9.14-4.75,7.69,7.69,0,0,1,7.1,4.28,16.49,16.49,0,0,1,1.86,8.35,15.21,15.21,0,0,1-2.72,8.88A9.34,9.34,0,0,1,975.35,436.68Zm1.41-20.93a5.91,5.91,0,0,0-5.37,3.28,12,12,0,0,0-1.52,6.05,7.25,7.25,0,0,0,1.85,5.3,5,5,0,0,0,3.63,1.57,5.72,5.72,0,0,0,4.2-1.78,7.55,7.55,0,0,0,2.11-5.32Q982,415.78,976.76,415.75Z"/><path d="M1021.57,437.25a2.11,2.11,0,0,1-2.25-2q-.42-2.58-.84-7.27l-.8-7.27a15.92,15.92,0,0,0-.8-3.16c-.53-1.41-1.11-2.11-1.73-2.11a8.15,8.15,0,0,0-3.24,1.48,13,13,0,0,0-2.95,2.18c0,1.47,0,2.94.12,4.4l.7,6.26a52.59,52.59,0,0,1,.45,6.12,2.36,2.36,0,0,1-.65,1.7,2.37,2.37,0,0,1-3.3,0,2.36,2.36,0,0,1-.65-1.7q0-2.83-.57-8.38c-.38-3.7-.58-6.49-.58-8.38a8.69,8.69,0,0,0-.7-3.87,12,12,0,0,0-3.33,2.44l-2.76,3.1a14.57,14.57,0,0,1-1.2,1.47c0,.94-.08,2.32-.26,4.15s-.25,3.18-.25,4.05a11.89,11.89,0,0,0,.22,2,11.88,11.88,0,0,1,.22,1.83,2.14,2.14,0,0,1-.71,1.62,2.41,2.41,0,0,1-1.68.66c-1.76,0-2.65-2-2.65-6,0-.94.09-2.33.26-4.19s.26-3.26.26-4.2-.08-2.07-.22-3.73-.23-2.9-.23-3.75c0-3.54.8-5.32,2.39-5.32a2.3,2.3,0,0,1,1.68.8,2.46,2.46,0,0,1,.76,1.74,12.29,12.29,0,0,1-.12,1.38,14.09,14.09,0,0,0-.11,1.43l0,2.46a14.3,14.3,0,0,1,3.59-4.54q2.37-2,4-2a5.06,5.06,0,0,1,5.06,3.65,8.4,8.4,0,0,1,3.07-2.56,9.33,9.33,0,0,1,4.08-.86q3.92,0,5.35,4.22a65.77,65.77,0,0,1,1,6.59c.43,2.68,1,7.16,1.68,13.43a1.88,1.88,0,0,1-.63,1.59A2.41,2.41,0,0,1,1021.57,437.25Z"/><path d="M1047.4,436.85c-.3,0-.84-.35-1.62-1a10.86,10.86,0,0,1-1.57-1.72,28.7,28.7,0,0,1-4,1.84,8.6,8.6,0,0,1-2.86.63c-3.66,0-6.32-1-8-3.1s-2.37-4.9-2.37-8.9a13.46,13.46,0,0,1,3.9-9.71,12.53,12.53,0,0,1,9.32-4,11.94,11.94,0,0,1,4.57,1.06c2.13.87,3.19,1.93,3.19,3.16a1.58,1.58,0,0,1-.47,1.12,16.44,16.44,0,0,0-.36,2.93c-.09,1.36-.14,3.11-.16,5.23a19.39,19.39,0,0,0,.4,4.59,35.54,35.54,0,0,0,1.48,4.13c.11.28.29.7.54,1.24l.14.4a2,2,0,0,1-.66,1.55A2.19,2.19,0,0,1,1047.4,436.85Zm-4.88-16.29c0-.67,0-1.4.13-2.19s.22-1.63.39-2.52a11.33,11.33,0,0,0-1.49-.66,3.3,3.3,0,0,0-1-.21,8.11,8.11,0,0,0-6.26,3,11.21,11.21,0,0,0-1.28,12.6,4.65,4.65,0,0,0,4.08,1.92,8.14,8.14,0,0,0,3.82-.82,13.57,13.57,0,0,0,2.36-1.78A85.15,85.15,0,0,1,1042.52,420.56Z"/><path d="M1064.25,436.78a11.52,11.52,0,0,1-8-2.91,10.3,10.3,0,0,1-3.37-8A18.54,18.54,0,0,1,1056,416q3.52-5.62,7.93-5.62a14.77,14.77,0,0,1,5.13,1.07c2.39.93,3.58,2.05,3.58,3.38a2.37,2.37,0,0,1-.58,1.58,1.84,1.84,0,0,1-1.46.69,1.79,1.79,0,0,1-1.18-.41c-.33-.27-.66-.54-1-.81a7.33,7.33,0,0,0-4.52-1.1q-2.4,0-4.74,4.27a14.69,14.69,0,0,0-2.13,6.77,6,6,0,0,0,2.11,4.88,7.56,7.56,0,0,0,5.06,1.66,7.05,7.05,0,0,0,3-.75l2.72-1.45a2.61,2.61,0,0,1,1-.38,2,2,0,0,1,1.5.69,2.29,2.29,0,0,1,.63,1.59q0,1.71-3.61,3.3A13.57,13.57,0,0,1,1064.25,436.78Z"/><path d="M1097.93,436.75a2.14,2.14,0,0,1-2.18-1.78,38.75,38.75,0,0,1-1-5.46,45.35,45.35,0,0,1-.43-5.58c0-.4,0-1,.06-1.85s.06-1.44.06-1.85q0-4.41-2.2-4.41a6.91,6.91,0,0,0-5.32,2.7,32.27,32.27,0,0,0-3.28,5.27q0,8.94-.75,10.57a2.16,2.16,0,0,1-2,1.46,2.43,2.43,0,0,1-1.69-.66,2.09,2.09,0,0,1-.73-1.59,4.13,4.13,0,0,1,.21-1,17.28,17.28,0,0,0,.26-3.42l.07-3.47.07-17.22c.11-1.94.17-3.25.17-3.92a11,11,0,0,0-.23-2.26,11.42,11.42,0,0,1-.22-2.21,2.16,2.16,0,0,1,.68-1.63,2.33,2.33,0,0,1,1.66-.65,2.12,2.12,0,0,1,2.26,2.07,26.48,26.48,0,0,1,.37,4.1c0,1.64,0,3.35-.16,5.13s-.14,3.41-.12,5.13l0,2.07a14,14,0,0,1,4.12-3.86,9.1,9.1,0,0,1,4.65-1.28c2.59,0,4.37.85,5.34,2.53q1,1.78,1.17,6l.19,4.48.47,4.88a46.92,46.92,0,0,0,.8,4.82,3.26,3.26,0,0,1,.09.68,2.09,2.09,0,0,1-.7,1.61A2.41,2.41,0,0,1,1097.93,436.75Z"/><path d="M1136.13,402.35q-5.67,0-6.35,7.87l-.07,1.45c2.66-.18,4.38-.28,5.16-.28q3.72,0,3.72,2.35a1.93,1.93,0,0,1-1.82,2,9.05,9.05,0,0,1-1.87.1c-.71,0-2.51.08-5.4.32l-.19,5.34c0,1,0,2.42.1,4.36s.09,3.38.09,4.34a35.34,35.34,0,0,1-.52,6.93,2.07,2.07,0,0,1-2.18,1.88,2.38,2.38,0,0,1-1.64-.62,2,2,0,0,1-.68-1.56,3.28,3.28,0,0,1,0-.47,41.43,41.43,0,0,0,.49-6.63l-.07-6.4v-6.8c-2,.16-3.18.24-3.7.24q-2.37,0-2.37-2.28c0-1.54,1.37-2.36,4.1-2.43l2.25-.07q.07-1.32.36-3.57c.4-3.46,1.28-6,2.62-7.66,1.63-2,4.17-3,7.62-3,2.23,0,3.35.76,3.35,2.28S1138.16,402.35,1136.13,402.35Z"/><path d="M1163.91,421.61c0,1.13,0,2.81,0,5.06s0,3.94,0,5.07c0,.34,0,.86.09,1.57s.08,1.22.08,1.57a2.19,2.19,0,0,1-.68,1.65,2.34,2.34,0,0,1-1.67.64c-1.2,0-2-.74-2.29-2.22a14.53,14.53,0,0,1-6.75,1.52,8.87,8.87,0,0,1-5.09-1.36,6.09,6.09,0,0,1-2.65-4.38,76.75,76.75,0,0,1-.91-11.06,43.77,43.77,0,0,1,.7-7.32,2.1,2.1,0,0,1,2.23-2,2.37,2.37,0,0,1,1.69.64,2.19,2.19,0,0,1,.68,1.65,28.72,28.72,0,0,1-.34,3.45,27,27,0,0,0-.34,3.61q0,3.91.25,6.7a22.55,22.55,0,0,0,.78,4.48,7.84,7.84,0,0,0,1.52.64,5.11,5.11,0,0,0,1.48.22,24,24,0,0,0,6.63-1l0-4.76,0-4.55a77,77,0,0,1,.44-8.79,2.11,2.11,0,0,1,2.28-2.15,2.34,2.34,0,0,1,1.69.65,2.06,2.06,0,0,1,.63,1.64Z"/><path d="M1175.7,416.88l-.36,11.65q0,1.85-.18,5.43c-.16,1.57-.93,2.35-2.3,2.35-1.53,0-2.3-.8-2.3-2.39q0-2.84.26-8.52t.26-8.52c0-2.47,0-5.3.12-8.47s.11-6,.11-8.48a2.31,2.31,0,1,1,4.62,0q0,3.7-.12,8.48C1175.73,411.58,1175.7,414.41,1175.7,416.88Z"/><path d="M1188.84,416.88l-.35,11.65c0,1.23-.06,3-.19,5.43-.15,1.57-.92,2.35-2.29,2.35-1.53,0-2.3-.8-2.3-2.39q0-2.84.26-8.52t.26-8.52c0-2.47,0-5.3.11-8.47s.12-6,.12-8.48a2.31,2.31,0,1,1,4.62,0q0,3.7-.12,8.48C1188.88,411.58,1188.84,414.41,1188.84,416.88Z"/><path d="M1238.44,414.32q-1.83,7.65-4.78,17.28a16.86,16.86,0,0,1-2.18,4.38,2.5,2.5,0,0,1-2.23,1.22q-2.55,0-4-6.35-.48-2-1-5.49l-.77-5.22-1.92,4.47-3.56,9.68a2.89,2.89,0,0,1-.89,1.36,2.45,2.45,0,0,1-2.25,1.41c-1.19,0-2.34-2.28-3.45-7q-.84-3.63-1.69-9.84l-.56-3.52a25.74,25.74,0,0,1-.3-3.54,2.12,2.12,0,0,1,.69-1.62,2.37,2.37,0,0,1,1.67-.65,2.13,2.13,0,0,1,2.21,2,30,30,0,0,1,.49,3.42l.35,3.44,1.38,10.53q2.61-7.23,5.39-16.64c.52-1.74,1.42-2.6,2.7-2.6s2.07,1,2.51,2.9.91,4.64,1.52,8.44,1.18,7,1.66,9.21l1.72-6.38,3-12.77a1.82,1.82,0,0,1,2-1.43,2.45,2.45,0,0,1,1.72.67,2.11,2.11,0,0,1,.72,1.61C1238.67,413.32,1238.59,413.68,1238.44,414.32Z"/><path d="M1248.75,424.66c0,.94,0,2.34.08,4.21s.08,3.27.08,4.2a2.34,2.34,0,0,1-.63,1.69,2.2,2.2,0,0,1-1.66.66,2.23,2.23,0,0,1-1.66-.66,2.35,2.35,0,0,1-.64-1.69c0-.93,0-2.34-.08-4.2s-.08-3.27-.08-4.21c0-1.47.07-3.3.23-5.5s.23-4,.23-5.49a2.31,2.31,0,0,1,.65-1.71,2.39,2.39,0,0,1,3.3,0,2.31,2.31,0,0,1,.65,1.71q0,2.2-.24,5.49C1248.83,421.36,1248.75,423.19,1248.75,424.66Zm-1-19a2.72,2.72,0,0,1-2-.8,2.66,2.66,0,0,1,0-3.84,2.72,2.72,0,0,1,2-.8,2.66,2.66,0,0,1,1.93.8,2.68,2.68,0,0,1,0,3.84A2.66,2.66,0,0,1,1247.7,405.63Z"/><path d="M1272.35,415.33c-.33,0-.71,0-1.16-.05s-.83,0-1.16,0-1.42.11-3.19.35l.45,13.85,0,1,0,1.2q.09,5.13-2.46,5.13a2.36,2.36,0,0,1-1.63-.61,2,2,0,0,1-.7-1.52c0-.6,0-1.49.07-2.67s.08-2.08.08-2.68l-.47-13.68c-1.14-.05-2.88-.18-5.21-.4a2.12,2.12,0,0,1-2.08-2.32,2.41,2.41,0,0,1,.63-1.71,2.09,2.09,0,0,1,1.62-.68l4.92.39c0-.79,0-1.86-.11-3.19s-.1-2.31-.1-2.9a2.12,2.12,0,0,1,.68-1.63,2.32,2.32,0,0,1,1.66-.64c1.41,0,2.23,1.15,2.46,3.44,0,.58.07,1.28.07,2.09l0,1.36,0,1.45c1.94-.25,3-.37,3.33-.37a13.24,13.24,0,0,1,3.19.23,2.06,2.06,0,0,1,1.43,2.2,2.34,2.34,0,0,1-.65,1.7A2.18,2.18,0,0,1,1272.35,415.33Z"/><path d="M1298.91,436.75a2.14,2.14,0,0,1-2.18-1.78,40,40,0,0,1-1-5.46,47.09,47.09,0,0,1-.42-5.58c0-.4,0-1,.06-1.85s.06-1.44.06-1.85q0-4.41-2.21-4.41a6.94,6.94,0,0,0-5.32,2.7,33,33,0,0,0-3.28,5.27q0,8.94-.75,10.57a2.14,2.14,0,0,1-2,1.46,2.41,2.41,0,0,1-1.68-.66,2.06,2.06,0,0,1-.73-1.59,4.13,4.13,0,0,1,.21-1,18.16,18.16,0,0,0,.26-3.42l.07-3.47.07-17.22c.11-1.94.16-3.25.16-3.92a11,11,0,0,0-.22-2.26,10.69,10.69,0,0,1-.22-2.21,2.12,2.12,0,0,1,.68-1.63,2.33,2.33,0,0,1,1.66-.65,2.12,2.12,0,0,1,2.25,2.07,25.4,25.4,0,0,1,.38,4.1c0,1.64-.06,3.35-.17,5.13s-.13,3.41-.11,5.13l0,2.07a14.08,14.08,0,0,1,4.11-3.86,9.1,9.1,0,0,1,4.65-1.28c2.6,0,4.38.85,5.35,2.53q1,1.78,1.17,6l.19,4.48.47,4.88a47.12,47.12,0,0,0,.79,4.82,2.78,2.78,0,0,1,.1.68,2.1,2.1,0,0,1-.71,1.61A2.4,2.4,0,0,1,1298.91,436.75Z"/><path d="M636.54,494.45c-.3,0-.84-.35-1.62-1a10.91,10.91,0,0,1-1.57-1.71,29.73,29.73,0,0,1-4,1.83,8.6,8.6,0,0,1-2.86.63c-3.65,0-6.32-1-8-3.1s-2.37-4.9-2.37-8.9a13.46,13.46,0,0,1,3.9-9.71,12.56,12.56,0,0,1,9.32-4,11.94,11.94,0,0,1,4.57,1.06c2.13.87,3.19,1.93,3.19,3.16a1.62,1.62,0,0,1-.47,1.13,16.18,16.18,0,0,0-.36,2.93c-.09,1.35-.14,3.1-.16,5.22a19.54,19.54,0,0,0,.4,4.6,36.33,36.33,0,0,0,1.48,4.12c.11.28.29.7.54,1.24l.14.4a2,2,0,0,1-.66,1.55A2.19,2.19,0,0,1,636.54,494.45Zm-4.88-16.29c0-.67.05-1.4.13-2.19s.22-1.63.39-2.52a10.78,10.78,0,0,0-1.49-.66,3.25,3.25,0,0,0-1-.21,8.12,8.12,0,0,0-6.27,3,11.21,11.21,0,0,0-1.28,12.6,4.65,4.65,0,0,0,4.08,1.92,8.14,8.14,0,0,0,3.82-.82,13.57,13.57,0,0,0,2.36-1.78A85.15,85.15,0,0,1,631.66,478.16Z"/><path d="M667.73,494.38a11.48,11.48,0,0,1-8-2.91,10.31,10.31,0,0,1-3.38-8,18.56,18.56,0,0,1,3.17-9.82Q663,468,667.43,468a14.77,14.77,0,0,1,5.13,1.07c2.39.93,3.59,2.05,3.59,3.38a2.38,2.38,0,0,1-.59,1.58,1.82,1.82,0,0,1-1.45.69,1.77,1.77,0,0,1-1.18-.41c-.34-.27-.66-.54-1-.81a7.33,7.33,0,0,0-4.52-1.1q-2.38,0-4.73,4.27a14.64,14.64,0,0,0-2.14,6.77,6.08,6.08,0,0,0,2.11,4.88,7.56,7.56,0,0,0,5.06,1.66,7.05,7.05,0,0,0,3-.75l2.72-1.45a2.67,2.67,0,0,1,1-.38,2,2,0,0,1,1.5.69,2.29,2.29,0,0,1,.63,1.59q0,1.71-3.61,3.3A13.53,13.53,0,0,1,667.73,494.38Z"/><path d="M687.75,474.48l-.35,11.65c0,1.23-.06,3-.19,5.43-.16,1.57-.92,2.35-2.3,2.35s-2.29-.8-2.29-2.39c0-1.89.08-4.73.26-8.52s.25-6.63.25-8.52q0-3.71.12-8.47t.12-8.48a2.31,2.31,0,1,1,4.61,0c0,2.47,0,5.3-.11,8.48S687.75,472,687.75,474.48Z"/><path d="M705.89,494a13.22,13.22,0,0,1-8.58-2.65,10,10,0,0,1-3.58-8.2,17.08,17.08,0,0,1,2.95-10.22,10,10,0,0,1,8.58-4.5,13.52,13.52,0,0,1,6.35,1.31,5.3,5.3,0,0,1,3,5q0,2.34-2.65,4.27a37.91,37.91,0,0,1-5,2.62l-9,4.24a8.55,8.55,0,0,0,3.27,2.93,10,10,0,0,0,4.56,1,14.71,14.71,0,0,0,3.8-.61c1.84-.52,3-1.19,3.56-2s1.1-1.25,1.71-1.25a2,2,0,0,1,1.47.62,1.92,1.92,0,0,1,.64,1.44q0,2.59-4.19,4.47A17.07,17.07,0,0,1,705.89,494Zm-.63-21.35a6,6,0,0,0-4.76,2.21,15,15,0,0,0-2.84,6.67l7.2-3.42a31.1,31.1,0,0,0,6-3.59A8,8,0,0,0,705.26,472.63Z"/><path d="M739.55,494.45c-.3,0-.84-.35-1.62-1a10.44,10.44,0,0,1-1.57-1.71,29.73,29.73,0,0,1-4,1.83,8.65,8.65,0,0,1-2.86.63c-3.66,0-6.32-1-8-3.1s-2.37-4.9-2.37-8.9a13.46,13.46,0,0,1,3.9-9.71,12.55,12.55,0,0,1,9.32-4,11.94,11.94,0,0,1,4.57,1.06c2.12.87,3.19,1.93,3.19,3.16a1.62,1.62,0,0,1-.47,1.13,16.91,16.91,0,0,0-.37,2.93c-.08,1.35-.13,3.1-.15,5.22a19.54,19.54,0,0,0,.4,4.6,36.33,36.33,0,0,0,1.48,4.12c.11.28.29.7.54,1.24l.14.4a2,2,0,0,1-.66,1.55A2.21,2.21,0,0,1,739.55,494.45Zm-4.88-16.29a19.37,19.37,0,0,1,.13-2.19q.13-1.19.39-2.52a11.33,11.33,0,0,0-1.49-.66,3.3,3.3,0,0,0-1-.21,8.15,8.15,0,0,0-6.27,3,11.23,11.23,0,0,0-1.27,12.6,4.65,4.65,0,0,0,4.07,1.92,8.11,8.11,0,0,0,3.82-.82,13.19,13.19,0,0,0,2.37-1.78A85.15,85.15,0,0,1,734.67,478.16Z"/><path d="M764,475.58c-.11,1.95-.89,2.93-2.34,2.93s-2-.77-2-2.32c0-.3,0-.84-.07-1.64l-.07-2a12.29,12.29,0,0,0-5.93,2.09,11.15,11.15,0,0,0-3.47,4.59l.05,12.84a2.08,2.08,0,0,1-2.32,2.37q-2.07,0-2.07-2.37V475.65c0-.52,0-1.29.06-2.32s.06-1.8.06-2.32c0-1.58.69-2.37,2.06-2.37q2.31,0,2.32,3.89a14.09,14.09,0,0,1,10-4.33,3.14,3.14,0,0,1,2.83,1.43,7.9,7.9,0,0,1,.94,4.31C764.06,474.75,764.05,475.3,764,475.58Z"/><path d="M793.8,494.38a11.48,11.48,0,0,1-8-2.91,10.31,10.31,0,0,1-3.38-8,18.56,18.56,0,0,1,3.17-9.82q3.51-5.62,7.92-5.62a14.77,14.77,0,0,1,5.13,1.07c2.39.93,3.59,2.05,3.59,3.38a2.38,2.38,0,0,1-.59,1.58,1.82,1.82,0,0,1-1.45.69,1.77,1.77,0,0,1-1.18-.41c-.34-.27-.66-.54-1-.81a7.33,7.33,0,0,0-4.52-1.1q-2.38,0-4.73,4.27a14.64,14.64,0,0,0-2.14,6.77,6.08,6.08,0,0,0,2.11,4.88A7.56,7.56,0,0,0,793.8,490a7.05,7.05,0,0,0,3-.75l2.72-1.45a2.67,2.67,0,0,1,1-.38,2,2,0,0,1,1.5.69,2.29,2.29,0,0,1,.63,1.59q0,1.71-3.61,3.3A13.48,13.48,0,0,1,793.8,494.38Z"/><path d="M816.66,494.28a9.16,9.16,0,0,1-6.78-2.9,12.49,12.49,0,0,1-3.33-8.7,15.17,15.17,0,0,1,2.68-9.33,10.47,10.47,0,0,1,9.14-4.75,7.72,7.72,0,0,1,7.1,4.28,16.49,16.49,0,0,1,1.85,8.35,15.14,15.14,0,0,1-2.72,8.88A9.33,9.33,0,0,1,816.66,494.28Zm1.4-20.93a5.9,5.9,0,0,0-5.36,3.28,11.9,11.9,0,0,0-1.53,6.05A7.29,7.29,0,0,0,813,488a4.94,4.94,0,0,0,3.64,1.57,5.67,5.67,0,0,0,4.19-1.78,7.54,7.54,0,0,0,2.11-5.32Q823.29,473.38,818.06,473.35Z"/><path d="M851.09,494.56c-1.35,0-2.11-.73-2.28-2.2l-.65-5.13a43.13,43.13,0,0,1-.33-5.13c0-.44,0-1.18.08-2.23s.08-1.79.08-2.23q0-5.06-1.87-5.06-2.62,0-5,3.12a21.13,21.13,0,0,0-3.37,7.17c0,.61-.11,1.37-.21,2.3a17.84,17.84,0,0,0-.14,2.27,21.1,21.1,0,0,0,.14,2.11c.09.94.14,1.64.14,2.11a2.35,2.35,0,0,1-.65,1.71,2.21,2.21,0,0,1-1.65.66,2.18,2.18,0,0,1-1.66-.66,2.34,2.34,0,0,1-.64-1.71c0-.47,0-1.17-.15-2.11s-.15-1.64-.15-2.11q0-2.42.34-6.69c.22-2.85.34-5.08.34-6.69,0-.5,0-1.25-.08-2.23s-.09-1.73-.09-2.23a2.22,2.22,0,0,1,.67-1.65,2.29,2.29,0,0,1,1.65-.64c1.44,0,2.23,1,2.37,3l.07,2.75q3.94-5.25,8.09-5.25a5.26,5.26,0,0,1,5.22,3.3,17.19,17.19,0,0,1,1.11,6.52V480l0,2.18a32.06,32.06,0,0,0,.51,5,33,33,0,0,1,.5,5,2.21,2.21,0,0,1-.67,1.68A2.29,2.29,0,0,1,851.09,494.56Z"/><path d="M874.05,474.85a1.93,1.93,0,0,1-1.8-.86,8.17,8.17,0,0,1-.61-2.53c-1.17.29-3,.84-5.41,1.64-2.52,1-3.78,2.23-3.8,3.7a7.46,7.46,0,0,0,1.38.37,22.69,22.69,0,0,1,8,2.65,8,8,0,0,1,3.82,7.13,6.27,6.27,0,0,1-3.31,5.76,13.54,13.54,0,0,1-6.93,1.6,16.92,16.92,0,0,1-5.86-1q-3.62-1.32-3.61-3.66a2.17,2.17,0,0,1,.74-1.64,2.35,2.35,0,0,1,1.67-.7,3.14,3.14,0,0,1,1.88,1.12,5.3,5.3,0,0,0,2.53.89,15.13,15.13,0,0,0,2.65.28,11.43,11.43,0,0,0,3.47-.47c1.45-.45,2.17-1.17,2.17-2.15q0-3.19-4.45-4.32l-2.44-.53a13.28,13.28,0,0,1-4.43-1.6,4.49,4.49,0,0,1-1.89-4,7.17,7.17,0,0,1,4.61-7A35.28,35.28,0,0,1,867,468a34.55,34.55,0,0,0,4.43-1.48,5.17,5.17,0,0,1,2.09-.43,2.21,2.21,0,0,1,1.65.66,2.35,2.35,0,0,1,.65,1.71,9.49,9.49,0,0,0,.29,2,10.39,10.39,0,0,1,.29,2,2.34,2.34,0,0,1-.64,1.71A2.25,2.25,0,0,1,874.05,474.85Z"/><path d="M892.2,494.38a11.49,11.49,0,0,1-8-2.91,10.31,10.31,0,0,1-3.38-8,18.56,18.56,0,0,1,3.17-9.82q3.51-5.62,7.92-5.62a14.77,14.77,0,0,1,5.13,1.07c2.39.93,3.59,2.05,3.59,3.38A2.38,2.38,0,0,1,900,474a1.82,1.82,0,0,1-1.45.69,1.77,1.77,0,0,1-1.18-.41c-.34-.27-.66-.54-1-.81a7.33,7.33,0,0,0-4.52-1.1q-2.39,0-4.73,4.27a14.64,14.64,0,0,0-2.14,6.77,6.08,6.08,0,0,0,2.11,4.88A7.59,7.59,0,0,0,892.2,490a7.12,7.12,0,0,0,3-.75l2.71-1.45a2.67,2.67,0,0,1,1-.38,2,2,0,0,1,1.5.69,2.29,2.29,0,0,1,.63,1.59q0,1.71-3.6,3.3A13.57,13.57,0,0,1,892.2,494.38Z"/><path d="M911.79,482.26c0,.94,0,2.34.08,4.21s.08,3.27.08,4.2a2.34,2.34,0,0,1-.63,1.69,2.42,2.42,0,0,1-3.32,0,2.31,2.31,0,0,1-.64-1.69c0-.93,0-2.34-.08-4.2s-.08-3.27-.08-4.21c0-1.47.07-3.3.23-5.5s.23-4,.23-5.49a2.31,2.31,0,0,1,.65-1.71,2.39,2.39,0,0,1,3.3,0,2.31,2.31,0,0,1,.65,1.71q0,2.21-.24,5.49C911.87,479,911.79,480.79,911.79,482.26Zm-1.06-19a2.7,2.7,0,0,1-1.94-.8,2.66,2.66,0,0,1,0-3.84,2.75,2.75,0,0,1,3.88,0,2.68,2.68,0,0,1,0,3.84A2.68,2.68,0,0,1,910.73,463.23Z"/><path d="M930.66,494a13.21,13.21,0,0,1-8.58-2.65,10,10,0,0,1-3.59-8.2,17.08,17.08,0,0,1,3-10.22,10,10,0,0,1,8.57-4.5,13.56,13.56,0,0,1,6.36,1.31,5.3,5.3,0,0,1,3,5q0,2.34-2.65,4.27a38.26,38.26,0,0,1-5,2.62l-8.95,4.24a8.41,8.41,0,0,0,3.27,2.93,10,10,0,0,0,4.56,1,14.64,14.64,0,0,0,3.79-.61c1.85-.52,3-1.19,3.57-2s1.1-1.25,1.71-1.25a2,2,0,0,1,1.46.62,1.93,1.93,0,0,1,.65,1.44q0,2.59-4.2,4.47A17,17,0,0,1,930.66,494ZM930,472.63a6,6,0,0,0-4.75,2.21,14.85,14.85,0,0,0-2.84,6.67l7.19-3.42a30.79,30.79,0,0,0,6-3.59A8,8,0,0,0,930,472.63Z"/><path d="M964,494.56c-1.34,0-2.1-.73-2.27-2.2l-.66-5.13a45.22,45.22,0,0,1-.32-5.13c0-.44,0-1.18.08-2.23s.08-1.79.08-2.23q0-5.06-1.87-5.06c-1.75,0-3.43,1-5,3.12a21.32,21.32,0,0,0-3.38,7.17c0,.61-.1,1.37-.21,2.3a19.88,19.88,0,0,0-.14,2.27c0,.47.05,1.17.14,2.11a21.1,21.1,0,0,1,.14,2.11,2.34,2.34,0,0,1-.64,1.71,2.42,2.42,0,0,1-3.32,0,2.37,2.37,0,0,1-.63-1.71c0-.47-.05-1.17-.15-2.11s-.15-1.64-.15-2.11q0-2.42.34-6.69c.22-2.85.34-5.08.34-6.69,0-.5,0-1.25-.09-2.23s-.08-1.73-.08-2.23a2.18,2.18,0,0,1,.67-1.65,2.29,2.29,0,0,1,1.65-.64c1.44,0,2.23,1,2.37,3l.07,2.75q3.93-5.25,8.09-5.25a5.26,5.26,0,0,1,5.22,3.3,17.22,17.22,0,0,1,1.1,6.52V480l0,2.18a33.11,33.11,0,0,0,.5,5,32,32,0,0,1,.51,5,2.21,2.21,0,0,1-.67,1.68A2.32,2.32,0,0,1,964,494.56Z"/><path d="M981.73,494.38a11.49,11.49,0,0,1-8-2.91,10.3,10.3,0,0,1-3.37-8,18.54,18.54,0,0,1,3.16-9.82Q977,468,981.42,468a14.77,14.77,0,0,1,5.13,1.07c2.4.93,3.59,2.05,3.59,3.38a2.34,2.34,0,0,1-.59,1.58,1.82,1.82,0,0,1-1.45.69,1.77,1.77,0,0,1-1.18-.41c-.34-.27-.66-.54-1-.81a7.37,7.37,0,0,0-4.53-1.1q-2.38,0-4.73,4.27a14.76,14.76,0,0,0-2.14,6.77,6.08,6.08,0,0,0,2.11,4.88,7.59,7.59,0,0,0,5.07,1.66,7.12,7.12,0,0,0,3-.75l2.72-1.45a2.58,2.58,0,0,1,1-.38,2,2,0,0,1,1.5.69,2.25,2.25,0,0,1,.64,1.59c0,1.14-1.21,2.24-3.61,3.3A13.57,13.57,0,0,1,981.73,494.38Z"/><path d="M1006.73,494a13.18,13.18,0,0,1-8.57-2.65,10,10,0,0,1-3.59-8.2,17.08,17.08,0,0,1,2.95-10.22,10,10,0,0,1,8.58-4.5,13.49,13.49,0,0,1,6.35,1.31,5.3,5.3,0,0,1,3,5c0,1.56-.89,3-2.65,4.27a38.26,38.26,0,0,1-5,2.62l-9,4.24a8.41,8.41,0,0,0,3.27,2.93,9.93,9.93,0,0,0,4.55,1,14.64,14.64,0,0,0,3.8-.61c1.85-.52,3-1.19,3.56-2s1.11-1.25,1.71-1.25a2,2,0,0,1,1.47.62,1.92,1.92,0,0,1,.64,1.44c0,1.73-1.39,3.22-4.19,4.47A17,17,0,0,1,1006.73,494Zm-.63-21.35a6,6,0,0,0-4.76,2.21,15,15,0,0,0-2.83,6.67l7.19-3.42a30.79,30.79,0,0,0,6-3.59A8,8,0,0,0,1006.1,472.63Z"/><path d="M1025.09,495.08a2.91,2.91,0,0,1-2.07-5,2.91,2.91,0,0,1,4.12,4.12A2.83,2.83,0,0,1,1025.09,495.08Z"/><path d="M1072.59,462.92c-.37.6-.87,1.51-1.5,2.75l-4,10q-2.34,5.6-4.4,9.79l-2.93,5.23-1.25,2.53a2.32,2.32,0,0,1-2.08,1.36,2.45,2.45,0,0,1-1.67-.68,2.17,2.17,0,0,1-.75-1.69q0-.8,2.21-5l2.88-5.27a39.63,39.63,0,0,1-5.44-8.53,35.56,35.56,0,0,0-3.51-6.35q-3.37-5.07-4-6.12a2.56,2.56,0,0,1-.36-1.27,2.25,2.25,0,0,1,.74-1.7,2.4,2.4,0,0,1,1.68-.69,2.3,2.3,0,0,1,1.92,1.1l1.88,2.91c1.65,2.45,2.75,4.12,3.28,5a36.77,36.77,0,0,1,2.74,5.34,25.8,25.8,0,0,0,3.3,5.32l5.37-13.08q.91-1.62,2.53-5a2.26,2.26,0,0,1,2.18-1.59,2.43,2.43,0,0,1,1.68.65,2.17,2.17,0,0,1,.74,1.69A7.92,7.92,0,0,1,1072.59,462.92Z"/><path d="M1087.66,494.28a9.16,9.16,0,0,1-6.77-2.9,12.49,12.49,0,0,1-3.33-8.7,15.23,15.23,0,0,1,2.67-9.33,10.5,10.5,0,0,1,9.15-4.75,7.72,7.72,0,0,1,7.1,4.28,16.49,16.49,0,0,1,1.85,8.35,15.14,15.14,0,0,1-2.72,8.88A9.34,9.34,0,0,1,1087.66,494.28Zm1.41-20.93a5.91,5.91,0,0,0-5.37,3.28,12,12,0,0,0-1.52,6.05A7.29,7.29,0,0,0,1084,488a4.92,4.92,0,0,0,3.63,1.57,5.68,5.68,0,0,0,4.2-1.78,7.54,7.54,0,0,0,2.11-5.32Q1094.3,473.38,1089.07,473.35Z"/><path d="M1123.24,479.21q0,1.69,0,5.07c0,2.25,0,3.93,0,5.06,0,.34,0,.87.08,1.57s.08,1.22.08,1.57a2.15,2.15,0,0,1-.68,1.65,2.31,2.31,0,0,1-1.66.65c-1.2,0-2-.75-2.3-2.23a14.47,14.47,0,0,1-6.75,1.52,8.86,8.86,0,0,1-5.08-1.36,6.06,6.06,0,0,1-2.65-4.38,76.88,76.88,0,0,1-.92-11.06,43.67,43.67,0,0,1,.71-7.31,2.09,2.09,0,0,1,2.22-2,2.34,2.34,0,0,1,1.69.64,2.19,2.19,0,0,1,.68,1.65,26.74,26.74,0,0,1-.34,3.45,27,27,0,0,0-.34,3.61q0,3.92.26,6.7a23.4,23.4,0,0,0,.77,4.48,8.18,8.18,0,0,0,1.53.64,5.09,5.09,0,0,0,1.47.22,24,24,0,0,0,6.64-1l0-4.76-.05-4.55a74.59,74.59,0,0,1,.45-8.79,2.11,2.11,0,0,1,2.27-2.15,2.35,2.35,0,0,1,1.69.65,2,2,0,0,1,.63,1.64Z"/><path d="M1173.19,494.85a2.11,2.11,0,0,1-2.25-2q-.42-2.58-.85-7.27l-.79-7.26a15.84,15.84,0,0,0-.8-3.17c-.53-1.4-1.11-2.11-1.73-2.11a8.15,8.15,0,0,0-3.24,1.48,13,13,0,0,0-3,2.18c0,1.47,0,2.94.12,4.4l.7,6.26a52.26,52.26,0,0,1,.44,6.12,2.35,2.35,0,0,1-.64,1.7,2.22,2.22,0,0,1-1.65.67,2.24,2.24,0,0,1-1.66-.67,2.35,2.35,0,0,1-.64-1.7q0-2.83-.57-8.38c-.39-3.69-.58-6.49-.58-8.38a8.72,8.72,0,0,0-.7-3.87,11.81,11.81,0,0,0-3.33,2.44l-2.77,3.1a14.21,14.21,0,0,1-1.19,1.47c0,.94-.09,2.32-.26,4.15s-.26,3.18-.26,4.06a12.14,12.14,0,0,0,.23,2,13.32,13.32,0,0,1,.22,1.83,2.11,2.11,0,0,1-.72,1.62,2.37,2.37,0,0,1-1.67.66q-2.65,0-2.65-6c0-.94.09-2.33.26-4.19s.26-3.26.26-4.2-.08-2.07-.23-3.72-.22-2.91-.22-3.75q0-5.32,2.39-5.33a2.3,2.3,0,0,1,1.68.8,2.5,2.5,0,0,1,.76,1.74,12.29,12.29,0,0,1-.12,1.38,12.09,12.09,0,0,0-.12,1.43l0,2.46a14.16,14.16,0,0,1,3.59-4.54q2.37-2,4-2a5.06,5.06,0,0,1,5.06,3.65,8.32,8.32,0,0,1,3.07-2.56,9.33,9.33,0,0,1,4.08-.86q3.92,0,5.34,4.22a59.72,59.72,0,0,1,1,6.59q.66,4,1.69,13.43a1.88,1.88,0,0,1-.63,1.59A2.41,2.41,0,0,1,1173.19,494.85Z"/><path d="M1199,494.45c-.3,0-.84-.35-1.62-1a10.44,10.44,0,0,1-1.57-1.71,29.73,29.73,0,0,1-4,1.83,8.65,8.65,0,0,1-2.86.63c-3.66,0-6.32-1-8-3.1s-2.37-4.9-2.37-8.9a13.46,13.46,0,0,1,3.9-9.71,12.55,12.55,0,0,1,9.32-4,11.94,11.94,0,0,1,4.57,1.06c2.12.87,3.18,1.93,3.18,3.16a1.61,1.61,0,0,1-.46,1.13,16.91,16.91,0,0,0-.37,2.93c-.08,1.35-.13,3.1-.15,5.22a19,19,0,0,0,.4,4.6,36.33,36.33,0,0,0,1.48,4.12c.1.28.28.7.53,1.24l.15.4a2,2,0,0,1-.66,1.55A2.21,2.21,0,0,1,1199,494.45Zm-4.88-16.29a19.37,19.37,0,0,1,.13-2.19c.09-.79.21-1.63.39-2.52a11.33,11.33,0,0,0-1.49-.66,3.36,3.36,0,0,0-1-.21,8.15,8.15,0,0,0-6.27,3,11.26,11.26,0,0,0-1.28,12.6,4.68,4.68,0,0,0,4.08,1.92,8.11,8.11,0,0,0,3.82-.82,13.19,13.19,0,0,0,2.37-1.78A85.15,85.15,0,0,1,1194.14,478.16Z"/><path d="M1224.8,493.86a2.18,2.18,0,0,1-2-1.36,38.67,38.67,0,0,0-3.68-5.6l-4.14-5.65q-1.37,1.08-4.22,3-.26,3.63-.26,7.07a2.31,2.31,0,0,1-.64,1.71,2.21,2.21,0,0,1-1.66.66c-1.58,0-2.36-1.06-2.36-3.19,0-1.29.09-3.24.27-5.82s.27-4.53.27-5.83c0-2.37,0-5.09.1-8.14s.11-5.75.11-8.1c0-.7,0-1.53-.11-2.48s-.1-1.78-.1-2.49A2.34,2.34,0,0,1,1207,456a2.42,2.42,0,0,1,3.3,0,2.35,2.35,0,0,1,.65,1.71q0,1.08.12,2.55c.07,1,.11,1.82.11,2.54l-.16,7.55c-.08,2.72-.1,5.43-.07,8.15a65,65,0,0,0,6.14-5.34l5.16-5.32a2.36,2.36,0,0,1,4,1.62,2.41,2.41,0,0,1-.68,1.57,84.5,84.5,0,0,1-7.1,7.24l5.11,7q3.58,4.9,3.58,6.37a2.12,2.12,0,0,1-.73,1.62A2.47,2.47,0,0,1,1224.8,493.86Z"/><path d="M1242.14,494a13.22,13.22,0,0,1-8.58-2.65,10,10,0,0,1-3.58-8.2,17.08,17.08,0,0,1,3-10.22,10,10,0,0,1,8.58-4.5,13.52,13.52,0,0,1,6.35,1.31,5.29,5.29,0,0,1,3,5q0,2.34-2.65,4.27a37.91,37.91,0,0,1-5,2.62l-9,4.24a8.55,8.55,0,0,0,3.27,2.93,10,10,0,0,0,4.56,1,14.71,14.71,0,0,0,3.8-.61c1.84-.52,3-1.19,3.56-2s1.1-1.25,1.71-1.25a2,2,0,0,1,1.47.62,1.92,1.92,0,0,1,.64,1.44q0,2.59-4.2,4.47A17,17,0,0,1,1242.14,494Zm-.63-21.35a6,6,0,0,0-4.76,2.21,15,15,0,0,0-2.84,6.67l7.2-3.42a31.1,31.1,0,0,0,6.05-3.59A8,8,0,0,0,1241.51,472.63Z"/><path d="M633.91,530.53c-.32,0-.71,0-1.16,0s-.83,0-1.16,0-1.42.11-3.18.35l.44,13.85,0,1,0,1.2Q629,552,626.44,552a2.36,2.36,0,0,1-1.63-.61,2,2,0,0,1-.69-1.52c0-.6,0-1.49.07-2.67s.07-2.08.07-2.68l-.47-13.68c-1.14-.05-2.88-.18-5.2-.4a2.13,2.13,0,0,1-2.09-2.32,2.41,2.41,0,0,1,.63-1.71,2.09,2.09,0,0,1,1.62-.68l4.92.39c0-.79,0-1.86-.1-3.19s-.11-2.31-.11-2.9a2.17,2.17,0,0,1,.68-1.63,2.32,2.32,0,0,1,1.66-.64c1.41,0,2.23,1.15,2.47,3.44,0,.58.07,1.28.07,2.09l-.05,1.36,0,1.45c1.93-.25,3-.37,3.32-.37a13.24,13.24,0,0,1,3.19.23,2.06,2.06,0,0,1,1.43,2.2,2.33,2.33,0,0,1-.64,1.7A2.19,2.19,0,0,1,633.91,530.53Z"/><path d="M660.47,552a2.14,2.14,0,0,1-2.18-1.78,40,40,0,0,1-1-5.46,47.09,47.09,0,0,1-.42-5.58c0-.4,0-1,.06-1.85s.06-1.44.06-1.85q0-4.41-2.2-4.41a6.91,6.91,0,0,0-5.32,2.7A32.27,32.27,0,0,0,646.2,539q0,8.94-.75,10.57a2.16,2.16,0,0,1-2,1.46,2.43,2.43,0,0,1-1.69-.66,2.06,2.06,0,0,1-.73-1.59,4.13,4.13,0,0,1,.21-1,18.16,18.16,0,0,0,.26-3.42l.07-3.47.07-17.22c.11-1.94.17-3.24.17-3.92a11,11,0,0,0-.23-2.26,10.69,10.69,0,0,1-.22-2.21,2.16,2.16,0,0,1,.68-1.63,2.33,2.33,0,0,1,1.66-.65,2.11,2.11,0,0,1,2.25,2.07,25.4,25.4,0,0,1,.38,4.1c0,1.64-.06,3.35-.17,5.13s-.13,3.41-.11,5.13l0,2.07a14.08,14.08,0,0,1,4.11-3.86,9.16,9.16,0,0,1,4.66-1.28c2.59,0,4.37.85,5.34,2.53q1,1.78,1.17,6l.19,4.48.47,4.88a46.92,46.92,0,0,0,.8,4.82,3.26,3.26,0,0,1,.09.68,2.13,2.13,0,0,1-.7,1.61A2.42,2.42,0,0,1,660.47,552Z"/><path d="M679.52,551.58a13.18,13.18,0,0,1-8.57-2.65,10,10,0,0,1-3.59-8.2,17.08,17.08,0,0,1,2.95-10.22,10,10,0,0,1,8.58-4.5,13.52,13.52,0,0,1,6.35,1.31,5.29,5.29,0,0,1,3,5c0,1.56-.89,3-2.65,4.26a36.68,36.68,0,0,1-5,2.63l-8.95,4.24a8.45,8.45,0,0,0,3.26,2.93,10,10,0,0,0,4.56,1,14.64,14.64,0,0,0,3.8-.61c1.84-.52,3-1.19,3.56-2s1.1-1.25,1.71-1.25a2,2,0,0,1,1.47.62,1.92,1.92,0,0,1,.64,1.44q0,2.6-4.19,4.47A17,17,0,0,1,679.52,551.58Zm-.63-21.35a6,6,0,0,0-4.76,2.21,15,15,0,0,0-2.83,6.67l7.19-3.42a30.79,30.79,0,0,0,6-3.59A8,8,0,0,0,678.89,530.23Z"/><path d="M737.27,529.52q-1.83,7.65-4.78,17.28a16.55,16.55,0,0,1-2.18,4.38,2.49,2.49,0,0,1-2.22,1.22q-2.57,0-4-6.35c-.31-1.35-.63-3.17-1-5.49l-.77-5.22-1.92,4.47-3.57,9.68a2.82,2.82,0,0,1-.89,1.36,2.45,2.45,0,0,1-2.25,1.41c-1.19,0-2.33-2.28-3.44-7q-.85-3.63-1.69-9.84l-.56-3.52a24.44,24.44,0,0,1-.31-3.53,2.13,2.13,0,0,1,.69-1.63,2.37,2.37,0,0,1,1.68-.65,2.12,2.12,0,0,1,2.2,1.95,26.07,26.07,0,0,1,.49,3.42l.36,3.44,1.38,10.53q2.6-7.23,5.39-16.64c.52-1.74,1.41-2.6,2.69-2.6s2.08,1,2.51,2.9.92,4.64,1.53,8.44,1.18,7,1.66,9.21l1.71-6.37,3-12.78a1.83,1.83,0,0,1,2-1.43,2.41,2.41,0,0,1,1.71.67,2.1,2.1,0,0,1,.73,1.61A10.7,10.7,0,0,1,737.27,529.52Z"/><path d="M750.84,551.88a9.16,9.16,0,0,1-6.77-2.9,12.49,12.49,0,0,1-3.33-8.7,15.23,15.23,0,0,1,2.67-9.33,10.5,10.5,0,0,1,9.14-4.75,7.7,7.7,0,0,1,7.11,4.28,16.6,16.6,0,0,1,1.85,8.35,15.21,15.21,0,0,1-2.72,8.88A9.34,9.34,0,0,1,750.84,551.88ZM752.25,531a5.91,5.91,0,0,0-5.37,3.28,12,12,0,0,0-1.52,6,7.29,7.29,0,0,0,1.85,5.3,5,5,0,0,0,3.63,1.57,5.72,5.72,0,0,0,4.2-1.78,7.55,7.55,0,0,0,2.11-5.32Q757.48,531,752.25,531Z"/><path d="M785.53,533.18c-.11,2-.89,2.93-2.34,2.93s-2-.77-2-2.32c0-.3,0-.84-.07-1.64l-.07-2a12.33,12.33,0,0,0-5.93,2.09,11.15,11.15,0,0,0-3.47,4.59l0,12.84a2.07,2.07,0,0,1-2.32,2.37c-1.38,0-2.06-.79-2.06-2.37V533.25c0-.52,0-1.29.06-2.32s0-1.81,0-2.32q0-2.37,2.07-2.37,2.29,0,2.32,3.89a14.07,14.07,0,0,1,10-4.33,3.15,3.15,0,0,1,2.84,1.43,8,8,0,0,1,.93,4.31C785.55,532.35,785.55,532.9,785.53,533.18Z"/><path d="M796.31,532.08,796,543.73c0,1.23-.06,3-.19,5.43-.15,1.57-.92,2.35-2.29,2.35-1.53,0-2.3-.8-2.3-2.39q0-2.83.26-8.52t.26-8.52c0-2.47,0-5.29.11-8.47s.12-6,.12-8.48a2.31,2.31,0,1,1,4.62,0q0,3.71-.12,8.48T796.31,532.08Z"/><path d="M825.09,529.8c-.18,2.3-.28,4.6-.28,6.9a70.09,70.09,0,0,0,.73,11.78,4.31,4.31,0,0,1,.05.54,2,2,0,0,1-.66,1.55,2.16,2.16,0,0,1-1.52.61c-1,0-1.68-.7-2.14-2.11a13.39,13.39,0,0,1-3.5,1.88,11.46,11.46,0,0,1-3.79.63,10.78,10.78,0,0,1-8-3.24,11.52,11.52,0,0,1-3.29-8.48q0-6.25,3.32-10a10.91,10.91,0,0,1,8.61-3.78,8.59,8.59,0,0,1,4.2.85l2.2,1.62q.33-9.87.78-13.29c.2-1.39.91-2.09,2.13-2.09,1.42,0,2.13.76,2.13,2.27Q826,518.68,825.09,529.8Zm-10.4.61q-3.95,0-5.91,2.34t-2,7A7.16,7.16,0,0,0,809,545a7.24,7.24,0,0,0,8.35,1.45,18.1,18.1,0,0,0,2.6-1.94,4.77,4.77,0,0,0,.68-.73l-.07-4,0-2.72,0-2.77a6.68,6.68,0,0,0-2.36-2.85A6.46,6.46,0,0,0,814.69,530.41Z"/><path d="M864.35,552.05c-.3,0-.83-.35-1.62-1a10.91,10.91,0,0,1-1.57-1.72,28.7,28.7,0,0,1-4,1.84,8.6,8.6,0,0,1-2.86.63c-3.65,0-6.32-1-8-3.1s-2.37-4.9-2.37-8.9a13.47,13.47,0,0,1,3.91-9.71,12.53,12.53,0,0,1,9.31-4,11.9,11.9,0,0,1,4.57,1.06c2.13.87,3.19,1.93,3.19,3.16a1.62,1.62,0,0,1-.47,1.13,17.15,17.15,0,0,0-.36,2.92c-.09,1.36-.14,3.11-.15,5.23a18.39,18.39,0,0,0,.4,4.59,33,33,0,0,0,1.47,4.13c.11.28.29.7.54,1.24l.14.4a2,2,0,0,1-.65,1.55A2.22,2.22,0,0,1,864.35,552.05Zm-4.87-16.29a19.37,19.37,0,0,1,.13-2.19c.08-.79.21-1.63.38-2.52a10.78,10.78,0,0,0-1.49-.66,3.25,3.25,0,0,0-1-.21,8.15,8.15,0,0,0-6.27,3,11.21,11.21,0,0,0-1.28,12.6,4.68,4.68,0,0,0,4.08,1.92,8.14,8.14,0,0,0,3.82-.82,13.94,13.94,0,0,0,2.37-1.78A85.15,85.15,0,0,1,859.48,535.76Z"/><path d="M895.9,551.48a14.87,14.87,0,0,1-6.52-1.4,2.17,2.17,0,0,1-1.83,1.12,2,2,0,0,1-1.51-.62,2.12,2.12,0,0,1-.62-1.56q0-.6.06-1.8c0-.8.06-1.4.06-1.81q0-2.48-.13-7.44t-.13-7.44q0-1.71,0-6.48t0-6.5a5.39,5.39,0,0,1,.58-2.53,2.36,2.36,0,0,1,2.14-1.43c1.17,0,1.75.68,1.75,2a5.54,5.54,0,0,1-.11,1,5.58,5.58,0,0,0-.12,1l-.07,5.13,0,6a18.56,18.56,0,0,1,3.88-2.08,9.89,9.89,0,0,1,3.46-.69,10,10,0,0,1,8.18,3.87,13.69,13.69,0,0,1,2.95,8.93,12.91,12.91,0,0,1-3.44,9.07A11.22,11.22,0,0,1,895.9,551.48Zm.89-21.16a8.34,8.34,0,0,0-3.94,1.08,35.14,35.14,0,0,0-3.37,2.32l-.05,4,0,3.66,0,3.84c.75.35,1.8.78,3.16,1.32a11.38,11.38,0,0,0,3.26.44,7.25,7.25,0,0,0,5.58-2.39,8.51,8.51,0,0,0,2.18-5.95,9.47,9.47,0,0,0-1.76-5.84A6.06,6.06,0,0,0,896.79,530.32Z"/><path d="M924.38,551.58a13.19,13.19,0,0,1-8.58-2.65,10,10,0,0,1-3.59-8.2,17.15,17.15,0,0,1,2.95-10.22,10,10,0,0,1,8.58-4.5,13.49,13.49,0,0,1,6.35,1.31,5.29,5.29,0,0,1,3,5c0,1.56-.89,3-2.65,4.26a36.68,36.68,0,0,1-5,2.63l-9,4.24a8.41,8.41,0,0,0,3.27,2.93,10,10,0,0,0,4.56,1,14.64,14.64,0,0,0,3.79-.61c1.85-.52,3-1.19,3.56-2s1.11-1.25,1.72-1.25a2,2,0,0,1,1.46.62,1.92,1.92,0,0,1,.64,1.44c0,1.73-1.39,3.22-4.19,4.47A17,17,0,0,1,924.38,551.58Zm-.64-21.35a6,6,0,0,0-4.76,2.21,15,15,0,0,0-2.83,6.67l7.19-3.42a30.79,30.79,0,0,0,6-3.59A8,8,0,0,0,923.74,530.23Z"/><path d="M955.41,530.53c-.33,0-.72,0-1.16,0s-.84,0-1.16,0-1.43.11-3.19.35l.44,13.85,0,1,0,1.2q.09,5.13-2.46,5.13a2.36,2.36,0,0,1-1.63-.61,2,2,0,0,1-.69-1.52c0-.6,0-1.49.07-2.67s.07-2.08.07-2.68l-.47-13.68c-1.14-.05-2.87-.18-5.2-.4a2.13,2.13,0,0,1-2.09-2.32,2.41,2.41,0,0,1,.63-1.71,2.12,2.12,0,0,1,1.62-.68l4.92.39c0-.79,0-1.86-.1-3.19s-.11-2.31-.11-2.9a2.17,2.17,0,0,1,.68-1.63,2.34,2.34,0,0,1,1.67-.64c1.4,0,2.22,1.15,2.46,3.44,0,.58.07,1.28.07,2.09l-.05,1.36,0,1.45c1.94-.25,3-.37,3.33-.37a13.19,13.19,0,0,1,3.18.23,2.05,2.05,0,0,1,1.43,2.2,2.33,2.33,0,0,1-.64,1.7A2.18,2.18,0,0,1,955.41,530.53Z"/><path d="M978,530.53c-.32,0-.71,0-1.16,0s-.83,0-1.16,0-1.42.11-3.18.35l.44,13.85,0,1,0,1.2q.09,5.13-2.46,5.13a2.36,2.36,0,0,1-1.63-.61,2,2,0,0,1-.69-1.52c0-.6,0-1.49.07-2.67s.07-2.08.07-2.68l-.47-13.68c-1.14-.05-2.88-.18-5.2-.4a2.12,2.12,0,0,1-2.09-2.32,2.41,2.41,0,0,1,.63-1.71,2.09,2.09,0,0,1,1.62-.68l4.92.39c0-.79,0-1.86-.1-3.19s-.11-2.31-.11-2.9a2.17,2.17,0,0,1,.68-1.63,2.32,2.32,0,0,1,1.66-.64c1.41,0,2.23,1.15,2.47,3.44,0,.58.07,1.28.07,2.09l-.05,1.36,0,1.45c1.93-.25,3-.37,3.32-.37a13.24,13.24,0,0,1,3.19.23,2.06,2.06,0,0,1,1.43,2.2,2.33,2.33,0,0,1-.64,1.7A2.19,2.19,0,0,1,978,530.53Z"/><path d="M995.91,551.58a13.22,13.22,0,0,1-8.58-2.65,10,10,0,0,1-3.59-8.2,17.08,17.08,0,0,1,3-10.22,10,10,0,0,1,8.57-4.5,13.49,13.49,0,0,1,6.35,1.31,5.29,5.29,0,0,1,3,5q0,2.34-2.65,4.26a36.68,36.68,0,0,1-5,2.63l-8.95,4.24a8.41,8.41,0,0,0,3.27,2.93,10,10,0,0,0,4.56,1,14.64,14.64,0,0,0,3.79-.61c1.85-.52,3-1.19,3.57-2s1.1-1.25,1.71-1.25a2,2,0,0,1,1.46.62,1.93,1.93,0,0,1,.65,1.44q0,2.6-4.2,4.47A17,17,0,0,1,995.91,551.58Zm-.64-21.35a6,6,0,0,0-4.75,2.21,14.85,14.85,0,0,0-2.84,6.67l7.2-3.42a31,31,0,0,0,6-3.59A8,8,0,0,0,995.27,530.23Z"/><path d="M1029.49,533.18c-.11,2-.89,2.93-2.34,2.93s-2-.77-2-2.32c0-.3,0-.84-.07-1.64l-.07-2a12.33,12.33,0,0,0-5.93,2.09,11.23,11.23,0,0,0-3.47,4.59l0,12.84a2.07,2.07,0,0,1-2.32,2.37c-1.37,0-2.06-.79-2.06-2.37V533.25c0-.52,0-1.29.06-2.32s.06-1.81.06-2.32c0-1.58.68-2.37,2.06-2.37s2.3,1.3,2.32,3.89a14.08,14.08,0,0,1,10-4.33,3.15,3.15,0,0,1,2.84,1.43,8,8,0,0,1,.94,4.31C1029.52,532.35,1029.51,532.9,1029.49,533.18Z"/><path d="M1058.62,551.32a20.08,20.08,0,0,1-5.15-.75l0,11.2a2.31,2.31,0,0,1-.64,1.69,2.41,2.41,0,0,1-3.31,0,2.31,2.31,0,0,1-.64-1.69l.07-9.37v-9.35c-.05-3.43-.17-6.54-.35-9.35l-.35-4.76a6.06,6.06,0,0,1,.6-2.82,2.21,2.21,0,0,1,2-1.38,2.07,2.07,0,0,1,1.54.65A2.2,2.2,0,0,1,1053,527a6.53,6.53,0,0,1-.07.77c-.08.49-.13.93-.16,1.34a17.88,17.88,0,0,1,3.89-2.08,10.35,10.35,0,0,1,3.58-.69,7.39,7.39,0,0,1,7,4.27,19.26,19.26,0,0,1,1.76,8.93,12.66,12.66,0,0,1-2.72,8.34A9.49,9.49,0,0,1,1058.62,551.32Zm1.62-20.32a7.9,7.9,0,0,0-3.89,1,16.29,16.29,0,0,0-3.14,2.49c.2,3.54.31,7.27.31,11.17a14,14,0,0,0,5.1,1,5.15,5.15,0,0,0,4.48-2.18,8.39,8.39,0,0,0,1.34-4.92,15,15,0,0,0-1-6.39A3.35,3.35,0,0,0,1060.24,531Z"/><path d="M1080.28,532.08l-.35,11.65c0,1.23-.06,3-.19,5.43-.15,1.57-.92,2.35-2.29,2.35-1.54,0-2.3-.8-2.3-2.39,0-1.89.08-4.73.26-8.52s.25-6.63.25-8.52q0-3.71.12-8.47t.12-8.48a2.31,2.31,0,1,1,4.62,0q0,3.71-.12,8.48T1080.28,532.08Z"/><path d="M1105.78,552.05c-.3,0-.83-.35-1.62-1a10.91,10.91,0,0,1-1.57-1.72,28.7,28.7,0,0,1-4,1.84,8.6,8.6,0,0,1-2.86.63c-3.65,0-6.32-1-8-3.1s-2.37-4.9-2.37-8.9a13.43,13.43,0,0,1,3.91-9.71,12.53,12.53,0,0,1,9.31-4,11.9,11.9,0,0,1,4.57,1.06c2.13.87,3.19,1.93,3.19,3.16a1.62,1.62,0,0,1-.47,1.13,17.15,17.15,0,0,0-.36,2.92c-.09,1.36-.14,3.11-.15,5.23a19,19,0,0,0,.39,4.59,35.54,35.54,0,0,0,1.48,4.13c.11.28.29.7.54,1.24l.14.4a2,2,0,0,1-.66,1.55A2.17,2.17,0,0,1,1105.78,552.05Zm-4.87-16.29a19.37,19.37,0,0,1,.13-2.19c.08-.79.21-1.63.38-2.52a10.78,10.78,0,0,0-1.49-.66,3.25,3.25,0,0,0-1-.21,8.15,8.15,0,0,0-6.27,3,11.21,11.21,0,0,0-1.28,12.6,4.68,4.68,0,0,0,4.08,1.92,8.14,8.14,0,0,0,3.82-.82,13.94,13.94,0,0,0,2.37-1.78A85.15,85.15,0,0,1,1100.91,535.76Z"/><path d="M1122.63,552a11.48,11.48,0,0,1-8-2.91,10.31,10.31,0,0,1-3.38-8,18.56,18.56,0,0,1,3.17-9.82q3.51-5.62,7.92-5.62a14.77,14.77,0,0,1,5.13,1.07c2.39.93,3.59,2.05,3.59,3.38a2.38,2.38,0,0,1-.59,1.58,1.82,1.82,0,0,1-1.45.69,1.79,1.79,0,0,1-1.19-.41c-.33-.27-.66-.54-1-.81a7.33,7.33,0,0,0-4.52-1.1c-1.6,0-3.17,1.42-4.74,4.27a14.69,14.69,0,0,0-2.13,6.77,6,6,0,0,0,2.11,4.88,7.56,7.56,0,0,0,5.06,1.66,7.05,7.05,0,0,0,3-.75l2.72-1.45a2.67,2.67,0,0,1,1-.38,2,2,0,0,1,1.5.69,2.29,2.29,0,0,1,.63,1.59q0,1.71-3.61,3.3A13.57,13.57,0,0,1,1122.63,552Z"/><path d="M1147.64,551.58a13.22,13.22,0,0,1-8.58-2.65,10,10,0,0,1-3.58-8.2,17.08,17.08,0,0,1,3-10.22A10,10,0,0,1,1147,526a13.52,13.52,0,0,1,6.35,1.31,5.28,5.28,0,0,1,3,5q0,2.34-2.65,4.26a36.35,36.35,0,0,1-5,2.63l-9,4.24a8.55,8.55,0,0,0,3.27,2.93,10,10,0,0,0,4.56,1,14.71,14.71,0,0,0,3.8-.61c1.84-.52,3-1.19,3.56-2s1.1-1.25,1.71-1.25a2,2,0,0,1,1.47.62,1.92,1.92,0,0,1,.64,1.44q0,2.6-4.2,4.47A17,17,0,0,1,1147.64,551.58Zm-.63-21.35a6,6,0,0,0-4.76,2.21,15,15,0,0,0-2.84,6.67l7.2-3.42a31.1,31.1,0,0,0,6.05-3.59A8,8,0,0,0,1147,530.23Z"/><path d="M1167.52,550a2,2,0,0,1-.67,1.47,2.19,2.19,0,0,1-1.51.62,2.54,2.54,0,0,1-1.88-1.22,3.51,3.51,0,0,1-.91-2.11,1.9,1.9,0,0,1,.66-1.45,2.21,2.21,0,0,1,1.54-.61,2.55,2.55,0,0,1,1.87,1.22A3.5,3.5,0,0,1,1167.52,550Zm0-35v26.08a2.09,2.09,0,1,1-4.17,0c0-.64,0-1.59-.06-2.87s-.06-2.22-.06-2.84c0-2.27,0-5.66.06-10.19s.06-7.92.06-10.18a2.09,2.09,0,1,1,4.17,0Z"/><path d="M649.1,575.08a9.1,9.1,0,0,0-.35,2.88c0,.47,0,1.16,0,2.09s0,1.61,0,2.08c0,1.56-.13,3.89-.41,7s-.41,5.42-.41,7c0,1.19.09,3,.26,5.34s.26,4.17.26,5.37a2.23,2.23,0,0,1-.65,1.62,2.28,2.28,0,0,1-3.19,0,2.2,2.2,0,0,1-.66-1.62c0-1.2-.09-3-.26-5.37s-.26-4.15-.26-5.34,0-2.3.12-3.47a60.61,60.61,0,0,0-9.91,1.2l-9.85,1.92a59.75,59.75,0,0,1-.42,6,59.7,59.7,0,0,0-.42,6,2.27,2.27,0,0,1-.65,1.63,2.15,2.15,0,0,1-1.6.67,2.17,2.17,0,0,1-1.61-.67,2.26,2.26,0,0,1-.64-1.63q0-2.49.41-7.42t.41-7.42c0-.86,0-2.15-.09-3.89s-.1-3-.1-3.91c0-1.24.08-3.09.24-5.57s.23-4.33.23-5.56a2.27,2.27,0,0,1,.65-1.65,2.16,2.16,0,0,1,1.6-.65,2.19,2.19,0,0,1,1.61.65,2.26,2.26,0,0,1,.64,1.65c0,1.25-.08,3.12-.25,5.61s-.24,4.36-.24,5.61l.14,5.93,10.05-1.9A60.58,60.58,0,0,1,644,588.06q.25-3.34.26-10.1a11.8,11.8,0,0,1,.59-3.61c.51-1.67,1.24-2.51,2.18-2.51a2.3,2.3,0,0,1,1.59.65,2.1,2.1,0,0,1,.7,1.63A3.21,3.21,0,0,1,649.1,575.08Z"/><path d="M660.63,597.46c0,.94,0,2.34.08,4.21s.09,3.27.09,4.2a2.31,2.31,0,0,1-.64,1.69,2.18,2.18,0,0,1-1.66.66,2.21,2.21,0,0,1-1.65-.66,2.32,2.32,0,0,1-.65-1.69c0-.93,0-2.34-.08-4.2s-.08-3.27-.08-4.21c0-1.47.08-3.3.23-5.5s.24-4,.24-5.49a2.31,2.31,0,0,1,.64-1.71,2.41,2.41,0,0,1,3.31,0,2.31,2.31,0,0,1,.64,1.71c0,1.47-.08,3.3-.23,5.49S660.63,596,660.63,597.46Zm-1-19a2.72,2.72,0,0,1-2-.8,2.66,2.66,0,0,1,0-3.84,2.72,2.72,0,0,1,2-.8,2.66,2.66,0,0,1,1.93.8,2.68,2.68,0,0,1,0,3.84A2.66,2.66,0,0,1,659.58,578.43Z"/><path d="M684.23,588.13c-.32,0-.71,0-1.16,0s-.83,0-1.16,0-1.42.12-3.18.35l.44,13.85,0,1,0,1.2q.09,5.13-2.46,5.13a2.36,2.36,0,0,1-1.63-.61,2,2,0,0,1-.69-1.52c0-.6,0-1.49.07-2.67s.07-2.08.07-2.68l-.47-13.68c-1.14-.05-2.88-.18-5.2-.4a2.13,2.13,0,0,1-2.09-2.32,2.41,2.41,0,0,1,.63-1.71,2.1,2.1,0,0,1,1.62-.68l4.92.4c0-.8,0-1.87-.1-3.2s-.11-2.3-.11-2.9a2.17,2.17,0,0,1,.68-1.63,2.32,2.32,0,0,1,1.66-.64c1.41,0,2.23,1.15,2.47,3.44,0,.58.07,1.28.07,2.09l0,1.36,0,1.45c1.93-.25,3-.37,3.32-.37a13.81,13.81,0,0,1,3.19.23,2.06,2.06,0,0,1,1.43,2.2,2.33,2.33,0,0,1-.64,1.7A2.19,2.19,0,0,1,684.23,588.13Z"/><path d="M721.2,588.13c-.33,0-.72,0-1.16,0s-.84,0-1.16,0-1.43.12-3.19.35l.44,13.85,0,1,0,1.2q.09,5.13-2.46,5.13a2.36,2.36,0,0,1-1.63-.61,2,2,0,0,1-.69-1.52c0-.6,0-1.49.07-2.67s.07-2.08.07-2.68l-.47-13.68c-1.14-.05-2.87-.18-5.2-.4a2.13,2.13,0,0,1-2.09-2.32,2.41,2.41,0,0,1,.63-1.71,2.12,2.12,0,0,1,1.62-.68l4.92.4c0-.8,0-1.87-.1-3.2s-.11-2.3-.11-2.9a2.17,2.17,0,0,1,.68-1.63,2.34,2.34,0,0,1,1.67-.64c1.4,0,2.22,1.15,2.46,3.44,0,.58.07,1.28.07,2.09l0,1.36,0,1.45c1.93-.25,3-.37,3.33-.37a13.76,13.76,0,0,1,3.18.23,2.05,2.05,0,0,1,1.43,2.2,2.33,2.33,0,0,1-.64,1.7A2.18,2.18,0,0,1,721.2,588.13Z"/><path d="M747.75,609.55a2.14,2.14,0,0,1-2.18-1.78,38.75,38.75,0,0,1-1-5.46,45.35,45.35,0,0,1-.43-5.58c0-.4,0-1,.06-1.85s.06-1.44.06-1.85q0-4.41-2.2-4.41a6.91,6.91,0,0,0-5.32,2.7,32.27,32.27,0,0,0-3.28,5.27q0,8.94-.75,10.57a2.16,2.16,0,0,1-2,1.46A2.43,2.43,0,0,1,729,608a2.09,2.09,0,0,1-.73-1.59,4.13,4.13,0,0,1,.21-1,17.28,17.28,0,0,0,.26-3.42l.07-3.47.07-17.22c.11-1.94.17-3.24.17-3.92a11,11,0,0,0-.23-2.26,11.42,11.42,0,0,1-.22-2.21,2.16,2.16,0,0,1,.68-1.63,2.33,2.33,0,0,1,1.67-.65,2.12,2.12,0,0,1,2.25,2.07,25.3,25.3,0,0,1,.37,4.1c0,1.64-.05,3.35-.16,5.13s-.14,3.41-.12,5.13l0,2.07a14,14,0,0,1,4.12-3.86,9.1,9.1,0,0,1,4.65-1.28c2.59,0,4.37.85,5.34,2.53q1,1.78,1.17,6l.19,4.48.47,4.88a46.92,46.92,0,0,0,.8,4.82,3.26,3.26,0,0,1,.09.68,2.09,2.09,0,0,1-.7,1.61A2.41,2.41,0,0,1,747.75,609.55Z"/><path d="M766.8,609.18a13.18,13.18,0,0,1-8.57-2.65,10,10,0,0,1-3.59-8.2,17.08,17.08,0,0,1,3-10.22,10,10,0,0,1,8.58-4.5,13.49,13.49,0,0,1,6.35,1.31,5.3,5.3,0,0,1,3,5c0,1.56-.89,3-2.65,4.27a38.26,38.26,0,0,1-5,2.62L759,601a8.41,8.41,0,0,0,3.27,2.93,9.93,9.93,0,0,0,4.55,1,14.64,14.64,0,0,0,3.8-.61c1.85-.52,3-1.19,3.56-2s1.11-1.25,1.72-1.25a2,2,0,0,1,1.46.62,1.92,1.92,0,0,1,.64,1.44c0,1.73-1.39,3.22-4.19,4.47A17,17,0,0,1,766.8,609.18Zm-.63-21.35a6,6,0,0,0-4.76,2.21,15,15,0,0,0-2.83,6.67l7.19-3.42a30.79,30.79,0,0,0,6.05-3.59A8,8,0,0,0,766.17,587.83Z"/><path d="M806.46,608.92a20.22,20.22,0,0,1-5.16-.75l0,11.2a2.32,2.32,0,0,1-.65,1.69,2.39,2.39,0,0,1-3.3,0,2.32,2.32,0,0,1-.65-1.69l.07-9.37v-9.35q-.06-5.13-.35-9.35l-.35-4.76a5.87,5.87,0,0,1,.61-2.81,2.2,2.2,0,0,1,2-1.39,2,2,0,0,1,1.53.65,2.16,2.16,0,0,1,.63,1.58c0,.14,0,.4-.07.77s-.14.93-.17,1.34a18.57,18.57,0,0,1,3.89-2.08,10.4,10.4,0,0,1,3.59-.69,7.41,7.41,0,0,1,7,4.27,19.42,19.42,0,0,1,1.76,8.93,12.66,12.66,0,0,1-2.72,8.34A9.5,9.5,0,0,1,806.46,608.92Zm1.62-20.32a7.87,7.87,0,0,0-3.89,1,16,16,0,0,0-3.14,2.49q.3,5.31.3,11.18a14.25,14.25,0,0,0,5.11,1,5.17,5.17,0,0,0,4.48-2.18,8.39,8.39,0,0,0,1.33-4.92,15,15,0,0,0-1-6.39A3.36,3.36,0,0,0,808.08,588.6Z"/><path d="M828.12,589.68l-.35,11.65c0,1.23-.07,3-.19,5.43-.16,1.57-.92,2.35-2.3,2.35s-2.3-.8-2.3-2.39q0-2.84.26-8.52t.26-8.52q0-3.7.12-8.47c.08-3.18.11-6,.11-8.48a2.31,2.31,0,1,1,4.62,0q0,3.71-.12,8.48T828.12,589.68Z"/><path d="M853.62,609.65c-.3,0-.84-.35-1.62-1a10.44,10.44,0,0,1-1.57-1.71,31.28,31.28,0,0,1-4,1.84,8.8,8.8,0,0,1-2.86.62c-3.66,0-6.32-1-8-3.1s-2.37-4.9-2.37-8.9a13.46,13.46,0,0,1,3.9-9.71,12.55,12.55,0,0,1,9.32-4,11.94,11.94,0,0,1,4.57,1.06c2.12.87,3.19,1.93,3.19,3.16a1.62,1.62,0,0,1-.47,1.13,16.91,16.91,0,0,0-.37,2.93c-.08,1.35-.13,3.1-.15,5.22a19.54,19.54,0,0,0,.4,4.6,36.33,36.33,0,0,0,1.48,4.12c.11.28.29.7.54,1.24l.14.4a2,2,0,0,1-.66,1.55A2.19,2.19,0,0,1,853.62,609.65Zm-4.88-16.29c0-.67,0-1.4.13-2.19s.22-1.63.39-2.52a11.33,11.33,0,0,0-1.49-.66,3.3,3.3,0,0,0-1-.21,8.13,8.13,0,0,0-6.27,3,11.21,11.21,0,0,0-1.27,12.59,4.65,4.65,0,0,0,4.07,1.92,8.11,8.11,0,0,0,3.82-.82,13.19,13.19,0,0,0,2.37-1.78A85.15,85.15,0,0,1,848.74,593.36Z"/><path d="M880.31,587.19l-8.11,17.54q-3,6.39-4.59,10.71L866.06,620a2.17,2.17,0,0,1-2.11,1.69,2.47,2.47,0,0,1-1.7-.64,2.1,2.1,0,0,1-.71-1.61q0-2.34,5.06-13.57l-8.39-16.15L857.16,588a3.73,3.73,0,0,1-.64-1.8,2.31,2.31,0,0,1,.74-1.69,2.28,2.28,0,0,1,1.65-.73,2,2,0,0,1,1.67.82,92.25,92.25,0,0,1,8.55,15.75l3.47-8.08a79.29,79.29,0,0,1,3.61-7.22,2.22,2.22,0,0,1,2-1.31,2.4,2.4,0,0,1,1.7.68,2.12,2.12,0,0,1,.74,1.61A2.69,2.69,0,0,1,880.31,587.19Z"/><path d="M910.15,609.08a14.87,14.87,0,0,1-6.52-1.4,2.17,2.17,0,0,1-1.83,1.12,2,2,0,0,1-1.51-.62,2.12,2.12,0,0,1-.62-1.56q0-.6.06-1.8c0-.8.06-1.4.06-1.81q0-2.47-.13-7.44t-.13-7.44q0-1.71,0-6.48t0-6.5a5.39,5.39,0,0,1,.58-2.53,2.36,2.36,0,0,1,2.14-1.43c1.17,0,1.75.68,1.75,2a5.55,5.55,0,0,1-.11,1,5.58,5.58,0,0,0-.12,1l-.07,5.13,0,6a18.56,18.56,0,0,1,3.88-2.08,9.89,9.89,0,0,1,3.46-.69,10,10,0,0,1,8.18,3.87,13.69,13.69,0,0,1,2.95,8.93,12.91,12.91,0,0,1-3.44,9.07A11.22,11.22,0,0,1,910.15,609.08Zm.89-21.16A8.34,8.34,0,0,0,907.1,589a35.14,35.14,0,0,0-3.37,2.32l-.05,4,0,3.66,0,3.84c.75.35,1.8.79,3.16,1.32a11.38,11.38,0,0,0,3.26.44,7.25,7.25,0,0,0,5.58-2.39,8.51,8.51,0,0,0,2.18-6,9.47,9.47,0,0,0-1.76-5.84A6.06,6.06,0,0,0,911,587.92Z"/><path d="M936.47,609.48a9.14,9.14,0,0,1-6.77-2.9,12.49,12.49,0,0,1-3.33-8.7,15.1,15.1,0,0,1,2.67-9.33,10.48,10.48,0,0,1,9.14-4.75,7.72,7.72,0,0,1,7.1,4.28,16.49,16.49,0,0,1,1.85,8.35,15.07,15.07,0,0,1-2.72,8.88A9.32,9.32,0,0,1,936.47,609.48Zm1.41-20.93a5.91,5.91,0,0,0-5.37,3.28,11.9,11.9,0,0,0-1.53,6,7.25,7.25,0,0,0,1.86,5.3,4.92,4.92,0,0,0,3.63,1.57,5.67,5.67,0,0,0,4.19-1.78,7.49,7.49,0,0,0,2.11-5.32Q943.1,588.58,937.88,588.55Z"/><path d="M968.6,588.13c-.33,0-.71,0-1.16,0s-.83,0-1.16,0-1.42.12-3.19.35l.45,13.85,0,1,0,1.2q.09,5.13-2.47,5.13a2.35,2.35,0,0,1-1.62-.61,2,2,0,0,1-.7-1.52c0-.6,0-1.49.08-2.67s.07-2.08.07-2.68l-.47-13.68c-1.14-.05-2.88-.18-5.21-.4a2.12,2.12,0,0,1-2.08-2.32,2.41,2.41,0,0,1,.63-1.71,2.09,2.09,0,0,1,1.62-.68l4.92.4c0-.8,0-1.87-.11-3.2s-.1-2.3-.1-2.9a2.17,2.17,0,0,1,.68-1.63,2.32,2.32,0,0,1,1.66-.64c1.41,0,2.23,1.15,2.46,3.44,0,.58.07,1.28.07,2.09l0,1.36,0,1.45c1.94-.25,3-.37,3.33-.37a13.81,13.81,0,0,1,3.19.23,2.06,2.06,0,0,1,1.43,2.2,2.34,2.34,0,0,1-.65,1.7A2.18,2.18,0,0,1,968.6,588.13Z"/><path d="M991.22,588.13c-.33,0-.72,0-1.16,0s-.83,0-1.16,0-1.42.12-3.19.35l.45,13.85,0,1,0,1.2q.1,5.13-2.46,5.13a2.38,2.38,0,0,1-1.63-.61,2,2,0,0,1-.69-1.52c0-.6,0-1.49.07-2.67s.07-2.08.07-2.68l-.47-13.68c-1.14-.05-2.87-.18-5.2-.4a2.13,2.13,0,0,1-2.09-2.32,2.41,2.41,0,0,1,.64-1.71,2.08,2.08,0,0,1,1.61-.68l4.93.4c0-.8,0-1.87-.11-3.2s-.1-2.3-.1-2.9a2.14,2.14,0,0,1,.68-1.63,2.3,2.3,0,0,1,1.66-.64c1.41,0,2.23,1.15,2.46,3.44,0,.58.07,1.28.07,2.09l0,1.36,0,1.45c1.94-.25,3-.37,3.33-.37a13.87,13.87,0,0,1,3.19.23,2.06,2.06,0,0,1,1.43,2.2,2.34,2.34,0,0,1-.65,1.7A2.18,2.18,0,0,1,991.22,588.13Z"/><path d="M1007,609.48a9.16,9.16,0,0,1-6.78-2.9,12.49,12.49,0,0,1-3.33-8.7,15.17,15.17,0,0,1,2.68-9.33,10.47,10.47,0,0,1,9.14-4.75,7.72,7.72,0,0,1,7.1,4.28,16.49,16.49,0,0,1,1.85,8.35,15.14,15.14,0,0,1-2.72,8.88A9.33,9.33,0,0,1,1007,609.48Zm1.4-20.93a5.92,5.92,0,0,0-5.37,3.28,12,12,0,0,0-1.52,6,7.29,7.29,0,0,0,1.85,5.3,4.92,4.92,0,0,0,3.64,1.57,5.67,5.67,0,0,0,4.19-1.78,7.54,7.54,0,0,0,2.11-5.32Q1013.58,588.58,1008.35,588.55Z"/><path d="M1053.16,610.05a2.11,2.11,0,0,1-2.25-2q-.42-2.58-.84-7.27l-.8-7.26a15.81,15.81,0,0,0-.79-3.17c-.53-1.4-1.11-2.11-1.74-2.11a8.13,8.13,0,0,0-3.23,1.48,13.15,13.15,0,0,0-3,2.18c0,1.47,0,2.94.12,4.4l.71,6.26a54.55,54.55,0,0,1,.44,6.12,2.35,2.35,0,0,1-.64,1.7,2.38,2.38,0,0,1-3.31,0,2.35,2.35,0,0,1-.64-1.7q0-2.83-.58-8.38c-.38-3.69-.57-6.49-.57-8.38a8.86,8.86,0,0,0-.7-3.87,11.67,11.67,0,0,0-3.33,2.44l-2.77,3.1a15.7,15.7,0,0,1-1.19,1.47c0,.94-.09,2.32-.26,4.15s-.26,3.18-.26,4.06a11.9,11.9,0,0,0,.22,2A12.25,12.25,0,0,1,1028,607a2.11,2.11,0,0,1-.72,1.62,2.39,2.39,0,0,1-1.68.66q-2.64,0-2.64-6c0-.94.08-2.33.25-4.19s.26-3.26.26-4.2-.07-2.07-.22-3.72-.22-2.91-.22-3.75c0-3.55.79-5.33,2.39-5.33a2.27,2.27,0,0,1,1.67.8,2.47,2.47,0,0,1,.77,1.74,12.29,12.29,0,0,1-.12,1.38,12.09,12.09,0,0,0-.12,1.43l0,2.46a14.26,14.26,0,0,1,3.58-4.54c1.58-1.35,2.93-2,4-2a5.07,5.07,0,0,1,5.07,3.65,8.32,8.32,0,0,1,3.07-2.56,9.27,9.27,0,0,1,4.08-.86c2.6,0,4.39,1.41,5.34,4.22a59.72,59.72,0,0,1,1,6.59q.66,4,1.69,13.43a1.94,1.94,0,0,1-.63,1.59A2.42,2.42,0,0,1,1053.16,610.05Z"/><path d="M1093.34,609.65c-.3,0-.84-.35-1.62-1a10.44,10.44,0,0,1-1.57-1.71,31.28,31.28,0,0,1-4,1.84,8.85,8.85,0,0,1-2.86.62c-3.66,0-6.32-1-8-3.1s-2.37-4.9-2.37-8.9a13.46,13.46,0,0,1,3.9-9.71,12.55,12.55,0,0,1,9.32-4,11.94,11.94,0,0,1,4.57,1.06c2.12.87,3.19,1.93,3.19,3.16a1.62,1.62,0,0,1-.47,1.13,16.91,16.91,0,0,0-.37,2.93c-.08,1.35-.13,3.1-.15,5.22a19.54,19.54,0,0,0,.4,4.6,36.33,36.33,0,0,0,1.48,4.12c.11.28.28.7.54,1.24l.14.4a2,2,0,0,1-.66,1.55A2.21,2.21,0,0,1,1093.34,609.65Zm-4.88-16.29a19.37,19.37,0,0,1,.13-2.19c.09-.79.21-1.63.39-2.52a11.33,11.33,0,0,0-1.49-.66,3.36,3.36,0,0,0-1-.21,8.13,8.13,0,0,0-6.27,3,11.21,11.21,0,0,0-1.27,12.59,4.65,4.65,0,0,0,4.07,1.92,8.11,8.11,0,0,0,3.82-.82,13.19,13.19,0,0,0,2.37-1.78A85.15,85.15,0,0,1,1088.46,593.36Z"/><path d="M1117.57,609.76c-1.34,0-2.1-.73-2.27-2.2l-.66-5.13a43.13,43.13,0,0,1-.33-5.13c0-.44,0-1.18.08-2.23s.09-1.79.09-2.23q0-5.05-1.88-5.06-2.62,0-5,3.12a21.14,21.14,0,0,0-3.38,7.17c0,.61-.1,1.37-.21,2.3a19.88,19.88,0,0,0-.14,2.27c0,.47.05,1.17.14,2.11s.14,1.64.14,2.11a2.34,2.34,0,0,1-.64,1.71,2.42,2.42,0,0,1-3.32,0,2.37,2.37,0,0,1-.63-1.71,19.57,19.57,0,0,0-.16-2.11c-.1-.94-.15-1.64-.15-2.11,0-1.61.12-3.84.34-6.69s.34-5.08.34-6.69c0-.5,0-1.25-.08-2.23s-.08-1.73-.08-2.23a2.18,2.18,0,0,1,.67-1.65,2.26,2.26,0,0,1,1.65-.64c1.44,0,2.22,1,2.37,3l.07,2.75q3.93-5.25,8.08-5.25a5.28,5.28,0,0,1,5.23,3.3,17.22,17.22,0,0,1,1.1,6.52v2.36l0,2.18a31.86,31.86,0,0,0,.5,5,31.86,31.86,0,0,1,.5,5,2.24,2.24,0,0,1-.66,1.68A2.33,2.33,0,0,1,1117.57,609.76Z"/><path d="M1146.3,587.41c-.18,2.29-.28,4.59-.28,6.89a71.18,71.18,0,0,0,.73,11.78,4.31,4.31,0,0,1,0,.54,2,2,0,0,1-.66,1.55,2.15,2.15,0,0,1-1.52.61c-1,0-1.68-.7-2.14-2.11a13.39,13.39,0,0,1-3.5,1.88,11.45,11.45,0,0,1-3.78.63,10.79,10.79,0,0,1-8-3.24,11.51,11.51,0,0,1-3.28-8.48q0-6.26,3.31-10a10.91,10.91,0,0,1,8.61-3.77,8.57,8.57,0,0,1,4.2.84l2.2,1.62q.33-9.87.78-13.29c.2-1.39.91-2.09,2.13-2.09,1.42,0,2.13.76,2.13,2.27C1147.24,575.19,1146.93,580,1146.3,587.41Zm-10.4.6q-3.95,0-5.91,2.34t-2,7a7.16,7.16,0,0,0,2.15,5.2,7.24,7.24,0,0,0,8.35,1.45,18.1,18.1,0,0,0,2.6-1.94,4.77,4.77,0,0,0,.68-.73l-.07-4.05,0-2.72,0-2.77a6.68,6.68,0,0,0-2.36-2.85A6.46,6.46,0,0,0,1135.9,588Z"/><path d="M1172.79,597.46c0,.94,0,2.34.08,4.21s.08,3.27.08,4.2a2.34,2.34,0,0,1-.63,1.69,2.42,2.42,0,0,1-3.32,0,2.31,2.31,0,0,1-.64-1.69c0-.93,0-2.34-.08-4.2s-.08-3.27-.08-4.21c0-1.47.07-3.3.23-5.5s.23-4,.23-5.49a2.31,2.31,0,0,1,.65-1.71,2.39,2.39,0,0,1,3.3,0,2.31,2.31,0,0,1,.65,1.71q0,2.21-.24,5.49C1172.87,594.16,1172.79,596,1172.79,597.46Zm-1.06-19a2.7,2.7,0,0,1-1.94-.8,2.66,2.66,0,0,1,0-3.84,2.75,2.75,0,0,1,3.88,0,2.68,2.68,0,0,1,0,3.84A2.68,2.68,0,0,1,1171.73,578.43Z"/><path d="M1210.48,610.05a2.11,2.11,0,0,1-2.25-2c-.28-1.72-.57-4.14-.85-7.27l-.79-7.26a16.55,16.55,0,0,0-.8-3.17c-.53-1.4-1.11-2.11-1.74-2.11a8.19,8.19,0,0,0-3.23,1.48,13,13,0,0,0-3,2.18c0,1.47,0,2.94.11,4.4l.71,6.26a54.55,54.55,0,0,1,.44,6.12,2.35,2.35,0,0,1-.64,1.7,2.38,2.38,0,0,1-3.31,0,2.35,2.35,0,0,1-.64-1.7q0-2.83-.58-8.38c-.38-3.69-.57-6.49-.57-8.38a8.72,8.72,0,0,0-.7-3.87,11.67,11.67,0,0,0-3.33,2.44l-2.77,3.1a14.21,14.21,0,0,1-1.19,1.47c0,.94-.09,2.32-.26,4.15s-.26,3.18-.26,4.06a12.14,12.14,0,0,0,.23,2,13.32,13.32,0,0,1,.22,1.83,2.11,2.11,0,0,1-.72,1.62,2.37,2.37,0,0,1-1.67.66q-2.65,0-2.65-6c0-.94.09-2.33.26-4.19s.25-3.26.25-4.2-.07-2.07-.22-3.72-.22-2.91-.22-3.75q0-5.32,2.39-5.33a2.3,2.3,0,0,1,1.68.8,2.5,2.5,0,0,1,.76,1.74,12.29,12.29,0,0,1-.12,1.38,12.09,12.09,0,0,0-.12,1.43l0,2.46a14.16,14.16,0,0,1,3.59-4.54c1.57-1.35,2.92-2,4-2a5.06,5.06,0,0,1,5.06,3.65,8.32,8.32,0,0,1,3.07-2.56,9.33,9.33,0,0,1,4.08-.86q3.92,0,5.34,4.22a59.72,59.72,0,0,1,1,6.59q.66,4,1.69,13.43a1.88,1.88,0,0,1-.63,1.59A2.41,2.41,0,0,1,1210.48,610.05Z"/><path d="M1228,608.92a20.22,20.22,0,0,1-5.16-.75l0,11.2a2.32,2.32,0,0,1-.65,1.69,2.39,2.39,0,0,1-3.3,0,2.32,2.32,0,0,1-.65-1.69l.07-9.37v-9.35q-.06-5.13-.35-9.35l-.35-4.76a5.87,5.87,0,0,1,.61-2.81,2.2,2.2,0,0,1,2-1.39,2,2,0,0,1,1.53.65,2.16,2.16,0,0,1,.63,1.58c0,.14,0,.4-.07.77s-.14.93-.17,1.34a18.57,18.57,0,0,1,3.89-2.08,10.4,10.4,0,0,1,3.59-.69,7.41,7.41,0,0,1,7,4.27,19.42,19.42,0,0,1,1.76,8.93,12.66,12.66,0,0,1-2.72,8.34A9.5,9.5,0,0,1,1228,608.92Zm1.62-20.32a7.87,7.87,0,0,0-3.89,1,16,16,0,0,0-3.14,2.49q.3,5.31.3,11.18a14.25,14.25,0,0,0,5.11,1,5.17,5.17,0,0,0,4.48-2.18,8.39,8.39,0,0,0,1.33-4.92,15,15,0,0,0-1-6.39A3.36,3.36,0,0,0,1229.58,588.6Z"/><path d="M1261.9,590.78c-.11,2-.89,2.93-2.35,2.93s-2-.77-2-2.32c0-.3,0-.84-.07-1.64l-.07-2a12.29,12.29,0,0,0-5.93,2.09,11.15,11.15,0,0,0-3.47,4.59l0,12.84a2.08,2.08,0,0,1-2.32,2.37q-2.07,0-2.07-2.37V590.85c0-.52,0-1.29.06-2.32s.06-1.8.06-2.32c0-1.58.69-2.37,2.06-2.37q2.31,0,2.32,3.89a14.09,14.09,0,0,1,10-4.33,3.14,3.14,0,0,1,2.83,1.43,7.9,7.9,0,0,1,.94,4.31C1261.92,590,1261.91,590.5,1261.9,590.78Z"/><path d="M1275.52,609.48a9.16,9.16,0,0,1-6.78-2.9,12.49,12.49,0,0,1-3.33-8.7,15.17,15.17,0,0,1,2.68-9.33,10.47,10.47,0,0,1,9.14-4.75,7.72,7.72,0,0,1,7.1,4.28,16.49,16.49,0,0,1,1.85,8.35,15.14,15.14,0,0,1-2.72,8.88A9.33,9.33,0,0,1,1275.52,609.48Zm1.4-20.93a5.92,5.92,0,0,0-5.37,3.28,12,12,0,0,0-1.52,6,7.29,7.29,0,0,0,1.85,5.3,4.92,4.92,0,0,0,3.64,1.57,5.67,5.67,0,0,0,4.19-1.78,7.54,7.54,0,0,0,2.11-5.32Q1282.15,588.58,1276.92,588.55Z"/><path d="M1302.77,606.88a1.93,1.93,0,0,1-2.13,2.16,2.62,2.62,0,0,1-2.48-2l-3.59-9.51-4.17-10.76a3,3,0,0,1-.24-1.08,2.18,2.18,0,0,1,.73-1.64,2.42,2.42,0,0,1,1.69-.68,2.07,2.07,0,0,1,2,1.43l6,16.38q1.76-3.75,4.43-10.87.63-1.87,2-5.3a2.25,2.25,0,0,1,2.06-1.5,2.42,2.42,0,0,1,1.69.68,2.15,2.15,0,0,1,.73,1.62q0,.88-3.87,10Z"/><path d="M1326.26,609.18a13.22,13.22,0,0,1-8.58-2.65,10,10,0,0,1-3.59-8.2,17.08,17.08,0,0,1,3-10.22,10,10,0,0,1,8.57-4.5,13.53,13.53,0,0,1,6.36,1.31,5.3,5.3,0,0,1,3,5q0,2.34-2.65,4.27a38.26,38.26,0,0,1-5,2.62l-9,4.24a8.41,8.41,0,0,0,3.27,2.93,10,10,0,0,0,4.56,1,14.58,14.58,0,0,0,3.79-.61c1.85-.52,3-1.19,3.57-2s1.1-1.25,1.71-1.25a2,2,0,0,1,1.46.62,1.93,1.93,0,0,1,.65,1.44q0,2.6-4.2,4.47A17,17,0,0,1,1326.26,609.18Zm-.64-21.35a6,6,0,0,0-4.75,2.21,15,15,0,0,0-2.84,6.67l7.2-3.42a31,31,0,0,0,6-3.59A8,8,0,0,0,1325.62,587.83Z"/><path d="M638.67,644.79l-8.11,17.54q-3,6.39-4.59,10.71l-1.55,4.54a2.17,2.17,0,0,1-2.11,1.69,2.47,2.47,0,0,1-1.7-.64,2.1,2.1,0,0,1-.71-1.61q0-2.34,5.06-13.57l-8.39-16.15-1.05-1.71a3.73,3.73,0,0,1-.64-1.8,2.31,2.31,0,0,1,.74-1.69,2.28,2.28,0,0,1,1.65-.73,2,2,0,0,1,1.67.82,92.25,92.25,0,0,1,8.55,15.75l3.47-8.08a79.29,79.29,0,0,1,3.61-7.22,2.22,2.22,0,0,1,2-1.31,2.44,2.44,0,0,1,1.7.67,2.16,2.16,0,0,1,.74,1.62A2.69,2.69,0,0,1,638.67,644.79Z"/><path d="M652,667.08a9.16,9.16,0,0,1-6.78-2.9,12.48,12.48,0,0,1-3.32-8.7,15.1,15.1,0,0,1,2.67-9.33,10.48,10.48,0,0,1,9.14-4.75,7.72,7.72,0,0,1,7.1,4.28,16.49,16.49,0,0,1,1.85,8.35,15.14,15.14,0,0,1-2.72,8.88A9.33,9.33,0,0,1,652,667.08Zm1.4-20.93a5.9,5.9,0,0,0-5.36,3.28,11.9,11.9,0,0,0-1.53,6.05,7.25,7.25,0,0,0,1.86,5.3,4.92,4.92,0,0,0,3.63,1.57,5.71,5.71,0,0,0,4.19-1.78,7.55,7.55,0,0,0,2.11-5.32Q658.64,646.18,653.41,646.15Z"/><path d="M687.59,652c0,1.13,0,2.82,0,5.07s0,3.93,0,5.06c0,.34,0,.86.08,1.57s.09,1.22.09,1.57a2.19,2.19,0,0,1-.68,1.65,2.35,2.35,0,0,1-1.67.65c-1.2,0-2-.75-2.29-2.23a14.53,14.53,0,0,1-6.75,1.52,8.87,8.87,0,0,1-5.09-1.36,6.09,6.09,0,0,1-2.65-4.38,76.75,76.75,0,0,1-.91-11.06,43.77,43.77,0,0,1,.7-7.32,2.1,2.1,0,0,1,2.23-2,2.37,2.37,0,0,1,1.69.64,2.18,2.18,0,0,1,.67,1.65,26.74,26.74,0,0,1-.34,3.45,28.34,28.34,0,0,0-.33,3.61q0,3.91.25,6.7a22.55,22.55,0,0,0,.78,4.48,7.84,7.84,0,0,0,1.52.64,5.11,5.11,0,0,0,1.48.22,24,24,0,0,0,6.63-1l0-4.76,0-4.55a77,77,0,0,1,.44-8.79,2.12,2.12,0,0,1,2.28-2.15,2.38,2.38,0,0,1,1.69.65,2.06,2.06,0,0,1,.63,1.64Z"/><path d="M711.66,648.38c-.11,2-.89,2.93-2.35,2.93s-2-.77-2-2.32c0-.3,0-.84-.07-1.64l-.07-2a12.29,12.29,0,0,0-5.93,2.09,11.15,11.15,0,0,0-3.47,4.59l0,12.84a2.07,2.07,0,0,1-2.32,2.37c-1.37,0-2.06-.79-2.06-2.37V648.45c0-.52,0-1.29.06-2.32s.06-1.8.06-2.32c0-1.58.69-2.37,2.06-2.37,1.53,0,2.31,1.3,2.32,3.89a14.09,14.09,0,0,1,10-4.33,3.14,3.14,0,0,1,2.83,1.43,7.9,7.9,0,0,1,.94,4.31C711.68,647.55,711.67,648.1,711.66,648.38Z"/><path d="M746.65,647.65a2,2,0,0,1-1.81-.86,8.48,8.48,0,0,1-.61-2.54q-1.76.45-5.41,1.65c-2.52,1-3.78,2.23-3.8,3.7a7.35,7.35,0,0,0,1.39.37,22.69,22.69,0,0,1,8,2.65,8,8,0,0,1,3.82,7.13,6.28,6.28,0,0,1-3.3,5.76,13.58,13.58,0,0,1-6.94,1.6,16.92,16.92,0,0,1-5.86-1q-3.61-1.32-3.61-3.66a2.2,2.2,0,0,1,.74-1.64,2.35,2.35,0,0,1,1.68-.7,3.15,3.15,0,0,1,1.87,1.12,5.35,5.35,0,0,0,2.53.89,15.22,15.22,0,0,0,2.65.28,11.43,11.43,0,0,0,3.47-.47c1.45-.45,2.18-1.17,2.18-2.15,0-2.13-1.49-3.57-4.45-4.32l-2.44-.53a13.1,13.1,0,0,1-4.43-1.6,4.47,4.47,0,0,1-1.9-4,7.16,7.16,0,0,1,4.62-7,34.18,34.18,0,0,1,4.5-1.52,35.12,35.12,0,0,0,4.43-1.48,5.13,5.13,0,0,1,2.08-.43,2.19,2.19,0,0,1,1.65.66,2.35,2.35,0,0,1,.65,1.71,10.31,10.31,0,0,0,.29,2,9.82,9.82,0,0,1,.3,2,2.35,2.35,0,0,1-.65,1.71A2.24,2.24,0,0,1,746.65,647.65Z"/><path d="M764.79,667.18a11.5,11.5,0,0,1-8-2.91,10.3,10.3,0,0,1-3.37-8,18.54,18.54,0,0,1,3.16-9.82q3.53-5.62,7.92-5.62a14.78,14.78,0,0,1,5.14,1.07c2.39.93,3.58,2,3.58,3.38a2.37,2.37,0,0,1-.58,1.58,1.84,1.84,0,0,1-1.46.69,1.79,1.79,0,0,1-1.18-.41c-.34-.27-.66-.54-1-.81a7.35,7.35,0,0,0-4.53-1.1q-2.38,0-4.73,4.27a14.73,14.73,0,0,0-2.13,6.77,6,6,0,0,0,2.11,4.88,7.56,7.56,0,0,0,5.06,1.66,7.05,7.05,0,0,0,3-.75l2.72-1.45a2.61,2.61,0,0,1,1-.38,2,2,0,0,1,1.5.69,2.29,2.29,0,0,1,.63,1.59q0,1.71-3.61,3.3A13.57,13.57,0,0,1,764.79,667.18Z"/><path d="M787.64,667.08a9.16,9.16,0,0,1-6.77-2.9,12.49,12.49,0,0,1-3.33-8.7,15.23,15.23,0,0,1,2.67-9.33,10.5,10.5,0,0,1,9.14-4.75,7.71,7.71,0,0,1,7.1,4.28A16.49,16.49,0,0,1,798.3,654a15.13,15.13,0,0,1-2.71,8.88A9.34,9.34,0,0,1,787.64,667.08Zm1.41-20.93a5.91,5.91,0,0,0-5.37,3.28,11.9,11.9,0,0,0-1.52,6.05,7.25,7.25,0,0,0,1.85,5.3,4.92,4.92,0,0,0,3.63,1.57,5.73,5.73,0,0,0,4.2-1.78,7.6,7.6,0,0,0,2.11-5.32Q794.26,646.18,789.05,646.15Z"/><path d="M822.33,648.38c-.11,2-.89,2.93-2.35,2.93s-2-.77-2-2.32c0-.3,0-.84-.07-1.64l-.07-2a12.29,12.29,0,0,0-5.93,2.09,11.15,11.15,0,0,0-3.47,4.59l.05,12.84a2.08,2.08,0,0,1-2.32,2.37q-2.07,0-2.07-2.37V648.45c0-.52,0-1.29.06-2.32s.06-1.8.06-2.32c0-1.58.69-2.37,2.06-2.37,1.53,0,2.31,1.3,2.32,3.89a14.09,14.09,0,0,1,10-4.33,3.14,3.14,0,0,1,2.83,1.43,7.9,7.9,0,0,1,.94,4.31C822.35,647.55,822.34,648.1,822.33,648.38Z"/><path d="M838.1,666.78a13.22,13.22,0,0,1-8.58-2.65,10,10,0,0,1-3.58-8.2,17.08,17.08,0,0,1,2.95-10.22,10,10,0,0,1,8.58-4.5,13.52,13.52,0,0,1,6.35,1.31,5.28,5.28,0,0,1,3,5q0,2.34-2.64,4.26a37.34,37.34,0,0,1-5,2.63l-9,4.24a8.55,8.55,0,0,0,3.27,2.93,10,10,0,0,0,4.56,1,14.64,14.64,0,0,0,3.8-.61c1.84-.52,3-1.19,3.56-2s1.1-1.25,1.71-1.25a2,2,0,0,1,1.47.62,1.92,1.92,0,0,1,.64,1.44q0,2.6-4.19,4.47A17,17,0,0,1,838.1,666.78Zm-.63-21.35a6,6,0,0,0-4.76,2.21,15,15,0,0,0-2.83,6.67l7.19-3.42a31.1,31.1,0,0,0,6-3.59A8,8,0,0,0,837.47,645.43Z"/><path d="M856.45,667.88a2.91,2.91,0,0,1-2.06-5,2.91,2.91,0,0,1,4.11,0,2.9,2.9,0,0,1-2,5Z"/><path d="M868.41,667.88a2.91,2.91,0,0,1-2.07-5,2.91,2.91,0,0,1,4.12,4.12A2.83,2.83,0,0,1,868.41,667.88Z"/><path d="M880.36,667.88a2.91,2.91,0,0,1-2.06-5,2.91,2.91,0,0,1,4.11,0,2.9,2.9,0,0,1-2,5Z"/><ellipse class="cls-4" cx="1009" cy="811.5" rx="148.5" ry="142.5"/><path class="cls-3" d="M1009,675c38.15,0,74,14.26,100.93,40.15s41.57,60,41.57,96.35-14.76,70.59-41.57,96.35S1047.15,948,1009,948s-74-14.26-100.93-40.15-41.57-60-41.57-96.35,14.76-70.59,41.57-96.35S970.85,675,1009,675m0-12c-85.33,0-154.5,66.49-154.5,148.5S923.67,960,1009,960s154.5-66.49,154.5-148.5S1094.33,663,1009,663Z"/><polygon class="cls-20" points="969.09 745.74 969.09 877.26 1088.82 811.96 969.09 745.74"/></svg>
