<?xml version="1.0" encoding="utf-8"?>
<!-- Generator: Adobe Illustrator 23.0.3, SVG Export Plug-In . SVG Version: 6.00 Build 0)  -->
<svg version="1.1" id="Layer_1" xmlns="http://www.w3.org/2000/svg" xmlns:xlink="http://www.w3.org/1999/xlink" x="0px" y="0px"
	 viewBox="0 0 815 1080" style="enable-background:new 0 0 815 1080;" xml:space="preserve">
<style type="text/css">
	.st0{fill:#FFFBCD;}
	.st1{fill:#A3D399;}
	.st2{fill:#E0BA93;}
	.st3{fill:#00BA52;}
	.st4{fill:none;stroke:#000000;stroke-miterlimit:10;}
	.st5{fill:#ED7B81;}
	.st6{fill:#FFFFFF;}
	.st7{fill:#F7C799;}
	.st8{fill:#F3BED5;}
	.st9{fill:#EDF88D;}
	.st10{fill:#ED7B81;stroke:#FFFFFF;stroke-width:2;stroke-miterlimit:10;}
</style>
<path class="st0" d="M-45.1,807.4c-324,471.9,762.4,310.8,762.4,310.8S272.3,970.4,356.7,839.8S903.3,547,903.3,547l-80.6-418.5"/>
<title>paere</title>
<g>
	<path class="st1" d="M340.2,675.5c58.8,76.6-34.2,175.3-106,189.6S41.6,810.6,69.6,718c37.6-124.3,28.2-162,100-176.4
		S225.6,526.1,340.2,675.5z"/>
	<path class="st2" d="M176.6,484.7l-7.2-1.4c-8.4,1.7-11.8,12.8-12.2,21.9l1.3,26.7c1.3,6.3-0.6,16.6,13.9,9.2l3.3-0.7L176.6,484.7z
		"/>
	<path class="st3" d="M187.6,540.1c-5.8,1.1-11.8,1.6-17.7,1.4c1-2.5,8.9-22.3,20.4-30.2c7.3-5,18.5-8,26.7-9.6
		c4.7-0.9,8.3-1.4,9.3-1.5c-0.9,2.3-7.1,17.7-21.7,32.2C201,536,195.2,538.6,187.6,540.1z"/>
	<path d="M217.1,501.9c4.2-0.8,7.6-1.3,9-1.5c-1.2,3.1-7.5,17.8-21.5,31.8c-3.7,3.6-9.3,6.2-16.9,7.7c-5.7,1.1-11.5,1.5-17.4,1.4
		c1.3-3.4,9.1-22.2,20.2-29.8C197.7,506.5,208.9,503.5,217.1,501.9 M217,501.5c-8.1,1.6-19.4,4.6-26.8,9.6
		c-12.4,8.5-20.5,30.6-20.5,30.6c6,0.2,12.1-0.2,18-1.4c6.3-1.3,12.8-3.6,17.1-7.9c16-15.9,21.9-32.5,21.9-32.5
		S222.6,500.4,217,501.5L217,501.5z"/>
	<line class="st4" x1="175.5" y1="540.8" x2="226.4" y2="500.2"/>
	<path class="st4" d="M205.6,504.8c-3.8,1.9,5.3,17,9.3,15.7"/>
	<path class="st4" d="M196.8,507.9c-4.3,3.9,5.4,18.9,13.6,17.9"/>
	<path class="st4" d="M182.9,518.6c-2.9,5.1,5.7,21.3,14.8,18.3"/>
	<path class="st4" d="M177.3,526.5c-0.8,3.8,3.6,13.7,7.4,14"/>
	<path class="st4" d="M190.3,511.5c-4.2,3.9,6.7,20.6,15.1,19.9"/>

		<ellipse transform="matrix(0.9807 -0.1957 0.1957 0.9807 -154.6179 39.9511)" class="st5" cx="124.9" cy="802.4" rx="24.2" ry="15.5"/>

		<ellipse transform="matrix(0.9807 -0.1957 0.1957 0.9807 -144.5059 78.1091)" class="st5" cx="323" cy="770.3" rx="24.2" ry="15.5"/>
	<ellipse transform="matrix(0.9807 -0.1957 0.1957 0.9807 -142.0703 47.9713)" cx="171.7" cy="742.9" rx="36.8" ry="53.4"/>
	<ellipse transform="matrix(0.9807 -0.1957 0.1957 0.9807 -136.2467 67.1057)" cx="271.5" cy="723" rx="36.8" ry="53.4"/>
	<circle class="st6" cx="180.7" cy="754.9" r="11.8"/>
	<circle class="st6" cx="286.3" cy="735.6" r="11.8"/>
	<circle class="st6" cx="250" cy="711.8" r="20.8"/>
	<circle class="st6" cx="149.5" cy="727.9" r="20.8"/>
	<path d="M202.3,802.7c7.9,39.7,60.8,20.5,68.8,0"/>
</g>
<g>
	<path class="st7" d="M398.9,385.2c-1.7-6.1-34.6-4.4-58.8,2.9c-8.5,2.5-12.6,4.8-12.7,7.3c-0.1,4.1,10.9,7.3,12.7,7.8
		c22.1,6.2,44.1-6.6,47.8-8.8C394.8,390.5,399.6,387.7,398.9,385.2z"/>
	<path class="st7" d="M521,404.7l-6.6-12.6c-0.1-0.3-0.1-0.6,0-0.8l46.4-86c0,0,0,0,0-0.1c0.3-0.8,7.1-16,13.8-13.8
		c6.9,2.3,6.3,4.7,5.8,6.9c-0.5,1.8-8.6,11.4-12.2,14.9c-0.4,0.3-0.4,0.9,0,1.3c0.3,0.3,0.8,0.4,1.1,0.1l0.1,0
		c0.1-0.1,0.2-0.1,0.2-0.2l12-14.9c3.9-4.3,8.7,0.5,10.4,2.3c0.3,0.5,0.3,1.2,0,1.7c-14,16.8-29.2,37.1-29.9,38c0,0,0,0-0.1,0.1
		l-39.5,63.2c-0.3,0.4-0.8,0.5-1.2,0.3C521.1,404.9,521,404.8,521,404.7z"/>
	<path class="st8" d="M403.8,362.6c-6.2,13.1-24.8,54.5-30,80.1c-6.9,34.3-15.9,79.1,9.8,112.9c3.9,5.2,2.4-3.9,54.2,31.1
		c10.7,7.2,8.6,2.9,67.4-38.6c3.6-2.5,6.8-5.6,9.6-9c25.9-28.7,45.8-131-9-178.3C500,355.8,497,357.5,403.8,362.6z"/>
	<ellipse class="st8" cx="477.6" cy="158.3" rx="17.6" ry="13.8"/>
	<path class="st9" d="M466.4,147.9c-6.1-7.8-0.7-23.1,5.8-31.7c7.7-10.2,18.6-13.5,27.7-16.1c6.3-1.8,17.1-4.1,39.2-2.3
		c23.1,1.9,27.4,5.8,64,10.9c13.4,1.9,21.3,2.6,31.1,1.2c14.6-2.1,22.2-7.2,23.6-5.2c2.1,3.2-12.3,21.2-33.4,31.7
		c-6.6,3.3-13.2,5.4-58.2,9.8c-42,4.1-22.8,0.9-59.9,4C480.1,152.4,471.1,153.9,466.4,147.9z"/>
	<path class="st7" d="M359.2,283.3c-8.2,6-12.5,12.6-13.7,19.5c-4.1,22.7,29.8,47.1,51.2,57.5c24.3,11.9,46.3,12.3,51.8,12.3
		c7,0,65.9-1,92-44.3c7.5-12.4,11.8-27.4,11.8-44.8c0-58.1-45.7-99.8-101.4-105.2C354.6,169.2,407,248.2,359.2,283.3z"/>
	<ellipse cx="490.9" cy="275.4" rx="22.8" ry="33"/>
	<circle class="st6" cx="495" cy="283.8" r="7.3"/>
	<circle class="st6" cx="479.1" cy="264.8" r="12.9"/>
	<ellipse cx="425.7" cy="275.4" rx="22.8" ry="33"/>
	<circle class="st6" cx="435.7" cy="282.6" r="7.3"/>
	<circle class="st6" cx="415.7" cy="263.6" r="12.9"/>
	<ellipse class="st5" cx="524" cy="308.5" rx="15" ry="9.6"/>
	<ellipse class="st5" cx="384" cy="308.5" rx="15" ry="9.6"/>
	<path class="st9" d="M385.6,212.7l3.8,14.5l16.5-27.5l4.9,13.7l22.4-15.8l0,0c0,6.3,5.1,11.3,11.4,11.3c2.5,0,5-0.9,7-2.5l6.8-5.4
		l6.1,19.9l17.8-8.5l10.4,14.8h16.1c15-18.4,0-34,0-34l-9.2-21.3l-21.3-6.3h-59.4c0,0,15.6-4-12.7,0
		C377.9,169.5,385.6,212.7,385.6,212.7z"/>
	<path class="st9" d="M513.9,181.6c-5.5-4.8-13.9-10.8-15.6-9.2c-1.7,1.6,5.1,7.9,9.2,20.2c2.8,8.5,3,16.6,3.5,32.8
		s-0.7,21.2,2.9,23.6c4.6,3.2,13.5,0,18.4-5.2c8.6-9.2,4.6-24.5,2.9-31.1C531,196.5,520.2,187.2,513.9,181.6z"/>
	<path d="M430.5,333.8c21.2,31.7,49.6,3.2,46.8-15.9"/>
	<circle class="st10" cx="454" cy="442.1" r="37.2"/>
	<path class="st6" d="M455.7,447.3l31.1-20.8c0.9-0.6,0.1-2.1-0.9-1.5l-31.1,20.9C454,446.4,454.8,447.9,455.7,447.3L455.7,447.3z"
		/>
	<path class="st6" d="M456.6,478.2l-0.7-73.2c0-0.5-0.4-0.9-0.9-0.9c-0.5,0-0.9,0.4-0.9,0.9l0.7,73.2c0,0.5,0.4,0.9,0.9,0.9
		S456.6,478.7,456.6,478.2z"/>
	<path class="st6" d="M455.1,445.6L422,423.9c-0.9-0.6-1.8,0.9-0.9,1.5l33.2,21.7C455.2,447.7,456.1,446.2,455.1,445.6L455.1,445.6z
		"/>
</g>
<g>
	<rect x="635" y="593.2" class="st1" width="11" height="43.4"/>
	<rect x="601.2" y="591.6" class="st1" width="11" height="43.4"/>
	<path class="st5" d="M599.9,623.6c-6.8,0-12.5,5.5-12.4,11.7c0,0.1,0,0.1,0,0.2l16.3-0.1l8.3,0C612,628.9,606.5,623.7,599.9,623.6z
		"/>
	<path class="st1" d="M540.7,549.6l13.9,11.7c8.9,7.2,25.3,3.1,25.3,3.1l-1-6.5l-15.9-3.1l-17.2-8.4L540.7,549.6z"/>
	<g>
		<path class="st5" d="M587.8,576.9c20.2,32.4,53.1,32.4,73.3,0l36.6-58.8c20.2-32.4,3.7-58.9-36.6-58.9h-73.1
			c-40.3,0-56.8,26.5-36.6,58.9L587.8,576.9z"/>
	</g>
	<path d="M589,492c1.6,0,1.6-2.4,0-2.4C587.4,489.7,587.4,492,589,492z"/>
	<path d="M600.5,504.1c1.6,0,1.6-2.4,0-2.4S598.8,504.1,600.5,504.1z"/>
	<path d="M632.9,505.6c1.6,0,1.6-2.4,0-2.4S631.2,505.6,632.9,505.6z"/>
	<path d="M607.3,541c1.6,0,1.6-2.4,0-2.4S605.6,541,607.3,541z"/>
	<path d="M620.8,528.4c1.6,0,1.6-2.4,0-2.4C619.2,526,619.2,528.4,620.8,528.4z"/>
	<path d="M621.9,507.1c1.6,0,1.6-2.4,0-2.4S620.3,507.1,621.9,507.1z"/>
	<path d="M628.2,493c1.6,0,1.6-2.4,0-2.4C626.5,490.6,626.5,493,628.2,493z"/>
	<path d="M655.3,486.2c1.6,0,1.6-2.4,0-2.4S653.7,486.2,655.3,486.2z"/>
	<path d="M672.5,516.7c1.6,0,1.6-2.4,0-2.4S670.9,516.7,672.5,516.7z"/>
	<path d="M646.4,519.6c1.6,0,1.6-2.4,0-2.4S644.8,519.6,646.4,519.6z"/>
	<path d="M657.4,498.3c1.6,0,1.6-2.4,0-2.4C655.8,496,655.8,498.3,657.4,498.3z"/>
	<path d="M683,490.6c1.6,0,1.6-2.4,0-2.4C681.3,488.2,681.3,490.6,683,490.6z"/>
	<path d="M668.9,529.8c1.6,0,1.6-2.4,0-2.4S667.2,529.8,668.9,529.8z"/>
	<path d="M640.7,541c1.6,0,1.6-2.4,0-2.4S639,541,640.7,541z"/>
	<path d="M609.4,576.8c1.6,0,1.6-2.4,0-2.4C607.7,574.5,607.7,576.8,609.4,576.8z"/>
	<path d="M594.7,543.9c1.6,0,1.6-2.4,0-2.4S593.1,543.9,594.7,543.9z"/>
	<path d="M588.5,517.2c1.6,0,1.6-2.4,0-2.4C586.8,514.9,586.8,517.2,588.5,517.2z"/>
	<path d="M570.7,504.6c1.6,0,1.6-2.4,0-2.4S569.1,504.6,570.7,504.6z"/>
	<path d="M612,482.8c1.6,0,1.6-2.4,0-2.4S610.3,482.8,612,482.8z"/>
	<path d="M596.8,468.8c1.6,0,1.6-2.4,0-2.4C595.2,466.4,595.2,468.8,596.8,468.8z"/>
	<path d="M566.6,483.3c1.6,0,1.6-2.4,0-2.4S564.9,483.3,566.6,483.3z"/>
	<path d="M642.1,578.5c1.6,0,1.6-2.4,0-2.4S640.5,578.5,642.1,578.5z"/>
	<path d="M657.4,568.1c1.6,0,1.6-2.4,0-2.4C655.8,565.7,655.8,568.1,657.4,568.1z"/>
	<path d="M660,548.7c1.6,0,1.6-2.4,0-2.4S658.4,548.7,660,548.7z"/>
	<path d="M669.4,503.7c1.6,0,1.6-2.4,0-2.4C667.8,501.3,667.8,503.7,669.4,503.7z"/>
	<path d="M678.8,481.9c1.6,0,1.6-2.4,0-2.4C677.2,479.5,677.2,481.9,678.8,481.9z"/>
	<path d="M643.8,475.6c1.6,0,1.6-2.4,0-2.4S642.2,475.6,643.8,475.6z"/>
	<path d="M619.8,471.7c1.6,0,1.6-2.4,0-2.4S618.2,471.7,619.8,471.7z"/>
	<path d="M688.7,504.6c1.6,0,1.6-2.4,0-2.4C687.1,502.3,687.1,504.6,688.7,504.6z"/>
	<path d="M685,522.1c1.6,0,1.6-2.4,0-2.4S683.4,522.1,685,522.1z"/>
	<path d="M677.7,544.8c1.6,0,1.6-2.4,0-2.4C676.1,542.5,676.1,544.8,677.7,544.8z"/>
	<path d="M600,562.3c1.6,0,1.6-2.4,0-2.4C598.3,559.9,598.3,562.3,600,562.3z"/>
	<path d="M626.4,551.1c1.6,0,1.6-2.4,0-2.4S624.7,551.1,626.4,551.1z"/>
	<path d="M583.8,529.8c1.6,0,1.6-2.4,0-2.4C582.1,527.5,582.1,529.8,583.8,529.8z"/>
	<path d="M604.7,519.6c1.6,0,1.6-2.4,0-2.4C603,517.3,603,519.6,604.7,519.6z"/>
	<path d="M630.2,517.3c1.1,0,1.1-1.6,0-1.6C629.1,515.7,629.2,517.3,630.2,517.3z"/>
	<path d="M650.6,510.5c1.1,0,1.1-1.6,0-1.6S649.5,510.5,650.6,510.5z"/>
	<path d="M645.4,494.5c1.1,0,1.1-1.6,0-1.6C644.3,493,644.3,494.5,645.4,494.5z"/>
	<path d="M666.3,476.1c1.1,0,1.1-1.6,0-1.6C665.2,474.6,665.2,476.1,666.3,476.1z"/>
	<path d="M671.5,489.7c1.1,0,1.1-1.6,0-1.6S670.4,489.7,671.5,489.7z"/>
	<path d="M683.5,508.6c1.1,0,1.1-1.6,0-1.6S682.4,508.6,683.5,508.6z"/>
	<path d="M658.4,522.2c1.1,0,1.1-1.6,0-1.6C657.3,520.6,657.3,522.2,658.4,522.2z"/>
	<path d="M652.2,535.2c1.1,0,1.1-1.6,0-1.6S651.1,535.2,652.2,535.2z"/>
	<path d="M640.2,532.3c1.1,0,1.1-1.6,0-1.6C639.1,530.8,639.1,532.3,640.2,532.3z"/>
	<path d="M635,585.9c1.1,0,1.1-1.6,0-1.6C633.9,584.3,633.9,585.9,635,585.9z"/>
	<path d="M625.5,590.6c1.1,0,1.1-1.6,0-1.6C624.4,589,624.4,590.6,625.5,590.6z"/>
	<path d="M624.5,582.2c1.1,0,1.1-1.6,0-1.6C623.4,580.7,623.4,582.2,624.5,582.2z"/>
	<path d="M616.4,583c1.1,0,1.1-1.6,0-1.6C615.4,581.4,615.4,583,616.4,583z"/>
	<path d="M590.6,570.1c1.1,0,1.1-1.6,0-1.6S589.5,570.1,590.6,570.1z"/>
	<path d="M581.7,551.7c1.1,0,1.1-1.6,0-1.6S580.6,551.7,581.7,551.7z"/>
	<path d="M571.3,530.4c1.1,0,1.1-1.6,0-1.6S570.2,530.4,571.3,530.4z"/>
	<path d="M580.7,519.7c1.1,0,1.1-1.6,0-1.6C579.6,518.2,579.6,519.7,580.7,519.7z"/>
	<path d="M563.4,509.6c1.1,0,1.1-1.6,0-1.6C562.3,508,562.3,509.6,563.4,509.6z"/>
	<path d="M630.2,541.7c1.1,0,1.1-1.6,0-1.6S629.2,541.7,630.2,541.7z"/>
	<path d="M560.3,494.5c1.1,0,1.1-1.6,0-1.6C559.2,493,559.2,494.5,560.3,494.5z"/>
	<path d="M581.2,494.5c1.1,0,1.1-1.6,0-1.6C580.1,493,580.1,494.5,581.2,494.5z"/>
	<path d="M585.9,508.1c1.1,0,1.1-1.6,0-1.6S584.8,508.1,585.9,508.1z"/>
	<path d="M606.2,490.7c1.1,0,1.1-1.6,0-1.6S605.1,490.7,606.2,490.7z"/>
	<path d="M584.3,486.3c1.1,0,1.1-1.6,0-1.6C583.2,484.7,583.2,486.3,584.3,486.3z"/>
	<path d="M579.6,477.1c1.1,0,1.1-1.6,0-1.6C578.5,475.5,578.5,477.1,579.6,477.1z"/>
	<path d="M678.3,533.3c1.1,0,1.1-1.6,0-1.6C677.2,531.7,677.2,533.3,678.3,533.3z"/>
	<polygon class="st1" points="610.5,459.7 593.6,445.4 607.1,445.5 622.4,459.7 	"/>
	<polygon class="st1" points="622.4,448.6 607.1,434.4 607.1,445.5 622.4,459.7 	"/>
	<polygon class="st1" points="638.7,459.7 656.4,445.4 642.1,445.5 626.7,459.7 	"/>
	<polygon class="st1" points="626.7,448.6 642.1,434.4 642.1,445.5 626.7,459.7 	"/>
	<rect x="620.4" y="434.4" class="st1" width="7.9" height="25.4"/>
	<ellipse cx="606.7" cy="529.6" rx="18.5" ry="24.9"/>
	<ellipse class="st6" cx="612.7" cy="536.7" rx="5.9" ry="5.5"/>
	<ellipse class="st6" cx="597.2" cy="522.6" rx="10.4" ry="9.7"/>
	<ellipse cx="652.9" cy="531.2" rx="18.5" ry="24.9"/>
	<ellipse class="st6" cx="659" cy="538.3" rx="5.9" ry="5.5"/>
	<ellipse class="st6" cx="643.5" cy="524.1" rx="10.4" ry="9.7"/>
	<path d="M608.1,562.5c1.2,18.8,29.4,9.1,34.8,0.1"/>
	<path class="st1" d="M674.1,556.1l14.5,11c9,7.1,7,22.8,7,22.8h-7l-5.6-14.1l-11.6-14.6L674.1,556.1z"/>
	<path class="st5" d="M646.4,624.7c-6.8,0-12.5,5.5-12.4,11.7c0,0.1,0,0.1,0,0.2l16.3-0.1l8.3,0C658.6,630,653,624.7,646.4,624.7z"
		/>
	<path d="M634.4,556.8c1.1,0,1.1-1.6,0-1.6C633.4,555.2,633.4,556.8,634.4,556.8z"/>
	<path d="M560.4,512.7c1.1,0,1.1-1.6,0-1.6C559.3,511.2,559.3,512.7,560.4,512.7z"/>
</g>
<polyline class="st0" points="-248.5,195.4 -437.8,-257.2 -59.2,-88.9 -248.2,-52.3 "/>
</svg>
