<svg id="Layer_1" data-name="Layer 1" xmlns="http://www.w3.org/2000/svg" viewBox="0 0 590 670"><defs><style>.cls-1{fill:#f7c799;}.cls-2{fill:#e1ba93;}.cls-3{fill:#ce382c;}.cls-4{fill:none;stroke:#000;stroke-miterlimit:10;stroke-width:3px;}.cls-5{fill:#ed7b81;}</style></defs><title>pizza</title><polygon class="cls-1" points="91.5 112.5 313.5 634.5 532.5 112.5 91.5 112.5"/><rect class="cls-2" x="90.5" y="71.88" width="441" height="41.45"/><circle class="cls-3" cx="247" cy="361.5" r="40"/><circle class="cls-3" cx="358" cy="389.5" r="34"/><circle class="cls-3" cx="312" cy="486.5" r="40"/><circle class="cls-3" cx="314" cy="281.5" r="34"/><circle class="cls-3" cx="414" cy="263.5" r="34"/><circle class="cls-3" cx="207" cy="241.5" r="40"/><line class="cls-4" x1="280.48" y1="184.57" x2="231.57" y2="160.92"/><line class="cls-4" x1="277.5" y1="135" x2="234.55" y2="158.49"/><line class="cls-4" x1="370.69" y1="132.08" x2="414.31" y2="164.45"/><line class="cls-4" x1="369.62" y1="183.21" x2="415.19" y2="165.35"/><path class="cls-4" d="M309.23,219c-3.85-14.2,8.75-25.36,20.14-25.57,10.71-.2,23.9,9.22,23.93,22.53"/><line class="cls-4" x1="232.5" y1="159" x2="279.5" y2="160"/><line class="cls-4" x1="415.5" y1="165" x2="370.5" y2="164"/><ellipse class="cls-5" cx="431" cy="197.13" rx="26" ry="16.63"/><ellipse class="cls-5" cx="230" cy="197.13" rx="26" ry="16.63"/><polygon class="cls-2" points="457 292.46 524 333.5 474 401.5 448 401.5 498 342.5 448 315.5 457 292.46"/><circle class="cls-2" cx="455" cy="402.5" r="21"/><polygon class="cls-2" points="174 298.46 107 339.5 157 407.5 183 407.5 133 348.5 183 321.5 174 298.46"/><circle class="cls-2" cx="176" cy="408.5" r="21"/></svg>
