<svg id="Layer_1" data-name="Layer 1" xmlns="http://www.w3.org/2000/svg" viewBox="0 0 434 382"><defs><style>.cls-1{fill:#ed7b81;}.cls-2,.cls-3{fill:#fff;}.cls-3{stroke:#000;stroke-miterlimit:10;}</style></defs><title>play</title><ellipse class="cls-1" cx="230" cy="198.5" rx="148.5" ry="142.5"/><path class="cls-2" d="M230,62c38.15,0,74,14.26,100.93,40.15s41.57,60,41.57,96.35-14.76,70.59-41.57,96.35S268.15,335,230,335s-74-14.26-100.93-40.15-41.57-60-41.57-96.35,14.76-70.59,41.57-96.35S191.85,62,230,62m0-12C144.67,50,75.5,116.49,75.5,198.5S144.67,347,230,347s154.5-66.49,154.5-148.5S315.33,50,230,50Z"/><polygon class="cls-3" points="190.09 132.74 190.09 264.26 309.81 198.96 190.09 132.74"/></svg>
