<svg id="Layer_1" data-name="Layer 1" xmlns="http://www.w3.org/2000/svg" viewBox="0 0 1920 1080"><defs><style>.cls-1{fill:#eed2fb;}.cls-2{fill:#cefaf9;}.cls-3,.cls-7{fill:#a3d399;}.cls-4{fill:#ed7b81;}.cls-38,.cls-39,.cls-5{fill:none;}.cls-40,.cls-6{fill:#fff;}.cls-10,.cls-13,.cls-16,.cls-17,.cls-7{stroke:#999;}.cls-10,.cls-13,.cls-16,.cls-17,.cls-35,.cls-38,.cls-39,.cls-40,.cls-7{stroke-miterlimit:10;}.cls-17,.cls-35,.cls-8{fill:#f3bed5;}.cls-9{fill:#c5eccd;}.cls-10{fill:#ebd1e4;}.cls-11{fill:#e5e8fb;}.cls-12{fill:#e0e1f5;}.cls-13{fill:#e7f3cd;}.cls-14{fill:#d3a5b9;}.cls-15{fill:#e0d1e3;}.cls-16{fill:#f7cbde;}.cls-18{fill:#f7ac4a;}.cls-19{fill:#be873b;}.cls-20{fill:#afc1c9;}.cls-21{fill:#5eb030;}.cls-22{fill:#a44121;}.cls-23{fill:#7f3215;}.cls-24{fill:#e63231;}.cls-25{fill:#498a25;}.cls-26{fill:#b02924;}.cls-27{fill:#312782;}.cls-28{fill:#f5cd9d;}.cls-29{fill:#1d1d1b;}.cls-30{fill:#e3e3e2;}.cls-31{fill:#a54121;}.cls-32{fill:#f7c799;}.cls-33{fill:#ccedfd;}.cls-34{fill:#edf88d;}.cls-35,.cls-38,.cls-39,.cls-40{stroke:#000;}.cls-35{stroke-width:2px;}.cls-36{fill:#e0ba93;}.cls-37{fill:#00ba52;}.cls-39{stroke-width:11px;}</style></defs><title>rules</title><rect class="cls-1" x="0.98" y="441.9" width="1919" height="638"/><path d="M1919.48,442.4v637H1.48v-637h1918m1-1H.48v639h1920v-639Z"/><path class="cls-2" d="M1,518.9V.9H1505.47a5.85,5.85,0,0,0,1.51.2,5.83,5.83,0,0,0,1.5-.2h3.9a5.25,5.25,0,0,0,.92.08,7.19,7.19,0,0,0,1-.08h.56a5.34,5.34,0,0,0,.92.08,7.33,7.33,0,0,0,1-.08h4a5.77,5.77,0,0,0,1.5.2,5.77,5.77,0,0,0,1.5-.2h.74a5.34,5.34,0,0,0,.92.08,7.33,7.33,0,0,0,1-.08h8.23a5.43,5.43,0,0,0,.92.08,7.33,7.33,0,0,0,1-.08h.33a5.34,5.34,0,0,0,.92.08,6.56,6.56,0,0,0,.79,0,5.19,5.19,0,0,0,.68,0,5.51,5.51,0,0,0,1-.08,5.91,5.91,0,0,0,1.51.2,6.06,6.06,0,0,0,1.48-.19,5.21,5.21,0,0,0,.9.07,4.68,4.68,0,0,0,.66,0h.08a2.38,2.38,0,0,0,.39,0,7.31,7.31,0,0,0,1-.08h3a5.34,5.34,0,0,0,.92.08,7.33,7.33,0,0,0,1-.08h.55a5.46,5.46,0,0,0,.93.08,7.19,7.19,0,0,0,1-.08h18.4a5.25,5.25,0,0,0,.92.08,6.7,6.7,0,0,0,.79,0,5.19,5.19,0,0,0,.68,0,7.07,7.07,0,0,0,1-.08,5.25,5.25,0,0,0,.92.08l.52,0a6.06,6.06,0,0,0,1.53.2,6.39,6.39,0,0,0,1.3-.14l.3-.06h.2l.68,0H1920v518Z"/><path d="M1919.48,1.4v517H1.48V1.4H1505.41a6.31,6.31,0,0,0,1.57.2,6.3,6.3,0,0,0,1.56-.2h3.76a5.77,5.77,0,0,0,1,.08,5.85,5.85,0,0,0,1-.08h.48a5.85,5.85,0,0,0,1,.08,5.7,5.7,0,0,0,1-.08h4a6.37,6.37,0,0,0,1.57.2,6.37,6.37,0,0,0,1.57-.2h.59a5.85,5.85,0,0,0,1,.08,5.7,5.7,0,0,0,1-.08h8.16a5.85,5.85,0,0,0,1,.08,5.88,5.88,0,0,0,1-.08h.25a5.85,5.85,0,0,0,1,.08,5.41,5.41,0,0,0,.79-.05,4.61,4.61,0,0,0,.68.05,6.26,6.26,0,0,0,.95-.07,6.54,6.54,0,0,0,1.53.19,6.28,6.28,0,0,0,1.5-.18,6.62,6.62,0,0,0,.88.06l.66,0h0a3.25,3.25,0,0,0,.44,0,5.88,5.88,0,0,0,1-.08h3a5.85,5.85,0,0,0,1,.08,5.7,5.7,0,0,0,1-.08h.48a5.88,5.88,0,0,0,1,.08,5.85,5.85,0,0,0,1-.08h18.32a5.85,5.85,0,0,0,1,.08,5.49,5.49,0,0,0,.79-.05,4.61,4.61,0,0,0,.68.05,6.48,6.48,0,0,0,1-.07,6.39,6.39,0,0,0,1,.07h.48a6.88,6.88,0,0,0,1.57.19A6.38,6.38,0,0,0,1580,1.5l.17,0h.26l.7-.05h338.35m1-1H1581l-.94.06-.31.06a5.58,5.58,0,0,1-1.2.13,5.14,5.14,0,0,1-1.48-.21,5.44,5.44,0,0,1-.57,0,5.34,5.34,0,0,1-.92-.08h-.08a5.43,5.43,0,0,1-.92.08,4.91,4.91,0,0,1-.68-.06,5.06,5.06,0,0,1-.79.06,5.43,5.43,0,0,1-.92-.08h-18.48a5.43,5.43,0,0,1-.92.08,5.55,5.55,0,0,1-.93-.08h-.64a5.34,5.34,0,0,1-.92.08,5.43,5.43,0,0,1-.92-.08h-3.12a5.55,5.55,0,0,1-.93.08,3.42,3.42,0,0,1-.46,0,4.78,4.78,0,0,1-.66,0,5.55,5.55,0,0,1-.93-.08h0a5.39,5.39,0,0,1-1.44.2,5.31,5.31,0,0,1-1.43-.2h-.13a5.34,5.34,0,0,1-.92.08,4.91,4.91,0,0,1-.68-.06,5,5,0,0,1-.79.06A5.43,5.43,0,0,1,1537,.4h-.41a5.55,5.55,0,0,1-.93.08,5.43,5.43,0,0,1-.92-.08h-8.32a5.34,5.34,0,0,1-.92.08,5.43,5.43,0,0,1-.92-.08h-.8a5.44,5.44,0,0,1-1.44.2,5.44,5.44,0,0,1-1.44-.2h-4.19a5.34,5.34,0,0,1-.92.08,5.43,5.43,0,0,1-.92-.08h-.64a5.43,5.43,0,0,1-.92.08,5.34,5.34,0,0,1-.92-.08h-4a5.37,5.37,0,0,1-1.43.2,5.39,5.39,0,0,1-1.44-.2H.48v519h1920V.4Z"/><rect class="cls-3" x="1782.99" y="824.26" width="21.15" height="87.55" transform="translate(-72.55 169.48) rotate(-5.3)"/><rect class="cls-3" x="1717.92" y="827.12" width="21.15" height="87.55" transform="translate(-73.09 163.48) rotate(-5.3)"/><path class="cls-4" d="M1717.34,892.73c-13,1.14-22.83,13.16-21.53,25.78l0,.33,31.19-3,16-1.55C1741.65,901.24,1730.08,891.61,1717.34,892.73Z"/><path class="cls-3" d="M1590.29,754.71l28.71,21c18.32,12.94,49,1.71,49,1.71l-3.2-12.79-31-3.37-34.6-13.89Z"/><path class="cls-4" d="M1645,745.43c66.91,92.11,161.59,83.32,210.4-19.53s-5.93-178.22-121.65-167.47S1578.14,653.32,1645,745.43Z"/><path d="M1715.91,727.63c5.79,0,5.8-9,0-9s-5.8,9,0,9Z"/><path d="M1739.56,699.93c5.79,0,5.8-9,0-9s-5.8,9,0,9Z"/><path d="M1786.92,677.88c5.79,0,5.8-9,0-9s-5.8,9,0,9Z"/><path d="M1831.81,694.31c5.79,0,5.8-9,0-9s-5.8,9,0,9Z"/><path d="M1779.9,721.69c5.79,0,5.8-9,0-9s-5.8,9,0,9Z"/><path d="M1692.46,735.69c5.79,0,5.8-9,0-9s-5.8,9,0,9Z"/><path d="M1818.33,733.81c5.79,0,5.8-9,0-9s-5.8,9,0,9Z"/><path d="M1706.94,685.3c5.79,0,5.8-9,0-9s-5.8,9,0,9Z"/><path d="M1793.3,658.13c3.86,0,3.86-6,0-6s-3.87,6,0,6Z"/><path d="M1810.46,680.08c3.86,0,3.87-6,0-6s-3.87,6,0,6Z"/><path d="M1800.9,707.45c3.86,0,3.87-6,0-6s-3.87,6,0,6Z"/><path d="M1777.36,703.75c3.86,0,3.87-6,0-6s-3.86,6,0,6Z"/><path d="M1741.21,824.81c3.86,0,3.86-6,0-6s-3.87,6,0,6Z"/><polygon class="cls-3" points="1707.11 561.87 1672.09 536.08 1697.96 533.88 1730.01 559.75 1707.11 561.87"/><polygon class="cls-3" points="1727.94 537.47 1695.89 511.6 1697.96 533.88 1730.01 559.75 1727.94 537.47"/><polygon class="cls-3" points="1761.2 556.85 1792.48 524.9 1765.03 527.66 1738.29 558.98 1761.2 556.85"/><polygon class="cls-3" points="1736.22 536.7 1762.96 505.38 1765.03 527.66 1738.29 558.98 1736.22 536.7"/><rect class="cls-3" x="1723.66" y="508.45" width="15.18" height="51.16" transform="translate(-41.95 162.29) rotate(-5.3)"/><polyline class="cls-5" points="1737.23 516.26 1722.11 517.66 1729.43 508.51 1720.84 515.66"/><ellipse cx="1712.89" cy="702.85" rx="35.51" ry="50.1" transform="translate(-57.63 161.31) rotate(-5.3)"/><ellipse class="cls-6" cx="1725.81" cy="715.95" rx="11.39" ry="11.08" transform="translate(-58.78 162.56) rotate(-5.3)"/><ellipse class="cls-6" cx="1693.49" cy="690.35" rx="20.06" ry="19.51" transform="translate(-56.55 159.47) rotate(-5.3)"/><ellipse cx="1801.72" cy="697.78" rx="35.51" ry="50.1" transform="translate(-56.78 169.5) rotate(-5.3)"/><ellipse class="cls-6" cx="1814.65" cy="710.88" rx="11.39" ry="11.08" transform="translate(-57.93 170.75) rotate(-5.3)"/><ellipse class="cls-6" cx="1782.32" cy="685.28" rx="20.06" ry="19.51" transform="translate(-55.71 167.66) rotate(-5.3)"/><path d="M1721.76,768.53c5.78,37.54,58,13,66.65-5.95"/><path class="cls-3" d="M1846.89,743.91l29.8,19.48c18.6,12.57,17.74,44.43,17.74,44.43l-13.49,1.26-13.43-27.36-24.85-27.2Z"/><path class="cls-4" d="M1806.62,886.56c-13,1.14-22.84,13.16-21.54,25.78l0,.34,31.19-3,16-1.55C1830.92,895.07,1819.36,885.44,1806.62,886.56Z"/><rect class="cls-7" x="1762.57" y="480.94" width="1.84" height="1.84" transform="translate(-36.99 165.05) rotate(-5.3)"/><rect class="cls-8" x="1637.98" y="157.9" width="98" height="359"/><rect class="cls-9" x="1690.98" y="198.9" width="27" height="30"/><polygon class="cls-9" points="1686.98 99.4 1637.98 159.9 1735.98 159.9 1686.98 99.4"/><rect class="cls-9" x="1655.98" y="198.9" width="27" height="30"/><rect class="cls-9" x="1655.98" y="243.9" width="27" height="30"/><rect class="cls-9" x="1690.98" y="243.9" width="27" height="30"/><rect class="cls-9" x="1655.98" y="288.9" width="27" height="30"/><rect class="cls-9" x="1690.98" y="288.9" width="27" height="30"/><rect class="cls-9" x="1690.48" y="330.4" width="27" height="30"/><rect class="cls-9" x="1655.48" y="330.4" width="27" height="30"/><rect class="cls-9" x="1655.48" y="375.4" width="27" height="30"/><rect class="cls-9" x="1690.48" y="375.4" width="27" height="30"/><rect class="cls-9" x="1655.48" y="420.4" width="27" height="30"/><rect class="cls-9" x="1690.48" y="420.4" width="27" height="30"/><ellipse class="cls-9" cx="1686.98" cy="100.4" rx="17.5" ry="15"/><rect class="cls-10" x="1735.48" y="78.4" width="134" height="438"/><path class="cls-10" d="M1920.73,3.92a4.72,4.72,0,0,1,.72-2.52h-93l-93,77h134l51.25-54.81Z"/><polygon class="cls-10" points="1869.98 516.9 1920.48 516.9 1920.27 26.97 1869.98 78.9 1869.98 516.9"/><rect class="cls-11" x="1763.48" y="260.4" width="78" height="87" rx="8.8"/><rect class="cls-11" x="1763.48" y="380.4" width="78" height="87" rx="8.8"/><rect class="cls-11" x="1763.48" y="140.4" width="78" height="87" rx="8.8"/><rect class="cls-12" x="1759.48" y="462.4" width="85" height="6" rx="1.09"/><rect class="cls-12" x="1759.48" y="342.4" width="85" height="6" rx="1.09"/><rect class="cls-12" x="1759.48" y="221.4" width="85" height="6" rx="1.09"/><rect class="cls-13" x="1407.98" y="180.9" width="23" height="337"/><rect class="cls-14" x="1423.48" y="217.4" width="7" height="42"/><rect class="cls-14" x="1423.48" y="387.4" width="7" height="42"/><rect class="cls-14" x="1423.48" y="334.4" width="7" height="42"/><rect class="cls-14" x="1423.48" y="276.4" width="7" height="42"/><rect class="cls-14" x="1422.48" y="441.4" width="7" height="42"/><rect class="cls-15" x="1430.98" y="61.9" width="207" height="454"/><rect class="cls-14" x="1423.98" y="61.9" width="221" height="32" rx="13.46"/><rect class="cls-14" x="1444.98" y="139.9" width="45" height="60"/><rect class="cls-14" x="1514.98" y="139.9" width="45" height="60"/><rect class="cls-14" x="1580.98" y="139.9" width="45" height="60"/><rect class="cls-14" x="1426.98" y="225.9" width="215" height="8" rx="4"/><rect class="cls-14" x="1444.98" y="251.9" width="45" height="60"/><rect class="cls-14" x="1514.98" y="251.9" width="45" height="60"/><rect class="cls-14" x="1580.98" y="251.9" width="45" height="60"/><rect class="cls-14" x="1425.98" y="333.9" width="215" height="8" rx="4"/><rect class="cls-14" x="1580.98" y="355.9" width="45" height="60"/><rect class="cls-14" x="1514.98" y="355.9" width="45" height="60"/><rect class="cls-14" x="1444.98" y="355.9" width="45" height="60"/><rect class="cls-14" x="1499.98" y="441.9" width="74" height="74"/><path class="cls-14" d="M1580.76.34a3.44,3.44,0,0,1-.46,0c-.75,0-1.51,0-2.27,0l-.94.07-.31.06a5.57,5.57,0,0,1-2.67-.08,5.49,5.49,0,0,1-.58,0,5.83,5.83,0,0,1-1-.08,5.92,5.92,0,0,1-1,.08,5.87,5.87,0,0,1-.74,0,5.58,5.58,0,0,1-.73,0,5.85,5.85,0,0,1-1.22-.13l-.47,0a5.87,5.87,0,0,1-.74,0,5.58,5.58,0,0,1-.73,0,5.87,5.87,0,0,1-.74,0,5.58,5.58,0,0,1-.73,0,5.63,5.63,0,0,1-1.19-.13,5.47,5.47,0,0,1-1.18.13,5.76,5.76,0,0,1-1.28-.15c-.2,0-.42,0-.64,0a5.44,5.44,0,0,1-.57,0,5.35,5.35,0,0,1-1.24.14,5.4,5.4,0,0,1-1-.1,5.51,5.51,0,0,1-1,.1,5,5,0,0,1-1-.09,4.89,4.89,0,0,1-1,.09,5.52,5.52,0,0,1-1.17-.12h-.18a6.5,6.5,0,0,1-.79-.06,5.33,5.33,0,0,1-1.36.17,5.16,5.16,0,0,1-.79-.06,5.2,5.2,0,0,1-1.35.17,5.5,5.5,0,0,1-1.25-.14,5.35,5.35,0,0,1-1.24.14,5.25,5.25,0,0,1-1.79-.3,5.34,5.34,0,0,1-.92.08,5.68,5.68,0,0,1-.59,0,5.41,5.41,0,0,1-1.66.25,5.17,5.17,0,0,1-.57,0,5.12,5.12,0,0,1-.56,0,5.46,5.46,0,0,1-.93-.08,5.46,5.46,0,0,1-1.45.2,5.45,5.45,0,0,1-1.45-.21,5.56,5.56,0,0,1-1,.09,5.87,5.87,0,0,1-.74,0,5.58,5.58,0,0,1-.73,0,5.53,5.53,0,0,1-1.1-.12,5.3,5.3,0,0,1-1.16.12,5.32,5.32,0,0,1-1.43-.19,5.67,5.67,0,0,1-.94.08,5.15,5.15,0,0,1-1.46-.2,5.28,5.28,0,0,1-1.47.2l-.24,0-.44,0a5.37,5.37,0,0,1-1.55-.23,5.83,5.83,0,0,1-1,.11,5.19,5.19,0,0,1-1.58.23,5.24,5.24,0,0,1-1.42-.19,5,5,0,0,1-1.74.31,5,5,0,0,1-1.84-.34,5.44,5.44,0,0,1-1.09.11,5.78,5.78,0,0,1-1.29-.15c-.14,0-.26,0-.41,0l-.28,0a5.28,5.28,0,0,1-1.64.24,5.83,5.83,0,0,1-1.22-.14,5.59,5.59,0,0,1-1.26.14,5.36,5.36,0,0,1-1.16-.12h-.08a5.37,5.37,0,0,1-1.17-.13l-.3,0-.27,0a5.66,5.66,0,0,1-1.2.13,4.63,4.63,0,0,1-.54,0,5,5,0,0,1-1.6.26,4.83,4.83,0,0,1-2.64-.72,4.94,4.94,0,0,1-2.22.49A5,5,0,0,1,1497.2,0a4.94,4.94,0,0,1-1.58.25,5.39,5.39,0,0,1-.71-.05,5.49,5.49,0,0,1-1.32.16,5.43,5.43,0,0,1-1.5-.21,5.11,5.11,0,0,1-1,.1,5.4,5.4,0,0,1-1.24-.15L1449,61.9h173Z"/><path class="cls-16" d="M1239.75,70.4H1367.7a0,0,0,0,1,0,0V517.74a0,0,0,0,1,0,0H1231a0,0,0,0,1,0,0V79.17A8.77,8.77,0,0,1,1239.75,70.4Z"/><path class="cls-17" d="M1402.55,88.38,1368,70.55c-.14-.07-.28.14-.28.43V517.29c0,.25.1.45.22.45h40.33c.13,0,.23-.21.23-.46l-2.39-420C1406.07,93.08,1404.62,89.45,1402.55,88.38Z"/><rect class="cls-14" x="1252.48" y="115.4" width="37" height="54"/><rect class="cls-14" x="1306.48" y="182.4" width="37" height="54"/><rect class="cls-14" x="1252.48" y="182.4" width="37" height="54"/><rect class="cls-14" x="1306.48" y="115.4" width="37" height="54"/><rect class="cls-14" x="1306.48" y="324.4" width="37" height="54"/><rect class="cls-14" x="1252.48" y="249.4" width="37" height="54"/><rect class="cls-14" x="1306.48" y="249.4" width="37" height="54"/><g id="Hojre"><path class="cls-18" d="M1834.37,964.26c54.43-38.5,63.52-90.63,61.36-94.37s-14.76,42.32-69.19,80.82-91.73,36.81-89.57,40.55S1779.94,1002.75,1834.37,964.26Z"/><path class="cls-19" d="M1834.37,964.25c-54.42,38.51-95.25,30.75-97.41,27-.45-.78.84-1.34,3.69-2.08,11.12,3.27,47.62,4.06,94-28.76,45.5-32.17,59.3-73.84,61.35-88.86C1896.24,881.46,1884.67,928.67,1834.37,964.25Z"/></g><g id="Venstre"><path class="cls-18" d="M1443,936c-48.22-46-49.59-98.93-46.9-102.32s8.41,44,56.63,90.07,85.37,49.82,82.68,53.2S1491.18,982,1443,936Z"/><path class="cls-19" d="M1443,936c48.21,46,89.73,44.34,92.42,40.95.56-.71-.63-1.45-3.35-2.6-11.47,1.61-47.7-2.94-88.78-42.19-40.31-38.47-47.87-81.72-47.7-96.88C1393.86,845,1398.4,893.42,1443,936Z"/><path class="cls-19" d="M1474.22,960.36a142.3,142.3,0,0,0,16.51,8.83l34.85,2.56c-11.13-4.48-30.8-13.08-54.67-32.11"/></g><ellipse class="cls-18" cx="1396.42" cy="822.19" rx="21.25" ry="19.31" transform="translate(474.1 2154.6) rotate(-85.8)"/><ellipse class="cls-20" cx="1599.4" cy="921.94" rx="21.25" ry="19.31" transform="translate(562.72 2449.46) rotate(-85.8)"/><ellipse class="cls-18" cx="1898.44" cy="859.08" rx="21.25" ry="19.31" transform="translate(902.53 2689.45) rotate(-85.8)"/><path class="cls-18" d="M1780.89,982.32l-.43,5.75,2.32.17a18.3,18.3,0,0,0,10.71-2.57l-5.79,78.76c-.93,12.66-11.11,22.32-22.61,21.47L1494,1066c-11.5-.84-20.15-11.89-19.22-24.55l6.25-85a23.72,23.72,0,0,1,11.19-18.73,19.36,19.36,0,0,1,11.41-2.75l271.06,19.92a19.34,19.34,0,0,1,8,2.42c7.23,4.06,11.91,12.64,11.22,22.13l0,.5a18.29,18.29,0,0,1-10.7,2.57Z"/><path id="Bund_skygge_2" data-name="Bund skygge 2" class="cls-19" d="M1787,947.26l-3.56,48.48c-1.25,17-14.76,29.76-30.15,28.63a26.42,26.42,0,0,1-18.67-10c-.22-.52-.46-1-.72-1.54s-.67-1.2-1-1.77a21.84,21.84,0,0,0-1.59-2.22c-.18-.22-.37-.45-.56-.66a21.45,21.45,0,0,0-14.65-7.51,22.13,22.13,0,0,0-19.46,9.5h-.06a2.29,2.29,0,0,1-.16.31,23.6,23.6,0,0,0-1.41,2.25c-5.57,8.13-14.65,13.11-24.52,12.39a26.83,26.83,0,0,1-20.1-11.85c-.26-.77-.56-1.53-.89-2.27-.15-.32-.28-.63-.47-1a23.79,23.79,0,0,0-1.42-2.63c-.3-.5-.61-1-1-1.45a28.52,28.52,0,0,0-7.92-7.76,25.63,25.63,0,0,0-7.54-3.33,24.58,24.58,0,0,0-4.64-.78,25.68,25.68,0,0,0-12.65,2.29l-.28,0-.57.42a27.65,27.65,0,0,0-3.87,2.34,25.73,25.73,0,0,1-13.52,2.7,26.44,26.44,0,0,1-17.28-8.34c-.26-.43-.55-.85-.85-1.26a20.92,20.92,0,0,0-2.28-2.69,21.19,21.19,0,0,0-13.66-6.46,21.5,21.5,0,0,0-15.83,5.48l-.56.5c-.25.26-.49.49-.72.74a22.83,22.83,0,0,0-2.36,2.8.07.07,0,0,0,0,0,24.48,24.48,0,0,0-2.76,4.12,26.58,26.58,0,0,1-20.37,7.54c-14.54-1.07-25.58-14.2-25.72-29.9,0-.93,0-1.87.08-2.83l3.36-45.66Z"/><path class="cls-21" d="M1783.77,943.16l-3.59,48.75c-1.36,16.8-14.8,29.5-30.12,28.38a26.33,26.33,0,0,1-18.67-10c-.22-.52-.47-1-.73-1.54s-.66-1.2-1-1.77a24.32,24.32,0,0,0-1.59-2.22c-.18-.21-.37-.45-.57-.66a21.4,21.4,0,0,0-14.64-7.51c-7.76-.57-14.92,3.24-19.47,9.52h0a2.85,2.85,0,0,1-.16.3,21,21,0,0,0-1.41,2.27c-5.58,8.13-14.66,13.11-24.52,12.39a26.83,26.83,0,0,1-20.11-11.85,24.1,24.1,0,0,0-.88-2.29c-.16-.3-.29-.63-.48-.94a19.48,19.48,0,0,0-1.42-2.63c-.29-.5-.61-1-.94-1.47a28.48,28.48,0,0,0-7.93-7.74,25.63,25.63,0,0,0-7.54-3.33,23,23,0,0,0-4.63-.8,25.67,25.67,0,0,0-12.65,2.31l-.28,0c-.19.12-.39.26-.57.4a30.78,30.78,0,0,0-3.87,2.33,25.77,25.77,0,0,1-13.52,2.71,26.3,26.3,0,0,1-17.28-8.34c-.27-.41-.55-.83-.86-1.26a24,24,0,0,0-2.27-2.69,21.19,21.19,0,0,0-13.67-6.46,21.49,21.49,0,0,0-15.82,5.48l-.57.52c-.24.23-.49.47-.72.72a23.76,23.76,0,0,0-2.36,2.8.1.1,0,0,0,0,0,24.63,24.63,0,0,0-2.75,4.12,26.53,26.53,0,0,1-20.38,7.54c-14.47-1.06-25.46-14.07-25.72-29.65a1.76,1.76,0,0,0,0-.23c0-1,0-1.89.09-2.85l3.35-45.66Z"/><path id="bof" class="cls-22" d="M1806.24,939.2,1804,969.88c-.88,12-10.49,21.08-21.35,20.28L1491,968.72c-10.88-.8-19-11.23-18.17-23.18l2.25-30.68c.88-12,10.49-21.09,21.37-20.29L1788.09,916l.71.07a18.61,18.61,0,0,1,11.38,5.74A22.66,22.66,0,0,1,1806.24,939.2Z"/><g id="Top_Salat" data-name="Top Salat"><path class="cls-23" d="M1793,865l-3.36,45.66a28,28,0,0,1-.33,2.81c-.13.9-.32,1.79-.53,2.64a30.7,30.7,0,0,1-16.38,20.78,25.92,25.92,0,0,1-12.9,2.41,26.64,26.64,0,0,1-19.06-10.45,24.46,24.46,0,0,0-2.12-4.47s0,0,0-.06a23.45,23.45,0,0,0-1.93-3.11c-.19-.29-.4-.55-.6-.84s-.33-.39-.49-.57a21.48,21.48,0,0,0-14.85-7.75,21.25,21.25,0,0,0-14.47,4.4,21.58,21.58,0,0,0-2.64,2.33c-.36.36-.7.74-1,1.12a26.39,26.39,0,0,1-18.31,5.73,25.7,25.7,0,0,1-13-4.66,29.34,29.34,0,0,0-3.49-2.88l-.5-.5-.28,0a25.79,25.79,0,0,0-12.18-4.11,24.55,24.55,0,0,0-4.7.1,25.54,25.54,0,0,0-7.94,2.19,28.48,28.48,0,0,0-9,6.51c-.4.42-.78.85-1.15,1.31a23.61,23.61,0,0,0-1.79,2.39c-.23.29-.41.59-.61.88-.43.68-.83,1.39-1.2,2.11a26.85,26.85,0,0,1-21.63,8.78c-9.86-.72-18.11-7-22.44-15.84a23.81,23.81,0,0,0-1.06-2.43,1.85,1.85,0,0,1-.12-.33h0a23.22,23.22,0,0,0-8.68-9.31,20.66,20.66,0,0,0-9.19-2.93,21.43,21.43,0,0,0-15.58,5.29c-.23.18-.45.38-.66.57a23.42,23.42,0,0,0-1.9,2c-.44.51-.86,1.06-1.27,1.61s-.65.93-.95,1.41a27.94,27.94,0,0,1-7,4.77,25.83,25.83,0,0,1-12.88,2.39c-14.59-1.08-25.66-14.29-25.73-30.08,0-.87,0-1.77.09-2.66l3.56-48.47Z"/><g id="Tomater"><ellipse class="cls-23" cx="1528" cy="892.56" rx="26.6" ry="24.18" transform="translate(525.85 2351.03) rotate(-85.8)"/><ellipse class="cls-23" cx="1551.65" cy="900.56" rx="26.6" ry="24.18" transform="translate(539.79 2382.04) rotate(-85.8)"/><path class="cls-23" d="M1800.18,921.81c-4.13,9.87-13.51,16.43-23.88,15.67a22.44,22.44,0,0,1-3.88-.63c-10.05-2.57-17.45-12-18.3-23.34a28.58,28.58,0,0,1,0-4.34c1.08-14.63,12.76-25.73,26.08-24.75a22.41,22.41,0,0,1,11.1,3.94l-1.64,22.26a28,28,0,0,1-.33,2.81c-.13.9-.32,1.79-.53,2.64A18.61,18.61,0,0,1,1800.18,921.81Z"/></g></g><g id="Top_Salat-2" data-name="Top Salat"><path class="cls-21" d="M1543.65,912.34l-.11.15c-.44.51-.87,1.06-1.28,1.6s-.64.94-.94,1.42a28.41,28.41,0,0,1-7,4.76,25.7,25.7,0,0,1-12.88,2.39c-11.47-.84-20.77-9.2-24.24-20.4a40.76,40.76,0,0,0,7.62,3.58h0a104.06,104.06,0,0,0,21.93,4.89c3.71.49,7.65.89,11.79,1.24h0C1540.2,912.11,1541.91,912.24,1543.65,912.34Z"/><path class="cls-21" d="M1667.87,918.89c8.83.73,17.4,1.45,25.66,2.12a25.72,25.72,0,0,1-25.66-2.12Z"/><path class="cls-21" d="M1754.93,924.09c11.23-.17,20.7-1.14,28-3.2a29.74,29.74,0,0,1-13.84,13.79,25.91,25.91,0,0,1-12.9,2.4,26.59,26.59,0,0,1-19.05-10.44,23,23,0,0,0-1.23-2.83C1742.69,924.08,1749.06,924.2,1754.93,924.09Z"/><path class="cls-21" d="M1789.67,862.79l-2.79,38.05c-6.47,6-19.07,8.56-36.16,9.12-22.33.71-52.3-2-86.26-4.78l-.76,10.24,0,0-.28,0a25.76,25.76,0,0,0-24.82-1.82,26.68,26.68,0,0,0-4.7,2.74,28.75,28.75,0,0,0-4.28,3.77c-.4.41-.78.85-1.14,1.3a22,22,0,0,0-1.79,2.4c-.23.29-.41.58-.61.88a23.05,23.05,0,0,0-1.21,2.11,26.81,26.81,0,0,1-21.62,8.78c-9.87-.72-18.12-7-22.44-15.84a22.94,22.94,0,0,0-1.07-2.43,2.24,2.24,0,0,1-.11-.34h-.06a21.92,21.92,0,0,0-1.86-3,22.32,22.32,0,0,0-1.9-2.3l1.06-14.36-6.7-.49-.23,3.08c-7.86-.25-15.38-.51-22.49-.86-8.36-.42-16.14-.93-23.25-1.71a131.06,131.06,0,0,1-23.62-4.3c-1.72-.51-3.32-1.07-4.86-1.68,0-.45,0-.89.07-1.35l3.56-48.48Z"/><g id="Tomater-2" data-name="Tomater"><path class="cls-24" d="M1526.72,910.73c3.71.49,7.65.89,11.79,1.24a22.75,22.75,0,0,1-15.8,4.95,23.31,23.31,0,0,1-17.92-11.08A104.06,104.06,0,0,0,1526.72,910.73Z"/><path class="cls-24" d="M1548.77,892.15a28.25,28.25,0,0,1-1.35,6.82c-8.36-.42-16.14-.93-23.25-1.71a131.06,131.06,0,0,1-23.62-4.3,27.56,27.56,0,0,1,0-4.36c1.08-14.63,12.76-25.72,26.08-24.74S1549.84,877.52,1548.77,892.15Z"/><path class="cls-24" d="M1572.48,896.92l-2.34-.17-.23,3.08c-7.86-.25-15.38-.51-22.49-.86a26.92,26.92,0,0,1-8.89,13c1.67.14,3.38.27,5.12.37,7.55.56,15.69.93,24.33,1.23-4.79,7.4-12.85,12-21.62,11.35a22.38,22.38,0,0,1-12.09-4.65,24.4,24.4,0,0,1-4.13-4.06,26.14,26.14,0,0,1-3.42-5.48,28.57,28.57,0,0,1-2.55-13.47c0-.21,0-.44,0-.65.87-11.83,8.65-21.34,18.64-24a22,22,0,0,1,7.42-.71C1562.58,872.77,1572,883.67,1572.48,896.92Z"/><path class="cls-24" d="M1786.88,900.84c-6.47,6-19.07,8.56-36.16,9.12a24.66,24.66,0,0,1,.06-3c1.07-14.63,12.75-25.72,26.07-24.74a22.28,22.28,0,0,1,11.1,3.94,23.39,23.39,0,0,1,3.83,3.28c0,.41,0,.83-.08,1.25A14.78,14.78,0,0,1,1786.88,900.84Z"/><path class="cls-24" d="M1799,910.54c-1.08,14.65-12.74,25.75-26.06,24.77a22.75,22.75,0,0,1-3.88-.63,23.86,23.86,0,0,1-14.14-10.59c11.23-.17,20.7-1.14,28-3.2,9-2.58,14.65-6.89,16.15-13.64A30.21,30.21,0,0,1,1799,910.54Z"/></g></g><g id="salat_skygge" data-name="salat skygge"><path class="cls-23" d="M1497.15,902.26a20.13,20.13,0,0,1-10.2-16.21,33.32,33.32,0,0,0,8.74,5.23A32.63,32.63,0,0,0,1497.15,902.26Z"/><path class="cls-25" d="M1504.77,905.84a40.76,40.76,0,0,1-7.62-3.58,32.63,32.63,0,0,1-1.46-11c1.54.61,3.14,1.17,4.86,1.68A27.74,27.74,0,0,0,1504.77,905.84Z"/><path class="cls-26" d="M1547.42,899a26.92,26.92,0,0,1-8.89,13h0c-4.14-.35-8.08-.75-11.79-1.24a104.06,104.06,0,0,1-21.93-4.89h0a27.74,27.74,0,0,1-4.22-12.88,131.06,131.06,0,0,0,23.62,4.3C1531.28,898,1539.06,898.55,1547.42,899Z"/><path class="cls-26" d="M1569.91,899.83l-.87,11.91c-.33.63-.69,1.24-1.06,1.83-8.64-.3-16.78-.67-24.33-1.23-1.74-.1-3.45-.23-5.12-.37a26.92,26.92,0,0,0,8.89-13C1554.53,899.32,1562.05,899.58,1569.91,899.83Z"/><path class="cls-25" d="M1640.73,903.26l-.71,9.67c-.49.19-1,.39-1.45.61a26.68,26.68,0,0,0-4.7,2.74c-19.91-1.29-38.88-1.8-56.19-2.38a22.32,22.32,0,0,0-1.9-2.3l.85-11.54c17.66.56,36.87,1.18,56.9,2.66C1636,902.89,1638.34,903.07,1640.73,903.26Z"/><path class="cls-25" d="M1754.93,924.09c-5.87.11-12.24,0-19-.28-.28-.56-.57-1.12-.9-1.65l0-.06A24.48,24.48,0,0,0,1733,919c-.19-.28-.4-.55-.61-.83l-.48-.58a21.51,21.51,0,0,0-14.86-7.74,22,22,0,0,0-17.1,6.73c-.36.35-.71.73-1,1.11a27.22,27.22,0,0,1-5.43,3.33c-8.26-.67-16.83-1.39-25.66-2.12l-.2-.13a29.17,29.17,0,0,0-3.49-2.88l-.48-.46.76-10.24c34,2.83,63.93,5.49,86.26,4.78A27.86,27.86,0,0,0,1754.93,924.09Z"/><path class="cls-26" d="M1799.06,907.23v0c-1.5,6.75-7.16,11.06-16.15,13.64-7.28,2.06-16.75,3-28,3.2a27.86,27.86,0,0,1-4.21-14.13c17.09-.56,29.69-3.12,36.16-9.12a14.78,14.78,0,0,0,4.82-10.12c0-.42.06-.84.08-1.25A27.37,27.37,0,0,1,1799.06,907.23Z"/></g><path class="cls-27" d="M1799.43,904.79a13.8,13.8,0,0,1-.37,2.44,27.37,27.37,0,0,0-7.28-17.76,102.6,102.6,0,0,0-9.6-49.69C1794.74,859.35,1801.13,881.62,1799.43,904.79Z"/><path id="Top" class="cls-18" d="M1799.57,902.88c-2.15,29.24-71.77,18.34-158.17,12s-157.51,3-154.72-35c5-68.57,79.17-119,165.57-112.67S1804.61,834.3,1799.57,902.88Z"/><path id="Top_skygge" data-name="Top skygge" class="cls-18" d="M1799.57,902.87c-2.15,29.24-71.76,18.34-158.17,12-82.85-6.09-151.62,2.32-154.68-30.53,20.54,16.22,79,11.48,147,16.47,86.41,6.35,156,17.25,158.17-12a102.54,102.54,0,0,0-9.52-50.94C1794.88,857.43,1801.27,879.7,1799.57,902.87Z"/><path class="cls-28" d="M1592.89,792.88h0a2.63,2.63,0,0,1-3-2.36l-1.1-7.79a2.91,2.91,0,0,1,2.19-3.32h0a2.62,2.62,0,0,1,3,2.36l1.11,7.79A2.92,2.92,0,0,1,1592.89,792.88Z"/><path class="cls-28" d="M1556.94,810.18h0a2.9,2.9,0,0,1-1.73-3.58l2.12-7.58a2.63,2.63,0,0,1,3.28-1.95h0a2.91,2.91,0,0,1,1.73,3.58l-2.12,7.58A2.63,2.63,0,0,1,1556.94,810.18Z"/><path class="cls-28" d="M1735.18,824.07h0a2.62,2.62,0,0,1-3-2.36l-1.11-7.79a2.92,2.92,0,0,1,2.19-3.32h0a2.63,2.63,0,0,1,3,2.36l1.1,7.79A2.91,2.91,0,0,1,1735.18,824.07Z"/><path class="cls-28" d="M1654.89,808.71h0a2.91,2.91,0,0,1-1.73-3.58l2.12-7.58a2.64,2.64,0,0,1,3.28-2h0a2.92,2.92,0,0,1,1.74,3.58l-2.13,7.58A2.64,2.64,0,0,1,1654.89,808.71Z"/><path class="cls-28" d="M1602.85,818.68h0a2.83,2.83,0,0,1-2-3.37l1.44-7.76a2.69,2.69,0,0,1,3.1-2.29h0a2.85,2.85,0,0,1,2,3.37l-1.45,7.76A2.68,2.68,0,0,1,1602.85,818.68Z"/><path class="cls-28" d="M1629.25,789h0a2.84,2.84,0,0,1-2.18-3.27l1.13-7.82a2.71,2.71,0,0,1,3-2.44h0a2.82,2.82,0,0,1,2.18,3.26l-1.12,7.82A2.74,2.74,0,0,1,1629.25,789Z"/><path class="cls-28" d="M1703.09,803.35h0a2.91,2.91,0,0,1-1.73-3.58l2.12-7.58a2.64,2.64,0,0,1,3.28-2h0a2.91,2.91,0,0,1,1.73,3.58l-2.12,7.58A2.64,2.64,0,0,1,1703.09,803.35Z"/><path class="cls-28" d="M1681,792.45h0a2.58,2.58,0,0,1-3.17-2.07l-1.69-7.66a3,3,0,0,1,1.93-3.51h0a2.58,2.58,0,0,1,3.16,2.08l1.7,7.65A3,3,0,0,1,1681,792.45Z"/><g id="ojne"><g id="Hojre_oje" data-name="Hojre oje"><ellipse class="cls-19" cx="1612.15" cy="854.31" rx="23.49" ry="21.36" transform="translate(641.98 2399.51) rotate(-85.8)"/><ellipse class="cls-6" cx="1612.29" cy="852.39" rx="23.49" ry="21.36" transform="translate(644.02 2397.88) rotate(-85.8)"/><ellipse class="cls-29" cx="1616.91" cy="854.84" rx="12.33" ry="11.2" transform="translate(645.86 2404.75) rotate(-85.8)"/><ellipse class="cls-6" cx="1613.09" cy="854.56" rx="4.84" ry="4.4" transform="translate(642.6 2400.68) rotate(-85.8)"/><path class="cls-30" d="M1608.09,875.48c-10.5-2.14-18-12.64-17.1-24.65.77-10.47,7.66-18.87,16.49-21.24-7.91,3.22-13.84,11.29-14.56,21.1C1592.08,862.13,1598.58,872.23,1608.09,875.48Z"/></g><g id="ventre_oje" data-name="ventre oje"><ellipse class="cls-19" cx="1676.15" cy="859.02" rx="23.49" ry="21.36" transform="matrix(0.07, -1, 1, 0.07, 696.6, 2467.7)"/><ellipse class="cls-6" cx="1676.29" cy="857.1" rx="23.49" ry="21.36" transform="translate(698.64 2466.06) rotate(-85.8)"/><ellipse class="cls-29" cx="1671.37" cy="858.85" rx="12.33" ry="11.2" transform="translate(692.34 2462.77) rotate(-85.8)"/><ellipse class="cls-6" cx="1675.19" cy="859.13" rx="4.84" ry="4.4" transform="translate(695.59 2466.84) rotate(-85.8)"/><path class="cls-30" d="M1677.08,880.55c10.7-.58,19.63-9.88,20.52-21.88.77-10.47-4.82-19.8-13.21-23.43,7.35,4.35,12,13.19,11.32,23C1694.87,869.68,1687,878.73,1677.08,880.55Z"/></g></g><ellipse class="cls-31" cx="1641.92" cy="887.15" rx="16.23" ry="14.76" transform="translate(636.82 2459.63) rotate(-85.8)"/><circle class="cls-6" cx="562.48" cy="427.4" r="32"/><circle class="cls-6" cx="489.98" cy="453.9" r="14.5"/><ellipse class="cls-6" cx="625" cy="337" rx="45" ry="31"/><ellipse class="cls-6" cx="1089.85" cy="423.63" rx="403.26" ry="236.8"/><path class="cls-32" d="M195.48,702.23c-2.95-10.53-60-7.58-102,5.08-14.66,4.41-21.89,8.33-22,12.68-.17,7.17,19,12.7,22,13.53,38.42,10.68,76.59-11.49,83-15.22C188.3,711.43,196.69,706.56,195.48,702.23Z"/><path class="cls-32" d="M407.24,736l-11.38-21.88a1.55,1.55,0,0,1,0-1.45l80.58-149.22a.54.54,0,0,0,.05-.11c.58-1.33,12.28-27.85,24-24,12,4,11,8.14,10,12-.86,3.18-14.9,19.7-21.19,25.77a1.54,1.54,0,0,0,1.87,2.43l.09-.05a1.52,1.52,0,0,0,.4-.36l20.83-25.79c6.71-7.54,15.1.79,18,4a3.16,3.16,0,0,1,0,3c-24.23,29.12-50.68,64.32-52,65.94l-.09.13L409.91,736.11A1.54,1.54,0,0,1,407.24,736Z"/><path class="cls-33" d="M204,662.9c-10.83,22.77-43.08,94.63-52,139-12,59.6-27.61,137.35,17,196,6.86,9,4.18-6.69,94,54,18.5,12.5,15,5,117-67a78.9,78.9,0,0,0,16.58-15.66C441.48,919.4,476,741.9,381,659.9,370.88,651.19,365.62,654.06,204,662.9Z"/><ellipse class="cls-8" cx="331.98" cy="308.4" rx="30.5" ry="24"/><path class="cls-34" d="M312.48,290.4c-10.58-13.61-1.27-40,10-55,13.33-17.75,32.32-23.49,48-28,10.94-3.14,29.64-7.15,68-4,40.13,3.3,47.54,10,111,19,23.34,3.32,36.91,4.49,54,2,25.38-3.69,38.6-12.53,41-9,3.73,5.49-21.29,36.85-58,55-11.51,5.69-22.83,9.43-101,17-72.88,7.06-39.48,1.54-104,7C336.25,298.23,320.63,300.88,312.48,290.4Z"/><path class="cls-32" d="M126.48,525.4c-14.16,10.41-21.62,21.9-23.78,33.77-7.17,39.39,51.7,81.7,88.9,99.86,42.25,20.62,80.42,21.36,89.88,21.37,12.13,0,114.31-1.77,159.58-76.82,13-21.55,20.42-47.51,20.42-77.68,0-100.79-79.24-173.23-176-182.5C118.48,327.4,209.48,464.4,126.48,525.4Z"/><ellipse cx="354.98" cy="511.69" rx="39.5" ry="57.29"/><circle class="cls-6" cx="362.19" cy="526.17" r="12.66"/><circle class="cls-6" cx="334.57" cy="493.22" r="22.31"/><ellipse cx="241.98" cy="511.69" rx="39.5" ry="57.29"/><circle class="cls-6" cx="259.19" cy="524.17" r="12.66"/><circle class="cls-6" cx="224.57" cy="491.22" r="22.31"/><ellipse class="cls-4" cx="412.48" cy="569.03" rx="26" ry="16.63"/><ellipse class="cls-4" cx="169.48" cy="569.03" rx="26" ry="16.63"/><path class="cls-34" d="M172.31,402.79,179,427.9l28.59-47.7L216,403.9l38.88-27.49h0a19.65,19.65,0,0,0,31.86,15.34l11.76-9.33L309,416.9l30.9-14.74L358,427.9h28c26-32,0-59,0-59l-16-37-37-11H230s27-7-22,0S172.31,402.79,172.31,402.79Z"/><path class="cls-34" d="M395,348.9c-9.53-8.35-24.09-18.73-27-16s8.88,13.67,16,35c4.94,14.78,5.29,28.85,6,57s-1.19,36.72,5,41c8,5.51,23.48.05,32-9,15-15.94,8-42.58,5-54C424.58,374.83,406,358.54,395,348.9Z"/><path d="M250.3,613.07c36.8,55.08,86,5.63,81.15-27.66"/><circle class="cls-35" cx="290.98" cy="800.9" r="64.5"/><path d="M294,809.91l53.91-36.18c1.6-1.07.1-3.67-1.51-2.59l-53.92,36.18c-1.59,1.07-.09,3.67,1.52,2.59Z"/><path d="M295.57,863.59l-1.23-127a1.5,1.5,0,0,0-3,0l1.23,127a1.5,1.5,0,0,0,3,0Z"/><path d="M293,807l-57.58-37.6c-1.62-1.06-3.13,1.54-1.51,2.59l57.57,37.6c1.62,1.06,3.13-1.53,1.52-2.59Z"/><path d="M223,897l-.74,3.53h-2l3-12.88h2.6l3.07,12.88h-2.1l-.75-3.53Zm2.73-1.75c-.57-2.7-1-4.57-1.18-5.73h0c-.16,1.16-.61,3.22-1.14,5.73Z"/><path d="M230.15,893.79c0-2,0-2.54,0-3H232a7.41,7.41,0,0,1,.07,1.11,2.26,2.26,0,0,1,2.21-1.29c1.53,0,2.5.94,2.5,3v7h-2V894c0-1-.26-1.71-1.24-1.71s-1.47.61-1.47,2.26v6h-2Z"/><path d="M238.9,890.76h2v9.77h-2Zm0-3.74h2v2.16h-2Z"/><path d="M243,893.69c0-1.86,0-2.49,0-2.93h1.89a10.25,10.25,0,0,1,.06,1.08,2.29,2.29,0,0,1,2.16-1.25,1.9,1.9,0,0,1,2,1.37,2.52,2.52,0,0,1,2.38-1.37c1.33,0,2.44.67,2.44,2.9v7H252V893.8c0-.85-.27-1.51-1.16-1.51s-1.36.83-1.36,2.07v6.17h-2v-6.7c0-1-.33-1.53-1.14-1.53-1,0-1.39.77-1.39,2.14v6.09h-2Z"/><path d="M262,898.53c0,.53,0,1.6.08,2h-1.8a6.57,6.57,0,0,1-.09-1A2.3,2.3,0,0,1,258,900.7c-1.88,0-2.58-1.49-2.58-2.88,0-1.92,1.31-3.18,3.82-3.18a7.25,7.25,0,0,1,.87,0v-1.15c0-.63-.09-1.4-1.19-1.4s-1.2.76-1.26,1.4h-1.88c0-1.42.71-2.93,3.22-2.93,2,0,3,.95,3,2.79Zm-1.89-2.4a4.66,4.66,0,0,0-.81,0c-1.43,0-2,.68-2,1.57a1.26,1.26,0,0,0,1.25,1.43c1.25,0,1.54-.91,1.54-2.57Z"/><path d="M264.15,900.53V887h2v13.51Z"/><path d="M269.47,897.62a1.41,1.41,0,0,0,1.42,1.55,1.12,1.12,0,0,0,1.26-1.21c0-.79-.38-1.2-1.58-1.65-2.2-.82-2.78-1.6-2.78-3a2.7,2.7,0,0,1,3-2.73,2.77,2.77,0,0,1,3.07,2.95H272c0-.38-.07-1.42-1.22-1.42a1,1,0,0,0-1.06,1.06c0,.68.35,1,1.58,1.45,2,.76,2.8,1.51,2.8,3.12,0,1.88-1.17,3-3.3,3a2.93,2.93,0,0,1-3.27-3.08Z"/><path d="M281,897l-.74,3.53h-2l3-12.88h2.6L287,900.53h-2.11l-.74-3.53Zm2.74-1.75c-.57-2.7-1-4.57-1.18-5.73h-.06c-.16,1.16-.61,3.22-1.14,5.73Z"/><path d="M288.23,894.07c0-1.58,0-2.61,0-3.31h1.88c0,.2.05.62.05,1.65a2.56,2.56,0,0,1,2.57-1.81v2.2c-1.62,0-2.51.66-2.51,2.49v5.24h-2Z"/><path d="M295.42,896.12c0,1.47.21,2.94,1.56,2.94a1.44,1.44,0,0,0,1.46-1.44h1.9a3.23,3.23,0,0,1-3.39,3.09c-3.07,0-3.5-2.65-3.5-5.11,0-3.09,1.14-5,3.55-5,2.75,0,3.41,2.12,3.41,4.63,0,.29,0,.71,0,.9Zm3-1.45c0-1.2-.19-2.44-1.46-2.44-1.46,0-1.54,1.74-1.55,2.44Z"/><path d="M305.72,887.65h6.38v1.76h-4.39v3.65h4.13v1.73h-4.13v5.74h-2Z"/><path d="M313.15,894.07c0-1.58,0-2.61,0-3.31H315c0,.2.05.62.05,1.65a2.55,2.55,0,0,1,2.57-1.81v2.2c-1.63,0-2.52.66-2.52,2.49v5.24h-2Z"/><path d="M318.87,890.76h2v9.77h-2Zm0-3.74h2v2.16h-2Z"/><path d="M324.47,896.12c0,1.47.21,2.94,1.56,2.94a1.44,1.44,0,0,0,1.46-1.44h1.9a3.23,3.23,0,0,1-3.39,3.09c-3.07,0-3.5-2.65-3.5-5.11,0-3.09,1.14-5,3.56-5,2.74,0,3.4,2.12,3.4,4.63,0,.29,0,.71,0,.9Zm3-1.45c0-1.2-.2-2.44-1.47-2.44-1.46,0-1.54,1.74-1.55,2.44Z"/><path d="M331.07,893.79c0-2,0-2.54,0-3H333a9.5,9.5,0,0,1,.06,1.11,2.28,2.28,0,0,1,2.21-1.29c1.54,0,2.51.94,2.51,3v7h-2V894c0-1-.26-1.71-1.23-1.71s-1.47.61-1.47,2.26v6h-2Z"/><path d="M346.4,887v10.86c0,1.08,0,2.08,0,2.65h-1.9c0-.25-.06-.8-.06-1.14a2.07,2.07,0,0,1-2.21,1.31c-2.05,0-2.89-1.81-2.89-5.15,0-3,1-5,3.24-5,1.13,0,1.63.45,1.83.86V887Zm-5,8.56c0,2.45.49,3.43,1.52,3.43,1.29,0,1.59-1,1.59-3.49s-.25-3.23-1.49-3.23C342,892.29,341.37,893.09,341.37,895.58Z"/><path d="M349.7,897.62a1.42,1.42,0,0,0,1.42,1.55,1.12,1.12,0,0,0,1.26-1.21c0-.79-.38-1.2-1.57-1.65-2.21-.82-2.78-1.6-2.78-3s.82-2.73,3-2.73a2.77,2.77,0,0,1,3.06,2.95h-1.9c0-.38-.07-1.42-1.21-1.42a1,1,0,0,0-1.07,1.06c0,.68.35,1,1.58,1.45,2,.76,2.81,1.51,2.81,3.12,0,1.88-1.17,3-3.3,3a2.94,2.94,0,0,1-3.28-3.08Z"/><path d="M257.46,922.53V909.67h2.61c2.66,7.11,3.17,8.46,3.33,9.09h0c-.1-1.55-.11-3.44-.11-5.54v-3.55h2.06v12.86h-2.51c-2.74-7.58-3.23-8.94-3.4-9.53h0c.1,1.58.1,3.47.1,5.78v3.75Z"/><path d="M275.49,916c0,4.7-1.27,6.75-4.24,6.75-2.76,0-4.11-2-4.11-6.78s1.57-6.5,4.22-6.5S275.49,911.54,275.49,916Zm-6,0c0,3,.46,4.87,1.81,4.87s1.82-1.69,1.82-4.86c0-3-.43-4.55-1.82-4.55S269.5,913.09,269.5,916Z"/><path d="M278.76,911.69H276v-2h7.8v2h-2.74v10.84h-2.31Z"/><path d="M288.58,909.67h6.61v2h-4.32V915h4.07v2h-4.07v5.56h-2.29Z"/><path d="M304.7,916c0,4.7-1.28,6.75-4.24,6.75-2.77,0-4.12-2-4.12-6.78s1.57-6.5,4.22-6.5C303.36,909.47,304.7,911.54,304.7,916Zm-6,0c0,3,.46,4.87,1.81,4.87s1.83-1.69,1.83-4.86c0-3-.44-4.55-1.83-4.55S298.7,913.09,298.7,916Z"/><path d="M314.52,916c0,4.7-1.28,6.75-4.24,6.75-2.77,0-4.12-2-4.12-6.78s1.57-6.5,4.22-6.5C313.18,909.47,314.52,911.54,314.52,916Zm-6,0c0,3,.46,4.87,1.81,4.87s1.83-1.69,1.83-4.86c0-3-.43-4.55-1.83-4.55S308.52,913.09,308.52,916Z"/><path d="M316.32,909.67h3.35c3.31,0,4.59,2.12,4.59,6.16,0,4.34-1.23,6.7-4.77,6.7h-3.17Zm2.32,11h.83c1.8,0,2.41-1.35,2.41-4.8,0-3-.55-4.25-2.4-4.25h-.84Z"/><path class="cls-3" d="M830.27,895.36c44.43,90.25-70.61,172-146.88,172s-185.6-94.9-138.1-183.74c63.78-119.31,61.83-159.76,138.1-159.76S743.66,719.45,830.27,895.36Z"/><path class="cls-36" d="M702.12,667.14l-7-2.93c-8.94,0-14.63,10.72-17,19.9L674,711.72c0,6.73-4,16.86,12.29,12.18h3.51Z"/><path class="cls-37" d="M704.23,725.68a84.38,84.38,0,0,1-17.87-2.1c2.2-3.41,13.85-20.8,26.61-26.23,8.39-3.57,20.46-4.32,29.1-4.32,4.37,0,7.83.19,9.34.3A102.46,102.46,0,0,1,723,721.24c-4.46,3-10.79,4.44-18.81,4.44Z"/><path d="M742.07,693.53c3.67,0,6.69.14,8.45.24a102.85,102.85,0,0,1-27.76,27.05c-4.37,2.9-10.61,4.37-18.53,4.37a83.7,83.7,0,0,1-17.06-1.94c2.93-4.46,14-20.33,26-25.44,8.31-3.54,20.31-4.28,28.9-4.28m0-1c-8.58,0-20.79.74-29.29,4.36-14.43,6.13-27.21,27-27.21,27a83.33,83.33,0,0,0,18.66,2.29c6.66,0,13.81-1.05,19.08-4.53,19.6-13,29-28.77,29-28.77s-4.23-.36-10.21-.36Z"/><line class="cls-38" x1="691.71" y1="724.2" x2="751.98" y2="693.18"/><path class="cls-38" d="M729.72,693.6c-4.25,1.13,1.92,18.41,6.32,18"/><path class="cls-38" d="M720.11,695c-5.16,3.12,1.65,20.44,10.22,21"/><path class="cls-38" d="M703.72,703.08c-4,4.58,1.54,22.94,11.4,21.7"/><path class="cls-38" d="M696.49,709.94c-1.64,3.72.85,14.73,4.72,15.82"/><path class="cls-38" d="M712.78,697.28c-5.13,3.17,2.61,22.4,11.39,23.45"/><ellipse class="cls-4" cx="584.49" cy="981.09" rx="25.16" ry="16.09"/><ellipse class="cls-4" cx="793.4" cy="988.7" rx="25.16" ry="16.09"/><ellipse cx="644.48" cy="929.89" rx="38.33" ry="55.59"/><ellipse cx="750.39" cy="929.89" rx="38.33" ry="55.59"/><circle class="cls-6" cx="651.2" cy="943.93" r="12.29"/><circle class="cls-6" cx="762.97" cy="945.69" r="12.29"/><circle class="cls-6" cx="730.79" cy="914.09" r="21.65"/><circle class="cls-6" cx="624.87" cy="909.99" r="21.65"/><path d="M663.49,997.18c0,42.13,57.94,33.36,70.22,14.05"/><path class="cls-33" d="M1430.45,1078c-27.77,2.64-58.89,1.89-83.41-13-9.19-5.59-17.69-13.19-22.69-23.2a58.63,58.63,0,0,1-5.74-31.77c1-11.86,5.65-23.19,11.77-33.08a92.47,92.47,0,0,1,25.09-26.34c21.79-15.51,48.41-21,74.54-18.57s52.32,12.34,74.42,27.69c9.23,6.41,18.22,13.76,25.29,22.66,5.68,7.14,11,15.64,12.24,25a35.87,35.87,0,0,1-5.29,24.1c-5.37,8.79-14,15.3-22.57,20.66C1489.25,1067.74,1459.21,1074.9,1430.45,1078Z"/><path class="cls-33" d="M1428.51,932.17a162,162,0,0,1,40.2,9.67,179.85,179.85,0,0,1,34.17,18c9.23,6.48,18,13.72,25.25,22.62,5.65,7.27,10.83,15.47,12.2,24.94,1,9-.8,16.37-5.28,24.05-5.66,8.84-14,15.17-22.53,20.62-11.53,7.12-24.06,12.14-36.81,16.26a250.11,250.11,0,0,1-46.76,9.59,196.23,196.23,0,0,1-46.65-.7c-12.76-2.11-25.36-5.6-36.68-12.33-9.21-5.73-17.51-13.12-22.65-23.16a59.83,59.83,0,0,1-5.73-31.69c1.11-11.92,5.66-23,11.73-33A96.86,96.86,0,0,1,1354,950.74,108.49,108.49,0,0,1,1388.25,935m40.7,143.15c28.74-3.13,58.62-10.37,83.74-25.91,15.16-9.39,34-26.4,30.78-46.78-3.27-20.84-24.67-35-40.49-45.83-22.13-15.21-48.06-25.24-74.47-27.73h0c-47.17-4.46-106,22.74-111.53,78.13m28.48,55.09"/><path class="cls-2" d="M1403.65,931.94c0,67.88-31.44,122.81-70.28,122.81L1319.68,1033l-2.57-24,3.65-15.71,8.21-17,11.9-15.62L1354,950.18l18.13-9.87,17.41-6.14a39.15,39.15,0,0,1,13-2.23Z"/><path class="cls-33" d="M1481.44,947.81l-35.77-8.87,6.5-38.27,12.56,6.75c4.89,2.63,13.91,34.64,17,39.28"/><polygon class="cls-33" points="1530.35 981.35 1559.98 951.2 1545.26 990.58 1573.48 1011.73 1535.38 1007.71 1530.35 981.35"/><path class="cls-2" d="M1428.16,923.18q.88,19.64,1.75,39.27"/><ellipse cx="1349.5" cy="996.97" rx="16.38" ry="23.76"/><circle class="cls-6" cx="1342.12" cy="1002.97" r="5.25"/><circle class="cls-6" cx="1356.38" cy="990.97" r="9.25"/><path class="cls-39" d="M1320.07,1033.11c5.5-4.63,14.71-2.73,20.59,4.25"/><ellipse class="cls-4" cx="1376.39" cy="1021.36" rx="10.76" ry="6.88"/><path d="M989.87,245.48a11.09,11.09,0,0,0-.45,2.87q0,.63-.12,2c-.09.88-.13,1.53-.13,1.95q0,2.15-.22,6.36t-.23,6.36c0,1.1.09,2.74.25,4.92s.25,3.82.25,4.92a2.8,2.8,0,0,1-.88,2.1,3,3,0,0,1-2.18.85,3.39,3.39,0,0,1-2.29-.84,2.63,2.63,0,0,1-1-2.05q0-1.65-.15-4.92c-.1-2.19-.14-3.83-.14-4.92,0-.86,0-1.61,0-2.27a67.36,67.36,0,0,0-8.71,1.1c-2.88.52-5.75,1.06-8.63,1.6,0,1-.13,2.53-.31,4.75-.15,2-.23,3.56-.23,4.81a2.54,2.54,0,0,1-.87,2,3.15,3.15,0,0,1-2.18.79,3,3,0,0,1-2.18-.83,2.67,2.67,0,0,1-.88-2q0-2.2.39-6.62t.4-6.62q0-2.81.13-8.45c.09-3.77.14-6.58.14-8.46a2.73,2.73,0,0,1,.87-2,3.07,3.07,0,0,1,2.18-.83,3,3,0,0,1,2.18.85,2.83,2.83,0,0,1,.88,2.09c0,1.14,0,2.85-.13,5.14s-.12,4-.12,5.13c0,.37-.05,1.09-.16,2.15a21.79,21.79,0,0,0-.11,2.27l8.63-1.61a64.18,64.18,0,0,1,8.71-1q.09-1.52.29-8.17a10.74,10.74,0,0,1,1.06-4q1.26-2.79,2.85-2.79a3.13,3.13,0,0,1,2.11.79,2.72,2.72,0,0,1,1,2.14A2.59,2.59,0,0,1,989.87,245.48Z"/><path d="M1005.1,277.81a14.21,14.21,0,0,1-8.78-2.56,9.4,9.4,0,0,1-3.78-8,15.44,15.44,0,0,1,3-9.61,10.7,10.7,0,0,1,9-4.36,14.75,14.75,0,0,1,6.49,1.26,5.44,5.44,0,0,1,3.4,5.17c0,1.65-.92,3.1-2.77,4.38a37,37,0,0,1-5.05,2.56L999,270a6.82,6.82,0,0,0,2.61,1.76,9.69,9.69,0,0,0,3.5.58,9.88,9.88,0,0,0,5.1-1.23,6.4,6.4,0,0,1,3-1.11,2,2,0,0,1,2.33,2.27q0,2.57-3.75,4.18A16.74,16.74,0,0,1,1005.1,277.81Zm-.61-19.07a5,5,0,0,0-3.57,1.39,9.72,9.72,0,0,0-2.38,4.18l5.05-2.18a35.59,35.59,0,0,0,4.83-2.54A7.9,7.9,0,0,0,1004.49,258.74Z"/><path d="M1041.82,257.8q-2.44,5.1-7.75,16-2.86,5.87-4.38,9.73c-.31.92-.81,2.3-1.48,4.13a2.9,2.9,0,0,1-2.87,2.11,3.35,3.35,0,0,1-2.25-.83,2.66,2.66,0,0,1-1-2.09q0-2.08,4.77-12.38-2.48-4.86-7.84-14.35l-1.1-1.73a3.76,3.76,0,0,1-.61-1.88,2.87,2.87,0,0,1,1-2.14,3.13,3.13,0,0,1,2.22-.92,2.73,2.73,0,0,1,2.31,1.1,85.78,85.78,0,0,1,7.44,12.78q2.4-5.32,2.92-6.42,1.59-3.35,3.12-5.89a3,3,0,0,1,2.65-1.61,3.34,3.34,0,0,1,2.25.85,2.66,2.66,0,0,1,1,2.09A3.29,3.29,0,0,1,1041.82,257.8Z"/><path d="M1087.19,257.8q-2.45,5.1-7.75,16-2.87,5.87-4.38,9.73c-.31.92-.8,2.3-1.48,4.13a2.9,2.9,0,0,1-2.87,2.11,3.35,3.35,0,0,1-2.25-.83,2.66,2.66,0,0,1-1-2.09q0-2.08,4.76-12.38-2.48-4.86-7.84-14.35l-1.1-1.73a3.76,3.76,0,0,1-.61-1.88,2.87,2.87,0,0,1,1-2.14,3.13,3.13,0,0,1,2.22-.92,2.73,2.73,0,0,1,2.31,1.1,85.78,85.78,0,0,1,7.44,12.78q2.4-5.32,2.92-6.42,1.59-3.35,3.12-5.89a3,3,0,0,1,2.65-1.61,3.34,3.34,0,0,1,2.25.85,2.67,2.67,0,0,1,1,2.09A3.32,3.32,0,0,1,1087.19,257.8Z"/><path d="M1099.55,278.1a10,10,0,0,1-7.15-2.85,11.47,11.47,0,0,1-3.43-8.33,13.68,13.68,0,0,1,2.72-8.85,11.16,11.16,0,0,1,9.5-4.59,8.42,8.42,0,0,1,7.14,3.6,13.13,13.13,0,0,1,2.38,8,14.29,14.29,0,0,1-2.79,8.89A10,10,0,0,1,1099.55,278.1Zm1.34-18.69a4.87,4.87,0,0,0-4.35,2.52,9.11,9.11,0,0,0-1.35,5,5.4,5.4,0,0,0,1.53,4.13,4,4,0,0,0,2.83,1.14,4.85,4.85,0,0,0,3.39-1.32,5.86,5.86,0,0,0,1.75-4.2C1104.88,261.85,1103.62,259.43,1100.89,259.41Z"/><path d="M1134.16,263.79c0,1,0,2.52,0,4.54s0,3.53,0,4.54c0,.31,0,.78.07,1.4s.08,1.09.08,1.4a2.66,2.66,0,0,1-.91,2.08,3.18,3.18,0,0,1-2.23.82,2.85,2.85,0,0,1-2.72-1.68,17.23,17.23,0,0,1-6,1.05,10,10,0,0,1-5.37-1.34,6.19,6.19,0,0,1-2.92-4.49,65.65,65.65,0,0,1-.88-10,37.83,37.83,0,0,1,.68-6.64,2.77,2.77,0,0,1,3-2.52,3.23,3.23,0,0,1,2.22.81,2.61,2.61,0,0,1,.92,2.06,21.72,21.72,0,0,1-.32,3.08,22.31,22.31,0,0,0-.33,3.19c0,2.1.07,3.93.22,5.5a21.82,21.82,0,0,0,.64,3.89,7.08,7.08,0,0,0,1.09.38,4.08,4.08,0,0,0,1,.13,23.54,23.54,0,0,0,5.48-.72c0-1.15,0-2.46,0-3.93,0-1.75,0-3,0-3.77a62.77,62.77,0,0,1,.43-7.95,2.74,2.74,0,0,1,3-2.67,3.28,3.28,0,0,1,2.27.83,2.48,2.48,0,0,1,.88,2.09C1134.3,261.59,1134.16,264.23,1134.16,263.79Z"/><path d="M1141.48,278.26a3.25,3.25,0,0,1-2.51-1.44,4,4,0,0,1-1.06-2.47,2.46,2.46,0,0,1,.92-2,3.12,3.12,0,0,1,2.09-.79,3.21,3.21,0,0,1,2.49,1.44,4,4,0,0,1,1.06,2.45,2.51,2.51,0,0,1-.91,1.95A3,3,0,0,1,1141.48,278.26Zm.07-8.16a2.9,2.9,0,0,1-2.08-.78,2.62,2.62,0,0,1-.82-2c0-.58,0-1.45-.05-2.62s-.06-2-.06-2.61q0-3.11.06-9.3t.05-9.3a2.66,2.66,0,0,1,.83-2,3.11,3.11,0,0,1,4.14,0,2.66,2.66,0,0,1,.83,2v23.83a2.65,2.65,0,0,1-.82,2A2.9,2.9,0,0,1,1141.55,270.1Z"/><path d="M829.3,355.53a8.49,8.49,0,0,0-.34,2.76c0,.45,0,1.12,0,2s0,1.55,0,2q0,2.25-.39,6.69c-.26,3-.4,5.2-.4,6.7,0,1.13.09,2.84.25,5.12s.25,4,.25,5.14a2.14,2.14,0,0,1-.62,1.55,2.06,2.06,0,0,1-1.54.63,2.08,2.08,0,0,1-1.53-.63,2.14,2.14,0,0,1-.62-1.55c0-1.15-.09-2.87-.25-5.14s-.25-4-.25-5.12,0-2.21.11-3.33a58.36,58.36,0,0,0-9.5,1.15l-9.43,1.84c0,1.35-.14,3.26-.4,5.74a57.33,57.33,0,0,0-.41,5.76,2.18,2.18,0,0,1-.62,1.56,2.16,2.16,0,0,1-3.07,0,2.14,2.14,0,0,1-.62-1.56q0-2.38.39-7.11t.39-7.11c0-.82,0-2.07-.09-3.73s-.09-2.91-.09-3.75c0-1.18.08-3,.23-5.33s.22-4.15.22-5.34a2.16,2.16,0,0,1,.62-1.57,2.2,2.2,0,0,1,3.08,0,2.16,2.16,0,0,1,.62,1.57c0,1.2-.08,3-.24,5.38s-.24,4.18-.24,5.38l.14,5.68,9.64-1.82A59,59,0,0,1,824.4,368q.26-3.21.25-9.68a11.12,11.12,0,0,1,.56-3.46c.49-1.6,1.19-2.4,2.09-2.4a2.17,2.17,0,0,1,1.53.62,2,2,0,0,1,.67,1.56A3.19,3.19,0,0,1,829.3,355.53Z"/><path d="M845.54,388.21a12.67,12.67,0,0,1-8.22-2.54,9.55,9.55,0,0,1-3.44-7.86,16.35,16.35,0,0,1,2.83-9.79,9.6,9.6,0,0,1,8.22-4.32A12.9,12.9,0,0,1,851,365a5.06,5.06,0,0,1,2.89,4.76q0,2.25-2.53,4.09a35.91,35.91,0,0,1-4.77,2.52L838,380.39a8.26,8.26,0,0,0,3.14,2.81,9.57,9.57,0,0,0,4.37.94,13.81,13.81,0,0,0,3.64-.58c1.76-.5,2.9-1.14,3.41-1.94s1.06-1.21,1.64-1.21a2,2,0,0,1,1.4.6,1.88,1.88,0,0,1,.62,1.38q0,2.49-4,4.29A16.38,16.38,0,0,1,845.54,388.21Zm-.61-20.46a5.73,5.73,0,0,0-4.56,2.12,14.31,14.31,0,0,0-2.72,6.39l6.9-3.28a29.22,29.22,0,0,0,5.79-3.44A7.66,7.66,0,0,0,844.93,367.75Z"/><path d="M866,369.52l-.33,11.16c0,1.19-.06,2.92-.18,5.21-.15,1.5-.89,2.25-2.2,2.25-1.47,0-2.21-.76-2.21-2.29,0-1.81.09-4.53.25-8.16s.25-6.36.25-8.17q0-3.54.11-8.12c.08-3,.11-5.75.11-8.12a2.22,2.22,0,1,1,4.43,0c0,2.37,0,5.07-.11,8.12S866,367.16,866,369.52Z"/><path d="M882.4,388a19.34,19.34,0,0,1-4.95-.72l0,10.74a2.23,2.23,0,0,1-.62,1.62,2.11,2.11,0,0,1-1.58.62,2.13,2.13,0,0,1-1.59-.62A2.22,2.22,0,0,1,873,398l.06-9v-9c0-3.28-.15-6.26-.33-9l-.34-4.56a5.66,5.66,0,0,1,.58-2.69,2.11,2.11,0,0,1,2-1.33,2,2,0,0,1,1.47.62,2.08,2.08,0,0,1,.59,1.51q0,.21-.06.75c-.08.46-.13.89-.16,1.28a16.82,16.82,0,0,1,3.73-2,10,10,0,0,1,3.43-.66,7.1,7.1,0,0,1,6.74,4.08,18.5,18.5,0,0,1,1.69,8.56,12.11,12.11,0,0,1-2.61,8A9.11,9.11,0,0,1,882.4,388Zm1.54-19.47a7.46,7.46,0,0,0-3.72.92,15.51,15.51,0,0,0-3,2.38q.28,5.1.29,10.71a13.5,13.5,0,0,0,4.9.95,5,5,0,0,0,4.29-2.09,8.07,8.07,0,0,0,1.28-4.72,14.56,14.56,0,0,0-1-6.12A3.23,3.23,0,0,0,883.94,368.49Z"/><path d="M939.71,389a2,2,0,0,1-2.15-2q-.4-2.47-.81-7l-.76-7a15.31,15.31,0,0,0-.77-3c-.51-1.35-1.06-2-1.66-2a7.89,7.89,0,0,0-3.1,1.41,12.9,12.9,0,0,0-2.83,2.09c0,1.41,0,2.82.11,4.22l.68,6a51.74,51.74,0,0,1,.42,5.86,2.26,2.26,0,0,1-.61,1.63,2.11,2.11,0,0,1-1.59.64,2.09,2.09,0,0,1-1.58-.64,2.27,2.27,0,0,1-.62-1.63q0-2.71-.55-8c-.36-3.54-.55-6.22-.55-8a8.26,8.26,0,0,0-.67-3.7,11.17,11.17,0,0,0-3.19,2.33l-2.65,3a12.62,12.62,0,0,1-1.15,1.41c0,.9-.08,2.23-.24,4s-.25,3.05-.25,3.88a11.88,11.88,0,0,0,.21,1.89,12.06,12.06,0,0,1,.22,1.75,2,2,0,0,1-.69,1.55,2.3,2.3,0,0,1-1.61.63q-2.54,0-2.53-5.77,0-1.35.24-4c.17-1.78.25-3.12.25-4s-.07-2-.21-3.57-.22-2.79-.22-3.6c0-3.4.77-5.1,2.29-5.1a2.2,2.2,0,0,1,1.61.77,2.35,2.35,0,0,1,.73,1.66,12.87,12.87,0,0,1-.11,1.32,10.86,10.86,0,0,0-.11,1.38l0,2.35a13.37,13.37,0,0,1,3.44-4.34c1.51-1.3,2.8-1.95,3.86-1.95a4.85,4.85,0,0,1,4.85,3.51,8.18,8.18,0,0,1,2.94-2.46,8.88,8.88,0,0,1,3.91-.82q3.75,0,5.12,4a57.41,57.41,0,0,1,.92,6.31q.63,3.87,1.62,12.87a1.82,1.82,0,0,1-.6,1.53A2.33,2.33,0,0,1,939.71,389Z"/><path d="M957.41,388.21a12.71,12.71,0,0,1-8.22-2.54,9.58,9.58,0,0,1-3.43-7.86,16.35,16.35,0,0,1,2.83-9.79,9.6,9.6,0,0,1,8.22-4.32,12.85,12.85,0,0,1,6.08,1.26,5.05,5.05,0,0,1,2.9,4.76c0,1.5-.84,2.86-2.54,4.09a35.57,35.57,0,0,1-4.76,2.52l-8.58,4.06A8.24,8.24,0,0,0,953,383.2a9.63,9.63,0,0,0,4.37.94,13.69,13.69,0,0,0,3.64-.58c1.77-.5,2.91-1.14,3.42-1.94s1-1.21,1.64-1.21a2,2,0,0,1,1.4.6,1.88,1.88,0,0,1,.62,1.38q0,2.49-4,4.29A16.43,16.43,0,0,1,957.41,388.21Zm-.6-20.46a5.73,5.73,0,0,0-4.56,2.12,14.31,14.31,0,0,0-2.72,6.39l6.9-3.28a29.22,29.22,0,0,0,5.79-3.44A7.68,7.68,0,0,0,956.81,367.75Z"/><path d="M996,388.59a11,11,0,0,1-7.68-2.79,9.88,9.88,0,0,1-3.23-7.7,17.76,17.76,0,0,1,3-9.41q3.38-5.38,7.59-5.39a14,14,0,0,1,4.92,1c2.29.89,3.44,2,3.44,3.24a2.28,2.28,0,0,1-.56,1.51,1.75,1.75,0,0,1-1.4.67,1.7,1.7,0,0,1-1.13-.4l-.93-.77a7,7,0,0,0-4.34-1.06c-1.52,0-3,1.36-4.53,4.09a14,14,0,0,0-2.05,6.49,5.81,5.81,0,0,0,2,4.67,7.24,7.24,0,0,0,4.85,1.6,6.79,6.79,0,0,0,2.88-.72l2.6-1.39a2.53,2.53,0,0,1,1-.36,1.91,1.91,0,0,1,1.44.66,2.2,2.2,0,0,1,.6,1.52q0,1.64-3.45,3.16A13.05,13.05,0,0,1,996,388.59Z"/><path d="M1027,388.66c-.28,0-.8-.33-1.55-1A10,10,0,0,1,1024,386a27.55,27.55,0,0,1-3.8,1.76,8.25,8.25,0,0,1-2.74.6q-5.25,0-7.66-3c-1.51-1.85-2.27-4.7-2.27-8.53a12.9,12.9,0,0,1,3.74-9.3,12,12,0,0,1,8.93-3.86,11.37,11.37,0,0,1,4.38,1q3.06,1.26,3.06,3a1.54,1.54,0,0,1-.45,1.08,16,16,0,0,0-.35,2.8q-.12,2-.15,5a18.56,18.56,0,0,0,.39,4.41,33.1,33.1,0,0,0,1.41,3.95c.1.27.28.67.52,1.19l.13.38a1.93,1.93,0,0,1-.63,1.48A2.07,2.07,0,0,1,1027,388.66Zm-4.67-15.61a19.87,19.87,0,0,1,.12-2.1c.09-.76.21-1.56.38-2.42a12.69,12.69,0,0,0-1.43-.63,3.34,3.34,0,0,0-1-.2,7.78,7.78,0,0,0-6,2.84,10.76,10.76,0,0,0-1.23,12.08,4.49,4.49,0,0,0,3.91,1.84,7.73,7.73,0,0,0,3.66-.79,12.76,12.76,0,0,0,2.27-1.71A81.37,81.37,0,0,1,1022.37,373.05Z"/><path d="M1048.07,368c-.32,0-.69,0-1.11-.05s-.8,0-1.12,0-1.36.11-3,.34l.42,13.27,0,1,0,1.14q.09,4.92-2.36,4.92a2.27,2.27,0,0,1-1.56-.58,1.88,1.88,0,0,1-.66-1.46c0-.57,0-1.42.07-2.56s.06-2,.06-2.56l-.45-13.12c-1.09,0-2.75-.17-5-.38a2,2,0,0,1-2-2.23,2.31,2.31,0,0,1,.6-1.63,2,2,0,0,1,1.55-.66l4.72.39c0-.77,0-1.79-.1-3.07s-.1-2.21-.1-2.77a2.07,2.07,0,0,1,.65-1.56,2.2,2.2,0,0,1,1.59-.62c1.35,0,2.14,1.1,2.36,3.3,0,.55.07,1.22.07,2l0,1.3,0,1.39c1.86-.24,2.92-.36,3.19-.36a12.74,12.74,0,0,1,3.06.23,2,2,0,0,1,1.37,2.11,2.27,2.27,0,0,1-.62,1.63A2.09,2.09,0,0,1,1048.07,368Z"/><path d="M1064.87,388.59a11,11,0,0,1-7.68-2.79,9.85,9.85,0,0,1-3.24-7.7,17.76,17.76,0,0,1,3-9.41q3.38-5.38,7.6-5.39a14,14,0,0,1,4.92,1c2.29.89,3.43,2,3.43,3.24a2.28,2.28,0,0,1-.56,1.51,1.8,1.8,0,0,1-2.53.27l-.93-.77a7,7,0,0,0-4.33-1.06q-2.3,0-4.54,4.09a14.09,14.09,0,0,0-2,6.49,5.78,5.78,0,0,0,2,4.67,7.2,7.2,0,0,0,4.85,1.6,6.75,6.75,0,0,0,2.87-.72l2.61-1.39a2.5,2.5,0,0,1,1-.36,1.88,1.88,0,0,1,1.44.66,2.16,2.16,0,0,1,.61,1.52q0,1.64-3.46,3.16A13,13,0,0,1,1064.87,388.59Z"/><path d="M1097.14,388.57a2,2,0,0,1-2.08-1.71,38,38,0,0,1-1-5.23,44.92,44.92,0,0,1-.4-5.35c0-.39,0-1,0-1.77s.06-1.39.06-1.78q0-4.22-2.11-4.22a6.65,6.65,0,0,0-5.1,2.58,31.53,31.53,0,0,0-3.14,5.06q0,8.55-.72,10.13a2.06,2.06,0,0,1-2,1.39,2.32,2.32,0,0,1-1.61-.63,2,2,0,0,1-.7-1.53,4,4,0,0,1,.2-1,18.13,18.13,0,0,0,.25-3.28l.07-3.33.06-16.51c.11-1.85.16-3.1.16-3.75a10.87,10.87,0,0,0-.21-2.17,10.44,10.44,0,0,1-.22-2.12,2,2,0,0,1,.66-1.56,2.22,2.22,0,0,1,1.59-.62,2,2,0,0,1,2.16,2,24.28,24.28,0,0,1,.36,3.93c0,1.57-.06,3.21-.16,4.92s-.13,3.27-.11,4.92l0,2a13.68,13.68,0,0,1,3.94-3.69,8.68,8.68,0,0,1,4.46-1.22c2.48,0,4.19.8,5.12,2.42a13.1,13.1,0,0,1,1.12,5.75l.18,4.29.45,4.67a46.41,46.41,0,0,0,.77,4.63,2.94,2.94,0,0,1,.09.65,2,2,0,0,1-.68,1.54A2.33,2.33,0,0,1,1097.14,388.57Z"/><path d="M1133.82,369.88a1.86,1.86,0,0,1-1.73-.83,7.79,7.79,0,0,1-.58-2.43c-1.12.29-2.85.81-5.19,1.58-2.41.95-3.62,2.14-3.64,3.54a6.75,6.75,0,0,0,1.33.36,21.8,21.8,0,0,1,7.68,2.54,7.63,7.63,0,0,1,3.66,6.83,6,6,0,0,1-3.17,5.53,13.17,13.17,0,0,1-6.65,1.52,16.23,16.23,0,0,1-5.61-1q-3.47-1.26-3.46-3.51a2.11,2.11,0,0,1,.71-1.57,2.24,2.24,0,0,1,1.6-.67,3,3,0,0,1,1.8,1.07,5.15,5.15,0,0,0,2.43.86,14.76,14.76,0,0,0,2.53.27,11.18,11.18,0,0,0,3.33-.45c1.39-.44,2.09-1.13,2.09-2.07,0-2-1.43-3.41-4.27-4.13l-2.34-.52a12.26,12.26,0,0,1-4.24-1.53,4.29,4.29,0,0,1-1.82-3.79,6.87,6.87,0,0,1,4.42-6.7,35.32,35.32,0,0,1,4.32-1.44,34.41,34.41,0,0,0,4.24-1.43,4.93,4.93,0,0,1,2-.4,2.11,2.11,0,0,1,1.58.62,2.22,2.22,0,0,1,.62,1.64,10.09,10.09,0,0,0,.28,1.91,9.42,9.42,0,0,1,.28,1.91,2.23,2.23,0,0,1-.61,1.64A2.14,2.14,0,0,1,1133.82,369.88Z"/><path d="M1149.48,388.5a8.73,8.73,0,0,1-6.49-2.79,11.91,11.91,0,0,1-3.19-8.33,14.53,14.53,0,0,1,2.56-8.94,10.06,10.06,0,0,1,8.76-4.56,7.38,7.38,0,0,1,6.8,4.11,15.85,15.85,0,0,1,1.78,8,14.52,14.52,0,0,1-2.61,8.51A8.92,8.92,0,0,1,1149.48,388.5Zm1.35-20.06a5.68,5.68,0,0,0-5.15,3.15,11.42,11.42,0,0,0-1.46,5.79,6.94,6.94,0,0,0,1.78,5.08,4.74,4.74,0,0,0,3.48,1.5,5.47,5.47,0,0,0,4-1.7,7.22,7.22,0,0,0,2-5.1Q1155.84,368.46,1150.83,368.44Z"/><path d="M1193.77,389a2,2,0,0,1-2.16-2c-.27-1.65-.53-4-.8-7l-.77-7a15.28,15.28,0,0,0-.76-3c-.51-1.35-1.07-2-1.66-2a7.83,7.83,0,0,0-3.1,1.41,12.9,12.9,0,0,0-2.83,2.09c0,1.41,0,2.82.11,4.22l.67,6a49.82,49.82,0,0,1,.43,5.86,2.27,2.27,0,0,1-.62,1.63,2.27,2.27,0,0,1-3.16,0,2.22,2.22,0,0,1-.62-1.63c0-1.81-.19-4.49-.55-8s-.55-6.22-.55-8a8.25,8.25,0,0,0-.68-3.7,11.17,11.17,0,0,0-3.19,2.33l-2.65,3a13.53,13.53,0,0,1-1.14,1.41c0,.9-.08,2.23-.25,4s-.25,3.05-.25,3.88a11,11,0,0,0,.22,1.89,11.67,11.67,0,0,1,.21,1.75,2,2,0,0,1-.69,1.55,2.28,2.28,0,0,1-1.6.63q-2.54,0-2.54-5.77c0-.9.08-2.24.25-4s.24-3.12.24-4-.07-2-.21-3.57-.21-2.79-.21-3.6q0-5.1,2.29-5.1a2.18,2.18,0,0,1,1.6.77,2.36,2.36,0,0,1,.74,1.66,11,11,0,0,1-.12,1.32,13.13,13.13,0,0,0-.11,1.38l0,2.35a13.33,13.33,0,0,1,3.43-4.34q2.26-2,3.87-1.95a4.86,4.86,0,0,1,4.85,3.51,8,8,0,0,1,2.94-2.46,8.88,8.88,0,0,1,3.91-.82q3.75,0,5.12,4a60.32,60.32,0,0,1,.92,6.31q.63,3.87,1.62,12.87a1.83,1.83,0,0,1-.61,1.53A2.32,2.32,0,0,1,1193.77,389Z"/><path d="M1211.47,388.21a12.71,12.71,0,0,1-8.22-2.54,9.58,9.58,0,0,1-3.44-7.86,16.42,16.42,0,0,1,2.83-9.79,9.63,9.63,0,0,1,8.22-4.32A12.87,12.87,0,0,1,1217,365a5.07,5.07,0,0,1,2.9,4.76q0,2.25-2.54,4.09a36.26,36.26,0,0,1-4.76,2.52l-8.58,4.06a8.24,8.24,0,0,0,3.13,2.81,9.6,9.6,0,0,0,4.37.94,13.75,13.75,0,0,0,3.64-.58c1.77-.5,2.9-1.14,3.41-1.94s1.06-1.21,1.64-1.21a2,2,0,0,1,1.41.6,1.87,1.87,0,0,1,.61,1.38q0,2.49-4,4.29A16.38,16.38,0,0,1,1211.47,388.21Zm-.61-20.46a5.76,5.76,0,0,0-4.56,2.12,14.31,14.31,0,0,0-2.71,6.39l6.89-3.28a29.67,29.67,0,0,0,5.8-3.44A7.69,7.69,0,0,0,1210.86,367.75Z"/><path d="M1260.62,367.34q-.27,3.3-.27,6.61a68.48,68.48,0,0,0,.69,11.29,3.89,3.89,0,0,1,0,.52,1.93,1.93,0,0,1-.63,1.48,2.09,2.09,0,0,1-1.46.59c-.93,0-1.61-.68-2-2a12.27,12.27,0,0,1-3.35,1.8,10.81,10.81,0,0,1-3.63.61,10.37,10.37,0,0,1-7.71-3.1,11.07,11.07,0,0,1-3.14-8.13q0-6,3.18-9.61a10.45,10.45,0,0,1,8.25-3.62,8.16,8.16,0,0,1,4,.81l2.11,1.55q.32-9.47.75-12.74c.19-1.33.87-2,2-2,1.36,0,2,.73,2,2.18Q1261.51,356.67,1260.62,367.34Zm-10,.59a7,7,0,0,0-5.66,2.23c-1.26,1.49-1.88,3.73-1.88,6.73a6.88,6.88,0,0,0,2.05,5A6.55,6.55,0,0,0,1250,384a6.75,6.75,0,0,0,3.19-.69,16.76,16.76,0,0,0,2.49-1.87,4.32,4.32,0,0,0,.65-.69l-.06-3.89,0-2.61,0-2.65a6.24,6.24,0,0,0-2.27-2.72A6.09,6.09,0,0,0,1250.64,367.93Z"/><path d="M1272.25,377c0,.9,0,2.24.08,4s.08,3.13.08,4a2.26,2.26,0,0,1-.61,1.62,2.32,2.32,0,0,1-3.18,0A2.23,2.23,0,0,1,1268,385c0-.9,0-2.24-.07-4s-.08-3.13-.08-4c0-1.41.07-3.17.22-5.27s.23-3.86.23-5.27a2.25,2.25,0,0,1,.61-1.64,2.13,2.13,0,0,1,1.59-.62,2.11,2.11,0,0,1,1.58.62,2.26,2.26,0,0,1,.62,1.64c0,1.41-.08,3.17-.23,5.27S1272.25,375.57,1272.25,377Zm-1-18.24a2.6,2.6,0,0,1-1.87-.76,2.57,2.57,0,0,1,0-3.69,2.6,2.6,0,0,1,1.87-.76,2.54,2.54,0,0,1,1.85.76,2.57,2.57,0,0,1,0,3.69A2.54,2.54,0,0,1,1271.24,358.74Z"/><path d="M1297.07,388.77c-1.29,0-2-.7-2.18-2.11l-.63-4.92a41.37,41.37,0,0,1-.31-4.92c0-.42,0-1.13.08-2.13s.07-1.72.07-2.14q0-4.85-1.79-4.85-2.52,0-4.81,3a20.11,20.11,0,0,0-3.23,6.87c0,.59-.1,1.32-.21,2.2a18.31,18.31,0,0,0-.13,2.18c0,.45,0,1.12.13,2s.14,1.58.14,2a2.22,2.22,0,0,1-.62,1.64,2.32,2.32,0,0,1-3.18,0,2.25,2.25,0,0,1-.6-1.64,20.22,20.22,0,0,0-.15-2,20,20,0,0,1-.15-2q0-2.31.33-6.41t.33-6.41c0-.48,0-1.19-.08-2.14s-.08-1.65-.08-2.13a2.09,2.09,0,0,1,.64-1.58,2.14,2.14,0,0,1,1.58-.62c1.38,0,2.14,1,2.27,2.92l.07,2.63q3.76-5,7.75-5a5.07,5.07,0,0,1,5,3.17,16.62,16.62,0,0,1,1,6.25v2.26l0,2.09a31.28,31.28,0,0,0,.48,4.82,31.28,31.28,0,0,1,.48,4.8,2.1,2.1,0,0,1-.64,1.6A2.21,2.21,0,0,1,1297.07,388.77Z"/><path d="M1321.15,388.77c-1.29,0-2-.7-2.18-2.11l-.63-4.92a41.48,41.48,0,0,1-.32-4.92c0-.42,0-1.13.08-2.13s.08-1.72.08-2.14q0-4.85-1.8-4.85-2.51,0-4.8,3a20.3,20.3,0,0,0-3.24,6.87c0,.59-.09,1.32-.2,2.2a18.31,18.31,0,0,0-.13,2.18c0,.45,0,1.12.13,2s.14,1.58.14,2a2.22,2.22,0,0,1-.62,1.64,2.32,2.32,0,0,1-3.18,0,2.26,2.26,0,0,1-.61-1.64,19.53,19.53,0,0,0-.14-2,20,20,0,0,1-.15-2q0-2.31.33-6.41c.22-2.73.32-4.87.32-6.41,0-.48,0-1.19-.08-2.14s-.07-1.65-.07-2.13a2.09,2.09,0,0,1,.64-1.58,2.14,2.14,0,0,1,1.58-.62c1.38,0,2.13,1,2.27,2.92l.07,2.63q3.77-5,7.74-5a5.05,5.05,0,0,1,5,3.17,16.4,16.4,0,0,1,1.06,6.25v2.26l0,2.09a31.28,31.28,0,0,0,.48,4.82,31.28,31.28,0,0,1,.48,4.8,2.1,2.1,0,0,1-.64,1.6A2.21,2.21,0,0,1,1321.15,388.77Z"/><path d="M1338.49,388.21a12.67,12.67,0,0,1-8.22-2.54,9.55,9.55,0,0,1-3.44-7.86,16.35,16.35,0,0,1,2.83-9.79,9.6,9.6,0,0,1,8.22-4.32A12.9,12.9,0,0,1,1344,365a5.06,5.06,0,0,1,2.89,4.76q0,2.25-2.53,4.09a35.91,35.91,0,0,1-4.77,2.52l-8.58,4.06a8.26,8.26,0,0,0,3.14,2.81,9.57,9.57,0,0,0,4.37.94,13.81,13.81,0,0,0,3.64-.58c1.76-.5,2.9-1.14,3.41-1.94s1-1.21,1.64-1.21a2,2,0,0,1,1.4.6,1.88,1.88,0,0,1,.62,1.38q0,2.49-4,4.29A16.38,16.38,0,0,1,1338.49,388.21Zm-.61-20.46a5.73,5.73,0,0,0-4.56,2.12,14.31,14.31,0,0,0-2.72,6.39l6.9-3.28a29.22,29.22,0,0,0,5.79-3.44A7.68,7.68,0,0,0,1337.88,367.75Z"/><path d="M1370.67,370.58c-.1,1.87-.85,2.8-2.24,2.8s-1.93-.74-1.93-2.22c0-.28,0-.81-.07-1.57l-.07-1.89a11.83,11.83,0,0,0-5.68,2,10.74,10.74,0,0,0-3.33,4.4l.05,12.31a2,2,0,0,1-2.23,2.27c-1.31,0-2-.76-2-2.27V370.64c0-.49,0-1.23,0-2.22s.06-1.73.06-2.22c0-1.52.66-2.27,2-2.27s2.21,1.24,2.22,3.73a13.53,13.53,0,0,1,9.57-4.16,3,3,0,0,1,2.72,1.37,7.62,7.62,0,0,1,.9,4.13C1370.7,369.78,1370.69,370.31,1370.67,370.58Z"/><path d="M810.21,443.32A14.21,14.21,0,0,1,804,442a2.08,2.08,0,0,1-1.75,1.08,2,2,0,0,1-2-2.09c0-.39,0-1,.05-1.73s.06-1.34.06-1.73c0-1.59,0-4-.13-7.13s-.12-5.54-.12-7.13q0-1.64,0-6.21t0-6.24a5.11,5.11,0,0,1,.56-2.42,2.26,2.26,0,0,1,2-1.37c1.12,0,1.69.65,1.69,1.95a5.31,5.31,0,0,1-.12.93,6,6,0,0,0-.11.91l-.07,4.92,0,5.73a18.4,18.4,0,0,1,3.72-2,9.45,9.45,0,0,1,3.31-.66,9.63,9.63,0,0,1,7.84,3.71,13.15,13.15,0,0,1,2.83,8.55,12.35,12.35,0,0,1-3.3,8.7A10.75,10.75,0,0,1,810.21,443.32Zm.85-20.28a7.91,7.91,0,0,0-3.77,1,34.14,34.14,0,0,0-3.24,2.22l0,3.89,0,3.5,0,3.69c.72.33,1.73.75,3,1.25a10.48,10.48,0,0,0,3.13.43,6.89,6.89,0,0,0,5.34-2.29,8.17,8.17,0,0,0,2.09-5.71,9.07,9.07,0,0,0-1.68-5.59A5.84,5.84,0,0,0,811.06,423Z"/><path d="M837.5,443.41a12.72,12.72,0,0,1-8.23-2.54,9.58,9.58,0,0,1-3.43-7.86,16.35,16.35,0,0,1,2.83-9.79,9.6,9.6,0,0,1,8.22-4.32,12.93,12.93,0,0,1,6.09,1.26,5.07,5.07,0,0,1,2.89,4.76q0,2.25-2.53,4.09a35.91,35.91,0,0,1-4.77,2.52L830,435.59a8.18,8.18,0,0,0,3.14,2.81,9.57,9.57,0,0,0,4.37.94,13.68,13.68,0,0,0,3.63-.58c1.77-.49,2.91-1.14,3.42-1.94s1.05-1.2,1.64-1.2a2,2,0,0,1,1.4.59,1.88,1.88,0,0,1,.62,1.38q0,2.49-4,4.29A16.38,16.38,0,0,1,837.5,443.41ZM836.89,423a5.73,5.73,0,0,0-4.56,2.12,14.36,14.36,0,0,0-2.72,6.39l6.9-3.28a29.22,29.22,0,0,0,5.79-3.44A7.68,7.68,0,0,0,836.89,423Z"/><path d="M867.3,410.79q-5.43,0-6.09,7.55l-.06,1.39c2.54-.18,4.19-.27,4.94-.27q3.57,0,3.57,2.25a1.85,1.85,0,0,1-1.75,2,9,9,0,0,1-1.79.1c-.68,0-2.41.08-5.18.3l-.17,5.12c0,.93,0,2.32.08,4.18s.09,3.24.09,4.15a34.55,34.55,0,0,1-.49,6.65,2,2,0,0,1-2.09,1.8,2.23,2.23,0,0,1-1.57-.6,1.9,1.9,0,0,1-.65-1.49,2.74,2.74,0,0,1,0-.45,39.31,39.31,0,0,0,.47-6.36l-.06-6.13v-6.51c-1.87.15-3.06.22-3.55.22-1.51,0-2.27-.72-2.27-2.18s1.31-2.26,3.93-2.33l2.16-.07c0-.84.15-2,.33-3.41q.59-5,2.52-7.35,2.34-2.85,7.3-2.85c2.14,0,3.21.73,3.21,2.18S869.25,410.79,867.3,410.79Z"/><path d="M884,443.7a8.78,8.78,0,0,1-6.49-2.78,12,12,0,0,1-3.19-8.34,14.59,14.59,0,0,1,2.56-8.94,10.06,10.06,0,0,1,8.76-4.56,7.38,7.38,0,0,1,6.81,4.11,15.74,15.74,0,0,1,1.77,8,14.51,14.51,0,0,1-2.6,8.51A9,9,0,0,1,884,443.7Zm1.35-20.06a5.65,5.65,0,0,0-5.14,3.15,11.32,11.32,0,0,0-1.46,5.79,7,7,0,0,0,1.77,5.08,4.74,4.74,0,0,0,3.48,1.5,5.47,5.47,0,0,0,4-1.7,7.18,7.18,0,0,0,2-5.1Q890.37,423.66,885.36,423.64Z"/><path d="M917.25,425.78c-.1,1.87-.85,2.8-2.24,2.8s-1.93-.74-1.93-2.22c0-.28,0-.81-.07-1.57l-.07-1.89a11.87,11.87,0,0,0-5.68,2,10.79,10.79,0,0,0-3.32,4.4l0,12.31a2,2,0,0,1-2.22,2.27c-1.32,0-2-.76-2-2.27V425.84q0-.73.06-2.22c0-1,0-1.73,0-2.22,0-1.52.66-2.27,2-2.27s2.21,1.24,2.22,3.73a13.53,13.53,0,0,1,9.57-4.16,3,3,0,0,1,2.72,1.37,7.64,7.64,0,0,1,.9,4.14C917.28,425,917.27,425.51,917.25,425.78Z"/><path d="M932.37,443.41a12.71,12.71,0,0,1-8.22-2.54,9.58,9.58,0,0,1-3.44-7.86,16.42,16.42,0,0,1,2.83-9.79,9.63,9.63,0,0,1,8.22-4.32,12.87,12.87,0,0,1,6.09,1.26,5.08,5.08,0,0,1,2.9,4.76q0,2.25-2.54,4.09a35.57,35.57,0,0,1-4.76,2.52l-8.58,4.06A8.16,8.16,0,0,0,928,438.4a9.6,9.6,0,0,0,4.37.94,13.75,13.75,0,0,0,3.64-.58c1.77-.49,2.91-1.14,3.41-1.94s1.06-1.2,1.64-1.2a2,2,0,0,1,1.41.59,1.87,1.87,0,0,1,.61,1.38c0,1.66-1.33,3.09-4,4.29A16.38,16.38,0,0,1,932.37,443.41ZM931.76,423a5.73,5.73,0,0,0-4.55,2.12,14.25,14.25,0,0,0-2.72,6.39l6.89-3.28a29.67,29.67,0,0,0,5.8-3.44A7.69,7.69,0,0,0,931.76,423Z"/><path d="M975.86,423.24c-.32,0-.69,0-1.12-.05s-.79,0-1.11,0-1.36.11-3,.34l.42,13.27,0,1,0,1.14q.09,4.92-2.36,4.92a2.27,2.27,0,0,1-1.56-.58,1.88,1.88,0,0,1-.66-1.46c0-.57,0-1.42.06-2.56s.07-2,.07-2.56l-.45-13.12c-1.09,0-2.75-.17-5-.38a2,2,0,0,1-2-2.22,2.32,2.32,0,0,1,.6-1.64,2,2,0,0,1,1.55-.66L966,419c0-.77,0-1.79-.1-3.07s-.1-2.2-.1-2.77a2,2,0,0,1,.65-1.56,2.2,2.2,0,0,1,1.59-.62c1.35,0,2.14,1.1,2.36,3.3,0,.55.07,1.22.07,2l0,1.3,0,1.39c1.86-.24,2.92-.36,3.19-.36a12.74,12.74,0,0,1,3.06.23,2,2,0,0,1,1.37,2.11,2.27,2.27,0,0,1-.62,1.63A2.09,2.09,0,0,1,975.86,423.24Z"/><path d="M1001.3,443.77a2.06,2.06,0,0,1-2.09-1.71,38.28,38.28,0,0,1-.94-5.23,44.78,44.78,0,0,1-.4-5.35c0-.39,0-1,0-1.77s.06-1.39.06-1.78c0-2.81-.71-4.22-2.11-4.22a6.65,6.65,0,0,0-5.1,2.58,31.39,31.39,0,0,0-3.15,5.06q0,8.55-.71,10.13a2.07,2.07,0,0,1-2,1.39,2.36,2.36,0,0,1-1.62-.63,2,2,0,0,1-.69-1.53,4.11,4.11,0,0,1,.2-1,17.87,17.87,0,0,0,.25-3.27l.06-3.33.07-16.51c.11-1.85.16-3.1.16-3.75a10.87,10.87,0,0,0-.21-2.17,9.77,9.77,0,0,1-.22-2.12,2.07,2.07,0,0,1,.65-1.56,2.26,2.26,0,0,1,1.6-.62,2,2,0,0,1,2.15,2,24.28,24.28,0,0,1,.36,3.93q0,2.35-.15,4.92t-.12,4.92l0,2a13.46,13.46,0,0,1,3.94-3.7,8.66,8.66,0,0,1,4.46-1.22c2.48,0,4.19.8,5.12,2.42a13.1,13.1,0,0,1,1.12,5.75l.18,4.29.45,4.67a46.14,46.14,0,0,0,.76,4.63,2.87,2.87,0,0,1,.09.65,2,2,0,0,1-.67,1.54A2.33,2.33,0,0,1,1001.3,443.77Z"/><path d="M1019.56,443.41a12.71,12.71,0,0,1-8.22-2.54,9.58,9.58,0,0,1-3.43-7.86,16.35,16.35,0,0,1,2.83-9.79,9.6,9.6,0,0,1,8.22-4.32,12.85,12.85,0,0,1,6.08,1.26,5.06,5.06,0,0,1,2.9,4.76c0,1.5-.84,2.86-2.54,4.09a34.91,34.91,0,0,1-4.76,2.52l-8.58,4.06a8.18,8.18,0,0,0,3.14,2.81,9.56,9.56,0,0,0,4.36.94,13.69,13.69,0,0,0,3.64-.58c1.77-.49,2.91-1.14,3.42-1.94s1.05-1.2,1.64-1.2a2,2,0,0,1,1.4.59,1.88,1.88,0,0,1,.62,1.38q0,2.49-4,4.29A16.39,16.39,0,0,1,1019.56,443.41ZM1019,423a5.73,5.73,0,0,0-4.56,2.12,14.36,14.36,0,0,0-2.72,6.39l6.9-3.28a29.22,29.22,0,0,0,5.79-3.44A7.68,7.68,0,0,0,1019,423Z"/><path d="M1063.05,423.24c-.32,0-.69,0-1.11-.05s-.8,0-1.11,0-1.37.11-3.06.34l.43,13.27,0,1,0,1.14c.06,3.28-.72,4.92-2.36,4.92a2.29,2.29,0,0,1-1.56-.58,1.88,1.88,0,0,1-.66-1.46c0-.57,0-1.42.07-2.56s.06-2,.06-2.56l-.44-13.12c-1.1,0-2.76-.17-5-.38a2,2,0,0,1-2-2.22,2.28,2.28,0,0,1,.61-1.64,2,2,0,0,1,1.55-.66l4.71.39c0-.77,0-1.79-.1-3.07s-.1-2.2-.1-2.77a2.07,2.07,0,0,1,.65-1.56,2.22,2.22,0,0,1,1.6-.62c1.35,0,2.13,1.1,2.36,3.3,0,.55.06,1.22.06,2l0,1.3,0,1.39c1.85-.24,2.92-.36,3.19-.36a12.7,12.7,0,0,1,3.05.23,2,2,0,0,1,1.37,2.11,2.27,2.27,0,0,1-.62,1.63A2.09,2.09,0,0,1,1063.05,423.24Z"/><path d="M1075,432.18c0,.9,0,2.24.08,4s.07,3.13.07,4a2.25,2.25,0,0,1-.6,1.62,2.32,2.32,0,0,1-3.18,0,2.23,2.23,0,0,1-.62-1.62c0-.9,0-2.24-.08-4s-.08-3.13-.08-4c0-1.41.08-3.16.23-5.27s.22-3.86.22-5.27a2.26,2.26,0,0,1,.62-1.64,2.34,2.34,0,0,1,3.17,0,2.26,2.26,0,0,1,.62,1.64c0,1.41-.08,3.17-.23,5.27S1075,430.77,1075,432.18Zm-1-18.24a2.6,2.6,0,0,1-1.87-.76,2.57,2.57,0,0,1,0-3.69,2.6,2.6,0,0,1,1.87-.76,2.54,2.54,0,0,1,1.85.76,2.6,2.6,0,0,1,0,3.69A2.54,2.54,0,0,1,1074,413.94Z"/><path d="M1111.11,444.24a2,2,0,0,1-2.15-1.95q-.4-2.48-.81-7l-.76-7a15.31,15.31,0,0,0-.77-3c-.51-1.35-1.06-2-1.66-2a7.89,7.89,0,0,0-3.1,1.41,12.9,12.9,0,0,0-2.83,2.09c0,1.41,0,2.81.11,4.22l.68,6a51.74,51.74,0,0,1,.42,5.86,2.26,2.26,0,0,1-.61,1.63,2.11,2.11,0,0,1-1.59.64,2.09,2.09,0,0,1-1.58-.64,2.27,2.27,0,0,1-.62-1.63q0-2.72-.55-8t-.55-8a8.29,8.29,0,0,0-.67-3.7,11.17,11.17,0,0,0-3.19,2.33l-2.65,3a12.62,12.62,0,0,1-1.15,1.41c0,.9-.08,2.23-.25,4s-.24,3.05-.24,3.88a11.88,11.88,0,0,0,.21,1.89,11.67,11.67,0,0,1,.21,1.75,2,2,0,0,1-.68,1.55,2.3,2.3,0,0,1-1.61.63q-2.54,0-2.54-5.77c0-.9.09-2.24.25-4s.25-3.12.25-4-.07-2-.22-3.57-.21-2.79-.21-3.6c0-3.4.77-5.1,2.29-5.1a2.2,2.2,0,0,1,1.61.77,2.35,2.35,0,0,1,.73,1.66,13.24,13.24,0,0,1-.11,1.33,11,11,0,0,0-.12,1.36l0,2.36a13.37,13.37,0,0,1,3.44-4.34c1.51-1.3,2.8-1.95,3.86-1.95a4.85,4.85,0,0,1,4.85,3.51,8,8,0,0,1,2.94-2.46,8.88,8.88,0,0,1,3.91-.82q3.75,0,5.12,4a57.41,57.41,0,0,1,.92,6.31q.63,3.87,1.62,12.87a1.8,1.8,0,0,1-.61,1.53A2.3,2.3,0,0,1,1111.11,444.24Z"/><path d="M1128.81,443.41a12.71,12.71,0,0,1-8.22-2.54,9.58,9.58,0,0,1-3.43-7.86,16.35,16.35,0,0,1,2.83-9.79,9.6,9.6,0,0,1,8.22-4.32,12.85,12.85,0,0,1,6.08,1.26,5.06,5.06,0,0,1,2.9,4.76c0,1.5-.84,2.86-2.54,4.09a34.91,34.91,0,0,1-4.76,2.52l-8.58,4.06a8.18,8.18,0,0,0,3.14,2.81,9.56,9.56,0,0,0,4.36.94,13.69,13.69,0,0,0,3.64-.58c1.77-.49,2.91-1.14,3.42-1.94s1.05-1.2,1.64-1.2a2,2,0,0,1,1.4.59,1.88,1.88,0,0,1,.62,1.38q0,2.49-4,4.29A16.39,16.39,0,0,1,1128.81,443.41Zm-.6-20.46a5.73,5.73,0,0,0-4.56,2.12,14.36,14.36,0,0,0-2.72,6.39l6.9-3.28a29.22,29.22,0,0,0,5.79-3.44A7.68,7.68,0,0,0,1128.21,423Z"/><path d="M1174.75,425.78c-.11,1.87-.86,2.8-2.25,2.8s-1.93-.74-1.93-2.22c0-.28,0-.81-.07-1.57l-.07-1.89a11.87,11.87,0,0,0-5.68,2,10.79,10.79,0,0,0-3.32,4.4l0,12.31a2,2,0,0,1-2.22,2.27c-1.32,0-2-.76-2-2.27V425.84q0-.73.06-2.22c0-1,.05-1.73.05-2.22,0-1.52.66-2.27,2-2.27,1.47,0,2.21,1.24,2.22,3.73a13.53,13.53,0,0,1,9.57-4.16,3,3,0,0,1,2.72,1.37,7.64,7.64,0,0,1,.9,4.14C1174.77,425,1174.76,425.51,1174.75,425.78Z"/><path d="M1197.7,429.26c0,1.08,0,2.69,0,4.85s0,3.77,0,4.85c0,.33,0,.83.08,1.51s.07,1.17.07,1.5a2,2,0,0,1-.65,1.58,2.18,2.18,0,0,1-1.59.62c-1.16,0-1.89-.71-2.2-2.13a13.89,13.89,0,0,1-6.47,1.46,8.63,8.63,0,0,1-4.88-1.3,5.84,5.84,0,0,1-2.53-4.2,73,73,0,0,1-.88-10.61,41.77,41.77,0,0,1,.67-7,2,2,0,0,1,2.14-2,2.29,2.29,0,0,1,1.62.62,2.1,2.1,0,0,1,.65,1.58,26,26,0,0,1-.33,3.31,25.59,25.59,0,0,0-.32,3.45c0,2.5.08,4.65.24,6.43a22.59,22.59,0,0,0,.74,4.29,8.18,8.18,0,0,0,1.46.62,5,5,0,0,0,1.42.21,22.66,22.66,0,0,0,6.35-1l0-4.56,0-4.35a73.29,73.29,0,0,1,.42-8.43,2,2,0,0,1,2.18-2.06,2.22,2.22,0,0,1,1.62.63,2,2,0,0,1,.61,1.57Z"/><path d="M1220.52,444c-1.29,0-2-.7-2.18-2.11l-.63-4.92a41.37,41.37,0,0,1-.31-4.92c0-.42,0-1.13.08-2.13s.08-1.72.08-2.14q0-4.85-1.8-4.85-2.52,0-4.81,3a20.49,20.49,0,0,0-3.23,6.87c0,.59-.1,1.32-.2,2.2a18.38,18.38,0,0,0-.14,2.18c0,.45,0,1.13.14,2s.13,1.58.13,2a2.18,2.18,0,0,1-.62,1.63,2.12,2.12,0,0,1-1.58.63,2.09,2.09,0,0,1-1.59-.63,2.21,2.21,0,0,1-.61-1.63,20.18,20.18,0,0,0-.15-2c-.09-.89-.14-1.57-.14-2q0-2.31.32-6.41t.33-6.41c0-.48,0-1.19-.08-2.14s-.08-1.65-.08-2.13a2.09,2.09,0,0,1,.64-1.58,2.17,2.17,0,0,1,1.58-.62c1.38,0,2.14,1,2.27,2.92l.07,2.63q3.78-5,7.75-5a5,5,0,0,1,5,3.16,16.62,16.62,0,0,1,1,6.25V430l0,2.09a30.26,30.26,0,0,0,.49,4.82,31.28,31.28,0,0,1,.48,4.8,2.14,2.14,0,0,1-.64,1.6A2.23,2.23,0,0,1,1220.52,444Z"/><path d="M1242.53,425.08a1.86,1.86,0,0,1-1.73-.83,7.79,7.79,0,0,1-.58-2.43c-1.12.29-2.85.81-5.19,1.58-2.41,1-3.62,2.14-3.64,3.55a7.48,7.48,0,0,0,1.33.35,21.8,21.8,0,0,1,7.68,2.54,7.63,7.63,0,0,1,3.66,6.83,6,6,0,0,1-3.17,5.53,13.13,13.13,0,0,1-6.64,1.52,16,16,0,0,1-5.62-1q-3.47-1.25-3.46-3.5a2.11,2.11,0,0,1,.71-1.57,2.27,2.27,0,0,1,1.6-.68,3,3,0,0,1,1.8,1.08,5.15,5.15,0,0,0,2.43.86,14.76,14.76,0,0,0,2.54.27,11.16,11.16,0,0,0,3.32-.45c1.39-.44,2.09-1.13,2.09-2.07,0-2-1.42-3.41-4.27-4.13l-2.34-.52a12.26,12.26,0,0,1-4.24-1.53,4.29,4.29,0,0,1-1.82-3.79,6.87,6.87,0,0,1,4.43-6.7,34.44,34.44,0,0,1,4.31-1.44,34.41,34.41,0,0,0,4.24-1.43,4.93,4.93,0,0,1,2-.41,2.14,2.14,0,0,1,1.58.63,2.22,2.22,0,0,1,.62,1.64,10.09,10.09,0,0,0,.28,1.91,9.42,9.42,0,0,1,.28,1.91,2.23,2.23,0,0,1-.61,1.64A2.12,2.12,0,0,1,1242.53,425.08Z"/><path d="M1271.94,443.7a8.8,8.8,0,0,1-6.5-2.78,12,12,0,0,1-3.19-8.34,14.6,14.6,0,0,1,2.57-8.94,10,10,0,0,1,8.76-4.56,7.38,7.38,0,0,1,6.8,4.11,15.85,15.85,0,0,1,1.78,8,14.59,14.59,0,0,1-2.61,8.51A8.94,8.94,0,0,1,1271.94,443.7Zm1.34-20.06a5.66,5.66,0,0,0-5.14,3.15,11.42,11.42,0,0,0-1.46,5.79,7,7,0,0,0,1.77,5.08,4.75,4.75,0,0,0,3.49,1.5,5.5,5.5,0,0,0,4-1.7,7.26,7.26,0,0,0,2-5.1Q1278.3,423.66,1273.28,423.64Z"/><path d="M1306,429.26c0,1.08,0,2.69,0,4.85s0,3.77,0,4.85c0,.33,0,.83.07,1.51s.08,1.17.08,1.5a2,2,0,0,1-.65,1.58,2.18,2.18,0,0,1-1.59.62c-1.16,0-1.89-.71-2.2-2.13a13.89,13.89,0,0,1-6.47,1.46,8.61,8.61,0,0,1-4.88-1.3,5.85,5.85,0,0,1-2.54-4.2,74.3,74.3,0,0,1-.87-10.61,41.77,41.77,0,0,1,.67-7,2,2,0,0,1,2.14-2,2.25,2.25,0,0,1,1.61.62,2.06,2.06,0,0,1,.65,1.58,25.56,25.56,0,0,1-.32,3.31,26,26,0,0,0-.33,3.45c0,2.5.09,4.65.25,6.43a22.59,22.59,0,0,0,.74,4.29,8.18,8.18,0,0,0,1.46.62,5,5,0,0,0,1.42.21,22.71,22.71,0,0,0,6.35-1l0-4.56,0-4.35a73.29,73.29,0,0,1,.42-8.43,2,2,0,0,1,2.18-2.06,2.26,2.26,0,0,1,1.62.63,2,2,0,0,1,.6,1.57Z"/><path d="M1326.65,423.24c-.31,0-.69,0-1.11-.05s-.8,0-1.11,0-1.37.11-3.06.34l.43,13.27,0,1,0,1.14q.09,4.92-2.35,4.92a2.31,2.31,0,0,1-1.57-.58,1.88,1.88,0,0,1-.66-1.46c0-.57,0-1.42.07-2.56s.07-2,.07-2.56l-.45-13.12c-1.1,0-2.76-.17-5-.38a2,2,0,0,1-2-2.22,2.28,2.28,0,0,1,.61-1.64,2,2,0,0,1,1.55-.66l4.71.39c0-.77,0-1.79-.1-3.07s-.1-2.2-.1-2.77a2.07,2.07,0,0,1,.65-1.56,2.22,2.22,0,0,1,1.6-.62c1.35,0,2.13,1.1,2.36,3.3,0,.55.06,1.22.06,2l0,1.3,0,1.39c1.85-.24,2.92-.36,3.19-.36a12.7,12.7,0,0,1,3,.23,2,2,0,0,1,1.37,2.11,2.22,2.22,0,0,1-.62,1.63A2.09,2.09,0,0,1,1326.65,423.24Z"/><path d="M1337.63,441.86a1.83,1.83,0,0,1-.64,1.4,2.05,2.05,0,0,1-1.45.6,2.43,2.43,0,0,1-1.79-1.17,3.33,3.33,0,0,1-.88-2,1.81,1.81,0,0,1,.64-1.39,2.13,2.13,0,0,1,1.47-.59,2.46,2.46,0,0,1,1.8,1.17A3.37,3.37,0,0,1,1337.63,441.86Zm0-33.54v25a2,2,0,0,1-4,0c0-.61,0-1.53,0-2.75s-.06-2.13-.06-2.73q0-3.25.06-9.76t0-9.76a2,2,0,0,1,4,0Z"/><path d="M816.49,496.68a36,36,0,0,1-12.91,2,2.52,2.52,0,0,1-1.83-.91,2.7,2.7,0,0,1-.87-1.87v-6.54q0-3.21.41-9.16.45-6.42.49-9.3,0-2.07.25-6.16a1.94,1.94,0,0,1,.74-1.48,23.49,23.49,0,0,1,6.94-.94A12.59,12.59,0,0,1,817.3,465a9.24,9.24,0,0,1,4.2,7.66,10.7,10.7,0,0,1-4.49,9.1,15,15,0,0,1,5,3.19,5.43,5.43,0,0,1,1.68,3.82q0,2.72-3,5.25A14.52,14.52,0,0,1,816.49,496.68Zm-4.26-11.82-2.38-.38-.89,0c-.4,0-.7,0-.91,0a18.32,18.32,0,0,1-2.58-.2c-.09,1.88-.14,3.57-.14,5v4.65a29.56,29.56,0,0,0,9.59-1.66,10.08,10.08,0,0,0,3-1.89c.92-.78,1.37-1.36,1.37-1.75,0-.71-1-1.5-2.87-2.38A22,22,0,0,0,812.23,484.86Zm-2.52-18a24.42,24.42,0,0,0-3.44.16l0,3.93-.45,8.69c2.13.18,3.26.26,3.41.25a9.4,9.4,0,0,0,5.55-2.11,6.5,6.5,0,0,0,2.32-5.15,5.08,5.08,0,0,0-2.36-3.95A8.06,8.06,0,0,0,809.71,466.87Z"/><path d="M847,484.46c0,1.08,0,2.69,0,4.85s0,3.77,0,4.85c0,.33,0,.83.08,1.51s.07,1.17.07,1.5a2.06,2.06,0,0,1-.65,1.58,2.18,2.18,0,0,1-1.59.62c-1.16,0-1.89-.71-2.2-2.13a13.89,13.89,0,0,1-6.47,1.46,8.63,8.63,0,0,1-4.88-1.3,5.84,5.84,0,0,1-2.53-4.2,73,73,0,0,1-.88-10.61,41.77,41.77,0,0,1,.67-7,2,2,0,0,1,2.14-2,2.25,2.25,0,0,1,1.61.62,2.07,2.07,0,0,1,.66,1.58,25.77,25.77,0,0,1-.33,3.3,26.23,26.23,0,0,0-.33,3.46c0,2.5.09,4.65.25,6.43a22.59,22.59,0,0,0,.74,4.29,8.18,8.18,0,0,0,1.46.62,5,5,0,0,0,1.42.21,22.71,22.71,0,0,0,6.35-1l0-4.56,0-4.35a73.29,73.29,0,0,1,.42-8.43,2,2,0,0,1,2.18-2.06,2.24,2.24,0,0,1,1.62.63,2,2,0,0,1,.61,1.57Z"/><path d="M867.66,478.44c-.31,0-.68,0-1.11-.05s-.8,0-1.11,0-1.37.11-3.06.34l.43,13.27,0,1,0,1.14q.09,4.92-2.35,4.92a2.31,2.31,0,0,1-1.57-.58,1.88,1.88,0,0,1-.66-1.46c0-.57,0-1.42.07-2.56s.07-2,.07-2.56L858,478.73c-1.1,0-2.76-.17-5-.38a2,2,0,0,1-2-2.23,2.27,2.27,0,0,1,.61-1.63,2,2,0,0,1,1.55-.66l4.72.39c0-.77,0-1.79-.11-3.07s-.1-2.2-.1-2.77a2.1,2.1,0,0,1,.65-1.57,2.25,2.25,0,0,1,1.6-.61c1.35,0,2.13,1.1,2.36,3.3,0,.55.06,1.22.06,2l0,1.3,0,1.39c1.85-.24,2.92-.36,3.19-.36a12.7,12.7,0,0,1,3,.23,2,2,0,0,1,1.37,2.11,2.22,2.22,0,0,1-.62,1.63A2.12,2.12,0,0,1,867.66,478.44Z"/><path d="M905.53,481c-.11,1.87-.85,2.8-2.25,2.8s-1.93-.74-1.93-2.22c0-.28,0-.81-.07-1.57l-.06-1.89a11.91,11.91,0,0,0-5.69,2,10.73,10.73,0,0,0-3.32,4.4l0,12.31a2,2,0,0,1-2.23,2.27c-1.32,0-2-.76-2-2.27V481c0-.49,0-1.23.05-2.22s.06-1.73.06-2.22c0-1.52.66-2.27,2-2.27,1.47,0,2.21,1.24,2.23,3.73a13.49,13.49,0,0,1,9.57-4.16,3,3,0,0,1,2.71,1.37,7.62,7.62,0,0,1,.9,4.13C905.55,480.18,905.54,480.71,905.53,481Z"/><path d="M920.65,498.61a12.67,12.67,0,0,1-8.22-2.54,9.55,9.55,0,0,1-3.44-7.86,16.35,16.35,0,0,1,2.83-9.79A9.6,9.6,0,0,1,920,474.1a12.9,12.9,0,0,1,6.09,1.26,5.06,5.06,0,0,1,2.89,4.76q0,2.25-2.53,4.09a35.91,35.91,0,0,1-4.77,2.52l-8.58,4.06a8.18,8.18,0,0,0,3.14,2.81,9.57,9.57,0,0,0,4.37.94,13.81,13.81,0,0,0,3.64-.58c1.76-.5,2.9-1.14,3.41-1.94s1-1.21,1.64-1.21a2,2,0,0,1,1.4.6,1.88,1.88,0,0,1,.62,1.38q0,2.49-4,4.29A16.38,16.38,0,0,1,920.65,498.61ZM920,478.15a5.73,5.73,0,0,0-4.56,2.12,14.31,14.31,0,0,0-2.72,6.39l6.9-3.28a29.22,29.22,0,0,0,5.79-3.44A7.68,7.68,0,0,0,920,478.15Z"/><path d="M963.88,499.44a2,2,0,0,1-2.15-1.95q-.4-2.48-.81-7l-.76-7a15.31,15.31,0,0,0-.77-3c-.51-1.35-1.06-2-1.66-2a7.89,7.89,0,0,0-3.1,1.41A12.9,12.9,0,0,0,951.8,482c0,1.41,0,2.82.11,4.22l.68,6a51.74,51.74,0,0,1,.42,5.86,2.22,2.22,0,0,1-.62,1.63,2.27,2.27,0,0,1-3.16,0,2.27,2.27,0,0,1-.62-1.63q0-2.71-.55-8t-.55-8a8.29,8.29,0,0,0-.67-3.7,11,11,0,0,0-3.19,2.33l-2.65,3a12.62,12.62,0,0,1-1.15,1.41c0,.9-.08,2.23-.25,4s-.24,3-.24,3.88a11.88,11.88,0,0,0,.21,1.89,11.67,11.67,0,0,1,.21,1.75,2,2,0,0,1-.68,1.55,2.3,2.3,0,0,1-1.61.63q-2.54,0-2.54-5.77c0-.9.09-2.24.25-4s.25-3.12.25-4-.07-2-.22-3.57-.21-2.79-.21-3.6c0-3.4.77-5.1,2.29-5.1a2.2,2.2,0,0,1,1.61.77,2.35,2.35,0,0,1,.73,1.66,12.87,12.87,0,0,1-.11,1.32,11.3,11.3,0,0,0-.12,1.37l.05,2.36a13.37,13.37,0,0,1,3.44-4.34c1.51-1.3,2.8-1.95,3.86-1.95a4.85,4.85,0,0,1,4.85,3.51,8,8,0,0,1,2.94-2.46,8.88,8.88,0,0,1,3.91-.82q3.75,0,5.12,4a57.41,57.41,0,0,1,.92,6.31q.63,3.87,1.62,12.87a1.83,1.83,0,0,1-.61,1.53A2.3,2.3,0,0,1,963.88,499.44Z"/><path d="M981.58,498.61a12.71,12.71,0,0,1-8.22-2.54,9.58,9.58,0,0,1-3.44-7.86,16.42,16.42,0,0,1,2.83-9.79A9.63,9.63,0,0,1,981,474.1a12.85,12.85,0,0,1,6.08,1.26,5.07,5.07,0,0,1,2.9,4.76q0,2.25-2.54,4.09a35.57,35.57,0,0,1-4.76,2.52l-8.58,4.06a8.16,8.16,0,0,0,3.13,2.81,9.6,9.6,0,0,0,4.37.94,13.69,13.69,0,0,0,3.64-.58c1.77-.5,2.91-1.14,3.41-1.94s1.06-1.21,1.64-1.21a2,2,0,0,1,1.41.6,1.88,1.88,0,0,1,.62,1.38q0,2.49-4,4.29A16.46,16.46,0,0,1,981.58,498.61Zm-.6-20.46a5.73,5.73,0,0,0-4.56,2.12,14.2,14.2,0,0,0-2.72,6.39l6.89-3.28a29.36,29.36,0,0,0,5.8-3.44A7.68,7.68,0,0,0,981,478.15Z"/><path d="M1024.82,499.44a2,2,0,0,1-2.16-1.95q-.4-2.48-.81-7l-.76-7a15.28,15.28,0,0,0-.76-3c-.51-1.35-1.07-2-1.66-2a7.83,7.83,0,0,0-3.1,1.41,12.65,12.65,0,0,0-2.83,2.09c0,1.41,0,2.82.11,4.22l.67,6a49.82,49.82,0,0,1,.43,5.86,2.27,2.27,0,0,1-.62,1.63,2.09,2.09,0,0,1-1.58.64,2.11,2.11,0,0,1-1.59-.64,2.26,2.26,0,0,1-.61-1.63c0-1.81-.19-4.49-.55-8s-.55-6.22-.55-8a8.28,8.28,0,0,0-.68-3.7,11.17,11.17,0,0,0-3.19,2.33l-2.65,3a13.53,13.53,0,0,1-1.14,1.41c0,.9-.09,2.23-.25,4s-.25,3-.25,3.88a11,11,0,0,0,.22,1.89,11.67,11.67,0,0,1,.21,1.75,2,2,0,0,1-.69,1.55,2.28,2.28,0,0,1-1.6.63q-2.53,0-2.54-5.77c0-.9.08-2.24.25-4s.24-3.12.24-4-.07-2-.21-3.57-.21-2.79-.21-3.6q0-5.1,2.29-5.1a2.18,2.18,0,0,1,1.6.77,2.35,2.35,0,0,1,.73,1.66,10.5,10.5,0,0,1-.11,1.32,13.18,13.18,0,0,0-.11,1.37l0,2.36a13.5,13.5,0,0,1,3.44-4.34c1.51-1.3,2.8-1.95,3.86-1.95a4.87,4.87,0,0,1,4.86,3.51,8,8,0,0,1,2.94-2.46,8.88,8.88,0,0,1,3.91-.82c2.5,0,4.2,1.35,5.12,4a60.32,60.32,0,0,1,.92,6.31q.63,3.87,1.62,12.87a1.83,1.83,0,0,1-.61,1.53A2.32,2.32,0,0,1,1024.82,499.44Z"/><path d="M1042.52,498.52a14.2,14.2,0,0,1-6.24-1.35,2.09,2.09,0,0,1-1.76,1.08,2,2,0,0,1-1.45-.6,2,2,0,0,1-.59-1.49c0-.39,0-1,.06-1.73s0-1.34,0-1.73c0-1.59,0-4-.12-7.13s-.13-5.54-.13-7.13q0-1.63,0-6.21t0-6.23a5.24,5.24,0,0,1,.56-2.43,2.28,2.28,0,0,1,2-1.37q1.68,0,1.68,1.95a6,6,0,0,1-.11.92,5.09,5.09,0,0,0-.11.93l-.07,4.91-.05,5.73a18.67,18.67,0,0,1,3.72-2,9.49,9.49,0,0,1,3.31-.66,9.62,9.62,0,0,1,7.84,3.71,13.09,13.09,0,0,1,2.83,8.55,12.35,12.35,0,0,1-3.3,8.7A10.73,10.73,0,0,1,1042.52,498.52Zm.85-20.28a8,8,0,0,0-3.77,1,33.1,33.1,0,0,0-3.23,2.22l0,3.89,0,3.5,0,3.69c.71.33,1.72.75,3,1.25a10.46,10.46,0,0,0,3.12.43,6.92,6.92,0,0,0,5.35-2.29,8.16,8.16,0,0,0,2.08-5.71,9.07,9.07,0,0,0-1.68-5.59A5.8,5.8,0,0,0,1043.37,478.24Z"/><path d="M1069.81,498.61a12.67,12.67,0,0,1-8.22-2.54,9.58,9.58,0,0,1-3.44-7.86,16.35,16.35,0,0,1,2.83-9.79,9.6,9.6,0,0,1,8.22-4.32,12.87,12.87,0,0,1,6.09,1.26,5.07,5.07,0,0,1,2.9,4.76q0,2.25-2.54,4.09a36.26,36.26,0,0,1-4.76,2.52l-8.58,4.06a8.16,8.16,0,0,0,3.13,2.81,9.6,9.6,0,0,0,4.37.94,13.81,13.81,0,0,0,3.64-.58c1.76-.5,2.9-1.14,3.41-1.94s1.06-1.21,1.64-1.21a1.94,1.94,0,0,1,1.4.6,1.84,1.84,0,0,1,.62,1.38q0,2.49-4,4.29A16.38,16.38,0,0,1,1069.81,498.61Zm-.61-20.46a5.76,5.76,0,0,0-4.56,2.12,14.31,14.31,0,0,0-2.72,6.39l6.9-3.28a29.67,29.67,0,0,0,5.8-3.44A7.7,7.7,0,0,0,1069.2,478.15Z"/><path d="M1102,481c-.11,1.87-.86,2.8-2.25,2.8s-1.93-.74-1.93-2.22c0-.28,0-.81-.07-1.57l-.07-1.89a11.87,11.87,0,0,0-5.68,2,10.73,10.73,0,0,0-3.32,4.4l0,12.31a2,2,0,0,1-2.22,2.27c-1.32,0-2-.76-2-2.27V481q0-.74.06-2.22c0-1,.05-1.73.05-2.22,0-1.52.66-2.27,2-2.27,1.47,0,2.21,1.24,2.22,3.73a13.53,13.53,0,0,1,9.57-4.16,3,3,0,0,1,2.72,1.37,7.62,7.62,0,0,1,.9,4.13C1102,480.18,1102,480.71,1102,481Z"/><path d="M1109.5,499.66a2.72,2.72,0,0,1-2-.8,2.79,2.79,0,1,1,4.76-2,2.66,2.66,0,0,1-.82,2A2.71,2.71,0,0,1,1109.5,499.66Z"/><path d="M1121,499.66a2.75,2.75,0,0,1-2.78-2.78,2.72,2.72,0,0,1,.81-2,2.66,2.66,0,0,1,2-.82,2.79,2.79,0,1,1,0,5.57Z"/><path d="M1168.23,498.25q-1.77-.08-3.57-4.18a36.4,36.4,0,0,1-2-6.11c-1.11.17-2.92.33-5.44.5-2.36.16-4.18.36-5.43.58q-1,2.47-3.6,7.43a3.06,3.06,0,0,1-2.74,1.62,3.34,3.34,0,0,1-2.22-.84,2.7,2.7,0,0,1-1-2.15q0-1.14,3.28-7.77a2.67,2.67,0,0,1-.27-1.3c.06-.72.79-1.28,2.18-1.68q3.18-5.53,7.1-11.46,5.61-8.5,6.91-8.51c1.65,0,2.75,1,3.31,3q.45,2.4,1.41,7.21,1.37,6.46,3.35,14.8a26.28,26.28,0,0,0,1.14,3,8.5,8.5,0,0,1,.81,2.9,2.81,2.81,0,0,1-1,2.18A3.09,3.09,0,0,1,1168.23,498.25Zm-8.38-23.05q-1.74,3-4.82,8.2a22.28,22.28,0,0,1,3.14-.36c1.68-.1,2.73-.18,3.17-.24Q1160.8,479.88,1159.85,475.2Z"/><path d="M1193.79,499.17a2.76,2.76,0,0,1-3.07-2.72q-.32-2.31-.63-4.65a33.51,33.51,0,0,1-.34-4.65c0-.39,0-1,.08-2s.08-1.61.08-2c0-.11,0-.37,0-.8s0-.78,0-1.05q0-1.86-.9-1.86-1.92,0-3.78,2.47a18.59,18.59,0,0,0-2.89,6.27c0,.51-.09,1.19-.19,2a17.54,17.54,0,0,0-.13,2c0,.43,0,1.08-.14,1.95a18.44,18.44,0,0,0-.15,1.94,2.89,2.89,0,0,1-.89,2.18,3.08,3.08,0,0,1-2.23.86,3,3,0,0,1-2.22-.86,2.87,2.87,0,0,1-.88-2.16c0-.43,0-1.07-.14-1.93s-.13-1.51-.13-1.93c0-1.47.1-3.5.31-6.11s.32-4.65.32-6.11c0-.46,0-1.14-.08-2.05s-.08-1.58-.08-2a2.77,2.77,0,0,1,.91-2.12,3.22,3.22,0,0,1,2.24-.83q2.94,0,3.14,3.52l0,.25a9.74,9.74,0,0,1,6.92-3.3,5.87,5.87,0,0,1,5.86,3.55,18,18,0,0,1,1.08,7.12v1.59c0,.69,0,1.18,0,1.46a27.51,27.51,0,0,0,.48,4.52,27.6,27.6,0,0,1,.49,4.49,2.72,2.72,0,0,1-.9,2.09A3.17,3.17,0,0,1,1193.79,499.17Z"/><path d="M1207.2,487c0,.85,0,2.22.08,4.11s.08,3.26.08,4.11a2.83,2.83,0,0,1-.88,2.15,3.35,3.35,0,0,1-4.44,0,2.83,2.83,0,0,1-.88-2.15c0-.85,0-2.22-.08-4.11s-.08-3.26-.08-4.11c0-1.33.08-3,.23-5s.22-3.67.22-5a2.83,2.83,0,0,1,.88-2.14,3.06,3.06,0,0,1,2.22-.84,3.11,3.11,0,0,1,2.23.84,2.86,2.86,0,0,1,.87,2.14c0,1.34-.07,3-.22,5S1207.2,485.71,1207.2,487Zm-1.91-16.46a3.53,3.53,0,0,1-2.49-1,3.16,3.16,0,0,1,0-4.72,3.71,3.71,0,0,1,5,0,3.2,3.2,0,0,1,0,4.72A3.53,3.53,0,0,1,1205.29,470.58Z"/><path d="M1218.88,477.7q3.39-3.93,6.43-3.93a5.52,5.52,0,0,1,5.07,2.62,9.5,9.5,0,0,1,3-1.81,10.31,10.31,0,0,1,3.6-.61q4.4,0,6,4.38a50.08,50.08,0,0,1,1,6.09q.63,3.63,1.62,12.12a2.45,2.45,0,0,1-.88,2.12,3.38,3.38,0,0,1-2.27.83,2.78,2.78,0,0,1-3-2.56c-.27-1.55-.55-3.72-.83-6.54q-.45-4.62-.74-6.56c-.41-2.68-.92-4-1.55-4a7.41,7.41,0,0,0-2.36,1,16.68,16.68,0,0,0-2.7,1.78,64.77,64.77,0,0,0,.61,7.37,63.64,63.64,0,0,1,.63,7.36,2.84,2.84,0,0,1-.88,2.14,3.32,3.32,0,0,1-4.44,0,2.84,2.84,0,0,1-.88-2.14,73.55,73.55,0,0,0-.55-7.53,73.7,73.7,0,0,1-.55-7.54,8.29,8.29,0,0,0-.25-2.29,18.21,18.21,0,0,0-5.23,5c-.08.1-.2.26-.38.47q-.09,4.54-.09,7.12c0,.42,0,1,0,1.7s0,1.24,0,1.58a2.21,2.21,0,0,1-1,1.91,3.72,3.72,0,0,1-2.23.65,2.54,2.54,0,0,1-2.58-1.66,10,10,0,0,1-.47-3.57v-8.36c0-.75,0-1.84-.09-3.29s-.09-2.54-.09-3.29a8.75,8.75,0,0,1,.72-3.61c.58-1.35,1.41-2,2.47-2a3.13,3.13,0,0,1,2.25,1,3,3,0,0,1,1,2.15A9.6,9.6,0,0,0,1218.88,477.7Z"/><path d="M1268.18,498.81c-.68,0-1.78-.67-3.27-2a29,29,0,0,1-3.64,1.49,9,9,0,0,1-2.68.51q-5.4,0-8.12-2.9t-2.7-8.67a12.38,12.38,0,0,1,4-9.26,13.27,13.27,0,0,1,9.56-3.85,12.9,12.9,0,0,1,5,1.2q3.39,1.44,3.39,3.36a2.06,2.06,0,0,1-.52,1.4,14.37,14.37,0,0,0-.35,2.23q-.12,1.35-.12,3.15a21.53,21.53,0,0,0,.61,6.11c0,.14.38.91,1,2.32a11.57,11.57,0,0,1,.87,2.18,2.47,2.47,0,0,1-.9,1.95A3.15,3.15,0,0,1,1268.18,498.81Zm-5.57-15.16c0-.48,0-1,.1-1.65s.17-1.32.31-2.08a4.28,4.28,0,0,0-.8-.32,2.13,2.13,0,0,0-.59-.11,7.18,7.18,0,0,0-5.35,2.4,8.64,8.64,0,0,0-1.21,10.06,3.7,3.7,0,0,0,3.23,1.51,7.48,7.48,0,0,0,2.64-.46,8.32,8.32,0,0,0,2.35-1.35A70.54,70.54,0,0,1,1262.61,483.65Z"/><path d="M1281.28,494.27q0,4.28-3.1,4.27a3,3,0,0,1-2.22-.85,2.93,2.93,0,0,1-.88-2.2V464.42a2.69,2.69,0,0,1,.94-2.13,3.31,3.31,0,0,1,2.23-.76,3.08,3.08,0,0,1,2.18.79,2.73,2.73,0,0,1,.85,2.1Z"/><path d="M1302.77,481.13a2.4,2.4,0,0,1-2.67-1.86,11.14,11.14,0,0,0-1.84-.16c-3.61,0-5.41.5-5.41,1.48,0,.59,1.08,1.37,3.25,2.36a41,41,0,0,1,6,3.19q3.26,2.36,3.26,5.33a6.36,6.36,0,0,1-3.59,5.86,14.67,14.67,0,0,1-7.12,1.59,15.33,15.33,0,0,1-5.46-.92q-3.37-1.26-3.37-3.7,0-2.25,2.67-2.25a10.49,10.49,0,0,1,3,.65,10.13,10.13,0,0,0,3,.65q4.56,0,4.58-1.84c0-.76-1.06-1.61-3.17-2.54A45.27,45.27,0,0,1,1290,486a6.48,6.48,0,0,1-3.16-5.41q0-4.51,4.78-6.09a29.52,29.52,0,0,1,8.54-.92,7.26,7.26,0,0,1,3.32.58,3,3,0,0,1,1.48,2.9C1305,479.79,1304.23,481.13,1302.77,481.13Z"/><path d="M818.27,554c-.69,0-1.78-.67-3.28-2a30.2,30.2,0,0,1-3.64,1.5,9.22,9.22,0,0,1-2.67.5q-5.41,0-8.12-2.9t-2.71-8.67a12.38,12.38,0,0,1,4-9.26,13.3,13.3,0,0,1,9.57-3.85,12.85,12.85,0,0,1,4.94,1.2q3.39,1.44,3.39,3.35a2.07,2.07,0,0,1-.52,1.41,14.51,14.51,0,0,0-.34,2.23c-.09.9-.13,2-.13,3.15a21.91,21.91,0,0,0,.61,6.11c0,.14.39.91,1,2.32a11.24,11.24,0,0,1,.88,2.18,2.45,2.45,0,0,1-.91,2A3.14,3.14,0,0,1,818.27,554Zm-5.57-15.16a14.78,14.78,0,0,1,.1-1.65c.07-.62.17-1.32.3-2.08a5.19,5.19,0,0,0-.79-.33,2.57,2.57,0,0,0-.6-.1,7.18,7.18,0,0,0-5.35,2.4,8.64,8.64,0,0,0-1.21,10.06,3.72,3.72,0,0,0,3.24,1.52,7.8,7.8,0,0,0,2.64-.46,8.41,8.41,0,0,0,2.34-1.36A70,70,0,0,1,812.7,538.85Z"/><path d="M843.27,536.58q-.21,3.43-3.12,3.44c-1.89,0-2.83-1-2.83-2.92l-.12-2.27A9.22,9.22,0,0,0,830,540l0,11.3a2.83,2.83,0,0,1-.87,2.12,3.11,3.11,0,0,1-2.23.84,2.67,2.67,0,0,1-2.15-.9,3,3,0,0,1-.72-2.06V536.6c0-.46,0-1.15,0-2.07s.05-1.62.05-2.08a3,3,0,0,1,.75-2.1,3,3,0,0,1,5.11,1.72,14.4,14.4,0,0,1,8.83-3q4.49,0,4.49,6C843.29,535.84,843.28,536.34,843.27,536.58Z"/><path d="M857.87,553.81a14.21,14.21,0,0,1-8.78-2.56,9.4,9.4,0,0,1-3.78-8,15.44,15.44,0,0,1,3-9.61,10.7,10.7,0,0,1,9-4.36,14.75,14.75,0,0,1,6.49,1.26,5.45,5.45,0,0,1,3.39,5.17c0,1.65-.92,3.1-2.76,4.38a37,37,0,0,1-5,2.56L851.76,546a6.86,6.86,0,0,0,2.6,1.76,9.79,9.79,0,0,0,3.51.58,9.93,9.93,0,0,0,5.1-1.23,6.37,6.37,0,0,1,3-1.11,2,2,0,0,1,2.34,2.27q0,2.57-3.75,4.18A16.74,16.74,0,0,1,857.87,553.81Zm-.61-19.07a5,5,0,0,0-3.57,1.39,9.72,9.72,0,0,0-2.38,4.18l5.05-2.18a36.85,36.85,0,0,0,4.83-2.54A7.9,7.9,0,0,0,857.26,534.74Z"/><path d="M902.88,529.71c2-.18,3.44-.27,4.31-.27q4.2,0,4.2,2.87t-4.47,2.83a39.32,39.32,0,0,0-4.29.21q-.09,2.37,0,6.06c.06,3.53.09,5.55.09,6a32.81,32.81,0,0,1-.52,6.52,2.74,2.74,0,0,1-3,2.4,3.23,3.23,0,0,1-2.19-.81,2.57,2.57,0,0,1-.94-2,3.24,3.24,0,0,1,0-.56,36.68,36.68,0,0,0,.54-6.05V535.68c-.27,0-.77.08-1.48.18a9.85,9.85,0,0,1-1.31.11,3.31,3.31,0,0,1-2.27-.79,2.72,2.72,0,0,1-.89-2.15,2.69,2.69,0,0,1,2.2-2.74,19.26,19.26,0,0,1,3.93-.38c0-.27.11-1.12.29-2.54.42-3.34,1.32-5.82,2.72-7.45,1.73-2,4.4-3.06,8-3.06q4.11,0,4.11,2.94t-3.81,2.92a4.38,4.38,0,0,0-4,1.91,10.43,10.43,0,0,0-1.23,4.43Z"/><path d="M934.41,536.58q-.2,3.43-3.12,3.44c-1.88,0-2.83-1-2.83-2.92l-.11-2.27a9.22,9.22,0,0,0-7.23,5.19l0,11.3a2.8,2.8,0,0,1-.88,2.12,3.06,3.06,0,0,1-2.22.84,2.68,2.68,0,0,1-2.16-.9,3,3,0,0,1-.71-2.06V536.6c0-.46,0-1.15,0-2.07s0-1.62,0-2.08a3,3,0,0,1,.76-2.1,2.71,2.71,0,0,1,2.14-.84,2.77,2.77,0,0,1,3,2.56,14.39,14.39,0,0,1,8.82-3q4.5,0,4.5,6Q934.44,536.22,934.41,536.58Z"/><path d="M944.72,542.24c0,.85,0,2.22.08,4.11s.08,3.26.08,4.11a2.85,2.85,0,0,1-.88,2.15,3.35,3.35,0,0,1-4.44,0,2.85,2.85,0,0,1-.88-2.15c0-.85,0-2.22-.08-4.11s-.08-3.26-.08-4.11c0-1.33.08-3,.23-5s.22-3.67.22-5a2.86,2.86,0,0,1,.88-2.14,3.06,3.06,0,0,1,2.22-.84,3.11,3.11,0,0,1,2.23.84,2.86,2.86,0,0,1,.87,2.14c0,1.34-.07,3-.22,5S944.72,540.91,944.72,542.24Zm-1.91-16.46a3.57,3.57,0,0,1-2.49-1,3.18,3.18,0,0,1,0-4.72,3.71,3.71,0,0,1,5,0,3.2,3.2,0,0,1,0,4.72A3.53,3.53,0,0,1,942.81,525.78Z"/><path d="M961.91,553.81a14.26,14.26,0,0,1-8.79-2.56,9.41,9.41,0,0,1-3.77-8,15.44,15.44,0,0,1,3-9.61,10.69,10.69,0,0,1,9-4.36,14.75,14.75,0,0,1,6.49,1.26,5.45,5.45,0,0,1,3.39,5.17c0,1.65-.92,3.1-2.76,4.38a37,37,0,0,1-5,2.56L955.8,546a6.78,6.78,0,0,0,2.6,1.76,11.05,11.05,0,0,0,8.6-.65,6.44,6.44,0,0,1,3-1.11,2,2,0,0,1,2.34,2.27q0,2.57-3.75,4.18A16.74,16.74,0,0,1,961.91,553.81Zm-.61-19.07a5,5,0,0,0-3.57,1.39,9.72,9.72,0,0,0-2.38,4.18l5-2.18a36.85,36.85,0,0,0,4.83-2.54A7.9,7.9,0,0,0,961.3,534.74Z"/><path d="M994,554.37a2.76,2.76,0,0,1-3.07-2.72L990.3,547a33.51,33.51,0,0,1-.34-4.65c0-.39,0-1.05.08-2s.08-1.6.08-2c0-.11,0-.38,0-.8s.05-.78.05-1q0-1.86-.9-1.86-1.92,0-3.78,2.47a18.59,18.59,0,0,0-2.89,6.27c0,.51-.09,1.19-.19,2a17.54,17.54,0,0,0-.13,2,18.14,18.14,0,0,1-.14,1.95,18.44,18.44,0,0,0-.15,1.94,2.89,2.89,0,0,1-.89,2.18,3.08,3.08,0,0,1-2.23.86,3,3,0,0,1-2.22-.86,2.87,2.87,0,0,1-.88-2.16c0-.43,0-1.07-.13-1.93s-.14-1.51-.14-1.93c0-1.47.11-3.5.32-6.11s.31-4.65.31-6.11c0-.46,0-1.14-.08-2s-.08-1.58-.08-2a2.77,2.77,0,0,1,.91-2.12,3.22,3.22,0,0,1,2.24-.83q2.94,0,3.14,3.52l0,.25a9.74,9.74,0,0,1,6.92-3.3,5.87,5.87,0,0,1,5.86,3.55,18,18,0,0,1,1.08,7.12V541c0,.69,0,1.18,0,1.46a27.51,27.51,0,0,0,.48,4.52,27.6,27.6,0,0,1,.49,4.49,2.72,2.72,0,0,1-.9,2.09A3.17,3.17,0,0,1,994,554.37Z"/><path d="M1016.82,530.2q.3-7.65.7-10.58a2.71,2.71,0,0,1,2.92-2.65,2.79,2.79,0,0,1,2.13.86,3,3,0,0,1,.81,2.11c0,2.2-.17,5.46-.5,9.8s-.51,7.61-.51,9.8a69.81,69.81,0,0,0,.52,10.75,4.25,4.25,0,0,1,.07.66,2.62,2.62,0,0,1-.9,2,3,3,0,0,1-2.09.81,2.65,2.65,0,0,1-2.47-1.48,9.25,9.25,0,0,1-3.17,1.2,20.77,20.77,0,0,1-3.39.28,11.55,11.55,0,0,1-8.36-3.21,11.15,11.15,0,0,1-3.39-8.36,13.85,13.85,0,0,1,3.42-9.76,12.58,12.58,0,0,1,11.92-3.36A6.65,6.65,0,0,1,1016.82,530.2Zm-.44,7.08a5.05,5.05,0,0,0-1.94-2.11,5.43,5.43,0,0,0-2.83-.7,6.24,6.24,0,0,0-5,1.92q-1.67,1.92-1.67,5.76a5.57,5.57,0,0,0,1.8,4.16,5.86,5.86,0,0,0,4.18,1.73,6.65,6.65,0,0,0,2.63-.41,12,12,0,0,0,2.06-1.44,8.06,8.06,0,0,0,.75-.69Q1016.32,544.42,1016.38,537.28Z"/><path d="M1043.21,536.33a2.4,2.4,0,0,1-2.67-1.86,11.14,11.14,0,0,0-1.84-.16c-3.61,0-5.41.5-5.41,1.48,0,.59,1.08,1.38,3.25,2.36a40.46,40.46,0,0,1,6,3.19c2.17,1.58,3.26,3.35,3.26,5.33a6.36,6.36,0,0,1-3.59,5.86,14.67,14.67,0,0,1-7.12,1.59,15.41,15.41,0,0,1-5.46-.92q-3.37-1.26-3.37-3.7,0-2.25,2.67-2.25a10.49,10.49,0,0,1,3,.65,10.19,10.19,0,0,0,3,.65q4.56,0,4.58-1.84c0-.76-1-1.61-3.17-2.54a45.27,45.27,0,0,1-5.93-2.94,6.48,6.48,0,0,1-3.16-5.41q0-4.52,4.78-6.09a29.52,29.52,0,0,1,8.54-.92,7.26,7.26,0,0,1,3.32.58,3,3,0,0,1,1.48,2.9C1045.39,535,1044.67,536.33,1043.21,536.33Z"/><path d="M1087.44,554.37a2.77,2.77,0,0,1-3.08-2.72c-.21-1.54-.41-3.09-.62-4.65a33.51,33.51,0,0,1-.34-4.65c0-.39,0-1.05.08-2s.08-1.6.08-2c0-.11,0-.38,0-.8s.05-.78.05-1q0-1.86-.9-1.86c-1.29,0-2.54.82-3.78,2.47a18.59,18.59,0,0,0-2.89,6.27c0,.51-.09,1.19-.19,2a15.55,15.55,0,0,0-.13,2c0,.43,0,1.08-.14,1.95a18.44,18.44,0,0,0-.15,1.94,2.92,2.92,0,0,1-.89,2.18,3.32,3.32,0,0,1-4.46,0,2.9,2.9,0,0,1-.87-2.16c0-.43,0-1.07-.14-1.93s-.13-1.51-.13-1.93c0-1.47.1-3.5.31-6.11s.32-4.65.32-6.11c0-.46,0-1.14-.08-2s-.08-1.58-.08-2a2.74,2.74,0,0,1,.91-2.12,3.21,3.21,0,0,1,2.23-.83c2,0,3,1.17,3.15,3.52l0,.25c2.19-2.2,4.49-3.3,6.92-3.3a5.88,5.88,0,0,1,5.86,3.55,18,18,0,0,1,1.08,7.12V541c0,.69,0,1.18,0,1.46a27.51,27.51,0,0,0,.48,4.52,27.41,27.41,0,0,1,.48,4.49,2.74,2.74,0,0,1-.89,2.09A3.17,3.17,0,0,1,1087.44,554.37Z"/><path d="M1103.07,554.1a10,10,0,0,1-7.14-2.85,11.47,11.47,0,0,1-3.43-8.33,13.73,13.73,0,0,1,2.71-8.85,11.18,11.18,0,0,1,9.5-4.59,8.43,8.43,0,0,1,7.15,3.6,13.19,13.19,0,0,1,2.38,8,14.31,14.31,0,0,1-2.79,8.89A10,10,0,0,1,1103.07,554.1Zm1.35-18.69a4.9,4.9,0,0,0-4.36,2.52,9.19,9.19,0,0,0-1.34,5,5.44,5.44,0,0,0,1.52,4.13,4,4,0,0,0,2.83,1.14,4.86,4.86,0,0,0,3.4-1.32,5.92,5.92,0,0,0,1.75-4.2C1108.41,537.85,1107.15,535.43,1104.42,535.41Z"/><path d="M1133.87,534.69l-1.11,0-1.12,0a14.77,14.77,0,0,0-2.13.18q.4,9.08.4,11.86c0,.19,0,.55,0,1.09s0,1,0,1.29q0,5.16-3.26,5.16a3.18,3.18,0,0,1-2.13-.76,2.5,2.5,0,0,1-1-2c0-.54,0-1.35.07-2.43s.06-1.88.06-2.42c0-1.82-.13-5.69-.4-11.64-.93,0-2.33-.17-4.21-.37s-2.82-1.17-2.82-2.91a3,3,0,0,1,3-3c.56,0,1.83.09,3.82.27,0-.48-.05-1.27-.11-2.38q-.09-1.44-.09-2.22a2.7,2.7,0,0,1,.92-2.09,3.2,3.2,0,0,1,2.23-.83q3.32,0,3.32,5.59l0,1.84a17,17,0,0,1,2.26-.2,12,12,0,0,1,3.53.34,2.6,2.6,0,0,1,1.8,2.74,2.87,2.87,0,0,1-.88,2.13A3,3,0,0,1,1133.87,534.69Z"/><path d="M1170.3,529.71c2-.18,3.44-.27,4.31-.27q4.2,0,4.2,2.87t-4.47,2.83a39.32,39.32,0,0,0-4.29.21q-.09,2.37,0,6.06c.06,3.53.09,5.55.09,6a32.07,32.07,0,0,1-.52,6.52,2.74,2.74,0,0,1-3,2.4,3.23,3.23,0,0,1-2.19-.81,2.57,2.57,0,0,1-.94-2,3.24,3.24,0,0,1,0-.56,36.68,36.68,0,0,0,.54-6.05V535.68c-.27,0-.77.08-1.48.18a9.85,9.85,0,0,1-1.31.11,3.31,3.31,0,0,1-2.27-.79,2.75,2.75,0,0,1-.89-2.15,2.69,2.69,0,0,1,2.2-2.74,19.26,19.26,0,0,1,3.93-.38c0-.27.11-1.12.29-2.54q.63-5,2.72-7.45c1.73-2,4.4-3.06,8-3.06q4.11,0,4.11,2.94t-3.81,2.92a4.38,4.38,0,0,0-4,1.91,10.43,10.43,0,0,0-1.23,4.43Z"/><path d="M1192.27,554.1a10,10,0,0,1-7.15-2.85,11.47,11.47,0,0,1-3.43-8.33,13.73,13.73,0,0,1,2.71-8.85,11.19,11.19,0,0,1,9.51-4.59,8.42,8.42,0,0,1,7.14,3.6,13.19,13.19,0,0,1,2.38,8,14.31,14.31,0,0,1-2.79,8.89A10,10,0,0,1,1192.27,554.1Zm1.34-18.69a4.87,4.87,0,0,0-4.35,2.52,9.11,9.11,0,0,0-1.35,5,5.4,5.4,0,0,0,1.53,4.13,4,4,0,0,0,2.83,1.14,4.85,4.85,0,0,0,3.39-1.32,5.92,5.92,0,0,0,1.75-4.2C1197.6,537.85,1196.34,535.43,1193.61,535.41Z"/><path d="M1216.46,554.1a10,10,0,0,1-7.15-2.85,11.47,11.47,0,0,1-3.43-8.33,13.68,13.68,0,0,1,2.72-8.85,11.16,11.16,0,0,1,9.5-4.59,8.42,8.42,0,0,1,7.14,3.6,13.13,13.13,0,0,1,2.38,8,14.31,14.31,0,0,1-2.79,8.89A10,10,0,0,1,1216.46,554.1Zm1.34-18.69a4.87,4.87,0,0,0-4.35,2.52,9.11,9.11,0,0,0-1.35,5,5.4,5.4,0,0,0,1.53,4.13,4,4,0,0,0,2.83,1.14,4.85,4.85,0,0,0,3.39-1.32,5.88,5.88,0,0,0,1.75-4.2C1221.79,537.85,1220.53,535.43,1217.8,535.41Z"/><path d="M1247.83,530.2q.3-7.65.7-10.58a2.71,2.71,0,0,1,2.92-2.65,2.8,2.8,0,0,1,2.13.86,3,3,0,0,1,.81,2.11c0,2.2-.17,5.46-.5,9.8s-.51,7.61-.51,9.8a69.81,69.81,0,0,0,.52,10.75,4.25,4.25,0,0,1,.07.66,2.62,2.62,0,0,1-.9,2,3,3,0,0,1-2.09.81,2.65,2.65,0,0,1-2.47-1.48,9.25,9.25,0,0,1-3.17,1.2,20.77,20.77,0,0,1-3.39.28,11.55,11.55,0,0,1-8.36-3.21,11.15,11.15,0,0,1-3.39-8.36,13.85,13.85,0,0,1,3.42-9.76,12.58,12.58,0,0,1,11.92-3.36A6.65,6.65,0,0,1,1247.83,530.2Zm-.45,7.08a5,5,0,0,0-1.93-2.11,5.43,5.43,0,0,0-2.83-.7,6.24,6.24,0,0,0-5,1.92q-1.67,1.92-1.67,5.76a5.57,5.57,0,0,0,1.8,4.16A5.86,5.86,0,0,0,1242,548a6.65,6.65,0,0,0,2.63-.41,12,12,0,0,0,2.06-1.44,6.87,6.87,0,0,0,.74-.69Q1247.33,544.42,1247.38,537.28Z"/><path d="M1261.49,554.26a3.25,3.25,0,0,1-2.51-1.44,4,4,0,0,1-1.06-2.47,2.46,2.46,0,0,1,.92-2,3.12,3.12,0,0,1,2.09-.79,3.21,3.21,0,0,1,2.49,1.44,4,4,0,0,1,1.06,2.45,2.51,2.51,0,0,1-.91,2A3,3,0,0,1,1261.49,554.26Zm.07-8.16a2.9,2.9,0,0,1-2.08-.78,2.62,2.62,0,0,1-.82-2c0-.58,0-1.45-.05-2.62s-.06-2-.06-2.61q0-3.11.06-9.3t.05-9.3a2.66,2.66,0,0,1,.83-2,3.11,3.11,0,0,1,4.14,0,2.66,2.66,0,0,1,.83,2v23.83a2.65,2.65,0,0,1-.82,2A2.9,2.9,0,0,1,1261.56,546.1Z"/><ellipse class="cls-8" cx="1068.62" cy="764.32" rx="197.12" ry="197.08" transform="translate(-1.42 1.99) rotate(-0.11)"/><path class="cls-6" d="M1068.62,571.23a192.44,192.44,0,1,1-75.17,15.17,192.09,192.09,0,0,1,75.17-15.17m0-8c-111.07,0-201.12,90-201.12,201.09s90,201.08,201.12,201.08,201.12-90,201.12-201.08-90-201.09-201.12-201.09Z"/><ellipse class="cls-4" cx="1066.79" cy="764" rx="130.29" ry="125"/><path class="cls-6" d="M1066.79,645c33.29,0,64.57,12.44,88.06,35s36.24,52.28,36.24,84-12.87,61.52-36.24,84-54.77,35-88.06,35-64.56-12.44-88.06-35S942.5,795.7,942.5,764s12.87-61.52,36.23-84,54.77-35,88.06-35m0-12c-75.27,0-136.29,58.65-136.29,131s61,131,136.29,131,136.3-58.65,136.3-131-61-131-136.3-131Z"/><polygon class="cls-40" points="1031.59 705.99 1031.59 822.01 1137.2 764.41 1031.59 705.99"/></svg>
