<svg id="Layer_1" data-name="Layer 1" xmlns="http://www.w3.org/2000/svg" viewBox="0 0 2071 1210"><defs><style>.cls-1,.cls-13{fill:#cefaf9;}.cls-2{fill:#dfe4e7;}.cls-3{fill:#fff;}.cls-4,.cls-5{fill:#ed7b81;}.cls-13,.cls-5,.cls-6{stroke:#000;}.cls-10,.cls-13,.cls-15,.cls-5,.cls-6,.cls-9{stroke-miterlimit:10;}.cls-12,.cls-6{fill:#fee0db;}.cls-10,.cls-7{fill:#f3bed5;}.cls-8{fill:#c5eccd;}.cls-9{fill:#f7cbde;}.cls-10,.cls-15,.cls-9{stroke:#999;}.cls-11{fill:#d3a5b9;}.cls-14{fill:none;}.cls-15{fill:#a3d399;}</style></defs><title>screen</title><path class="cls-1" d="M2065.38,39V.49h-9.32a5.3,5.3,0,0,1-2.3-.49h-.82a6.07,6.07,0,0,1-1.07.1c-2.38,0-4.75,0-7.13-.1H2005.3a4.63,4.63,0,0,1-1.89,0H.5V1204H2065.38V88q-.45-21.72-.11-43.46C2065.29,42.65,2065.34,40.8,2065.38,39Z"/><rect class="cls-2" x="565.12" width="1042.12" height="1204"/><rect class="cls-3" x="1053.37" width="64.53" height="161.65"/><rect class="cls-3" x="1053.37" y="731.32" width="64.53" height="200.67"/><rect class="cls-3" x="1053.37" y="478.26" width="64.53" height="200.67"/><rect class="cls-3" x="1053.37" y="217.39" width="64.53" height="200.67"/><rect class="cls-3" x="1053.37" y="984.38" width="64.53" height="200.67"/><polygon class="cls-4" points="1843.27 502.28 1850.78 16.11 2017.56 16.11 2017.56 502.28 1843.27 502.28"/><path d="M2017.06,16.61V501.78H1843.78l7.5-485.17h165.78m1-1H1850.29l-7.53,487.17h175.3V15.61Z"/><polygon class="cls-5" points="2065.92 38.54 2018.6 16.4 2018.6 481.43 2065.92 481.43 2065.92 38.54"/><rect class="cls-6" x="1872.34" y="97.07" width="109.7" height="105.98"/><rect class="cls-6" x="1872.34" y="367.54" width="109.7" height="105.98"/><polygon class="cls-6" points="1982.03 343.82 1872.34 343.82 1872.34 237.84 1982.03 236.26 1982.03 343.82"/><rect class="cls-7" x="1745.97" y="131.55" width="105.4" height="400.22"/><rect class="cls-8" x="1802.43" y="174.47" width="29.04" height="33.44"/><polygon class="cls-8" points="1798.13 63.54 1745.43 130.99 1850.83 130.99 1798.13 63.54"/><rect class="cls-8" x="1764.79" y="174.47" width="29.04" height="33.44"/><rect class="cls-8" x="1764.79" y="224.64" width="29.04" height="33.44"/><rect class="cls-8" x="1802.43" y="224.64" width="29.04" height="33.44"/><rect class="cls-8" x="1764.79" y="274.8" width="29.04" height="33.44"/><rect class="cls-8" x="1802.43" y="274.8" width="29.04" height="33.44"/><rect class="cls-8" x="1801.89" y="321.07" width="29.04" height="33.44"/><rect class="cls-8" x="1764.25" y="321.07" width="29.04" height="33.44"/><rect class="cls-8" x="1764.25" y="371.23" width="29.04" height="33.44"/><rect class="cls-8" x="1801.89" y="371.23" width="29.04" height="33.44"/><rect class="cls-8" x="1764.25" y="421.4" width="29.04" height="33.44"/><rect class="cls-8" x="1801.89" y="421.4" width="29.04" height="33.44"/><ellipse class="cls-8" cx="1798.13" cy="64.66" rx="18.82" ry="16.72"/><path class="cls-9" d="M1784.79,443.7h215.39a0,0,0,0,1,0,0V1204a0,0,0,0,1,0,0H1776a0,0,0,0,1,0,0V452.46A8.77,8.77,0,0,1,1784.79,443.7Z"/><path class="cls-10" d="M2057.33,474.25,2000.65,444c-.23-.13-.47.23-.47.73v758.56c0,.42.17.76.38.76h66.12c.21,0,.38-.35.38-.77l-3.93-713.89C2063.1,482.24,2060.72,476.07,2057.33,474.25Z"/><rect class="cls-11" x="1811.27" y="520.18" width="60.67" height="91.78"/><rect class="cls-11" x="1899.81" y="634.06" width="60.67" height="91.78"/><rect class="cls-11" x="1811.27" y="634.06" width="60.67" height="91.78"/><rect class="cls-11" x="1899.81" y="520.18" width="60.67" height="91.78"/><rect class="cls-11" x="1899.81" y="863.14" width="60.67" height="91.78"/><rect class="cls-11" x="1811.27" y="747.93" width="60.67" height="91.78"/><rect class="cls-11" x="1899.81" y="747.93" width="60.67" height="91.78"/><rect class="cls-11" x="1811.63" y="1107.29" width="60.67" height="91.78"/><rect class="cls-11" x="1899.81" y="980.2" width="60.67" height="91.78"/><rect class="cls-11" x="1811.63" y="980.2" width="60.67" height="91.78"/><rect class="cls-11" x="1811.63" y="864.26" width="60.67" height="91.78"/><rect class="cls-11" x="1899.81" y="1107.29" width="60.67" height="91.78"/><rect class="cls-4" x="1601.32" y="598.83" width="222.62" height="605.17"/><rect class="cls-12" x="1593.79" y="598.83" width="237.68" height="42.66" rx="13.46"/><rect class="cls-12" x="1616.38" y="702.8" width="48.4" height="79.98"/><rect class="cls-12" x="1691.66" y="702.8" width="48.4" height="79.98"/><rect class="cls-12" x="1762.64" y="702.8" width="48.4" height="79.98"/><rect class="cls-12" x="1597.02" y="817.44" width="231.22" height="10.66" rx="4"/><rect class="cls-12" x="1616.38" y="852.1" width="48.4" height="79.98"/><rect class="cls-12" x="1691.66" y="852.1" width="48.4" height="79.98"/><rect class="cls-12" x="1762.64" y="852.1" width="48.4" height="79.98"/><rect class="cls-12" x="1595.94" y="961.4" width="231.22" height="10.66" rx="4"/><rect class="cls-12" x="1762.64" y="990.72" width="48.4" height="79.98"/><rect class="cls-12" x="1691.66" y="990.72" width="48.4" height="79.98"/><rect class="cls-12" x="1616.38" y="990.72" width="48.4" height="79.98"/><rect class="cls-12" x="1675.53" y="1105.36" width="79.58" height="98.64"/><path class="cls-9" d="M1615.46,315.49h138.26a0,0,0,0,1,0,0V594.57a0,0,0,0,1,0,0h-147a0,0,0,0,1,0,0V324.26A8.77,8.77,0,0,1,1615.46,315.49Z"/><path class="cls-10" d="M1791.21,326.71,1754,315.59a.25.25,0,0,0-.31.26V594.29a.27.27,0,0,0,.24.28h43.38a.27.27,0,0,0,.24-.28l-2.57-262A5.71,5.71,0,0,0,1791.21,326.71Z"/><rect class="cls-11" x="1687.9" y="473.95" width="39.79" height="33.69"/><rect class="cls-13" x="1631.43" y="355.07" width="38.72" height="40.13"/><rect class="cls-13" x="1693.81" y="355.07" width="38.72" height="40.13"/><rect class="cls-13" x="1631.43" y="409.69" width="38.72" height="40.13"/><rect class="cls-13" x="1692.74" y="411.92" width="38.72" height="40.13"/><rect class="cls-13" x="1633.59" y="464.32" width="38.72" height="40.13"/><polygon class="cls-12" points="1817.87 617.28 1601.77 616.84 1710.19 423.06 1817.87 617.28"/><polyline class="cls-14" points="790.52 315.1 781.22 315.1 786.2 309.75 780.56 313.76"/><rect class="cls-15" x="807.92" y="294.31" width="1.13" height="1.17"/></svg>
