<svg id="Layer_1" data-name="Layer 1" xmlns="http://www.w3.org/2000/svg" viewBox="0 0 1920 1080"><defs><style>.cls-1{fill:#eed2fb;}.cls-2{fill:#cefaf9;}.cls-3,.cls-7{fill:#a3d399;}.cls-4{fill:#ed7b81;}.cls-38,.cls-39,.cls-5{fill:none;}.cls-40,.cls-6{fill:#fff;}.cls-10,.cls-13,.cls-16,.cls-17,.cls-7{stroke:#999;}.cls-10,.cls-13,.cls-16,.cls-17,.cls-35,.cls-38,.cls-39,.cls-40,.cls-7{stroke-miterlimit:10;}.cls-17,.cls-35,.cls-8{fill:#f3bed5;}.cls-9{fill:#c5eccd;}.cls-10{fill:#ebd1e4;}.cls-11{fill:#e5e8fb;}.cls-12{fill:#e0e1f5;}.cls-13{fill:#e7f3cd;}.cls-14{fill:#d3a5b9;}.cls-15{fill:#e0d1e3;}.cls-16{fill:#f7cbde;}.cls-18{fill:#f7ac4a;}.cls-19{fill:#be873b;}.cls-20{fill:#afc1c9;}.cls-21{fill:#5eb030;}.cls-22{fill:#a44121;}.cls-23{fill:#7f3215;}.cls-24{fill:#e63231;}.cls-25{fill:#498a25;}.cls-26{fill:#b02924;}.cls-27{fill:#312782;}.cls-28{fill:#f5cd9d;}.cls-29{fill:#1d1d1b;}.cls-30{fill:#e3e3e2;}.cls-31{fill:#a54121;}.cls-32{fill:#f7c799;}.cls-33{fill:#ccedfd;}.cls-34{fill:#edf88d;}.cls-35,.cls-38,.cls-39,.cls-40{stroke:#000;}.cls-35{stroke-width:2px;}.cls-36{fill:#e0ba93;}.cls-37{fill:#00ba52;}.cls-39{stroke-width:11px;}</style></defs><title>start</title><rect class="cls-1" x="0.5" y="441.5" width="1919" height="638"/><path d="M1919,442v637H1V442H1919m1-1H0v639H1920V441Z"/><path class="cls-2" d="M.5,518.5V.5H1505a5.82,5.82,0,0,0,1.5.19A5.9,5.9,0,0,0,1508,.5h3.89a5.37,5.37,0,0,0,.93.08,5.89,5.89,0,0,0,1-.09h.56a5.25,5.25,0,0,0,.92.08,5.89,5.89,0,0,0,1-.09h4a5.9,5.9,0,0,0,1.51.19,5.77,5.77,0,0,0,1.5-.19h.74a5.25,5.25,0,0,0,.92.08,5.89,5.89,0,0,0,1-.09h8.24a5.25,5.25,0,0,0,.92.08,6,6,0,0,0,1-.09h.33a5.25,5.25,0,0,0,.92.08,6.7,6.7,0,0,0,.79,0,5.31,5.31,0,0,0,.68,0,6.67,6.67,0,0,0,1-.08,5.9,5.9,0,0,0,1.51.19,6.12,6.12,0,0,0,1.48-.18,6.3,6.3,0,0,0,.89.07,4.92,4.92,0,0,0,.67,0h.08a2.43,2.43,0,0,0,.38,0,6.1,6.1,0,0,0,1-.09h3a5.25,5.25,0,0,0,.92.08,5.89,5.89,0,0,0,1-.09h.56a5.25,5.25,0,0,0,.92.08,5.92,5.92,0,0,0,1-.09h18.4a5.17,5.17,0,0,0,.92.08,6.84,6.84,0,0,0,.79,0,5.31,5.31,0,0,0,.68,0,5.89,5.89,0,0,0,1-.09,4.28,4.28,0,0,0,.92.09l.52,0a6,6,0,0,0,1.52.2,6.41,6.41,0,0,0,1.31-.14l.3-.06h.18l.69-.05H1919.5v518Z"/><path d="M1919,1V518H1V1H1504.93a6.23,6.23,0,0,0,1.56.19,6.31,6.31,0,0,0,1.57-.19h3.75a7.1,7.1,0,0,0,1,.08,7.07,7.07,0,0,0,1-.08h.48a7.07,7.07,0,0,0,1,.08,7.07,7.07,0,0,0,1-.08h4a6.37,6.37,0,0,0,1.57.19,6.37,6.37,0,0,0,1.57-.19h.59a7.07,7.07,0,0,0,1,.08,7.07,7.07,0,0,0,1-.08h8.16a7.07,7.07,0,0,0,1,.08,7,7,0,0,0,1-.08h.26a7.07,7.07,0,0,0,1,.08,7.61,7.61,0,0,0,.79-.05,4.61,4.61,0,0,0,.68.05,6.26,6.26,0,0,0,.95-.07,6.53,6.53,0,0,0,1.53.18,6.83,6.83,0,0,0,1.5-.17,6.58,6.58,0,0,0,.87.06l.67,0h0a3.25,3.25,0,0,0,.44,0,7,7,0,0,0,1-.08h3a7.07,7.07,0,0,0,1,.08,7.07,7.07,0,0,0,1-.08h.48a7.07,7.07,0,0,0,1,.08,7.1,7.1,0,0,0,1-.08h18.32a7,7,0,0,0,1,.08,7.27,7.27,0,0,0,.78-.05,4.75,4.75,0,0,0,.69.05,6.48,6.48,0,0,0,1-.07,6.39,6.39,0,0,0,1,.07l.48,0a6.3,6.3,0,0,0,1.56.2,7,7,0,0,0,1.43-.16l.17,0h0l.21,0,.65,0H1919m1-1H1580.55l-1,.07-.31.06a6.12,6.12,0,0,1-1.2.13,5.63,5.63,0,0,1-1.48-.21,5.12,5.12,0,0,1-.56,0,5.55,5.55,0,0,1-.93-.08h-.07a5.43,5.43,0,0,1-.92.08,5.2,5.2,0,0,1-.69-.06,4.93,4.93,0,0,1-.78.06,5.34,5.34,0,0,1-.92-.08h-18.48a5.55,5.55,0,0,1-.93.08,5.43,5.43,0,0,1-.92-.08h-.64a5.34,5.34,0,0,1-.92.08,5.43,5.43,0,0,1-.92-.08h-3.13a5.34,5.34,0,0,1-.92.08c-.16,0-.31,0-.46,0s-.44,0-.67,0a5.43,5.43,0,0,1-.92-.08h0a5.4,5.4,0,0,1-1.44.19,5.45,5.45,0,0,1-1.44-.19h-.12a5.43,5.43,0,0,1-.92.08,4.91,4.91,0,0,1-.68-.06,5.06,5.06,0,0,1-.79.06,5.43,5.43,0,0,1-.92-.08h-.42a5.34,5.34,0,0,1-.92.08,5.43,5.43,0,0,1-.92-.08h-8.32a5.34,5.34,0,0,1-.92.08,5.43,5.43,0,0,1-.92-.08h-.8a5.45,5.45,0,0,1-1.44.19,5.45,5.45,0,0,1-1.44-.19h-4.19a5.34,5.34,0,0,1-.92.08,5.43,5.43,0,0,1-.92-.08h-.64a5.43,5.43,0,0,1-.92.08,5.55,5.55,0,0,1-.93-.08h-4a5.4,5.4,0,0,1-1.44.19,5.32,5.32,0,0,1-1.43-.19H0V519H1920V0Z"/><rect class="cls-3" x="1766.73" y="827.45" width="21.15" height="87.55"/><rect class="cls-3" x="1701.66" y="824.29" width="21.15" height="87.55"/><path class="cls-4" d="M1699.12,888.77c-13.09-.07-23.95,11-23.83,23.68v.33l31.34-.12,16.06-.06C1722.53,899.49,1711.91,888.83,1699.12,888.77Z"/><path class="cls-3" d="M1585.36,739.6,1612,763.13c17,14.58,48.66,6.24,48.66,6.24l-2-13-30.56-6.21-33.16-17Z"/><path class="cls-4" d="M1640.74,735.42c58.11,97.9,153.2,97.9,211.3,0s10.57-178-105.65-178S1582.64,637.52,1640.74,735.42Z"/><path d="M1713.37,724.26c5.79,0,5.8-9,0-9s-5.8,9,0,9Z"/><path d="M1739.48,698.87c5.79,0,5.8-9,0-9s-5.8,9,0,9Z"/><path d="M1788.68,681.29c5.79,0,5.8-9,0-9s-5.81,9,0,9Z"/><path d="M1831.85,701.8c5.79,0,5.8-9,0-9s-5.8,9,0,9Z"/><path d="M1777.63,724.26c5.79,0,5.8-9,0-9s-5.8,9,0,9Z"/><path d="M1689.27,730.12c5.79,0,5.8-9,0-9s-5.8,9,0,9Z"/><path d="M1814.78,739.89c5.79,0,5.8-9,0-9s-5.8,9,0,9Z"/><path d="M1708.35,681.29c5.79,0,5.8-9,0-9s-5.8,9,0,9Z"/><path d="M1796.71,662.21c3.86,0,3.86-6,0-6s-3.87,6,0,6Z"/><path d="M1811.77,685.65c3.86,0,3.87-6,0-6s-3.87,6,0,6Z"/><path d="M1799.72,712c3.86,0,3.87-6,0-6s-3.87,6,0,6Z"/><path d="M1776.63,706.16c3.86,0,3.86-6,0-6s-3.87,6,0,6Z"/><path d="M1729.44,823.36c3.86,0,3.86-6,0-6s-3.87,6,0,6Z"/><polygon class="cls-3" points="1719.5 558.38 1687.02 529.46 1712.99 529.67 1742.51 558.38 1719.5 558.38"/><polygon class="cls-3" points="1742.51 536.01 1712.99 507.29 1712.99 529.67 1742.51 558.38 1742.51 536.01"/><polygon class="cls-3" points="1773.83 558.38 1807.93 529.46 1780.35 529.67 1750.82 558.38 1773.83 558.38"/><polygon class="cls-3" points="1750.82 536.01 1780.35 507.29 1780.35 529.67 1750.82 558.38 1750.82 536.01"/><rect class="cls-3" x="1738.53" y="507.31" width="15.18" height="51.16"/><polyline class="cls-5" points="1753.71 515.75 1738.53 515.75 1746.66 507.31 1737.45 513.64"/><ellipse cx="1712.24" cy="699.29" rx="35.51" ry="50.1"/><ellipse class="cls-6" cx="1723.89" cy="713.53" rx="11.39" ry="11.08"/><ellipse class="cls-6" cx="1694.07" cy="685.05" rx="20.06" ry="19.51"/><ellipse cx="1801.16" cy="702.45" rx="35.51" ry="50.1"/><ellipse class="cls-6" cx="1812.81" cy="716.69" rx="11.39" ry="11.08"/><ellipse class="cls-6" cx="1782.99" cy="688.21" rx="20.06" ry="19.51"/><path d="M1715,765.51c2.29,37.91,56.59,18.26,66.91.23"/><path class="cls-3" d="M1841.87,752.56l27.87,22.15c17.35,14.24,13.56,45.88,13.56,45.88h-13.56l-10.84-28.48-22.23-29.37Z"/><path class="cls-4" d="M1788.58,890.88c-13.09-.07-23.95,11-23.83,23.68,0,.11,0,.22,0,.33l31.33-.12,16.06-.06C1812,901.6,1801.37,890.94,1788.58,890.88Z"/><rect class="cls-7" x="1782.13" y="483" width="1.84" height="1.84"/><rect class="cls-8" x="1637.5" y="157.5" width="98" height="359"/><rect class="cls-9" x="1690.5" y="198.5" width="27" height="30"/><polygon class="cls-9" points="1686.5 99 1637.5 159.5 1735.5 159.5 1686.5 99"/><rect class="cls-9" x="1655.5" y="198.5" width="27" height="30"/><rect class="cls-9" x="1655.5" y="243.5" width="27" height="30"/><rect class="cls-9" x="1690.5" y="243.5" width="27" height="30"/><rect class="cls-9" x="1655.5" y="288.5" width="27" height="30"/><rect class="cls-9" x="1690.5" y="288.5" width="27" height="30"/><rect class="cls-9" x="1690" y="330" width="27" height="30"/><rect class="cls-9" x="1655" y="330" width="27" height="30"/><rect class="cls-9" x="1655" y="375" width="27" height="30"/><rect class="cls-9" x="1690" y="375" width="27" height="30"/><rect class="cls-9" x="1655" y="420" width="27" height="30"/><rect class="cls-9" x="1690" y="420" width="27" height="30"/><ellipse class="cls-9" cx="1686.5" cy="100" rx="17.5" ry="15"/><rect class="cls-10" x="1735" y="78" width="134" height="438"/><path class="cls-10" d="M1920.25,3.52A4.71,4.71,0,0,1,1921,1h-93l-93,77h134l51.25-54.81Z"/><polygon class="cls-10" points="1869.5 516.5 1920 516.5 1919.79 26.57 1869.5 78.5 1869.5 516.5"/><rect class="cls-11" x="1763" y="260" width="78" height="87" rx="8.8"/><rect class="cls-11" x="1763" y="380" width="78" height="87" rx="8.8"/><rect class="cls-11" x="1763" y="140" width="78" height="87" rx="8.8"/><rect class="cls-12" x="1759" y="462" width="85" height="6" rx="1.09"/><rect class="cls-12" x="1759" y="342" width="85" height="6" rx="1.09"/><rect class="cls-12" x="1759" y="221" width="85" height="6" rx="1.09"/><rect class="cls-13" x="1407.5" y="180.5" width="23" height="337"/><rect class="cls-14" x="1423" y="217" width="7" height="42"/><rect class="cls-14" x="1423" y="387" width="7" height="42"/><rect class="cls-14" x="1423" y="334" width="7" height="42"/><rect class="cls-14" x="1423" y="276" width="7" height="42"/><rect class="cls-14" x="1422" y="441" width="7" height="42"/><rect class="cls-15" x="1430.5" y="61.5" width="207" height="454"/><rect class="cls-14" x="1423.5" y="61.5" width="221" height="32" rx="13.46"/><rect class="cls-14" x="1444.5" y="139.5" width="45" height="60"/><rect class="cls-14" x="1514.5" y="139.5" width="45" height="60"/><rect class="cls-14" x="1580.5" y="139.5" width="45" height="60"/><rect class="cls-14" x="1426.5" y="225.5" width="215" height="8" rx="4"/><rect class="cls-14" x="1444.5" y="251.5" width="45" height="60"/><rect class="cls-14" x="1514.5" y="251.5" width="45" height="60"/><rect class="cls-14" x="1580.5" y="251.5" width="45" height="60"/><rect class="cls-14" x="1425.5" y="333.5" width="215" height="8" rx="4"/><rect class="cls-14" x="1580.5" y="355.5" width="45" height="60"/><rect class="cls-14" x="1514.5" y="355.5" width="45" height="60"/><rect class="cls-14" x="1444.5" y="355.5" width="45" height="60"/><rect class="cls-14" x="1499.5" y="441.5" width="74" height="74"/><path class="cls-14" d="M1580.28-.06a3.55,3.55,0,0,1-.46,0c-.76,0-1.51,0-2.27,0l-1,.07-.31.06a5.53,5.53,0,0,1-2.66-.08,5.49,5.49,0,0,1-.58,0,4.89,4.89,0,0,1-1-.09,5,5,0,0,1-1,.09,5.87,5.87,0,0,1-.74,0,5.71,5.71,0,0,1-.73.05,5.17,5.17,0,0,1-1.22-.14,3.71,3.71,0,0,1-.47,0,5.87,5.87,0,0,1-.74,0,5.71,5.71,0,0,1-.73.05,5.87,5.87,0,0,1-.74,0A5.58,5.58,0,0,1,1565,0a5.63,5.63,0,0,1-1.19-.13,5.47,5.47,0,0,1-1.18.13,5.76,5.76,0,0,1-1.28-.15c-.21,0-.42,0-.64,0l-.57,0a5.35,5.35,0,0,1-1.24.14,5.4,5.4,0,0,1-1-.1,5.51,5.51,0,0,1-1,.1,5.8,5.8,0,0,1-1-.09,5.8,5.8,0,0,1-1,.09,6.09,6.09,0,0,1-1.17-.12h-.18a5,5,0,0,1-.79-.06,5.32,5.32,0,0,1-1.36.18,6.66,6.66,0,0,1-.79-.06,5.22,5.22,0,0,1-1.36.17,5.48,5.48,0,0,1-1.24-.14,5.35,5.35,0,0,1-1.24.14,5,5,0,0,1-1.79-.31,5.43,5.43,0,0,1-.92.08,5.68,5.68,0,0,1-.59,0,5.13,5.13,0,0,1-1.67.26,5.12,5.12,0,0,1-.56,0,5.17,5.17,0,0,1-.57,0,5.64,5.64,0,0,1-.93-.08,5.4,5.4,0,0,1-1.44.19,5.07,5.07,0,0,1-1.45-.21,5.71,5.71,0,0,1-1,.1,5.87,5.87,0,0,1-.74,0,5.58,5.58,0,0,1-.73.05,5.53,5.53,0,0,1-1.1-.12,5.36,5.36,0,0,1-1.16.12,5.45,5.45,0,0,1-1.44-.19,5.46,5.46,0,0,1-.93.08,5.54,5.54,0,0,1-1.46-.2,5.68,5.68,0,0,1-1.47.2l-.24,0-.44,0a5,5,0,0,1-1.55-.24,5.81,5.81,0,0,1-1.05.12,5.19,5.19,0,0,1-1.58.23,5.24,5.24,0,0,1-1.42-.19,5,5,0,0,1-1.74.3A5,5,0,0,1,1517-.14a5.47,5.47,0,0,1-1.1.11,5.76,5.76,0,0,1-1.28-.15c-.14,0-.26,0-.41,0l-.29,0a5.16,5.16,0,0,1-1.63.25,5.22,5.22,0,0,1-1.22-.15,5.06,5.06,0,0,1-1.26.15,5.3,5.3,0,0,1-1.16-.12h-.09a5.35,5.35,0,0,1-1.16-.13h-.57a5.66,5.66,0,0,1-1.2.13,4.93,4.93,0,0,1-.55,0,5,5,0,0,1-1.6.25,4.9,4.9,0,0,1-2.63-.71,5,5,0,0,1-2.22.49,5,5,0,0,1-1.92-.36,5.24,5.24,0,0,1-1.58.24,5.43,5.43,0,0,1-.71,0,5.55,5.55,0,0,1-1.32.16,5.38,5.38,0,0,1-1.5-.21,5.21,5.21,0,0,1-1,.09,5.35,5.35,0,0,1-1.24-.14L1448.5,61.5h173Z"/><path class="cls-16" d="M1239.27,70h127.95a0,0,0,0,1,0,0V517.33a0,0,0,0,1,0,0H1230.5a0,0,0,0,1,0,0V78.77A8.77,8.77,0,0,1,1239.27,70Z"/><path class="cls-17" d="M1402.07,88,1367.5,70.15c-.14-.08-.29.14-.29.43V516.89c0,.24.11.44.23.44h40.33c.13,0,.23-.2.23-.45l-2.39-420C1405.58,92.68,1404.13,89,1402.07,88Z"/><rect class="cls-14" x="1252" y="115" width="37" height="54"/><rect class="cls-14" x="1306" y="182" width="37" height="54"/><rect class="cls-14" x="1252" y="182" width="37" height="54"/><rect class="cls-14" x="1306" y="115" width="37" height="54"/><rect class="cls-14" x="1306" y="324" width="37" height="54"/><rect class="cls-14" x="1252" y="249" width="37" height="54"/><rect class="cls-14" x="1306" y="249" width="37" height="54"/><path class="cls-8" d="M988.59,907a375.44,375.44,0,1,1,146.58-29.59A374.11,374.11,0,0,1,988.59,907Z"/><path class="cls-6" d="M988.59,158a371.44,371.44,0,1,1-145,29.27,370.34,370.34,0,0,1,145-29.27m0-8C778.41,150,608,320.36,608,530.5S778.41,911,988.59,911s380.57-170.36,380.57-380.5S1198.77,150,988.59,150Z"/><g id="Hojre"><path class="cls-18" d="M1836.5,949.6c51.46-42.38,56.7-95,54.27-98.61s-11.62,43.29-63.08,85.68-88.79,43.43-86.36,47S1785,992,1836.5,949.6Z"/><path class="cls-19" d="M1836.49,949.59c-51.45,42.4-92.74,37.65-95.16,34.08-.51-.75.73-1.41,3.53-2.35,11.32,2.44,47.78.56,91.63-35.57,43-35.42,53.73-78,54.68-93.12C1892.13,862.49,1884.05,910.43,1836.49,949.59Z"/></g><g id="Venstre"><path class="cls-18" d="M1444.07,950.08c-51.47-42.38-56.71-95-54.28-98.6s11.62,43.28,63.08,85.67,88.79,43.43,86.36,47S1495.53,992.47,1444.07,950.08Z"/><path class="cls-19" d="M1444.07,950.08c51.45,42.39,92.74,37.64,95.17,34.07.5-.75-.74-1.41-3.53-2.35-11.33,2.44-47.79.56-91.64-35.57-43-35.42-53.73-78-54.67-93.12C1388.43,863,1396.51,910.91,1444.07,950.08Z"/><path class="cls-19" d="M1477,972.11a143.33,143.33,0,0,0,17.11,7.6h34.94c-11.43-3.66-31.67-10.79-56.87-28"/></g><ellipse class="cls-18" cx="1389.31" cy="840.02" rx="19.31" ry="21.25"/><ellipse class="cls-20" cx="1599.05" cy="924.62" rx="19.31" ry="21.25"/><ellipse class="cls-18" cx="1892.69" cy="840.02" rx="19.31" ry="21.25"/><path class="cls-18" d="M1784.48,971.53v5.77h2.32a18.33,18.33,0,0,0,10.49-3.34v79c0,12.69-9.44,23.07-21,23.07H1504.53c-11.54,0-21-10.38-21-23.07V967.69a23.76,23.76,0,0,1,9.78-19.5,19.41,19.41,0,0,1,11.19-3.58h271.79a19.33,19.33,0,0,1,8.16,1.83c7.51,3.52,12.81,11.73,12.81,21.25v.5a18.33,18.33,0,0,1-10.49,3.34Z"/><path id="Bund_skygge_2" data-name="Bund skygge 2" class="cls-19" d="M1788,936.13v48.6c0,17-12.53,30.77-28,30.77a26.39,26.39,0,0,1-19.35-8.6c-.26-.5-.54-1-.84-1.48s-.75-1.15-1.15-1.69a20.6,20.6,0,0,0-1.75-2.09,7.15,7.15,0,0,0-.61-.62,21.43,21.43,0,0,0-15.15-6.42,22.12,22.12,0,0,0-18.72,10.9h-.06a1.56,1.56,0,0,1-.14.33,24.86,24.86,0,0,0-1.24,2.34c-5,8.52-13.65,14.16-23.54,14.16a26.84,26.84,0,0,1-20.92-10.35q-.48-1.12-1-2.19a9.6,9.6,0,0,0-.54-.92,21.14,21.14,0,0,0-1.61-2.52c-.33-.48-.68-1-1-1.39a28.58,28.58,0,0,0-8.48-7.15,25.42,25.42,0,0,0-7.76-2.77,25,25,0,0,0-4.68-.44,25.68,25.68,0,0,0-12.44,3.21h-.28l-.55.46a27.91,27.91,0,0,0-3.68,2.62,25.79,25.79,0,0,1-13.29,3.69,26.44,26.44,0,0,1-17.84-7.06c-.3-.4-.61-.81-1-1.19a21.68,21.68,0,0,0-2.46-2.52,21.25,21.25,0,0,0-14.11-5.44,21.5,21.5,0,0,0-15.38,6.63l-.52.54c-.23.27-.46.52-.67.79a23.83,23.83,0,0,0-2.15,3s0,0,0,.06a24.81,24.81,0,0,0-2.45,4.3,26.59,26.59,0,0,1-19.76,9c-14.58,0-26.55-12.28-27.85-27.94-.09-.92-.12-1.86-.12-2.82V936.13Z"/><path class="cls-21" d="M1784.48,932.27v48.88c-.12,16.86-12.6,30.51-28,30.51a26.34,26.34,0,0,1-19.34-8.61c-.27-.5-.55-1-.84-1.48s-.75-1.16-1.16-1.69a23.35,23.35,0,0,0-1.74-2.1c-.2-.19-.41-.42-.62-.61a21.38,21.38,0,0,0-15.15-6.43c-7.78,0-14.65,4.33-18.72,10.92h0a2.92,2.92,0,0,1-.14.31,20.51,20.51,0,0,0-1.24,2.37c-5,8.52-13.65,14.15-23.55,14.15a26.81,26.81,0,0,1-20.92-10.35,21.31,21.31,0,0,0-1-2.21c-.17-.29-.33-.61-.54-.9a19.65,19.65,0,0,0-1.61-2.52c-.33-.48-.68-.94-1-1.4a28.52,28.52,0,0,0-8.48-7.14,25.79,25.79,0,0,0-7.76-2.77,24.3,24.3,0,0,0-4.69-.46,25.8,25.8,0,0,0-12.44,3.23h-.28c-.17.14-.37.29-.54.45a29.2,29.2,0,0,0-3.69,2.61,25.69,25.69,0,0,1-13.28,3.69,26.36,26.36,0,0,1-17.85-7.05c-.3-.39-.61-.79-.94-1.2a25.5,25.5,0,0,0-2.47-2.52,21.22,21.22,0,0,0-14.1-5.44,21.47,21.47,0,0,0-15.38,6.64l-.53.55c-.22.25-.45.5-.66.77a24.31,24.31,0,0,0-2.15,3s0,0,0,.06a24.86,24.86,0,0,0-2.44,4.31,26.57,26.57,0,0,1-19.77,9c-14.51,0-26.43-12.17-27.83-27.69,0-.08,0-.15,0-.23-.09-.94-.13-1.89-.13-2.85V932.27Z"/><path id="bof" class="cls-22" d="M1806.61,926.68v30.76c0,12-8.92,21.79-19.81,21.79H1494.34c-10.91,0-19.82-9.81-19.82-21.79V926.68c0-12,8.91-21.81,19.82-21.81H1786.8c.25,0,.49,0,.72,0a18.55,18.55,0,0,1,11.76,4.88A22.69,22.69,0,0,1,1806.61,926.68Z"/><g id="Top_Salat" data-name="Top Salat"><path class="cls-23" d="M1788,853.61v45.78c0,1,0,1.9-.12,2.83s-.19,1.8-.33,2.67a30.68,30.68,0,0,1-14.82,21.92,25.93,25.93,0,0,1-12.69,3.35,26.63,26.63,0,0,1-19.77-9,24.27,24.27,0,0,0-2.45-4.31.09.09,0,0,0,0-.06,23.56,23.56,0,0,0-2.15-3c-.21-.27-.44-.52-.66-.79s-.35-.36-.53-.54a21.5,21.5,0,0,0-15.38-6.63,21.22,21.22,0,0,0-14.1,5.44,21,21,0,0,0-2.47,2.52c-.33.39-.65.79-.94,1.19a26.41,26.41,0,0,1-17.85,7.06,25.78,25.78,0,0,1-13.28-3.69,29,29,0,0,0-3.69-2.62c-.17-.15-.37-.3-.54-.46h-.28a25.69,25.69,0,0,0-12.45-3.21,25,25,0,0,0-4.68.44,25.79,25.79,0,0,0-7.76,2.77,28.7,28.7,0,0,0-8.48,7.15c-.36.45-.71.91-1,1.39a23.35,23.35,0,0,0-1.6,2.52c-.21.31-.37.61-.55.92-.38.71-.73,1.44-1,2.19a26.83,26.83,0,0,1-20.93,10.35c-9.89,0-18.57-5.64-23.54-14.15a21.89,21.89,0,0,0-1.24-2.35c0-.12-.1-.21-.14-.33h0a23.34,23.34,0,0,0-9.33-8.65,20.74,20.74,0,0,0-9.39-2.25,21.41,21.41,0,0,0-15.15,6.42c-.21.2-.42.41-.62.62a20.51,20.51,0,0,0-1.74,2.09c-.41.54-.79,1.12-1.16,1.7s-.57,1-.84,1.48a28.4,28.4,0,0,1-6.67,5.27,25.83,25.83,0,0,1-12.67,3.32c-14.63,0-26.64-12.36-27.87-28.11-.07-.86-.1-1.77-.1-2.65V853.61Z"/><g id="Tomater"><ellipse class="cls-23" cx="1525.69" cy="900.55" rx="24.18" ry="26.6"/><ellipse class="cls-23" cx="1549.87" cy="906.8" rx="24.18" ry="26.6"/><path class="cls-23" d="M1799.28,909.77c-3.39,10.16-12.27,17.39-22.67,17.39a22,22,0,0,1-3.91-.35c-10.21-1.83-18.28-10.71-20-21.94a29.22,29.22,0,0,1-.32-4.33c0-14.67,10.84-26.59,24.19-26.59a22.37,22.37,0,0,1,11.36,3.12v22.32c0,1,0,1.9-.12,2.83s-.19,1.8-.33,2.67A18.55,18.55,0,0,1,1799.28,909.77Z"/></g></g><g id="Top_Salat-2" data-name="Top Salat"><path class="cls-21" d="M1542.76,919.14l-.11.15c-.4.54-.79,1.12-1.15,1.69s-.58,1-.84,1.48a27.94,27.94,0,0,1-6.68,5.27,25.73,25.73,0,0,1-12.67,3.33c-11.5,0-21.39-7.65-25.68-18.58a39.31,39.31,0,0,0,7.87,3h0a104.55,104.55,0,0,0,22.23,3.27q5.61.32,11.85.37h0C1539.29,919.16,1541,919.16,1542.76,919.14Z"/><path class="cls-21" d="M1667.11,916.56c8.86.08,17.46.17,25.75.23a25.66,25.66,0,0,1-25.75-.23Z"/><path class="cls-21" d="M1754.33,915.37c11.19-1,20.55-2.65,27.67-5.25a29.8,29.8,0,0,1-12.8,14.77,25.89,25.89,0,0,1-12.69,3.34,26.59,26.59,0,0,1-19.76-9,22.9,22.9,0,0,0-1.44-2.73C1742.11,916.25,1748.47,915.91,1754.33,915.37Z"/><path class="cls-21" d="M1784.48,851.69v38.14c-6,6.46-18.39,9.95-35.39,11.75-22.22,2.35-52.3,1.89-86.38,1.56v10.27l0,0h-.28a25.68,25.68,0,0,0-12.44-3.21,25,25,0,0,0-4.68.44,25.58,25.58,0,0,0-7.77,2.77,26.68,26.68,0,0,0-4.49,3.08,28.39,28.39,0,0,0-4,4.07c-.37.44-.72.91-1,1.39a21.14,21.14,0,0,0-1.61,2.52,9.6,9.6,0,0,0-.54.92c-.39.71-.73,1.44-1,2.19a26.84,26.84,0,0,1-20.92,10.35c-9.89,0-18.58-5.64-23.54-14.16a24.86,24.86,0,0,0-1.24-2.34,1.56,1.56,0,0,1-.14-.33h-.06a21.35,21.35,0,0,0-2.08-2.86,21.08,21.08,0,0,0-2.06-2.16v-14.4H1568v3.1c-7.87.32-15.38.61-22.5.78-8.37.2-16.16.25-23.31,0a131,131,0,0,1-23.88-2.55q-2.61-.59-5-1.33c0-.44,0-.88,0-1.35v-48.6Z"/><g id="Tomater-2" data-name="Tomater"><path class="cls-24" d="M1525.75,918.77q5.61.32,11.85.37a22.8,22.8,0,0,1-15.4,6.09,23.28,23.28,0,0,1-18.68-9.73A104.55,104.55,0,0,0,1525.75,918.77Z"/><path class="cls-24" d="M1546.37,898.62a28,28,0,0,1-.84,6.9c-8.37.2-16.16.25-23.31,0a131,131,0,0,1-23.88-2.55,28.47,28.47,0,0,1-.33-4.35C1498,884,1508.85,872,1522.2,872S1546.37,884,1546.37,898.62Z"/><path class="cls-24" d="M1570.37,901.64H1568v3.1c-7.87.32-15.38.61-22.5.78a27,27,0,0,1-7.91,13.62c1.67,0,3.39,0,5.14,0,7.56,0,15.71-.23,24.34-.56-4.23,7.73-11.94,12.9-20.73,12.9a22.4,22.4,0,0,1-12.39-3.75,23.87,23.87,0,0,1-4.42-3.75,26,26,0,0,1-3.81-5.21,28.5,28.5,0,0,1-3.53-13.25c0-.21,0-.44,0-.65,0-11.86,7.06-21.92,16.83-25.34a22.1,22.1,0,0,1,7.34-1.25C1558.73,878.28,1568.9,888.47,1570.37,901.64Z"/><path class="cls-24" d="M1784.48,889.83c-6,6.46-18.39,9.95-35.39,11.75a26.17,26.17,0,0,1-.16-3c0-14.67,10.83-26.59,24.19-26.59a22.36,22.36,0,0,1,11.36,3.11,23.58,23.58,0,0,1,4,3c0,.41,0,.83,0,1.25A14.7,14.7,0,0,1,1784.48,889.83Z"/><path class="cls-24" d="M1797.29,898.62c0,14.69-10.82,26.61-24.17,26.61a22.15,22.15,0,0,1-3.92-.34,23.84,23.84,0,0,1-14.87-9.52c11.19-1,20.55-2.65,27.67-5.25,8.77-3.23,14.1-7.94,15.1-14.79A29.81,29.81,0,0,1,1797.29,898.62Z"/></g></g><g id="salat_skygge" data-name="salat skygge"><path class="cls-23" d="M1495.63,912.48a20.12,20.12,0,0,1-11.35-15.41,33.27,33.27,0,0,0,9.1,4.57A32.68,32.68,0,0,0,1495.63,912.48Z"/><path class="cls-25" d="M1503.5,915.5a39.31,39.31,0,0,1-7.87-3,32.68,32.68,0,0,1-2.25-10.84q2.36.75,5,1.33A27.7,27.7,0,0,0,1503.5,915.5Z"/><path class="cls-26" d="M1545.53,905.52a27,27,0,0,1-7.91,13.62h0q-6.24-.06-11.85-.37a104.55,104.55,0,0,1-22.23-3.27h0a27.7,27.7,0,0,1-5.16-12.53,131,131,0,0,0,23.88,2.55C1529.37,905.77,1537.16,905.72,1545.53,905.52Z"/><path class="cls-26" d="M1568,904.74v11.94c-.28.65-.6,1.28-.93,1.9-8.63.33-16.78.56-24.34.56-1.75,0-3.47,0-5.14,0a27,27,0,0,0,7.91-13.62C1552.65,905.35,1560.16,905.06,1568,904.74Z"/><path class="cls-25" d="M1638.9,903v9.69c-.47.23-.94.46-1.4.71a26.68,26.68,0,0,0-4.49,3.08c-19.94.17-38.9,1-56.21,1.75a21.08,21.08,0,0,0-2.06-2.16V904.47c17.65-.73,36.86-1.52,56.94-1.52C1634.11,903,1636.51,903,1638.9,903Z"/><path class="cls-25" d="M1754.33,915.37c-5.86.54-12.22.88-19,1.11a17.43,17.43,0,0,0-1-1.57s0,0,0-.06a22,22,0,0,0-2.15-3c-.21-.27-.43-.52-.66-.79l-.52-.54a21.51,21.51,0,0,0-15.39-6.63,21.24,21.24,0,0,0-14.1,5.44,21.68,21.68,0,0,0-2.46,2.52c-.34.38-.65.79-1,1.19a27.48,27.48,0,0,1-5.17,3.71c-8.29-.06-16.89-.15-25.75-.23l-.21-.11a27.91,27.91,0,0,0-3.68-2.62l-.51-.42V903.14c34.08.33,64.16.79,86.38-1.56A27.82,27.82,0,0,0,1754.33,915.37Z"/><path class="cls-26" d="M1797.1,895.31v0c-1,6.85-6.33,11.56-15.1,14.79-7.12,2.6-16.48,4.25-27.67,5.25a27.82,27.82,0,0,1-5.24-13.79c17-1.8,29.38-5.29,35.39-11.75a14.7,14.7,0,0,0,4.07-10.44c0-.42,0-.84,0-1.25A27.32,27.32,0,0,1,1797.1,895.31Z"/></g><path class="cls-27" d="M1797.29,892.85a14,14,0,0,1-.19,2.46,27.32,27.32,0,0,0-8.57-17.17,102.51,102.51,0,0,0-13.21-48.85C1789.29,847.88,1797.29,869.63,1797.29,892.85Z"/><path id="Top" class="cls-18" d="M1797.29,890.94c0,29.32-70.23,23.55-156.87,23.55s-156.86,14.59-156.86-23.55c0-68.76,70.23-124.5,156.86-124.5S1797.29,822.18,1797.29,890.94Z"/><path id="Top_skygge" data-name="Top skygge" class="cls-18" d="M1797.29,890.93c0,29.32-70.23,23.55-156.87,23.55-83.07,0-151,13.43-156.5-19.11C1505.6,910,1563.57,901,1631.68,901c86.64,0,156.87,5.77,156.87-23.55a102.67,102.67,0,0,0-13.23-50.11C1789.29,846,1797.29,867.7,1797.29,890.93Z"/><path class="cls-28" d="M1583.1,796.39h0a2.63,2.63,0,0,1-3.16-2.14l-1.67-7.68a2.92,2.92,0,0,1,1.94-3.48h0a2.63,2.63,0,0,1,3.16,2.13l1.67,7.69A2.92,2.92,0,0,1,1583.1,796.39Z"/><path class="cls-28" d="M1548.52,816.28h0a2.92,2.92,0,0,1-2-3.45l1.56-7.71a2.63,2.63,0,0,1,3.13-2.19h0a2.9,2.9,0,0,1,2,3.44l-1.56,7.72A2.64,2.64,0,0,1,1548.52,816.28Z"/><path class="cls-28" d="M1727.3,817.07h0a2.63,2.63,0,0,1-3.16-2.14l-1.67-7.69a2.9,2.9,0,0,1,1.94-3.47h0a2.63,2.63,0,0,1,3.16,2.13l1.67,7.69A2.93,2.93,0,0,1,1727.3,817.07Z"/><path class="cls-28" d="M1646.1,807.62h0a2.9,2.9,0,0,1-2-3.44l1.56-7.71a2.63,2.63,0,0,1,3.13-2.19h0a2.9,2.9,0,0,1,2,3.44l-1.56,7.72A2.64,2.64,0,0,1,1646.1,807.62Z"/><path class="cls-28" d="M1594.92,821.39h0a2.85,2.85,0,0,1-2.28-3.21l.88-7.85a2.69,2.69,0,0,1,2.92-2.51h0a2.84,2.84,0,0,1,2.28,3.21l-.87,7.85A2.7,2.7,0,0,1,1594.92,821.39Z"/><path class="cls-28" d="M1619.08,789.83h0a2.83,2.83,0,0,1-2.41-3.1l.55-7.88a2.72,2.72,0,0,1,2.81-2.66h0a2.83,2.83,0,0,1,2.41,3.1l-.54,7.88A2.73,2.73,0,0,1,1619.08,789.83Z"/><path class="cls-28" d="M1693.77,798.75h0a2.91,2.91,0,0,1-2-3.44l1.56-7.72a2.64,2.64,0,0,1,3.13-2.19h0a2.91,2.91,0,0,1,2,3.44l-1.56,7.72A2.64,2.64,0,0,1,1693.77,798.75Z"/><path class="cls-28" d="M1670.89,789.5h0a2.58,2.58,0,0,1-3.31-1.83l-2.25-7.51a3,3,0,0,1,1.67-3.64h0a2.58,2.58,0,0,1,3.31,1.83l2.25,7.51A3,3,0,0,1,1670.89,789.5Z"/><g id="ojne"><g id="Hojre_oje" data-name="Hojre oje"><ellipse class="cls-19" cx="1606.82" cy="856.24" rx="21.36" ry="23.49"/><ellipse class="cls-6" cx="1606.82" cy="854.32" rx="21.36" ry="23.49"/><ellipse class="cls-29" cx="1611.6" cy="856.42" rx="11.2" ry="12.33"/><ellipse class="cls-6" cx="1607.77" cy="856.42" rx="4.4" ry="4.84"/><path class="cls-30" d="M1604.31,877.64c-10.62-1.35-18.85-11.28-18.85-23.32,0-10.5,6.25-19.39,14.88-22.39-7.65,3.79-13,12.27-13,22.11C1587.37,865.5,1594.6,875.11,1604.31,877.64Z"/></g><g id="ventre_oje" data-name="ventre oje"><ellipse class="cls-19" cx="1670.99" cy="856.24" rx="21.36" ry="23.49"/><ellipse class="cls-6" cx="1670.99" cy="854.32" rx="21.36" ry="23.49"/><ellipse class="cls-29" cx="1666.21" cy="856.42" rx="11.2" ry="12.33"/><ellipse class="cls-6" cx="1670.03" cy="856.42" rx="4.4" ry="4.84"/><path class="cls-30" d="M1673.49,877.64c10.63-1.35,18.86-11.28,18.86-23.32,0-10.5-6.25-19.39-14.89-22.39,7.65,3.79,13,12.27,13,22.11C1690.44,865.5,1683.21,875.11,1673.49,877.64Z"/></g></g><ellipse class="cls-31" cx="1638.91" cy="886.81" rx="14.76" ry="16.23"/><circle class="cls-6" cx="562" cy="427" r="32"/><circle class="cls-6" cx="489.5" cy="453.5" r="14.5"/><ellipse class="cls-6" cx="655" cy="334" rx="45" ry="31"/><ellipse class="cls-6" cx="778" cy="157" rx="177" ry="113"/><path d="M663.08,112a11.57,11.57,0,0,0-.45,2.93c0,.43,0,1.09-.13,2s-.13,1.56-.13,2c0,1.46-.07,3.63-.23,6.5s-.23,5-.23,6.5c0,1.13.09,2.8.26,5s.25,3.9.25,5a2.89,2.89,0,0,1-.9,2.15,3.05,3.05,0,0,1-2.22.87,3.39,3.39,0,0,1-2.34-.86,2.67,2.67,0,0,1-1-2.1c0-1.11-.05-2.79-.15-5s-.15-3.91-.15-5c0-.87,0-1.64.05-2.32a69.69,69.69,0,0,0-8.91,1.13c-2.93.53-5.87,1.08-8.81,1.63,0,1-.14,2.59-.32,4.86-.15,2-.23,3.64-.23,4.91a2.61,2.61,0,0,1-.89,2,3.2,3.2,0,0,1-2.23.81,3.1,3.1,0,0,1-2.23-.85,2.78,2.78,0,0,1-.89-2.08c0-1.51.13-3.76.4-6.77s.4-5.25.4-6.76q0-2.86.14-8.64t.14-8.63a2.75,2.75,0,0,1,.89-2.09,3.1,3.1,0,0,1,2.23-.85,3.05,3.05,0,0,1,2.22.87,2.87,2.87,0,0,1,.9,2.14c0,1.16,0,2.91-.13,5.24s-.12,4.08-.12,5.24c0,.39-.06,1.12-.16,2.21a20.54,20.54,0,0,0-.12,2.32l8.81-1.66a65.82,65.82,0,0,1,8.91-1q.09-1.56.3-8.35a11.18,11.18,0,0,1,1.07-4.11c.86-1.9,1.83-2.85,2.92-2.85a3.23,3.23,0,0,1,2.16.81,2.78,2.78,0,0,1,1,2.19A2.35,2.35,0,0,1,663.08,112Z"/><path d="M690.19,114.51a3.76,3.76,0,0,1-1-.13,26,26,0,0,0-10.92-.74,39.31,39.31,0,0,0-4.2.83q0,3-.21,9.06,1.29-.09,9-.85c2.92-.29,4.77-.43,5.55-.43a3.34,3.34,0,0,1,2.32.86,2.9,2.9,0,0,1,1,2.28q0,2.73-2.91,3.1c-1.23.09-3.06.24-5.49.46q-3.25.36-9.82.89c-.11,1.95-.16,3.51-.16,4.71,0,3,.18,4.7.53,5.12.17.19,1.13.29,2.89.29,1,0,2.38,0,4.29-.07s3.34-.06,4.29-.06a10.15,10.15,0,0,0,1.36-.14,10,10,0,0,1,1.33-.14,3.5,3.5,0,0,1,2.27.76,2.85,2.85,0,0,1,1.08,2.38,2.89,2.89,0,0,1-2.69,3.08,64.1,64.1,0,0,1-9.52.44c-5,0-8.24-.68-9.76-2q-2.49-2.24-2.5-9.64,0-3.08.45-9.24t.45-9.21a18.52,18.52,0,0,0-.23-2.38,18.56,18.56,0,0,1-.23-2.37q0-3.5,3.21-3.49a3.26,3.26,0,0,1,1.86.57c1.78-.44,3.46-.77,5.06-1a33.33,33.33,0,0,1,4.53-.33,26.3,26.3,0,0,1,9.25,1.33,2.93,2.93,0,0,1,2.11,2.92,3.06,3.06,0,0,1-.82,2.11A3,3,0,0,1,690.19,114.51Z"/><path d="M718,143.06a37.25,37.25,0,0,1-8.37,2.14,53.6,53.6,0,0,1-8.52.87q-5.62,0-5.62-4.94,0,.39.46-7.27.6-10,.59-22.17a3.21,3.21,0,0,1,6.41,0q0,12.23-.62,22.54-.21,1.83-.44,5.62a53.7,53.7,0,0,0,14-2.66,3.42,3.42,0,0,1,1-.16,2.94,2.94,0,0,1,2.35,1.05,3.2,3.2,0,0,1,.8,2.11A3,3,0,0,1,718,143.06Z"/><path d="M729.45,131.13c-.26,0-.9-.06-1.92-.16-.1,2.14-.14,5.66-.14,10.55a3,3,0,0,1-5.18,2.09,2.89,2.89,0,0,1-.86-2.09v-6.4q0-3.56.46-10.53t.46-10.58c0-4,1.13-5.89,3.35-5.72a13.44,13.44,0,0,1,2.16-.31c.92-.06,2-.1,3.35-.1a14,14,0,0,1,8.44,2.91c2.93,2.18,4.39,4.82,4.39,7.95a11.07,11.07,0,0,1-4.66,9.34A16.16,16.16,0,0,1,729.45,131.13Zm1.15-17.33h-1.3c-.37,0-.69,0-.95.06,0,.72,0,1.8,0,3.24q0,2.53-.44,7.94a12.92,12.92,0,0,0,1.56.18,10,10,0,0,0,5.95-1.7,5.64,5.64,0,0,0,2.52-4.79c0-1.3-.79-2.46-2.36-3.47A9,9,0,0,0,730.6,113.8Z"/><path d="M777.53,125.8q-1,3.72-2.89,11.23c-.29,1.72-.57,3.45-.85,5.16q-.94,3.26-3.46,3.26a3.1,3.1,0,0,1-2.5-1.08,3.22,3.22,0,0,1-.79-2.18,32.84,32.84,0,0,1,1.59-9.07q2.36-8,2.55-8.88.66-3.52,1.35-7.07c.69-3.24,1.43-5.4,2.24-6.48a3.64,3.64,0,0,1,3-1.62,3.23,3.23,0,0,1,3.07,2.12,39,39,0,0,1,2,8.17,115.61,115.61,0,0,0,3,12.89q2.63-6.81,4.87-15L792,112q1.25-3.29,3.84-3.28t3.71,3.81a37.3,37.3,0,0,1,1.08,5.74A120.12,120.12,0,0,0,804,135c1.36,4.73,2,7.3,2,7.71A2.86,2.86,0,0,1,805,145a3.51,3.51,0,0,1-2.27.83c-1.67,0-2.91-1.2-3.72-3.58l-1.29-5.55q-1.09-4.14-2.39-11.87-1,3.07-3.41,9.66l-1.38,4.22a24.21,24.21,0,0,1-1.77,4.11,3.76,3.76,0,0,1-3.39,2.14c-1.44,0-2.54-.85-3.31-2.55l-1.28-4.27Q778.95,132.27,777.53,125.8Z"/><path d="M832.34,114.51a3.76,3.76,0,0,1-1-.13,26,26,0,0,0-10.92-.74,39.31,39.31,0,0,0-4.2.83q0,3-.21,9.06,1.29-.09,9-.85c2.93-.29,4.78-.43,5.56-.43a3.35,3.35,0,0,1,2.32.86,2.9,2.9,0,0,1,1,2.28q0,2.73-2.91,3.1c-1.23.09-3.06.24-5.49.46-2.17.24-5.45.54-9.82.89-.11,1.95-.16,3.51-.16,4.71,0,3,.17,4.7.53,5.12.16.19,1.13.29,2.89.29,1,0,2.38,0,4.29-.07s3.34-.06,4.29-.06a9.88,9.88,0,0,0,1.35-.14,10.08,10.08,0,0,1,1.34-.14,3.5,3.5,0,0,1,2.27.76,2.85,2.85,0,0,1,1.08,2.38,2.89,2.89,0,0,1-2.69,3.08,64.1,64.1,0,0,1-9.52.44c-5,0-8.24-.68-9.76-2q-2.49-2.24-2.5-9.64,0-3.08.45-9.24t.45-9.21a18.52,18.52,0,0,0-.23-2.38,16.87,16.87,0,0,1-.23-2.37q0-3.5,3.21-3.49a3.29,3.29,0,0,1,1.86.57,51.23,51.23,0,0,1,5.06-1,33.33,33.33,0,0,1,4.53-.33,26.3,26.3,0,0,1,9.25,1.33,2.93,2.93,0,0,1,2.11,2.92,3.06,3.06,0,0,1-.82,2.11A3,3,0,0,1,832.34,114.51Z"/><path d="M878.07,116.81c-.73,0-2.74-.22-6-.64-.22,2.81-.32,6.55-.32,11.22l0,10.3c2,0,4.11-.07,6.22-.07a3.11,3.11,0,0,1,2.29.92,3,3,0,0,1,.9,2.2,3,3,0,0,1-.92,2.2,3.23,3.23,0,0,1-2.34.9c-.87,0-2.19,0-3.94.06s-3.06.06-3.94.06a38.94,38.94,0,0,0-4.64.4,38.94,38.94,0,0,1-4.64.4,3.2,3.2,0,0,1-2.34-.91,3,3,0,0,1-.92-2.19,2.9,2.9,0,0,1,1-2.2,3.41,3.41,0,0,1,2.44-.92,36.36,36.36,0,0,0,4.39-.34q0-2.72,0-10.38,0-6.24.45-11.91l-5,.14a3.22,3.22,0,0,1-2.3-.89,3,3,0,0,1-.93-2.23,2.87,2.87,0,0,1,.89-2.2,3.33,3.33,0,0,1,2-.9c1.31-.12,3.57-.18,6.81-.18a84.58,84.58,0,0,1,11.23,1,2.87,2.87,0,0,1,2.73,3.17A2.81,2.81,0,0,1,880,116.1,3,3,0,0,1,878.07,116.81Z"/><path d="M894.44,125.8q-1,3.72-2.9,11.23c-.29,1.72-.57,3.45-.85,5.16-.62,2.17-1.78,3.26-3.46,3.26a3.1,3.1,0,0,1-2.5-1.08,3.26,3.26,0,0,1-.78-2.18,32.78,32.78,0,0,1,1.58-9.07q2.37-8,2.55-8.88.66-3.52,1.35-7.07,1-4.86,2.24-6.48a3.65,3.65,0,0,1,3-1.62,3.25,3.25,0,0,1,3.08,2.12,39.21,39.21,0,0,1,2,8.17,113.58,113.58,0,0,0,3,12.89q2.61-6.81,4.86-15l1.29-5.28q1.23-3.29,3.83-3.28t3.72,3.81a39,39,0,0,1,1.07,5.74A118.56,118.56,0,0,0,920.9,135q2,7.09,2,7.71a2.86,2.86,0,0,1-1.08,2.27,3.49,3.49,0,0,1-2.27.83c-1.67,0-2.91-1.2-3.72-3.58l-1.29-5.55q-1.1-4.14-2.38-11.87-1,3.07-3.42,9.66l-1.38,4.22a23.43,23.43,0,0,1-1.77,4.11,3.76,3.76,0,0,1-3.39,2.14c-1.44,0-2.54-.85-3.31-2.55l-1.28-4.27C896.46,134.23,895.38,130.12,894.44,125.8Z"/><path d="M683.46,168.36a11.63,11.63,0,0,0-.46,2.93c0,.43,0,1.09-.12,2s-.13,1.56-.13,2q0,2.19-.23,6.5c-.15,2.88-.23,5-.23,6.5,0,1.13.09,2.8.26,5s.25,3.9.25,5a2.89,2.89,0,0,1-.9,2.15,3.05,3.05,0,0,1-2.22.87,3.39,3.39,0,0,1-2.34-.86,2.67,2.67,0,0,1-1-2.1c0-1.11-.05-2.79-.15-5s-.15-3.91-.15-5c0-.87,0-1.64.05-2.32a69.48,69.48,0,0,0-8.91,1.13c-2.94.53-5.87,1.08-8.81,1.63,0,1-.14,2.59-.32,4.86-.15,2-.23,3.64-.23,4.91a2.58,2.58,0,0,1-.9,2,3.18,3.18,0,0,1-2.22.81,3.1,3.1,0,0,1-2.23-.85,2.78,2.78,0,0,1-.89-2.08c0-1.51.13-3.76.4-6.77s.4-5.25.4-6.76q0-2.87.14-8.64t.14-8.63a2.75,2.75,0,0,1,.89-2.09,3.15,3.15,0,0,1,2.23-.85,3.05,3.05,0,0,1,2.22.87,2.87,2.87,0,0,1,.9,2.14c0,1.16,0,2.91-.13,5.24s-.12,4.08-.12,5.25c0,.38-.06,1.11-.16,2.2a18.4,18.4,0,0,0-.12,2.32l8.81-1.66A65.64,65.64,0,0,1,676.1,180q.09-1.56.3-8.35a11.18,11.18,0,0,1,1.07-4.11c.86-1.9,1.83-2.85,2.92-2.85a3.23,3.23,0,0,1,2.16.81,2.78,2.78,0,0,1,1,2.19A2.74,2.74,0,0,1,683.46,168.36Z"/><path d="M711.6,196.36a15.17,15.17,0,0,1-4,3.79,11,11,0,0,1-5.94,1.84q-5.86,0-8.7-2.21-6-4.67-6-16.21c0-.74,0-1.84.11-3.29s.11-2.56.11-3.3c0-.58,0-1.46,0-2.62s.05-2,.05-2.63a8.8,8.8,0,0,1,.66-3.4c.6-1.41,1.43-2.12,2.5-2.12a3.37,3.37,0,0,1,2.23.81,2.71,2.71,0,0,1,1.06,2.2c0,.85,0,2.14,0,3.87s0,3,0,3.9c0,.72,0,1.8-.12,3.26s-.11,2.53-.11,3.25a24.24,24.24,0,0,0,.82,6.47,9.1,9.1,0,0,0,2.83,5q1,.73,4.59.78,6,.1,8.17-10.32a80.56,80.56,0,0,0,1.1-15.15,4.6,4.6,0,0,1,.75-2.48,3.32,3.32,0,0,1,2.94-1.58,2.63,2.63,0,0,1,2.34,1.15,3.17,3.17,0,0,1,.6,1.88,90.27,90.27,0,0,1-.85,14.14A29.87,29.87,0,0,1,711.6,196.36Z"/><path d="M756,194.69a26.16,26.16,0,0,1-.39,3.62,3.09,3.09,0,0,1-3.35,3,5.81,5.81,0,0,1-3.63-1.82q-8.83-8-19.94-22.33-.13,6-.14,7.32c0,1.21,0,3,.08,5.47s.08,4.25.08,5.46q0,6.76-3.3,6.77a3.6,3.6,0,0,1-2.69-1,3.08,3.08,0,0,1-.89-2.22c0-.61,0-1.54.15-2.78s.15-2.16.15-2.78c0-.9,0-2.25.09-4.06s.09-3.16.09-4.06,0-2.42-.07-4.36-.07-3.4-.07-4.36-.09-2.29-.27-4.11-.28-3.19-.28-4.11a3.25,3.25,0,0,1,1.18-2.45,3.9,3.9,0,0,1,2.7-1.08c1.13,0,2.39,1,3.76,2.94a150.84,150.84,0,0,0,20.57,24.25c0-.48,0-1.65,0-3.48q0-11.32-.23-15.26c0-.45-.13-1.27-.3-2.48a19.6,19.6,0,0,1-.23-2.53q0-3.17,3.35-3.16,3.74,0,3.74,11.54c0,.17,0,1.38,0,3.62Q756,191.85,756,194.69Z"/><path d="M788.59,186.84a19.91,19.91,0,0,1-6.28,10.95,16.72,16.72,0,0,1-11.25,4.13q-6.1,0-9.16-3.23t-3-9.67A28.42,28.42,0,0,1,761.74,177a28.86,28.86,0,0,1,7.44-10,10.46,10.46,0,0,1,6.84-2.69,17,17,0,0,1,6.06,1.61q4.54,1.91,4.54,4.06a3.28,3.28,0,0,1-3.26,3.19,9.15,9.15,0,0,1-3-1.3,9.08,9.08,0,0,0-4.3-1.29q-2.07,0-5.58,4.45a22.16,22.16,0,0,0-5.12,14c0,2.56.38,4.29,1.13,5.21s2.33,1.45,4.61,1.45a10,10,0,0,0,6.17-2,12.24,12.24,0,0,0,4.18-6.15,27.7,27.7,0,0,0-9.27,2.18,3.48,3.48,0,0,1-1.42.32,3,3,0,0,1-2.37-1.06,3.1,3.1,0,0,1-.85-2.13q0-3.51,8.31-4.91a67.24,67.24,0,0,1,10.93-.78,3.22,3.22,0,0,1,2.3.89,3.11,3.11,0,0,1-.45,4.8Z"/><path d="M815.74,200.61a3.28,3.28,0,0,1-2.27-1,38.62,38.62,0,0,0-15.28-9.05q.25,6.69.25,7.42a3,3,0,0,1-.92,2.21,3.35,3.35,0,0,1-4.59,0A3,3,0,0,1,792,198c0-1.15,0-2.87,0-5.16s.05-4,.05-5.15l0-18.52a4.46,4.46,0,0,1,.9-2.71,3.46,3.46,0,0,1,3.23-1.4c3.72.28,5.62.42,5.72.44a16.2,16.2,0,0,1,5.46,1.54q9.79,4.94,9.8,12.23a7.76,7.76,0,0,1-2.06,5.31,15.53,15.53,0,0,1-6.16,3.89,34.34,34.34,0,0,1,9.16,6.93,3.08,3.08,0,0,1,.8,2,3,3,0,0,1-1,2.22A3.19,3.19,0,0,1,815.74,200.61ZM801,171.74c-.12,0-1-.08-2.68-.18v12.18c.38,0,.72,0,1,0,3.75,0,6.52-.46,8.33-1.39a8.33,8.33,0,0,0,2.14-1.59c.65-.66,1-1.15,1-1.49,0-1.71-1.09-3.37-3.26-5A13.27,13.27,0,0,0,801,171.74Z"/><path d="M847.69,172q-1.17,2.42-4.71,10.42-2.94,6.7-5,10.51c-2.39,4.41-3.66,6.74-3.83,7a3.79,3.79,0,0,1-3.12,2,3.29,3.29,0,0,1-2.23-.83,2.88,2.88,0,0,1-1-2.27q0-1.12,4.79-9.45-1.77-2.55-5.07-7.74-2.47-3.81-7.27-11.49a3.15,3.15,0,0,1-.46-1.63,2.88,2.88,0,0,1,1-2.25,3.27,3.27,0,0,1,2.25-.85,3.51,3.51,0,0,1,2.75,1.54l1.72,2.75,4,6.7a63.74,63.74,0,0,0,4.22,6.5q1.76-3.53,5-10.63c.46-1.06,1.15-2.65,2.06-4.8a3,3,0,0,1,3-2.06,3.3,3.3,0,0,1,2.22.82A2.82,2.82,0,0,1,849,168.5,11.54,11.54,0,0,1,847.69,172Z"/><path d="M855.33,201.85a3.35,3.35,0,0,1-2.57-1.47,4.15,4.15,0,0,1-1.08-2.52,2.53,2.53,0,0,1,.94-2,3.18,3.18,0,0,1,2.14-.8,3.3,3.3,0,0,1,2.54,1.46,4.17,4.17,0,0,1,1.08,2.51,2.56,2.56,0,0,1-.93,2A3.1,3.1,0,0,1,855.33,201.85Zm.07-8.33a2.9,2.9,0,0,1-2.12-.81,2.65,2.65,0,0,1-.84-2c0-.6,0-1.49-.06-2.68s-.06-2.07-.06-2.67q0-3.16.06-9.5c0-4.23.06-7.39.06-9.5a2.68,2.68,0,0,1,.85-2,3.12,3.12,0,0,1,4.22,0,2.68,2.68,0,0,1,.85,2V190.7a2.65,2.65,0,0,1-.84,2A2.92,2.92,0,0,1,855.4,193.52Z"/><path class="cls-32" d="M195,701.83c-2.95-10.53-60-7.58-102,5.07-14.67,4.42-21.89,8.33-22,12.69-.18,7.17,19,12.7,22,13.53,38.42,10.68,76.59-11.5,83-15.22C187.82,711,196.21,706.15,195,701.83Z"/><path class="cls-32" d="M406.75,735.6l-11.37-21.87a1.55,1.55,0,0,1,0-1.45L476,563.06a.54.54,0,0,0,0-.11c.58-1.33,12.28-27.85,24-24,12,4,11,8.14,10,12-.86,3.18-14.9,19.7-21.19,25.77a1.54,1.54,0,0,0,1.87,2.43l.09-.05a1.52,1.52,0,0,0,.4-.36L512,553c6.71-7.54,15.1.79,18,4a3.19,3.19,0,0,1,0,3c-24.23,29.12-50.68,64.32-51.95,65.94a.6.6,0,0,0-.09.13L409.43,735.71A1.55,1.55,0,0,1,406.75,735.6Z"/><path class="cls-33" d="M203.5,662.5c-10.84,22.77-43.08,94.63-52,139-12,59.6-27.61,137.35,17,196,6.85,9,4.18-6.69,94,54,18.5,12.5,15,5,117-67a79.19,79.19,0,0,0,16.58-15.66C441,919,475.5,741.5,380.5,659.5,370.4,650.78,365.14,653.66,203.5,662.5Z"/><ellipse class="cls-8" cx="331.5" cy="308" rx="30.5" ry="24"/><path class="cls-34" d="M312,290c-10.58-13.61-1.28-40,10-55,13.33-17.75,32.31-23.49,48-28,10.94-3.14,29.64-7.15,68-4,40.13,3.3,47.53,10,111,19,23.34,3.32,36.91,4.49,54,2,25.38-3.69,38.6-12.54,41-9,3.73,5.49-21.3,36.85-58,55-11.51,5.69-22.83,9.43-101,17-72.89,7.06-39.48,1.53-104,7C335.77,297.83,320.15,300.48,312,290Z"/><path class="cls-32" d="M126,525c-14.16,10.41-21.62,21.89-23.78,33.77-7.17,39.39,51.7,81.7,88.9,99.86C233.37,679.25,271.54,680,281,680c12.12,0,114.3-1.78,159.58-76.82,13-21.56,20.42-47.51,20.42-77.68,0-100.79-79.24-173.23-176-182.5C118,327,209,464,126,525Z"/><ellipse cx="354.5" cy="511.29" rx="39.5" ry="57.29"/><circle class="cls-6" cx="361.71" cy="525.76" r="12.66"/><circle class="cls-6" cx="334.08" cy="492.82" r="22.31"/><ellipse cx="241.5" cy="511.29" rx="39.5" ry="57.29"/><circle class="cls-6" cx="258.71" cy="523.76" r="12.66"/><circle class="cls-6" cx="224.08" cy="490.82" r="22.31"/><ellipse class="cls-4" cx="412" cy="568.63" rx="26" ry="16.63"/><ellipse class="cls-4" cx="169" cy="568.63" rx="26" ry="16.63"/><path class="cls-34" d="M171.83,402.39l6.67,25.11,28.58-47.7,8.42,23.7L254.37,376h0a19.65,19.65,0,0,0,31.86,15.34L298,382l10.5,34.48,30.9-14.75,18.1,25.75h28c26-32,0-59,0-59l-16-37-37-11h-103s27-7-22,0S171.83,402.39,171.83,402.39Z"/><path class="cls-34" d="M394.5,348.5c-9.53-8.35-24.09-18.73-27-16s8.87,13.67,16,35c4.94,14.78,5.29,28.85,6,57s-1.2,36.72,5,41c8,5.51,23.47,0,32-9,15-15.94,8-42.58,5-54C424.1,374.43,405.51,358.14,394.5,348.5Z"/><path d="M249.82,612.67c36.8,55.08,86,5.63,81.15-27.67"/><circle class="cls-35" cx="290.5" cy="800.5" r="64.5"/><path d="M293.54,809.51l53.92-36.18c1.6-1.08.1-3.68-1.51-2.6L292,806.92c-1.6,1.07-.1,3.67,1.51,2.59Z"/><path d="M295.09,863.18l-1.23-126.94a1.5,1.5,0,0,0-3,0l1.23,126.94a1.5,1.5,0,0,0,3,0Z"/><path d="M292.51,806.59,234.94,769c-1.62-1.06-3.13,1.54-1.52,2.59L291,809.18c1.62,1.06,3.13-1.53,1.51-2.59Z"/><path d="M222.48,896.59l-.74,3.53h-2l3-12.87h2.6l3.07,12.87h-2.1l-.75-3.53Zm2.73-1.74c-.57-2.7-1-4.58-1.18-5.73H224c-.16,1.16-.61,3.22-1.14,5.73Z"/><path d="M229.66,893.39c0-2,0-2.54,0-3h1.9a9,9,0,0,1,.07,1.1,2.27,2.27,0,0,1,2.21-1.28c1.53,0,2.5.94,2.5,3v7h-2v-6.53c0-1-.26-1.71-1.23-1.71s-1.47.61-1.47,2.27v6h-2Z"/><path d="M238.42,890.36h2v9.76h-2Zm0-3.74h2v2.15h-2Z"/><path d="M242.52,893.29c0-1.87,0-2.5,0-2.93h1.88a7.91,7.91,0,0,1,.07,1.08,2.28,2.28,0,0,1,2.16-1.25,1.88,1.88,0,0,1,2,1.37,2.53,2.53,0,0,1,2.39-1.37c1.33,0,2.44.67,2.44,2.9v7h-2v-6.73c0-.85-.26-1.51-1.15-1.51S249,892.71,249,894v6.16h-2v-6.69c0-1-.34-1.53-1.14-1.53-1,0-1.39.77-1.39,2.14v6.08h-2Z"/><path d="M261.55,898.13c0,.52,0,1.6.07,2h-1.79a6.3,6.3,0,0,1-.09-1,2.3,2.3,0,0,1-2.24,1.14,2.57,2.57,0,0,1-2.58-2.87c0-1.93,1.31-3.18,3.82-3.18.37,0,.63,0,.87,0v-1.14c0-.63-.1-1.4-1.19-1.4s-1.2.75-1.26,1.4h-1.88c0-1.43.71-2.93,3.21-2.93,2,0,3.06.94,3.06,2.79Zm-1.89-2.41a6.14,6.14,0,0,0-.81,0c-1.44,0-2,.68-2,1.57a1.26,1.26,0,0,0,1.26,1.42c1.24,0,1.54-.91,1.54-2.56Z"/><path d="M263.67,900.12v-13.5h2v13.5Z"/><path d="M269,897.21a1.43,1.43,0,0,0,1.43,1.56,1.12,1.12,0,0,0,1.26-1.21c0-.79-.38-1.2-1.58-1.65-2.21-.83-2.78-1.6-2.78-3a2.7,2.7,0,0,1,3-2.73,2.75,2.75,0,0,1,3.06,3h-1.89c0-.38-.07-1.42-1.22-1.42a1,1,0,0,0-1.06,1.06c0,.67.35,1,1.58,1.45,2,.75,2.8,1.51,2.8,3.12,0,1.87-1.17,2.95-3.3,2.95a2.93,2.93,0,0,1-3.27-3.08Z"/><path d="M280.56,896.59l-.74,3.53h-2l3-12.87h2.6l3.07,12.87h-2.1l-.75-3.53Zm2.73-1.74c-.57-2.7-1-4.58-1.18-5.73h-.05c-.16,1.16-.61,3.22-1.14,5.73Z"/><path d="M287.75,893.67c0-1.59,0-2.62,0-3.31h1.88c0,.19.05.62.05,1.65a2.54,2.54,0,0,1,2.57-1.81v2.2c-1.63,0-2.52.66-2.52,2.49v5.23h-2Z"/><path d="M294.93,895.72c0,1.46.21,2.94,1.56,2.94a1.45,1.45,0,0,0,1.47-1.44h1.9a3.23,3.23,0,0,1-3.39,3.09c-3.07,0-3.5-2.66-3.5-5.11,0-3.1,1.14-5,3.55-5,2.75,0,3.41,2.12,3.41,4.63,0,.29,0,.71,0,.9Zm3.05-1.46c0-1.19-.19-2.43-1.46-2.43-1.46,0-1.54,1.74-1.55,2.43Z"/><path d="M305.24,887.25h6.38V889h-4.4v3.65h4.13v1.73h-4.13v5.73h-2Z"/><path d="M312.67,893.67c0-1.59,0-2.62,0-3.31h1.89c0,.19,0,.62,0,1.65a2.54,2.54,0,0,1,2.57-1.81v2.2c-1.63,0-2.52.66-2.52,2.49v5.23h-2Z"/><path d="M318.39,890.36h2v9.76h-2Zm0-3.74h2v2.15h-2Z"/><path d="M324,895.72c0,1.46.22,2.94,1.56,2.94a1.45,1.45,0,0,0,1.47-1.44h1.9a3.23,3.23,0,0,1-3.39,3.09c-3.07,0-3.5-2.66-3.5-5.11,0-3.1,1.14-5,3.55-5,2.75,0,3.41,2.12,3.41,4.63,0,.29,0,.71,0,.9Zm3-1.46c0-1.19-.19-2.43-1.46-2.43-1.46,0-1.54,1.74-1.55,2.43Z"/><path d="M330.59,893.39c0-2,0-2.54,0-3h1.9a9.44,9.44,0,0,1,.06,1.1,2.28,2.28,0,0,1,2.21-1.28c1.53,0,2.51.94,2.51,3v7h-2v-6.53c0-1-.26-1.71-1.24-1.71s-1.47.61-1.47,2.27v6h-2Z"/><path d="M345.92,886.62v10.86c0,1.08,0,2.07,0,2.64H344c0-.24-.07-.79-.07-1.13a2.06,2.06,0,0,1-2.21,1.3c-2.05,0-2.88-1.81-2.88-5.14,0-3,1-5,3.24-5,1.13,0,1.63.44,1.83.85v-4.42Zm-5,8.56c0,2.45.48,3.43,1.52,3.43,1.28,0,1.59-1,1.59-3.5s-.25-3.23-1.49-3.23C341.51,891.88,340.89,892.69,340.89,895.18Z"/><path d="M349.22,897.21a1.42,1.42,0,0,0,1.42,1.56,1.12,1.12,0,0,0,1.26-1.21c0-.79-.38-1.2-1.57-1.65-2.21-.83-2.79-1.6-2.79-3s.83-2.73,3-2.73a2.76,2.76,0,0,1,3.06,3h-1.9c0-.38-.07-1.42-1.21-1.42a1,1,0,0,0-1.07,1.06c0,.67.35,1,1.58,1.45,2,.75,2.81,1.51,2.81,3.12,0,1.87-1.18,2.95-3.3,2.95a2.94,2.94,0,0,1-3.28-3.08Z"/><path d="M257,922.12V909.27h2.61c2.66,7.1,3.17,8.46,3.32,9.09h0c-.11-1.55-.11-3.44-.11-5.55v-3.54h2.06v12.85h-2.51c-2.75-7.57-3.23-8.94-3.4-9.53h0c.1,1.59.1,3.48.1,5.78v3.75Z"/><path d="M275,915.6c0,4.7-1.28,6.74-4.24,6.74-2.77,0-4.12-2-4.12-6.77s1.57-6.51,4.23-6.51S275,911.13,275,915.6Zm-6-.05c0,3.05.47,4.86,1.82,4.86s1.82-1.68,1.82-4.86c0-3-.43-4.54-1.83-4.54S269,912.68,269,915.55Z"/><path d="M278.28,911.28h-2.75v-2h7.8v2h-2.75v10.84h-2.3Z"/><path d="M288.1,909.27h6.61v2h-4.32v3.31h4.07v2h-4.07v5.55H288.1Z"/><path d="M304.21,915.6c0,4.7-1.27,6.74-4.24,6.74-2.76,0-4.11-2-4.11-6.77s1.57-6.51,4.22-6.51C302.88,909.06,304.21,911.13,304.21,915.6Zm-6-.05c0,3.05.46,4.86,1.81,4.86s1.82-1.68,1.82-4.86c0-3-.43-4.54-1.82-4.54S298.22,912.68,298.22,915.55Z"/><path d="M314,915.6c0,4.7-1.28,6.74-4.24,6.74-2.77,0-4.12-2-4.12-6.77s1.57-6.51,4.22-6.51C312.7,909.06,314,911.13,314,915.6Zm-6-.05c0,3.05.46,4.86,1.81,4.86s1.83-1.68,1.83-4.86c0-3-.44-4.54-1.83-4.54S308,912.68,308,915.55Z"/><path d="M315.84,909.27h3.35c3.3,0,4.59,2.12,4.59,6.16,0,4.34-1.23,6.69-4.77,6.69h-3.17Zm2.32,11H319c1.8,0,2.42-1.35,2.42-4.8,0-3-.55-4.26-2.4-4.26h-.84Z"/><path class="cls-3" d="M1318.79,907c44.43,90.25-70.61,172-146.88,172s-185.6-94.91-138.1-183.75c63.78-119.31,61.83-159.75,138.1-159.75S1232.18,731.05,1318.79,907Z"/><path class="cls-36" d="M1190.63,678.74l-7-2.93c-8.95,0-14.63,10.72-17,19.9l-4.1,27.61c0,6.73-4,16.86,12.29,12.18h3.51Z"/><path class="cls-37" d="M1192.75,737.28a84.38,84.38,0,0,1-17.87-2.1c2.2-3.42,13.84-20.8,26.61-26.23,8.39-3.57,20.46-4.32,29.1-4.32,4.37,0,7.83.19,9.34.29a102.52,102.52,0,0,1-28.38,27.92c-4.45,2.95-10.78,4.44-18.8,4.44Z"/><path d="M1230.59,705.13c3.66,0,6.69.13,8.45.24a103.16,103.16,0,0,1-27.76,27c-4.37,2.9-10.61,4.36-18.53,4.36a83.88,83.88,0,0,1-17.06-1.93c2.93-4.46,14-20.33,26-25.44,8.31-3.54,20.3-4.28,28.9-4.28m0-1c-8.59,0-20.79.74-29.3,4.36-14.42,6.13-27.21,27-27.21,27a83.82,83.82,0,0,0,18.67,2.28c6.66,0,13.81-1,19.08-4.52,19.6-13,29-28.77,29-28.77s-4.23-.36-10.21-.36Z"/><line class="cls-38" x1="1180.23" y1="735.79" x2="1240.5" y2="704.78"/><path class="cls-38" d="M1218.24,705.2c-4.26,1.13,1.92,18.41,6.32,18"/><path class="cls-38" d="M1208.63,706.55c-5.16,3.11,1.65,20.43,10.22,21.05"/><path class="cls-38" d="M1192.24,714.67c-4,4.59,1.54,23,11.4,21.71"/><path class="cls-38" d="M1185,721.53c-1.64,3.72.85,14.74,4.72,15.83"/><path class="cls-38" d="M1201.3,708.87c-5.14,3.17,2.6,22.4,11.39,23.46"/><ellipse class="cls-4" cx="1073.01" cy="992.69" rx="25.16" ry="16.09"/><ellipse class="cls-4" cx="1281.92" cy="1000.29" rx="25.16" ry="16.09"/><ellipse cx="1132.99" cy="941.48" rx="38.33" ry="55.59"/><ellipse cx="1238.91" cy="941.48" rx="38.33" ry="55.59"/><circle class="cls-6" cx="1139.72" cy="955.53" r="12.29"/><circle class="cls-6" cx="1251.49" cy="957.28" r="12.29"/><circle class="cls-6" cx="1219.31" cy="925.68" r="21.65"/><circle class="cls-6" cx="1113.39" cy="921.59" r="21.65"/><path d="M1152,1008.78c0,42.13,57.93,33.35,70.22,14"/><path class="cls-33" d="M1430,1077.63c-27.78,2.63-58.89,1.88-83.41-13-9.2-5.59-17.7-13.19-22.69-23.2a58.63,58.63,0,0,1-5.74-31.77c1-11.86,5.64-23.19,11.76-33.09a92.6,92.6,0,0,1,25.1-26.33c21.79-15.52,48.41-21,74.54-18.57S1481.84,944,1504,959.33c9.23,6.41,18.22,13.76,25.29,22.65,5.68,7.15,11,15.65,12.24,25a35.87,35.87,0,0,1-5.29,24.1c-5.37,8.78-14,15.3-22.57,20.66C1488.77,1067.34,1458.73,1074.5,1430,1077.63Z"/><path class="cls-33" d="M1428,931.77a162.1,162.1,0,0,1,40.2,9.67,179.77,179.77,0,0,1,34.16,18c9.24,6.47,18,13.72,25.25,22.62,5.66,7.27,10.84,15.47,12.21,24.94,1,9-.81,16.37-5.28,24-5.66,8.83-14,15.17-22.54,20.62-11.52,7.12-24,12.14-36.8,16.26a251.08,251.08,0,0,1-46.76,9.59,196.76,196.76,0,0,1-46.65-.7c-12.77-2.12-25.36-5.6-36.68-12.33-9.22-5.74-17.52-13.13-22.65-23.17a59.68,59.68,0,0,1-5.73-31.68c1.11-11.92,5.66-23,11.73-33a97,97,0,0,1,25-26.29,109.37,109.37,0,0,1,34.23-15.73m40.7,143.16c28.74-3.14,58.61-10.37,83.74-25.92,15.16-9.38,34-26.39,30.78-46.77-3.27-20.84-24.67-35-40.49-45.83C1480.36,944,1454.44,934,1428,931.51h0c-47.17-4.46-106,22.73-111.53,78.13m28.47,55.09"/><path class="cls-2" d="M1403.17,931.54c0,67.88-31.44,122.81-70.29,122.81l-13.68-21.73-2.57-24,3.65-15.7,8.21-17,11.9-15.61,13.15-10.52,18.14-9.87,17.41-6.14a39,39,0,0,1,13-2.23Z"/><path class="cls-33" d="M1481,947.4l-35.77-8.86,6.5-38.27,12.56,6.75c4.89,2.63,13.91,34.63,17,39.27"/><polygon class="cls-33" points="1529.86 980.95 1559.5 950.8 1544.78 990.18 1573 1011.33 1534.89 1007.3 1529.86 980.95"/><path class="cls-2" d="M1427.68,922.78q.87,19.63,1.75,39.27"/><ellipse cx="1349.02" cy="996.57" rx="16.38" ry="23.76"/><circle class="cls-6" cx="1341.64" cy="1002.57" r="5.25"/><circle class="cls-6" cx="1355.89" cy="990.57" r="9.25"/><path class="cls-39" d="M1319.59,1032.71c5.5-4.63,14.71-2.73,20.58,4.25"/><ellipse class="cls-4" cx="1375.9" cy="1020.96" rx="10.76" ry="6.88"/><ellipse class="cls-4" cx="989" cy="532.5" rx="148.5" ry="142.5"/><path class="cls-6" d="M989,396c38.15,0,74,14.26,100.93,40.15s41.57,60,41.57,96.35-14.76,70.59-41.57,96.35S1027.15,669,989,669s-74-14.26-100.93-40.15-41.57-60-41.57-96.35,14.76-70.59,41.57-96.35S950.85,396,989,396m0-12c-85.33,0-154.5,66.49-154.5,148.5S903.67,681,989,681s154.5-66.49,154.5-148.5S1074.33,384,989,384Z"/><polygon class="cls-40" points="949.09 466.74 949.09 598.26 1068.82 532.96 949.09 466.74"/></svg>
