<svg id="Layer_1" data-name="Layer 1" xmlns="http://www.w3.org/2000/svg" viewBox="0 0 730 855"><defs><style>.cls-1{fill:#a3d399;}.cls-2{fill:#ed7b81;}.cls-3{fill:none;}.cls-4{fill:#fff;}</style></defs><title>strawberry</title><rect class="cls-1" x="444.5" y="630.5" width="39" height="166"/><rect class="cls-1" x="324.5" y="624.5" width="39" height="166"/><path class="cls-2" d="M319.81,746.76c-24.14-.13-44.17,20.85-43.95,44.9,0,.22,0,.43,0,.64l57.8-.23,29.62-.12C363,767.1,343.4,746.88,319.81,746.76Z"/><path class="cls-1" d="M110,463.92l49.15,44.62c31.45,27.65,89.75,11.84,89.75,11.84l-3.71-24.73-56.36-11.78-61.16-32.29Z"/><path class="cls-2" d="M277,568.33c71.5,123.85,188.5,123.85,260,0L666.71,343.67c71.5-123.85,13-225.17-130-225.17H277.29c-143,0-201.5,101.32-130,225.17Z"/><path d="M281.28,243.78c5.79,0,5.8-9,0-9s-5.8,9,0,9Z"/><path d="M322,290.07c5.79,0,5.8-9,0-9s-5.8,9,0,9Z"/><path d="M436.83,295.63c5.79,0,5.8-9,0-9s-5.8,9,0,9Z"/><path d="M462.76,471.56c5.79,0,5.8-9,0-9s-5.8,9,0,9Z"/><path d="M346.09,430.81c5.79,0,5.8-9,0-9s-5.8,9,0,9Z"/><path d="M394.24,382.67c5.79,0,5.8-9,0-9s-5.8,9,0,9Z"/><path d="M397.94,301.19c5.8,0,5.81-9,0-9s-5.8,9,0,9Z"/><path d="M420.17,247.48c5.79,0,5.8-9,0-9s-5.8,9,0,9Z"/><path d="M516.46,221.56c5.79,0,5.8-9,0-9s-5.8,9,0,9Z"/><path d="M577.57,338.22c5.8,0,5.8-9,0-9s-5.8,9,0,9Z"/><path d="M485,349.33c5.79,0,5.8-9,0-9s-5.8,9,0,9Z"/><path d="M523.87,267.85c5.79,0,5.8-9,0-9s-5.8,9,0,9Z"/><path d="M614.61,238.22c5.79,0,5.8-9,0-9s-5.8,9,0,9Z"/><path d="M564.61,388.22c5.79,0,5.8-9,0-9s-5.8,9,0,9Z"/><path d="M464.61,430.81c5.79,0,5.8-9,0-9s-5.8,9,0,9Z"/><path d="M353.5,567.85c5.79,0,5.8-9,0-9s-5.8,9,0,9Z"/><path d="M301.65,441.93c5.79,0,5.8-9,0-9s-5.8,9,0,9Z"/><path d="M279.43,340.07c5.79,0,5.8-9,0-9s-5.8,9,0,9Z"/><path d="M216.46,291.93c5.79,0,5.8-9,0-9s-5.8,9,0,9Z"/><path d="M362.76,208.59c5.79,0,5.8-9,0-9s-5.8,9,0,9Z"/><path d="M309.06,154.89c5.79,0,5.8-9,0-9s-5.81,9,0,9Z"/><path d="M201.65,210.44c5.79,0,5.8-9,0-9s-5.8,9,0,9Z"/><path d="M423.87,506.74c5.79,0,5.8-9,0-9s-5.8,9,0,9Z"/><path d="M446.09,569.7c5.79,0,5.8-9,0-9s-5.8,9,0,9Z"/><path d="M523.87,534.52c5.79,0,5.8-9,0-9s-5.8,9,0,9Z"/><path d="M533.13,460.44c5.79,0,5.8-9,0-9s-5.8,9,0,9Z"/><path d="M566.46,288.22c5.79,0,5.8-9,0-9s-5.8,9,0,9Z"/><path d="M599.8,204.89c5.79,0,5.8-9,0-9s-5.8,9,0,9Z"/><path d="M475.72,180.81c5.79,0,5.8-9,0-9s-5.8,9,0,9Z"/><path d="M390.54,166c5.79,0,5.8-9,0-9s-5.8,9,0,9Z"/><path d="M635,291.93c5.79,0,5.8-9,0-9s-5.8,9,0,9Z"/><path d="M622,358.59c5.79,0,5.8-9,0-9s-5.8,9,0,9Z"/><path d="M596.09,445.63c5.79,0,5.8-9,0-9s-5.8,9,0,9Z"/><path d="M320.17,512.3c5.79,0,5.8-9,0-9s-5.8,9,0,9Z"/><path d="M375.72,477.11c5.79,0,5.8-9,0-9s-5.8,9,0,9Z"/><path d="M403.5,434.52c5.79,0,5.8-9,0-9s-5.8,9,0,9Z"/><path d="M262.76,388.22c5.79,0,5.8-9,0-9s-5.8,9,0,9Z"/><path d="M336.83,349.33c5.79,0,5.8-9,0-9s-5.8,9,0,9Z"/><path d="M427.57,340.43c3.86,0,3.87-6,0-6s-3.86,6,0,6Z"/><path d="M499.8,314.5c3.86,0,3.86-6,0-6s-3.87,6,0,6Z"/><path d="M481.28,253.39c3.86,0,3.86-6,0-6s-3.87,6,0,6Z"/><path d="M555.35,183c3.86,0,3.87-6,0-6s-3.87,6,0,6Z"/><path d="M573.87,234.87c3.86,0,3.87-6,0-6s-3.87,6,0,6Z"/><path d="M616.46,307.09c3.86,0,3.87-6,0-6s-3.86,6,0,6Z"/><path d="M527.57,358.94c3.86,0,3.87-6,0-6s-3.86,6,0,6Z"/><path d="M505.35,408.94c3.86,0,3.87-6,0-6s-3.87,6,0,6Z"/><path d="M462.76,397.83c3.86,0,3.87-6,0-6s-3.87,6,0,6Z"/><path d="M472,592.28c3.86,0,3.87-6,0-6s-3.87,6,0,6Z"/><path d="M436.83,618.2c3.86,0,3.87-6,0-6s-3.86,6,0,6Z"/><path d="M407.2,588.57c3.86,0,3.87-6,0-6s-3.86,6,0,6Z"/><path d="M375.72,620.06c3.86,0,3.87-6,0-6s-3.86,6,0,6Z"/><path d="M286.83,542.28c3.86,0,3.87-6,0-6s-3.86,6,0,6Z"/><path d="M255.35,471.91c3.86,0,3.87-6,0-6s-3.87,6,0,6Z"/><path d="M218.31,390.43c3.87,0,3.87-6,0-6s-3.86,6,0,6Z"/><path d="M251.65,349.69c3.86,0,3.87-6,0-6s-3.87,6,0,6Z"/><path d="M190.54,310.8c3.86,0,3.86-6,0-6s-3.87,6,0,6Z"/><path d="M147.94,262.65c3.87,0,3.87-6,0-6s-3.86,6,0,6Z"/><path d="M179.43,253.39c3.86,0,3.86-6,0-6s-3.87,6,0,6Z"/><path d="M253.5,253.39c3.86,0,3.87-6,0-6s-3.87,6,0,6Z"/><path d="M270.17,305.24c3.86,0,3.86-6,0-6s-3.87,6,0,6Z"/><path d="M342.39,238.57c3.86,0,3.87-6,0-6s-3.87,6,0,6Z"/><path d="M264.61,221.91c3.86,0,3.87-6,0-6s-3.87,6,0,6Z"/><path d="M247.94,186.72c3.87,0,3.87-6,0-6s-3.86,6,0,6Z"/><path d="M597.94,401.54c3.87,0,3.87-6,0-6s-3.86,6,0,6Z"/><polygon class="cls-1" points="357.4 120.33 297.5 65.5 345.38 65.88 399.83 120.33 357.4 120.33"/><polygon class="cls-1" points="399.83 77.9 345.38 23.46 345.38 65.88 399.83 120.33 399.83 77.9"/><polygon class="cls-1" points="457.6 120.33 520.5 65.5 469.62 65.88 415.17 120.33 457.6 120.33"/><polygon class="cls-1" points="415.17 77.9 469.62 23.46 469.62 65.88 415.17 120.33 415.17 77.9"/><rect class="cls-1" x="392.5" y="23.5" width="28" height="97"/><polyline class="cls-3" points="420.5 39.5 392.5 39.5 407.5 23.5 390.5 35.5"/><ellipse cx="344" cy="387.5" rx="65.5" ry="95"/><circle class="cls-4" cx="365.5" cy="414.5" r="21"/><circle class="cls-4" cx="310.5" cy="360.5" r="37"/><ellipse cx="508" cy="393.5" rx="65.5" ry="95"/><circle class="cls-4" cx="529.5" cy="420.5" r="21"/><circle class="cls-4" cx="474.5" cy="366.5" r="37"/><path d="M349.09,513.06c4.23,71.88,104.38,34.61,123.41.44"/><path class="cls-1" d="M583.09,488.5l51.41,42c32,27,25,87,25,87h-25l-20-54-41-55.7Z"/><path class="cls-2" d="M484.81,750.76c-24.14-.13-44.17,20.85-43.95,44.9,0,.22,0,.43,0,.64l57.8-.23,29.62-.12C528,771.1,508.4,750.88,484.81,750.76Z"/></svg>
