<svg id="Layer_1" data-name="Layer 1" xmlns="http://www.w3.org/2000/svg" viewBox="0 0 660 940"><defs><style>.cls-1{fill:#f7c799;}.cls-2{fill:#f3bed5;}.cls-3{fill:#edf88d;}.cls-4{fill:#fff;}.cls-5,.cls-6{fill:#ed7b81;}.cls-6{stroke:#fff;stroke-miterlimit:10;stroke-width:2px;}</style></defs><title>vegetarian</title><path class="cls-1" d="M178.5,539.83c-2.95-10.53-60-7.58-102,5.07-14.67,4.42-21.89,8.33-22,12.69-.18,7.17,19,12.7,22,13.53,38.42,10.68,76.59-11.5,83-15.22C171.32,549,179.71,544.15,178.5,539.83Z"/><path class="cls-1" d="M390.25,573.6l-11.37-21.87a1.55,1.55,0,0,1,0-1.45l80.58-149.22a.54.54,0,0,0,0-.11c.58-1.33,12.28-27.85,24-23.95,12,4,11,8.14,10,12-.86,3.18-14.9,19.7-21.19,25.77a1.54,1.54,0,0,0,1.87,2.43l.09-.05a1.52,1.52,0,0,0,.4-.36L495.5,391c6.71-7.54,15.1.79,18,4a3.19,3.19,0,0,1,0,3c-24.23,29.12-50.68,64.32-51.95,65.94a.6.6,0,0,0-.09.13L392.93,573.71A1.55,1.55,0,0,1,390.25,573.6Z"/><path class="cls-2" d="M187,500.5c-10.84,22.77-43.08,94.63-52,139-12,59.6-27.61,137.35,17,196,6.85,9,4.18-6.69,94,54,18.5,12.5,15,5,117-67a79.19,79.19,0,0,0,16.58-15.66C424.5,757,459,579.5,364,497.5,353.9,488.78,348.64,491.66,187,500.5Z"/><ellipse class="cls-2" cx="315" cy="146" rx="30.5" ry="24"/><path class="cls-3" d="M295.5,128c-10.58-13.61-1.28-40,10-55,13.33-17.75,32.31-23.49,48-28,10.94-3.14,29.64-7.15,68-4,40.13,3.3,47.53,10,111,19,23.34,3.32,36.91,4.49,54,2,25.38-3.69,38.6-12.54,41-9,3.73,5.49-21.3,36.85-58,55-11.51,5.69-22.83,9.43-101,17-72.89,7.06-39.48,1.53-104,7C319.27,135.83,303.65,138.48,295.5,128Z"/><path class="cls-1" d="M109.5,363c-14.16,10.41-21.62,21.89-23.78,33.77-7.17,39.39,51.7,81.7,88.9,99.86C216.87,517.25,255,518,264.5,518c12.12,0,114.3-1.78,159.58-76.82,13-21.56,20.42-47.51,20.42-77.68,0-100.79-79.24-173.23-176-182.5C101.5,165,192.5,302,109.5,363Z"/><ellipse cx="338" cy="349.29" rx="39.5" ry="57.29"/><circle class="cls-4" cx="345.21" cy="363.76" r="12.66"/><circle class="cls-4" cx="317.58" cy="330.82" r="22.31"/><ellipse cx="225" cy="349.29" rx="39.5" ry="57.29"/><circle class="cls-4" cx="242.21" cy="361.76" r="12.66"/><circle class="cls-4" cx="207.58" cy="328.82" r="22.31"/><ellipse class="cls-5" cx="395.5" cy="406.63" rx="26" ry="16.63"/><ellipse class="cls-5" cx="152.5" cy="406.63" rx="26" ry="16.63"/><path class="cls-3" d="M155.33,240.39,162,265.5l28.58-47.7L199,241.5,237.87,214h0a19.65,19.65,0,0,0,31.86,15.34L281.5,220,292,254.5l30.9-14.75L341,265.5h28c26-32,0-59,0-59l-16-37-37-11H213s27-7-22,0S155.33,240.39,155.33,240.39Z"/><path class="cls-3" d="M378,186.5c-9.53-8.35-24.09-18.73-27-16s8.87,13.67,16,35c4.94,14.78,5.29,28.85,6,57s-1.2,36.72,5,41c8,5.51,23.47,0,32-9,15-15.94,8-42.58,5-54C407.6,212.43,389,196.14,378,186.5Z"/><path d="M233.32,450.67c36.8,55.08,86,5.63,81.15-27.67"/><circle class="cls-6" cx="274" cy="638.5" r="64.5"/><path class="cls-4" d="M277,647.51,331,611.33c1.6-1.08.1-3.68-1.51-2.6l-53.92,36.19c-1.6,1.07-.1,3.67,1.51,2.59Z"/><path class="cls-4" d="M278.59,701.18l-1.23-126.94a1.5,1.5,0,0,0-3,0l1.23,126.94a1.5,1.5,0,0,0,3,0Z"/><path class="cls-4" d="M276,644.59,218.44,607c-1.62-1.06-3.13,1.54-1.52,2.59l57.58,37.6c1.62,1.06,3.13-1.53,1.51-2.59Z"/></svg>
