<svg id="Layer_1" data-name="Layer 1" xmlns="http://www.w3.org/2000/svg" viewBox="0 0 1037 1040"><defs><style>.cls-1{fill:#a3d399;}.cls-2{fill:#ed7b81;}.cls-3{fill:#fff;}</style></defs><title>watermelon</title><path class="cls-1" d="M353.16,602c37.28,218.86,248.9,365.4,472.66,327.29q2.86-.49,5.71-1L689.31,137C466.39,175.76,316,383.62,353.16,602Z"/><path class="cls-2" d="M390.39,595.56C424.69,797,624.12,934,818.83,897.84c1.72-.32,3.44-.6,5.16-.92Q780.76,656.2,737.54,415.49q-22.15-123.37-44.3-246.75C492.11,206.61,356.88,398.76,390.39,595.56Z"/><path class="cls-1" d="M725.75,355.5c43-92.84,217.16-225.9,193-163.23-3,7.92,0,0-3.38,7.67-32.8,16.43-77,58.07-93.69,70.55-20.06,15-62.56,81.29-86.33,109.83"/><path class="cls-1" d="M365,499.06c-.51-18.91-81.72,25.41-117.42,50.72-25,17.72-105.81,75.05-94.5,125.78,1,4.42,8.87,7.75,14.32-1.24C274.31,497.83,366.91,570.07,365,499.06Z"/><circle cx="662.5" cy="388.5" r="48.5"/><circle cx="536.5" cy="409.5" r="48.5"/><circle class="cls-3" cx="556" cy="392" r="29"/><circle class="cls-3" cx="678" cy="368" r="28"/><ellipse class="cls-3" cx="648.5" cy="406" rx="14.5" ry="15"/><ellipse class="cls-3" cx="521.5" cy="429" rx="14.5" ry="15"/><path d="M566.82,519.67c40,59.86,114-7.61,113.11-46.71"/></svg>
